<svg width="25" height="25" viewBox="0 0 25 25" fill="none" xmlns="http://www.w3.org/2000/svg">
<path d="M11.676 16.3135C12.8478 16.3135 13.7919 15.7804 14.508 14.7144V10.3198C14.0441 9.78271 13.3443 9.4043 12.4084 9.18457C12.1317 9.11947 11.8143 9.08691 11.4562 9.08691C10.6506 9.08691 9.95885 9.4043 9.38105 10.0391C8.81139 10.6738 8.52656 11.5487 8.52656 12.6636C8.52656 13.7703 8.81953 14.6574 9.40546 15.3247C9.9914 15.9839 10.7482 16.3135 11.676 16.3135ZM14.9841 16.5088C14.2272 17.6318 12.9455 18.1934 11.1389 18.1934C10.5692 18.1934 9.97106 18.0632 9.34443 17.8027C8.72594 17.5423 8.19697 17.172 7.75751 16.6919C6.84606 15.6991 6.39033 14.3929 6.39033 12.7734C6.39033 11.1458 6.85826 9.79899 7.79414 8.73291C8.73001 7.66683 9.93444 7.13379 11.4074 7.13379C12.8804 7.13379 14.0686 7.53662 14.9719 8.34229C15.395 7.53662 15.9728 7.13379 16.7053 7.13379C17.218 7.13379 17.5598 7.33724 17.7307 7.74414C17.7795 7.84993 17.8039 7.98421 17.8039 8.14697C17.8039 8.48877 17.6127 8.78581 17.2302 9.03809C16.9779 9.22526 16.8151 9.45719 16.7419 9.73389C16.6686 10.0106 16.632 10.5884 16.632 11.4673V14.4458C16.632 15.1375 16.8314 15.6421 17.2302 15.9595C17.6289 16.2687 18.0602 16.4233 18.5241 16.4233C19.5007 16.4233 20.3023 15.9839 20.9289 15.105C21.5555 14.2261 21.8688 12.9077 21.8688 11.1499C21.8688 9.39209 21.409 7.84993 20.4894 6.52344C19.2199 4.69238 17.3197 3.52051 14.7888 3.00781C14.0075 2.84505 13.1652 2.76367 12.2619 2.76367C10.4227 2.76367 8.73815 3.19092 7.2082 4.04541C5.68639 4.89176 4.49417 6.0555 3.63154 7.53662C2.77705 9.01774 2.3498 10.5721 2.3498 12.1997C2.3498 15.2026 3.15953 17.5627 4.779 19.2798C6.39847 20.9888 8.34345 21.8433 10.614 21.8433C10.9069 21.8433 11.204 21.7782 11.5051 21.6479C11.8062 21.5259 12.0951 21.4648 12.3718 21.4648C12.8763 21.4648 13.2019 21.7212 13.3483 22.2339C13.389 22.3722 13.4094 22.5146 13.4094 22.6611C13.4094 23.0111 13.21 23.3447 12.8112 23.6621C12.4125 23.9795 11.7736 24.1382 10.8947 24.1382C9.04739 24.1382 7.29772 23.6702 5.6457 22.7344C3.99368 21.8066 2.66311 20.4639 1.654 18.7061C0.653023 16.9482 0.152534 14.9382 0.152534 12.6758C0.152534 10.4053 0.673368 8.37891 1.71503 6.59668C2.7567 4.81445 4.22561 3.39844 6.12177 2.34863C8.01793 1.29883 10.1786 0.773926 12.6037 0.773926C15.8589 0.773926 18.5811 1.75049 20.7702 3.70361C22.9593 5.65674 24.0539 8.11035 24.0539 11.0645C24.0539 13.1396 23.5087 14.8486 22.4182 16.1914C21.3358 17.526 19.9727 18.1934 18.3288 18.1934C16.6849 18.1934 15.57 17.6318 14.9841 16.5088Z" fill="white"/>
</svg>
