<svg width="913" height="904" viewBox="0 0 913 904" fill="none" xmlns="http://www.w3.org/2000/svg">
<path d="M912.544 429.646C925.642 650.817 653.996 903.592 432.43 903.592C210.874 903.592 -10.993 679.863 0.422435 439.416C12.2328 190.873 241.518 0.00830078 463.084 0.00830078C684.641 0.00830078 896.201 154.088 912.544 429.646Z" fill="#F17241"/>
<path d="M769.372 321.361C804.559 318.399 809.063 276.903 793.604 249.775C874.17 256.592 789.617 38.6092 682.713 149.011C653.526 179.148 659.723 246.71 619.346 262.629C564.92 284.096 546.264 207.01 582.542 213.902C567.28 185.279 626.52 143.52 613.393 102.287C621.094 102.043 628.786 100.472 636.431 100.247C651.927 58.3652 596.12 40.1795 564.572 52.3566C567.779 21.9657 550.035 4.5135 518.93 12.177C521.102 9.38431 522.7 6.64801 524.064 3.93991C503.922 1.33524 483.555 0 463.094 0C387.079 0 310.143 22.4735 241.406 62.0418C262.789 67.7589 282.629 74.4257 290.584 89.828C320.834 148.447 228.749 138.781 196.656 149.256C102.24 180.098 62.0414 370.013 191.278 335.795C192.199 341.239 192.745 357.046 191.729 362.424C194.409 363.111 206.163 361.964 207.79 364.183C214.447 414.471 159.542 410.014 126.772 427.231C79.55 452.046 65.0786 476.202 60.0761 531.098C50.2216 638.801 207.141 761.813 284.312 648.853C294.825 687.688 332.052 692.248 357.196 666.691C384.202 707.312 432.026 697.561 464.053 709.371C519.052 729.644 534.059 754.666 601.085 740.834C690.471 722.385 756.396 619.929 684.312 541.544C616.327 467.608 532.273 525.587 457.932 550.581C420.244 563.247 357.233 585.579 316.904 570.337C297.637 563.049 248.712 525.738 273.64 500.961C282.968 491.689 325.075 522.268 347.2 506.386C387.502 477.462 353.651 418.298 317.496 404.597C354.958 402.642 341.267 353.933 326.109 328.949C329.24 330.745 335.089 333.689 334.882 333.557C347.276 319.998 388.48 139.486 445.999 245.44C459.502 270.302 401.428 375.128 469.375 347.68C460.715 392.251 511.351 466.207 541.506 400.601C562.927 458.806 632.83 443.526 625.777 381.607C650.357 400.648 684.114 404.24 700.946 375.401C695.53 419.567 732.926 406.45 744.501 426.93C755.691 446.742 755.522 467.721 754.459 491.445C752.259 540.426 725.535 597.86 794.018 613.544C912.441 640.7 869.177 356.341 769.372 321.361Z" fill="#FF4F24"/>
<path d="M14.5938 562.853C18.9474 578.64 24.2414 594.165 30.3534 609.379C25.2193 592.99 20.0288 576.882 14.5938 562.853Z" fill="#FF4F24"/>
<path d="M553.515 780.826C499.504 773.699 492.122 805.143 435.948 772.203C410.983 757.563 414.65 743.317 381.1 738.033C357.902 734.375 339.406 751.676 327.878 750.05C300.468 746.204 294.995 723.373 267.83 718.286C242.056 713.462 235.351 727.943 213.282 730.585C175.839 735.052 130.356 737.901 95.1133 722C132.162 770.116 177.917 811.377 228.487 842.36C236.292 832.393 244.82 823.592 256.367 820.695C284.351 813.662 424.599 840.724 447.053 854.735C452.394 858.073 462.474 882.587 471.671 901.045C516.815 895.347 563.163 880.255 608.082 858.016C615.275 823.281 594.513 786.252 553.515 780.826Z" fill="#FF4F24"/>
<path opacity="0.59" d="M647.158 161.142C661.479 146.708 671.088 110.732 642.55 107.3C611.774 103.586 620.763 140.549 614.472 157.588C609.141 171.993 570.155 195.388 602.117 216.179C630.467 234.618 656.363 178.905 652.028 156.262L647.158 161.142Z" fill="#7D0204"/>
<path opacity="0.59" d="M434.601 470.325C460.836 431.359 440.065 403.3 418.061 373.445C410.022 362.528 391.375 374.3 383.787 357.563C377.261 343.167 400.252 322.865 393.087 309.814C373.312 273.734 351.863 285.751 351.863 330.096C351.863 352.184 377.929 389.139 392.381 404.945C372.597 420.197 369.729 430.108 390.604 446.545C300.814 544.61 528.266 545.052 434.592 464.382V470.325H434.601Z" fill="#7D0204"/>
<path opacity="0.59" d="M624.866 636.788C623.879 568.945 512.019 541.431 516.805 624.432C497.172 600.765 428.04 559.128 421.834 618.076C388.932 617.484 320.694 619.298 290.585 611.973C225.779 596.214 249.512 544.647 211.693 502.521C176.873 463.714 91.7467 453.145 89.0292 529.79C87.3367 577.718 159.506 625.514 201.829 609.275C201.096 659.901 317.704 625.081 357.291 630.836C392.007 635.876 449.404 686.521 476.222 662.938C489.64 685.195 510.816 691.721 529.725 674.382C538.339 706.87 592.651 721.341 620.371 703.644C653.339 682.6 646.362 623.624 624.866 636.788Z" fill="#7D0204"/>
<path opacity="0.59" d="M488.115 83.8569C508.764 33.3528 375.004 2.78321 380.204 100.933C343.222 84.8912 295.134 117.624 313.47 160.568C248.485 132.556 103.922 219.845 186.077 290.472C269.783 362.434 357.712 208.439 376.641 143.933C391.61 149.509 403.073 148.569 416.905 151.494C429.044 176.111 450.427 174.193 464.381 193.808C477.527 212.275 451.386 249.935 493.756 250.885C557.613 252.314 546.104 117.981 488.115 83.8569Z" fill="#7D0204"/>
<path opacity="0.59" d="M708.102 286.004C733.829 265.694 785.254 218.565 758.399 181.846C729.212 141.939 681.425 177.897 689.361 219.562C648.335 225.119 640.061 266.587 641.791 301.614C618.669 294.185 594.945 294.777 575.96 309.192C541.234 275.633 444.692 269.925 485.37 342.762C515.874 397.384 614.23 378.691 641.236 335.361C658.651 367.059 711.402 375.099 707.782 329.419C721.482 403.966 798.663 298.802 702.14 291.947L708.102 286.004Z" fill="#7D0204"/>
<path opacity="0.59" d="M642.701 779.49C680.153 799.34 725.533 770.83 752.529 740.909C772.906 718.313 814.148 619.976 750.31 646.163C760.597 636.318 754.899 634.786 760.691 625.787C701.019 609.03 692.613 682.412 713.459 718.831C688.616 715.248 663.604 722.056 661.122 747.567C651.079 745.178 636.166 747.068 625.813 744.699C620.632 762.442 630.505 760.458 642.71 767.605V779.49H642.701Z" fill="#7D0204"/>
<path opacity="0.59" d="M48.1435 398.974C49.4411 404.616 47.5887 410.117 49.0462 415.909C97.3876 426.855 116.871 353.021 66.4325 344.117C87.3639 324.991 106.227 279.432 66.4325 272.935C86.527 257.166 97.9612 230.847 96.5977 203.672C132.132 201.255 181.489 165.89 172.095 126.368C128.625 122.795 75.5912 219.441 59.5776 253.367C46.8458 280.382 -20.4241 426.967 48.1435 398.974Z" fill="#7D0204"/>
<path opacity="0.59" d="M714.045 535.724C743.637 576.157 766.016 429.252 701.709 438.392C698.164 403.121 655.267 402.275 647.913 438.373C596.046 419.304 567.93 480.104 618.942 500.03C640.588 508.483 659.244 487.815 679.978 498.441C698.305 507.834 689.879 535.696 708.103 547.619L714.045 535.724Z" fill="#7D0204"/>
<path opacity="0.59" d="M880.517 351.405C886.892 331.818 888.801 269.231 850.784 273.425C795.343 279.537 845.932 342.528 849.44 357.047C855.27 381.184 844.061 429.404 875.872 439.362C923.452 454.247 875.806 379.971 862.679 369.243L880.517 351.405Z" fill="#7D0204"/>
<path opacity="0.59" d="M428.659 797.329C422.867 757.817 369.749 734.676 356.302 784.522C319.621 780.742 265.205 742.819 233.648 765.518C210.535 710.435 137.2 766.628 176.44 806.017C191.155 820.79 269.606 811.546 291.919 815.148C334.045 821.965 358.033 816.558 399.529 816.21C439.266 815.881 469.14 854.444 499.117 839.549C499.935 849.479 506.404 857.847 506.856 867.787C547.919 879.014 565.202 839.126 541.892 808.942C517.434 777.3 473.616 797.959 428.659 797.329Z" fill="#7D0204"/>
<path opacity="0.59" d="M809.168 482.21C834.396 442.003 809.14 361.456 755.523 396.727C753.67 389.881 750.746 383.017 748.677 376.087C668.883 364.709 754.357 428.255 761.56 440.282C776.746 465.614 781.88 491.548 778.871 521.431C776.67 543.303 764.7 578.113 785.406 590.986C847.702 629.717 820.235 510.025 803.225 488.163L809.168 482.21Z" fill="#7D0204"/>
<path opacity="0.6" d="M268.13 232.492C349.119 171.926 165.241 125.381 207.94 214.635C174.71 225.947 129.8 257.974 190.836 274.42C234.749 286.249 247.274 241.161 274.072 220.606L268.13 232.492Z" fill="#750400"/>
<path opacity="0.66" d="M190.833 553.553C205.342 461.233 91.7801 478.431 129.458 524.253C27.5003 519.965 228.99 688.694 190.833 547.61V553.553Z" fill="#750400"/>
<path opacity="0.6" d="M589.19 666.531C605.899 647.659 600.238 598.02 565.4 600.418C517.5 603.718 548.822 663.118 583.238 666.531H589.19V666.531Z" fill="#750400"/>
<path opacity="0.6" d="M547.571 315.738C459.746 231.646 530.175 441.721 559.466 345.471L547.571 315.738Z" fill="#750400"/>
<path opacity="0.6" d="M476.22 125.485C463.517 100.82 415.655 20.546 410.775 98.7894C408.857 129.575 460.414 195.303 482.163 143.332L476.22 125.485Z" fill="#750400"/>
<path opacity="0.6" d="M529.732 838.937C529.149 778.061 491.791 815.288 470.286 809.797C440.685 802.237 420.092 779.162 387.52 780.365C408.394 814.64 440.722 802.886 470.258 822.585C493.041 837.781 498.994 871.811 528.548 874.143C534.274 861.956 537.828 846.657 535.675 832.994L529.732 838.937Z" fill="#750400"/>
<path opacity="0.6" d="M856.736 445.831C847.051 454.933 828.235 474.04 815.061 491.069C822.471 441.374 826.825 363.319 773.293 396.013C729.455 422.784 769.955 524.018 803.373 542.401C812.833 534.888 814.563 525.005 815.127 511.944C831.395 490.59 879.388 460.302 856.736 445.831Z" fill="#750400"/>
<path opacity="0.21" d="M878.646 342.527C859.455 299.254 800.384 210.16 785.085 167.413C778.193 148.127 774.309 131.361 769.062 115.47C685.901 39.982 575.81 0.00927734 463.085 0.00927734C438.853 0.00927734 414.546 2.41648 390.436 6.81714C426.817 48.9807 498.676 87.5617 522.155 107.515C569.773 147.977 597.004 202.214 570.186 262.356C559.11 287.19 540.153 295.013 535.564 323.016C531.399 348.395 551.098 375.824 547.685 405.209C539.965 471.754 457.998 585.175 382.133 583.84C341.738 583.125 334.046 548.051 308.291 532.433C292.371 522.776 262.798 519.955 250.292 510.862C218.275 487.561 224.434 459.051 178.791 452.375C126.124 444.673 135.631 475.196 101.601 497.528C61.3084 523.961 27.664 518.676 2.07812 496.861C16.0512 631.645 99.7577 755.588 209.925 830.371C290.867 856.84 355.626 884.956 430.522 876.916C671.007 851.095 988.099 589.387 878.646 342.527Z" fill="#000072"/>
<path opacity="0.27" d="M700.56 64.6646C632.011 96.1556 677.118 185.607 698.773 230.62C727.067 289.484 749.691 363.515 730.998 428.368C715.962 480.536 668.852 482.887 642.618 522.173C625.128 548.371 636.684 571.06 631.108 599.909C619.561 659.544 571.652 723.222 504.806 715.85C487.043 713.894 460.066 697.278 442.19 694.288C433.445 692.821 417.648 704.444 401.014 700.964C379.171 696.394 362.659 669.248 344.548 660.108C282.14 628.598 197.54 635.744 180.304 716.743C151.474 852.242 295.737 820.177 368.188 838.344C423.092 852.11 427.333 895.778 498.966 867.447C533.4 853.822 586.603 821.127 584.309 779.772C628.729 816.585 713.856 784.379 748.365 750.162C806.683 692.342 813.82 622.241 804.304 546.838C899.577 546.744 860.065 448.848 835.495 397.037C909.977 388.988 841.879 238.857 821.362 207.065L859.078 231.655C821.117 159.777 765.714 103.64 700.56 64.6646Z" fill="#000072"/>
<path opacity="0.37" d="M458.384 60.0858C409.224 0.441853 261.943 32.6193 261.304 118.639C192.134 116.486 162.872 141.696 128.193 199.788C111.042 228.515 114.418 234.025 90.0918 262.413C63.9793 292.888 35.7793 321.483 24.2417 363.271C6.64848 427.024 28.3227 506.64 104.629 511.699C135.847 513.768 143.219 482.352 174.748 504.553C189.671 515.065 191.41 554.06 214.645 569.885C306.862 632.717 414.772 591.296 423.921 482.85C476.56 512.066 524.497 493.739 548.052 434.669C556.449 413.615 562.439 369.561 556.816 348.226C551.371 327.529 523.867 311.262 523.359 291.92C522.664 265.347 689.033 161.809 594.259 155.057C606.332 149.35 622.487 115.799 603.126 95.7895C664.218 37.9509 502.024 54.1149 458.384 60.0858Z" fill="#FBB901"/>
<path opacity="0.4" d="M381.092 220.616C425.343 164.781 327.089 89.8095 302.453 142.599C279.528 130.967 252.513 135.311 243.157 160.577C102.571 74.3696 14.2852 489.47 214.873 362.444C248.912 403.422 197.909 454.218 272.279 470.777C361.044 490.533 396.362 383.356 393.899 316.218C492.763 361.804 498.781 136.355 381.092 220.616Z" fill="#FFE4A1"/>
<path opacity="0.58" d="M256.235 163.549C254.571 163.643 253.988 166.286 255.821 166.634C269.023 169.097 279.611 179.901 282.827 192.69C284.19 198.125 284.548 204.519 283.269 210.029C282.667 212.634 271.882 231.374 269.832 225.601C268.713 222.451 265.384 221.745 262.874 223.767C253.433 231.327 250.161 241.84 244.462 252.117C231.542 275.437 212.031 280.487 187.094 273.331C186.351 273.124 185.665 274.158 186.304 274.694C199.186 285.451 216.902 285.141 231.373 277.148C248.938 267.435 251.825 247.378 264.209 233.941C264.275 234.082 264.312 234.214 264.387 234.355C265.064 235.953 267.519 236.809 269.108 236.273C306.401 223.748 295.831 161.255 256.235 163.549Z" fill="#FFE4A1"/>
<path opacity="0.58" d="M199.245 564.356C196.039 550.675 197.092 541.253 199.207 527.797C204.022 497.049 158.689 466.874 132.464 482.643C131.213 483.395 131.317 485.624 132.897 485.934C143.428 488.031 154.213 486.978 164.576 490.241C172.296 492.667 181.078 497.575 186.447 503.772C197.411 516.429 192.324 525.615 189.832 539.147C185.554 562.4 217.261 592.885 180.881 606.905C180.702 606.971 180.721 607.244 180.928 607.244C193.246 607.564 199.123 597.455 201.267 586.143C202.828 577.934 201.05 572.039 199.245 564.356Z" fill="#FFE4A1"/>
<path opacity="0.58" d="M440.657 69.5927C440.262 69.4517 439.99 69.9971 440.262 70.2698C454.734 84.6001 467.926 97.1815 475.468 116.721C478.618 124.892 481.11 133.393 480.461 142.222C479.097 160.718 464.739 158.057 450.926 155.5C449.365 155.218 447.813 157.164 449.233 158.415C467.353 174.4 487.917 161.047 487.184 138.696C486.3 112.574 465.707 78.6103 440.657 69.5927Z" fill="#FFE4A1"/>
<path opacity="0.58" d="M554.594 331.873C548.266 314.91 532.76 297.204 513.869 295.285C513.136 295.21 513.041 296.329 513.7 296.536C528.171 301.04 540.696 314.214 547.203 327.613C550.372 334.13 553.183 342.433 551.557 349.786C549.272 360.101 540.621 361.258 533.108 366.27C532.083 366.947 532.572 368.282 533.691 368.432C554.321 371.103 560.217 346.946 554.594 331.873Z" fill="#FFE4A1"/>
<path opacity="0.58" d="M210.649 362.255C187.103 361.221 192.059 344.878 187.038 329.269C186.69 328.178 185.655 327.595 184.536 327.849C148.946 335.569 113.947 322.696 121.093 278.924C123.623 263.409 126.867 247.48 131.644 232.492C143.727 194.654 163.436 160.868 204.753 153.383C204.932 153.355 204.903 153.101 204.753 153.054C145.25 134.295 115.019 255.671 114.953 294.458C114.887 329.466 144.46 332.062 172.369 334.027C192.82 335.465 178.97 346.843 187.799 359.34C193.356 367.192 202.571 365.574 210.931 364.295C212.144 364.126 211.777 362.302 210.649 362.255Z" fill="#FFE4A1"/>
<path opacity="0.58" d="M390.595 220.192C390.125 220.643 390.726 221.461 391.291 221.104C411.667 208.466 437.911 202.759 452.909 226.483C462.153 241.095 462.228 257.522 456.473 273.103C451.471 286.653 443.798 300.974 433.727 311.44C429.552 315.765 424.051 321.2 417.826 322.235C408.583 323.767 404.605 316.743 397.619 312.596C396.538 311.957 395.475 313.01 395.654 314.101C398.578 331.516 418.87 331.835 430.755 323.749C447.549 312.333 458.72 290.687 464.513 271.777C479.116 224.198 429.731 182.476 390.595 220.192Z" fill="#FFE4A1"/>
<path opacity="0.58" d="M398.964 407.014C399.077 406.996 399.068 406.807 398.964 406.798C388.16 404.852 380.102 409.13 378.757 420.592C377.873 428.124 391.047 450.729 392.269 447.862C391.48 449.733 379.049 456.785 377.121 459.277C373.2 464.317 370.323 470.542 369.401 476.908C367.614 489.31 373.764 501.158 386.675 503.387C388.17 503.641 389.157 501.713 387.746 500.839C376.181 493.702 370.614 485.088 375.532 471.426C379.133 461.44 386.496 454.077 396.83 451.171C398.616 450.664 398.964 448.144 397.347 447.194C380.675 437.424 375.062 410.569 398.964 407.014Z" fill="#FFE4A1"/>
<path opacity="0.58" d="M595.799 628.449C592.075 613.827 578.769 593.037 560.913 602.205C559.803 602.769 560.612 604.33 561.722 604.104C579.211 600.719 588.803 613.479 593.128 629.182C596.41 641.096 597.745 656.291 584.9 662.008C584.393 662.234 584.562 663.043 585.06 663.174C600.707 667.293 597.576 635.445 595.799 628.449Z" fill="#FFE4A1"/>
<path opacity="0.3" d="M860.365 450.23C849.015 438.626 828.657 458.636 817.402 472.167C820.806 442.896 829.306 382.292 791.092 388.226C790.17 388.367 790.368 389.646 791.092 389.9C827.36 402.754 810.256 452.9 810.509 482.05C810.528 484.937 814.572 486.159 816.029 483.545C820.138 476.126 826.514 469.638 832.748 463.949C834.958 461.946 846.157 450.841 850.426 452.148C859.923 455.035 849.965 470.071 847.257 473.277C837.525 484.824 815.484 493.437 813.368 509.949C813.18 511.397 815.446 512.328 816.339 511.181C828.385 495.732 846.119 485.614 857.713 470.108C862.104 464.259 866.731 456.727 860.365 450.23Z" fill="#FFE4A1"/>
<path opacity="0.3" d="M539.493 832.533C539.107 831.442 537.885 830.436 536.644 830.915C523.865 835.805 526.197 805.226 518.533 798.851C504.917 787.501 483.159 805.734 468.292 804.906C467.963 804.887 467.803 805.423 468.123 805.564C477.959 809.965 486.544 805.16 496.172 802.226C515.261 796.406 518.862 806.524 521.439 821.945C522.257 826.862 522.99 833.689 528.068 836.228C529.572 836.98 532.102 836.266 533.258 836.886C538.016 839.472 537.612 833.398 537.358 846.797C537.264 851.64 536.249 855.881 536.549 860.742C536.625 862.002 538.298 862.218 538.722 861.033C542.069 851.64 542.831 842.002 539.493 832.533Z" fill="#FFE4A1"/>
<path opacity="0.3" d="M758.569 191.598C753.463 163.276 729.081 155.321 709.88 176.807C709.626 177.099 710.002 177.447 710.284 177.221C737.337 155.519 755.758 176.506 754.498 201.34C753.755 215.943 745.678 230.189 738.738 242.751C728.178 261.84 714.666 278.953 702.085 296.697C700.543 298.879 704.163 301.718 705.827 299.574C727.088 272.211 765.405 229.502 758.569 191.598Z" fill="#FFE4A1"/>
<path opacity="0.3" d="M451.041 476.221C442.973 465.182 447.628 464.025 449.894 450.898C454.126 426.441 437.915 402.829 419.654 388.17C418.572 387.295 416.917 388.367 417.651 389.721C433.749 419.426 453.796 434.142 435.987 470.344C435.254 471.839 435.554 473.738 437.106 474.613C477.878 497.622 429.066 528.465 399.202 509.508C398.675 509.179 398.186 509.903 398.563 510.326C415.178 529.198 463.51 524.459 460.501 492.422C459.824 485.22 454.981 481.618 451.041 476.221Z" fill="#FFE4A1"/>
<path opacity="0.3" d="M730.884 448.716C721.735 435.645 710.047 428.772 696.271 434.451C697.174 422.857 692.745 410.172 679.807 407.681C662.129 404.267 651.607 424.681 648.024 438.429C647.836 439.134 648.804 439.538 649.19 438.927C646.764 442.782 657.916 425.979 657.352 426.731C659.486 424.136 661.602 421.541 663.727 418.936C686.078 418.137 694.626 424.869 689.369 439.115C688.702 441.626 691.56 444.033 693.874 442.576C702.233 443.008 710.602 443.441 718.952 443.873C722.224 446.901 724.979 450.305 727.226 454.094C732.135 462.021 735.417 470.493 735.962 479.962C736.62 491.378 733.028 502.502 732.868 513.908C732.849 514.857 734.251 515.29 734.702 514.406C745.233 493.851 744.255 467.814 730.884 448.716Z" fill="#FFE4A1"/>
<path opacity="0.3" d="M782.142 649.586C777.148 635.142 765.893 632.886 754.261 637.418C756.424 633.732 758.079 629.924 759.395 625.203C759.687 624.141 759.038 623.003 757.985 622.702C744.755 618.941 737.9 624.743 727.707 632.622C727.444 632.829 727.792 633.281 728.064 633.093C734.534 628.532 740.063 623.501 747.265 629.538C753.594 634.851 751.346 635.03 746.635 641.565C745.432 643.248 747.764 645.373 749.409 644.339C771.817 630.196 783.853 650.582 780.411 671.608C778.314 684.387 770.03 693.479 762.837 703.738C762.235 704.584 763.505 705.403 764.21 704.791C780.27 690.931 789.448 670.696 782.142 649.586Z" fill="#FFE4A1"/>
<path opacity="0.3" d="M446.882 591.438C441.522 593.093 436.604 596.093 432.711 600.136C430.37 602.571 427.21 611.975 424.991 613.065C425.546 612.793 414.855 611.354 414.253 611.42C400.684 613.065 392.654 621.284 377.6 615.303C376.001 614.673 374.591 617.137 375.907 618.218C390.162 629.878 413.999 609.774 424.126 620.428C425.743 622.13 428.245 621.096 428.978 619.149C447.305 570.507 497.753 608.072 519.464 631.232C519.793 631.589 520.536 631.213 520.339 630.724C509.977 606.004 474.188 582.994 446.882 591.438Z" fill="#FFE4A1"/>
<path opacity="0.3" d="M257.775 667.753C227.967 685.365 200.369 697.345 165.446 685.234C132.639 673.856 104.975 646.963 85.8863 618.65C55.6835 573.872 44.4938 507.674 85.9992 466.564C86.2249 466.338 85.924 465.925 85.6419 466.113C30.9063 502.089 58.796 589.82 89.9203 631.514C110.927 659.648 140.697 686.625 175.996 694.242C204.055 700.297 241.358 693.264 258.96 668.947C259.496 668.214 258.49 667.339 257.775 667.753Z" fill="#FFE4A1"/>
</svg>
