<svg width="2019" height="1394" viewBox="0 0 2019 1394" fill="none" xmlns="http://www.w3.org/2000/svg">
<path d="M1368.55 1045.5C1572.22 853.029 1572.22 540.971 1368.55 348.5C1164.89 156.029 834.679 156.029 631.013 348.5C427.346 540.971 427.346 853.029 631.013 1045.5C834.679 1237.97 1164.89 1237.97 1368.55 1045.5Z" fill="#E5B883"/>
<path d="M1368.55 1045.5C1572.22 853.029 1572.22 540.971 1368.55 348.5C1164.89 156.029 834.679 156.029 631.013 348.5C427.346 540.971 427.346 853.029 631.013 1045.5C834.679 1237.97 1164.89 1237.97 1368.55 1045.5Z" fill="#E5B883"/>
<path opacity="0.41" d="M823.202 872.367C719.72 883.467 621.537 891.047 522.598 895.785C560.25 976.697 619.655 1044.92 692.79 1095.26C837.977 1130.34 1007.39 1140.45 1060.94 1076.72C990.407 1074.61 916.146 1067.43 851.093 1040.28C902.538 1058.69 1085.07 1051.98 1122.29 1010.31C1107.31 1008.84 1094.01 1003.83 1079.24 1001.8C1176.6 986.676 1413.42 980.894 1468.73 898.106C1411.74 892.459 1354.86 932.47 1302.72 902.457C1351.52 873.179 1425.62 870.936 1492.23 859.12C1499.86 838.466 1506.06 817.271 1510.75 795.632C1357.35 826.709 1185.48 937.208 1047.7 879.58C1111.67 850.669 1208.69 866.894 1257 810.136C1190.19 797.624 1107.07 846.414 1041.22 863.626C936.057 891.086 812.091 926.92 702.797 919.339C742.004 912.745 795.618 895.244 823.202 872.367Z" fill="#AC2024"/>
<path opacity="0.41" d="M508.154 532.746C507.008 535.801 505.78 538.837 504.695 541.912C574.352 527.196 670.079 473.067 742.294 454C843.627 427.274 942.812 433.772 1045.52 426.404C989.694 430.02 945.002 463.495 898.162 485.057C960.002 494.668 1026.73 463.785 1085.03 446.864C1190.15 416.387 1298.14 382.912 1387.07 366.977C1379.31 358.855 1371.25 351.042 1362.96 343.461C1205.25 331.124 1049.14 339.903 890.243 355.219C730.384 370.632 639.179 474.634 508.154 532.746Z" fill="#AC2024"/>
<path opacity="0.41" d="M488.425 793.118C552.066 790.759 653.707 752.836 691.707 747.576C742.456 740.557 803.252 733.827 861.756 733.247C882.096 739.88 904.565 742.819 923.187 742.065C934.298 741.62 945.43 740.653 956.542 739.261C960.205 739.841 963.908 740.421 967.469 741.098L957.626 739.106C1031.31 729.746 1104.74 701.57 1169.99 676.353C1271.02 637.289 1401.64 616.365 1502.19 565.254C1500.15 558.234 1497.9 551.292 1495.54 544.427C1366.81 598.497 1234.7 643.381 1099.44 683.141C1054.11 696.465 975.081 734.794 917.007 730.926L890.937 725.666C758.703 675.173 964.972 581.866 977.823 661.733C968.533 637.522 890.732 654.868 909.006 701.087C953.493 697.296 1022.23 686.138 1043.16 645.431C986.193 618.744 862.104 573.647 816.942 642.646C796.192 674.342 804.664 698.302 825.434 714.778C722.75 716.325 581.41 714.353 482.43 759.218C483.596 767.862 484.988 776.545 486.666 785.209C487.198 787.839 487.873 790.45 488.425 793.118Z" fill="#AC2024"/>
<path opacity="0.82" d="M658.269 366.861C645.254 370.632 623.993 375.273 599.601 381.074C575.168 408.748 554.029 438.916 536.492 470.94C571.668 457.132 604.266 441.159 613.7 436.73C682.599 404.3 759.684 369.491 836.646 349.862C946.165 321.938 1058.71 335.919 1167.84 319.888C1131.79 303.934 1074.76 312.036 1043.08 293.355C1109.56 251.584 1215.71 290.629 1307.2 299.06C1277.79 278.794 1246.24 261.37 1212.92 247.233C1161.23 247.814 1111.12 251.507 1072.79 254.485C943.771 264.503 828.625 304.9 658.269 366.861Z" fill="#FFEACC"/>
<path opacity="0.82" d="M1169.62 708.261C1205.35 708.977 1241.55 698.979 1278.12 703.291C1201.38 763.936 1055.54 769.293 959.222 776.68C809.759 788.167 647.076 806.693 501.91 843.359C502.033 843.746 502.156 844.113 502.299 844.5C670.159 847.517 855.289 783.507 1023.31 801.221C1004.18 839.549 936.323 845.699 898.855 872.173C975.449 905.783 1123.32 811.741 1196.43 784.261C1294.53 747.402 1419.97 718.607 1520.38 669.236C1519.48 654.558 1517.89 639.822 1515.58 625.009C1399.28 652.238 1264.57 659.857 1169.62 708.261Z" fill="#FFEACC"/>
<path opacity="0.82" d="M1226.47 508.496C1207.19 570.282 1128.51 556.996 1079.93 579.738C1124.77 593.082 1171.06 557.364 1214.64 565.35C1200.95 595.17 1160.99 611.917 1134.45 635.858C1211.86 626.769 1283.03 588.634 1349.92 553.013C1383.71 535.028 1430.75 514.665 1473.77 491.149C1465.64 474.402 1456.5 458.254 1446.55 442.668C1403.05 444.582 1357.21 443.441 1313.58 450.132C1246.71 460.401 1180.22 475.272 1114.84 491.381C1009.97 517.217 907.469 521.549 804.621 544.368C820.991 546.476 835.663 554.85 851.052 558.079C783.605 638.237 546.416 598.148 479.113 669.236C478.806 674.284 478.499 679.312 478.355 684.398C730.544 651.387 974.302 525.397 1226.47 508.496Z" fill="#FFEACC"/>
<path opacity="0.82" d="M1266.29 1061.07C1218.37 1057.61 1095.83 1110.94 1068.09 1144.17C1134.8 1172.65 1385.18 1052.29 1407.86 989.151C1349.19 977.548 1199.21 1033.57 1149.12 1069.11C1162.42 1073.87 1171.06 1069.37 1186.06 1067.86L1266.29 1061.07Z" fill="#FFEACC"/>
<path opacity="0.23" d="M906.508 212.096C623.134 260.79 435.179 517.353 486.685 785.17C489.161 798.088 492.312 810.716 495.791 823.189C510.279 835.547 526.629 847.092 545.005 857.631C726.104 961.517 921.078 921.293 1079.44 802.923C1197.86 714.392 1284.5 580.531 1280.33 434.43C1277.55 336.713 1236.8 273.205 1173.23 232.285C1090.41 204.573 999.124 196.181 906.508 212.096Z" fill="#FFEACC"/>
<path opacity="0.28" d="M828.378 286.877C618.712 282.912 499.842 610.195 668.581 724.891C1047.13 982.247 1240.77 159.089 828.378 286.877Z" fill="#FFEACC"/>
<path opacity="0.21" d="M1512.89 608.842C1493.56 508.341 1443.24 420.544 1372.95 352.647C1373.95 358.159 1374.91 363.67 1375.63 369.085C1387.54 458.003 1375.42 551.02 1341.23 636.245C1232.1 908.278 933.376 1051.23 638.153 990.234C618.324 986.134 592.479 977.703 564.547 968.672C676.194 1128.25 881.297 1218.29 1093.09 1181.92C1376.47 1133.22 1564.42 876.64 1512.89 608.842Z" fill="#AC2024"/>
<path opacity="0.28" d="M1512.89 608.842C1503.75 561.328 1487.56 516.714 1465.73 475.62C1449.7 537.986 1444.87 604.414 1434.99 666.316C1417.56 775.655 1369.86 830.306 1279.29 903.424C1164.53 996.074 1014.59 1080.64 859.381 1079.52C791.566 1079.04 726.206 1062.83 661.297 1071.9C711.923 1112.67 770.55 1144.15 834.027 1164.32C894.946 1165.23 951.731 1161.28 980.83 1158.42C1240.84 1132.82 1424.23 982.905 1514.84 774.572C1523.86 721.044 1523.74 665.214 1512.89 608.842Z" fill="#AC2024"/>
<path opacity="0.74" d="M1276.16 279.412C1294.65 290.358 1312.35 302.444 1329.28 315.498C1580.46 280.495 1767.23 307.434 1801.67 398.556C1854.2 537.522 1532.54 773.16 1083.21 924.85C633.877 1076.54 227.048 1086.85 174.519 947.882C139.833 856.122 268.342 722.242 488.956 598.206C493.008 579.505 498.205 561.153 504.467 543.169C166.436 710.91 -41.3068 904.603 6.92495 1032.2C71.6501 1203.46 572.999 1190.75 1126.71 1003.83C1680.43 816.903 2076.82 526.538 2012.07 355.277C1962.86 225.071 1661.25 201.227 1276.16 279.412Z" fill="#FFE4CC"/>
<path opacity="0.74" d="M1076.68 914.33C1506.14 768.016 1812.49 543.768 1760.91 413.427C1729.19 333.289 1569.43 307.414 1351.31 333.308C1366.46 346.381 1380.84 360.285 1394.31 375.002C1503.25 375.988 1578.56 399.948 1597.51 447.811C1639.38 553.573 1390.79 735.547 1042.26 854.265C693.75 972.984 377.287 983.504 335.419 877.742C313.646 822.724 370.595 747.092 479.173 670.454C480.073 654.48 481.772 638.681 484.268 623.055C286.062 738.235 172.634 859.912 205.6 943.222C257.209 1073.58 647.196 1060.63 1076.68 914.33Z" fill="#EDCBAE"/>
</svg>
