<svg xmlns="http://www.w3.org/2000/svg" xmlns:xlink="http://www.w3.org/1999/xlink" viewBox="0 0 952.81 985.62"><defs><style>.cls-1{isolation:isolate;}.cls-12,.cls-2{opacity:0.22;mix-blend-mode:hard-light;}.cls-2{fill:url(#radial-gradient);}.cls-3{opacity:0.56;}.cls-11,.cls-4,.cls-7{fill:#fffb64;}.cls-5{fill:#fec20c;}.cls-10,.cls-6,.cls-8,.cls-9{fill:#eb9206;}.cls-6{opacity:0.38;}.cls-7{opacity:0.41;}.cls-9{mix-blend-mode:overlay;}.cls-10{opacity:0.16;mix-blend-mode:multiply;}.cls-11{opacity:0.6;}.cls-12{fill:url(#radial-gradient-2);}</style><radialGradient id="radial-gradient" cx="719.06" cy="270.07" r="2500.73" gradientTransform="translate(351.66 438.68) scale(0.17 0.16)" gradientUnits="userSpaceOnUse"><stop offset="0" stop-color="#fff"/><stop offset="0.1" stop-color="#ffe"/><stop offset="0.29" stop-color="#feffc1"/><stop offset="0.41" stop-color="#fdffa1"/><stop offset="0.52" stop-color="#fee879"/><stop offset="0.64" stop-color="#ffca45"/></radialGradient><radialGradient id="radial-gradient-2" cx="704.88" cy="268.57" r="1964.61" gradientTransform="translate(349.19 445.68) scale(0.16 0.16)" xlink:href="#radial-gradient"/></defs><g class="cls-1"><g id="Layer_1" data-name="Layer 1"><ellipse class="cls-2" cx="471.53" cy="482.08" rx="416.91" ry="401.83"/><g class="cls-3"><path class="cls-4" d="M927.8,441.51c-42.22,19-77.92,18.64-100.83,14.87a114.4,114.4,0,0,0,31.17-32c10.07-15.34,19.54-30.71,29.28-46-16.78,10.43-39.26,3.89-59.59,6.25-.5.06-1,.23-1.5.31,14.88-36.22,31.58-77.87,37.42-96.24-11.58,19.27-34,39.92-56.58,34.72,9.31-8.13,17-20.21,18.19-32.66-15.53,11.86-35,11.73-53.08,14.79,6.24-31.73,19.69-74.5,60.71-74.11-32.45-34.1-84.12.45-119,9.26C748.26,189.44,786.82,129.12,728.43,78c45.1,49.94-102.82,119.28-111.31,125.67-.2-2.13,21-71.89-30.92-113.56,2.67,18.64,4,38.25-6.09,55.42-1.9-27.81-19.14-58.84-42-76.65,11.87,26.59,13.45,94.26-32,95.57-46.58,1.33-51.38-68.73-30.77-94.16-22.49,20.18-54.6,50.41-46.62,81C359.25,139.07,352.74,56.87,384.12,8c.93-1,.9-1.05-.08-.08C360.9,26,340.78,61.51,331.56,84.63c-17.31,43.34,1.29,69,19.63,99.41-16.49-1.92-35.15-.23-48.91-2.86-41-7.83-51.55-29.5-59.91-65.4-18.06,79.67,31.34,131.47,70.43,161.43-32.89-7.82-61.11-21-96.93-15.2-24.18,3.93-48.65,25.43-71.93,33.35,30.5-3,80.77,2.12,93.3,20.37-33.32-7-79.36,21.56-104.42,42.32-20.3,16.82-31.46,43.59-61.8,45.67,25.47,18.86,68.31-4.6,97.44-2.88-4.77,2.82-78.69,67.69-101.3,39.64,9.32,34.26,55.15,55.73,80.77,64.27-28.76,9.74-98.59-9.82-114.38-38.61,18.52,44.08,63.29,101.1,110.81,118.93-33.66,18.72-92.2,32.34-120.77,7.64C45.44,626,69.1,653.82,108.28,661.58c40.09,7.94,74-2,87.54-22.51-8.95,48-54.32,74.77-115.76,84.31,55.54,5,87.95,7,123.92-22.15-6.2,37.76-8.45,45.31-.1,84.78,8.64,40.81,14.79,81.53-1.77,121.29,39.17-34.68,75.65-96.86,81.27-147.71-3,42.63,47.59,74.84,32.8,117.4,14.68-12.64,36.31-56.26,37.07-57.47,7.79,15.52,16.51,29.92,17.1,47.34.73,21.3-11.42,36.24-19.07,56.34C374,910.87,397,900,411.65,877.12c12.05-18.83,4.88-61,27.8-69.11-1.34,32.8,5.78,48.25,24.76,76.86,18.65,28.11,15.64,56,2.43,86.57,21.33-25.57,44.41-48.92,48.24-84.06,3.25-29.89-14.82-57.23,11.67-83.94-26.7,51.28,66.6,88.86,100,76.28-51.62-.94-20.13-93-18-95.81a141.82,141.82,0,0,0,33.7,47c21.49,20,56.73,44.73,83.41,53.58-4.18-24.14-19.6-45.59-21.35-71.77-1.61-24.1,8.52-47.42,5.3-71.19,36,29.72,54.84,50.95,45.65,97.56,18.93-18.94,25.54-53.34,22.66-84.49-1.72-18.58-25.48-52.62-11-68,.15,43.44,110.54,82.5,147.14,80-29.61-11-69.29-40.18-88.3-64.46-6.08-7.77-17.09-26.12-24.09-44.2,19.24,15.58,44.76,26.48,63.1,32.46-19.53-18.32-27.56-47.36-29.72-72.66-.26-2.94-.55-5.93-.91-8.94,36.72,6.56,80.63,46.63,75.33,74.55,6.41-46.94-1.23-86.37-37.82-122.24-8-7.85-13.4-12.92-18.24-17.54,7.73-1.16,15.78-4.35,24.07-10.21,9.79-6.92,19-16.36,26.6-25.24-23.6,1.91-45.93.18-66.29-9.94C874.05,490.94,912.41,461.16,927.8,441.51ZM701.7,414c-80.87-1.57-196.86-35-199.81,45.1-1.13,30.62,21.21,60.08,35.91,85.75C557.32,579,567.63,621.34,579,659.46c2.39,8,4.3,15.93,6,23.83-40.45-27.24-93.85-13.56-142.36-27.41l-9.11,6.31c-.75-56.41-40.56-106.12-52.79-163.54-17.3-81.19,40.39-154.14,43-233.85l-18.91-29.62a270.89,270.89,0,0,0,45.89,21.9l86.37,41.17c32.3-6.55,61.65-36.76,78.23-70.79a59.1,59.1,0,0,0,13.52,16.75c14.85,61.11,15.93,116,58.91,141.27,10.42,6.13,24,10,37.78,12.27A133.11,133.11,0,0,0,701.7,414Z" transform="translate(-23.59 -7.19)"/><path class="cls-4" d="M864.88,690.48l-.08,0,.05.06Q865.48,691.07,864.88,690.48Z" transform="translate(-23.59 -7.19)"/></g><circle class="cls-5" cx="466.38" cy="491.84" r="321.52"/><path class="cls-6" d="M257.57,551c-9.17-28.66-31,16-25.67,33.49-34.19-16.22-44.71,89.5,16.89,87.27-8.11,23.71,16.1,63,44.27,50.61,4.65,30,41.87,81.48,74,55,5.61,28.45,34.81,23.66,54.88,12.68,5.59,13.25,20.73,24.64,35.6,17.59s7.36-22.32,21.61-28.26c-2.63,19.5,39.22,26.12,42.69,8,6,22,45.26,8.78,54.35-8,16.67,19.55,65.13-4.18,83.36-13.33,32.82-16.46,59.35-51.92,65.34-87.94,9.09.35,19.1-9,23.8-16.17,7.6-11.65,2.11-18.29,6.61-28.54,12.15-27.66,41.15-43.41,45.44-78,1.65-13.32.94-29.86-3.75-42.43-3-7.94-14.1-16.06-16-23.08-6.35-23.65,23-60.13-7.61-78.3,11.19-21.17,5-85.32-32.06-70.46,5.14-30.84-30.49-64.2-58.59-44.81-32.32,22.31-24.33,86.49-23.52,121.11-5.17-11.43-20.38-19-32-12.32-11,6.3-10.49,22.79-13,33.31-14.55-34.67-53.09,10.32-61.9,26-14.49,25.75-27.83,74.09-18.29,103.31-10.5-12.8-21.1-24.68-40-19.77-23.75,6.16-28.22,33-45.69,45.14-26.23-33.37-57.25-8.26-78.42,10.24-5.5-49.34-55.55-14.35-72,4.22C305.7,577.71,289.87,564.68,257.57,551Z" transform="translate(-23.59 -7.19)"/><path class="cls-7" d="M418,210.38c-38.14-3.51-89.76,22.42-92,64.81-24.27-18-72.69,32.65-87.31,53-23.91,33.28-31.89,75.15-29.29,116.54,6,94.85,102.15,124.48,180.05,91.53,43.75-18.51,101.93-76.57,75.45-128.82,16.57-.67,24.77-13.33,21.52-30.23,44.52,11.64,96.54-27.6,107.4-69.77C619.79,206.58,524.55,159.44,418,210.38Z" transform="translate(-23.59 -7.19)"/><path class="cls-8" d="M418,773.38c38.73-.09,52.13-16.17,77.23-37.49,39.55,75.08,182.86-7.72,219.34-51.16C777.32,610,790.75,540.25,778,442.59c-7.22-55.42-36-100.47-79.37-134.75-7.23,53.74,16.51,110.9-.23,164-9.36,29.71-22.58,43.79-48.23,29.37-14-7.88-12.73-21.82-34.76-19.42-19.67,2.14-35.52,25.81-44.62,42.72C552.69,558.26,566.62,676.6,512,675.94c-17.21-21.23-51.1-44.35-79.66-33.43-26.08,10-47.75,45.38-83,39.78-42.1-6.7-45.27-73.16-87.2-83.12-10-2.38-19.07,7.64-27,5.81C209.13,598.93,286.54,773.7,418,773.38Z" transform="translate(-23.59 -7.19)"/><path class="cls-9" d="M683.8,644.79c-52.67,11.22-36.31-62-1.32-74.31,50.69-17.76,46.23,42.93,21.33,68.59Z" transform="translate(-23.59 -7.19)"/><path class="cls-9" d="M732.39,453.3c-20.94-5.93-26.8-48.72,2.42-42.43-.27,18.77-.71,38.68,22.81,28.65,10.48,22.64,15.13,64.64-2.34,86.69-30.47,38.46-58.74-17.22-34.33-50Z" transform="translate(-23.59 -7.19)"/><path class="cls-9" d="M423.73,716.23c-13.11,27.84-39.59,43-64.41,21.68s-3.55-51.92,21.6-34.33c20.67-33.45,110-34.66,68.53,15.51Z" transform="translate(-23.59 -7.19)"/><path class="cls-7" d="M290.12,459.73c-98.25-.5,6.17-163,26.09-77.54,49,11.51,30.16-76.86,42-98.16,18.86-34,85-59.52,82.41-.76,7.17-11.62,30.45-19.86,25.14,2.08C500.62,251,573.24,262.23,547,322.27c-11,25.12-39.06,38.15-64,43.09-22.18,4.41-37.58-4.21-57.62-6,6.76,15.28,5.16,37.08-14.89,40.77-1.45,41.33-7.28,83-41.42,110-14.6,11.55-37.17,26.16-57,24.38C273,530.91,283.91,494.08,290.12,459.73Z" transform="translate(-23.59 -7.19)"/><path class="cls-7" d="M513,236.81c-11,5.49-36.43,11.93-45-4.29-8.09-15.3,15.59-41.84,24-23.79,29.86-19.94,63.89,17,25.25,25.94Z" transform="translate(-23.59 -7.19)"/><path class="cls-7" d="M311.55,324.7c15.22-20-5.48-40.78-26.61-32.16-12.48,5.1-33.76,31.2-16,36.39-13.51,4.4-26.37,18.36-7.77,23.63,13.61,3.85,35.77-12.2,46.08-19.29Z" transform="translate(-23.59 -7.19)"/><path class="cls-7" d="M626.64,286.11c-32.89-26.74,28.62-58.88,19.19-22.18,34.41-30.41,30.43,50.48,13.07,69.34-37.08,40.3-81.36-9.57-34.4-40.73Z" transform="translate(-23.59 -7.19)"/><path class="cls-7" d="M223.67,554.05c5.1-12.21-.9-44.75-17.15-51-24.08-9.22-20.83,27.6-13.13,39.88-32.15,4,16.29,76.42,26,21.8Z" transform="translate(-23.59 -7.19)"/><path class="cls-9" d="M570.91,260.39c4.31-20.42-1.19-39.44-16-54.31-11.52-11.54-34.78-23.46-49.33-11.64-20.87-20.1-61-6.71-70.42,18.26-5.06-10.84-29.28-7.37-39.26-5-16.46,3.9-27.89,14.45-32.43,30.72-27-18.08-68.92,12.66-86.8,31.83-32.66,35-58.51,77.31-71.5,123.44-14.47,51.35-16.09,98,24.78,138.09,47.56,46.62,113.87,49.12,176.33,35.56C462.4,555.14,519.1,491.7,530.48,437c27.25,13.22,41.1-26.38,34.86-46.35C609.48,386.45,652.92,263.7,570.91,260.39Z" transform="translate(-23.59 -7.19)"/><path class="cls-10" d="M353.71,640.5c-6.17-12.89-10.8-32.1-25-39.19-13.07-6.51-38,3.39-24.87,20-26.74-31.3-56.68,30.88-46,54.63-23.17,10.3,14.6,45.89,23.66,50.94,24.63,13.75,63.64,34.49,89.22,12.61.65,27.34,39.52,37.77,58.58,24-2.53,32,42.09,35.41,58.89,16.11,1.95,29.44,93,12.07,109.57,7.42,27.65-7.76,50.17-22.58,72.45-40.38,16.16-12.9,42.35-35.28,43.86-57.35,19.89,1.56,37-25.86,45.62-40.53,14.36-24.41,13.84-43.27.4-66.58,28.16-15.92,49.94-72.55,26.72-98.54,23.32-9,12.82-74.43-9.68-79.23,26.86-17.83-13.44-80.31-32-91.26C695.84,284,648.58,329.24,638,376.44c-7.57,33.74-5.52,68.8-14.09,102.38-10.93,42.83-39.72,81.49-79.76,101.85-24.16,12.29-48-1.13-71.53,9.67-24.67,11.33-32.3,29.93-40.32,54.24C421.33,606.55,375,630.84,353.71,640.5Z" transform="translate(-23.59 -7.19)"/><path class="cls-9" d="M650.22,429.72c-16.81,5.26-48.23-1.27-60.07-16-12-14.94-6.43-54.39,18.53-50.29-21.74-37-8.46-106.48,37.36-120.83,41.26-12.92,65.68,43.79,58.15,77.58,35.62-19.59,38.75,66.69,15.38,86.06,38.28-8.44,27.58,63.57,20.25,81.18C720,534.94,681.41,583.37,636.48,608.7c-52.1,29.38-137.66,22.94-161.71-41.79-16.9-45.5,21.39-88.08,66.29-69.4-5.32-29.59,30.33-53.68,51.35-27.76C598,439.72,637.42,450.22,650.22,429.72Z" transform="translate(-23.59 -7.19)"/><path class="cls-9" d="M255.82,671.94c-15.81,14.9,7,27.18,15.06,37.45,11.36,14.46,9.21,31.16,25.19,42.44s32.38,7.59,47.64,19.57c17.83,14,28.88,26.4,53.69,21.21,10.19-2.13,8.18-9.47,21.32-7.18,8.6,1.5,15.76,11.92,24.07,14.52,14.19,4.45,19-3.29,32.55-3.45,14.42-.16,15.15,6.54,28.22,13.48,34.34,18.25,39.61-12.2,67.24-19.73,14-3.82,17.64,3.57,31.27-4.71,9.82-6,11.39-12.4,21.33-15.23,14.44-4.11,12.06,3.12,25.16-8.35,8.57-7.5,12.09-18.29,20.91-25.71,10.1-8.49,23.2-9.32,33.74-17.07,13.95-10.24,19.14-27.14,27.41-40.89,9.75-16.23,37.78-29,42.3-49.22,2.14-9.63-4.91-16.21-2.77-25.83,2.26-10.13,14.62-15.91,19.15-24.81,6.73-13.22,25.9-126.34-1.89-120.57C777,460,777.77,505.55,776.5,512.32c-4.78,25.51-17.82,33.58-30,52.55-10,15.61-3.16,33.71-10.52,49.8C727.6,633,710.18,654,699.42,671.19c-13.76,21.92-23.78,12.58-46.8,18-32.22,7.53-31.32,44.72-56.28,58.57-18.47,10.25-48.61,2.88-67.15-1.83-27.86-7.08-29.05,2.85-54.62,11.93C451,766.18,434,754,414.24,745.19c-15.66-7-22.95-5.58-40.69-3.53-25,2.89-30.81-2.62-48.06-20.34-10.14-10.41-17.07-9.78-29.53-17.61C281.48,694.6,277.65,671.1,255.82,671.94Z" transform="translate(-23.59 -7.19)"/><path class="cls-4" d="M112.21,148.93c3.39,34.56-3.56,66.63,36.5,81.39,17.38,6.41,30,2.63,47.09-1.61,18-4.48,23.55-2.06,40.34,5.7-6.56-32.4-25.83-46.56-59.63-44.8C138.56,191.58,123.12,180.36,112.21,148.93Z" transform="translate(-23.59 -7.19)"/><path class="cls-4" d="M654.51,153.22c-21-5.29-20.75-47.25-15.48-62.63,7.43-21.64,24.39-31.3,39.26-48-18.77,21.33-3.75,31.93.89,54.87C684.87,125.64,665.26,133.42,654.51,153.22Z" transform="translate(-23.59 -7.19)"/><path class="cls-4" d="M886,547.62c25.46,22.92,95.34,30.35,90.13-22.82C955.76,565.75,905.76,515.5,886,547.62Z" transform="translate(-23.59 -7.19)"/><path class="cls-4" d="M163.65,738.38c-56.37,12.57-18.44,79-40.41,111.13C159.17,818.85,166.5,787.31,163.65,738.38Z" transform="translate(-23.59 -7.19)"/><path class="cls-4" d="M808.84,275.4c15.76-41.63,61.28-14,87.62-35.58C883.17,267.46,842.45,297.44,808.84,275.4Z" transform="translate(-23.59 -7.19)"/><path class="cls-4" d="M536.62,875.57c-32.92,46.23,40.29,75.5,34.29,117.24.16-21.63,14-44.54,5.9-65.27C568.41,906.11,548.25,896.55,536.62,875.57Z" transform="translate(-23.59 -7.19)"/><path class="cls-4" d="M793.83,762c-14.12,42.08,47.06,62.23,63.88,89.86.8-20.57,11.26-41-3.33-59.9C840.38,773.8,813,782.81,793.83,762Z" transform="translate(-23.59 -7.19)"/><path class="cls-4" d="M148.65,316.12C122,276.13,73.72,337.64,44.26,344c17,4.54,37.84,13.93,56.34,6.64C118.28,343.7,128.77,310,148.65,316.12Z" transform="translate(-23.59 -7.19)"/><path class="cls-4" d="M871,427.58c14.41-36.18,47.4-25.5,66.6-55C928.78,408.38,918.34,421.1,871,427.58Z" transform="translate(-23.59 -7.19)"/><path class="cls-4" d="M506.61,30.32c-.17,22.57-35.61,113-1.43,114.42C541.48,146.22,521.23,47.71,506.61,30.32Z" transform="translate(-23.59 -7.19)"/><path class="cls-4" d="M423.73,890.57c-41.65,23.87-5.39,68.35-25.37,99,29.55-28.05,35.21-57.79,25.37-93.31Z" transform="translate(-23.59 -7.19)"/><path class="cls-4" d="M489.44,376.78c-.54-3.41-5.64-2.37-5.79.79-.43,9.33-.93,32.69-17.86,27.93-2.44-.69-4,1.92-3.05,4,15.16,32.82-8.63,75.91-32.77,98a168.38,168.38,0,0,1-73.34,39c-61.16,14.7-116.11-22.82-136.76-80.53a.5.5,0,0,0-1,.27c6.87,39.35,30.9,71.67,68.45,87,38.9,15.88,81.88,3.69,116.66-16.77,32.26-19,65.52-51.1,67-91.16.21-5.68-5.78-29-2.25-33.3-.14.17,8.86-1.53,10-2.2C488.83,403.73,491.11,387.31,489.44,376.78Z" transform="translate(-23.59 -7.19)"/><path class="cls-4" d="M494.19,187.33c-16.94-4.32-36.13-.45-51.84,6.75-12.56,5.74-21.32,10.83-35.4,10.64-10-.14-17.62.61-27.08,4-22.31,8-64.19,37.46-55.49,66.14a.78.78,0,0,0,1.29.33c10.5-10.27,13.51-25.42,24.72-36.29,14.28-13.85,33.71-23.52,53.7-23.71,17.18-.17,18.41-1.5,33.28-10.41,18.13-10.87,37.41-8.88,56.82-14.25A1.69,1.69,0,0,0,494.19,187.33Z" transform="translate(-23.59 -7.19)"/><path class="cls-4" d="M522.33,209.26a2.57,2.57,0,0,0-1.8,4.34c3.86,4.27,14.2,6.56,7.33,12.81-5.87,5.35-15.64,7.38-23.16,8.81-8.15,1.55-17.8,2.78-25.95.65-8-2.09-7.69-6.73-7.3-14.06a.56.56,0,0,0-.85-.49c-8.64,5.17-7.52,15.29,1.06,19.88,10.38,5.56,24.85,3.78,35.84,1.54,9.26-1.89,23.76-5.33,28.73-14.49C541.05,219.36,531.27,209.43,522.33,209.26Z" transform="translate(-23.59 -7.19)"/><path class="cls-4" d="M314,310.4c0-.34-.58-.49-.66-.08-3.12,15.35-17.44,25.34-29.77,33.19A21.86,21.86,0,0,1,264.35,346c-1.33-.43-5.15-4.08-6.66-3.15-5.27,3.25-.79,9,3.38,10.57,7.74,2.95,13.73-4.17,20.47-6.61C295.41,341.76,316,327.4,314,310.4Z" transform="translate(-23.59 -7.19)"/><path class="cls-4" d="M668.21,270.9c-4.9-10.31-12-16.59-19.94-13.15-.5-3-2.21-5.63-5.66-7.8a.51.51,0,0,0-.75.44c0,5.2,0,9.14-1.51,14.37-1,3.65,4.75,6.35,6.32,2.66,5.89-13.83,15.2,5.89,16.28,9.08a32.2,32.2,0,0,1,1.54,11.56c-.3,13.81-7.75,24.7-10.72,37.66a1.52,1.52,0,0,0,2.52,1.47C669.34,314.42,676.24,287.82,668.21,270.9Z" transform="translate(-23.59 -7.19)"/><path class="cls-4" d="M358.19,413.49c-1.26,1.38.43,3.95,2.11,2.73,8.58-6.21,21.19-10.37,23.32,5.09,1,7.4-2.81,15.33-6.64,21.4-7.87,12.46-21.16,25-35.27,29.76-13.32,4.48-29.16,1.59-34-13.19-4.54-13.93,2.21-27.3,17-28.89,4.16-.46,5.59-5.27,2.1-7.76-6.36-4.53,4.66-15.4,9.77-16.2,2.58-.41,7.25,3.4,9.15,2.16,3.81-2.48,2.27-7.73-.7-10.29-4.83-4.15-12-1.71-16.78,1.16-8.73,5.25-16.23,16.76-11.31,25.11-12.23,6.37-17.7,22.93-14,36,5.79,20.69,25.75,23.86,43.8,16.84,20.63-8,43.62-26.65,45.63-50.44C394.26,404.05,372.34,398,358.19,413.49Z" transform="translate(-23.59 -7.19)"/><path class="cls-4" d="M495.77,292c-8.58-8.41-20.1-1.94-23.15,7.69-.73,2.3,1.94,4,3.88,3,13.63-7.17,8.73,23.65-5.29,25.61-9.19,1.28-18.86-5.59-26.14-9.22-9.14-4.56-17.43-7.94-22.09-17.79a4.35,4.35,0,0,0-3.79-2.17c-6.72,0-11.19,2.22-15.8,5.76-6.64-23.92-40.23,16.71-17.14,22.41a1.22,1.22,0,0,0,1.36-1.77c-1.8-3.58-2.49-6.9-1.09-10.82.48-1.36,9.85-15.74,10.72-3,.16,2.38,3.06,4.92,5.41,3.1,13.39-10.34,12.51-1.76,20.58,4.53,6.63,5.16,15.6,5.56,22.76,10.74,13.88,10,22.91,9.26,37.73-1.83C493.47,320.94,508.08,304.07,495.77,292Z" transform="translate(-23.59 -7.19)"/><path class="cls-4" d="M300.23,357.86c-14.86-3.07-27.78,10.58-34.89,21.51C253.68,397.31,226,458.32,268,460.22a1.21,1.21,0,0,0,.85-2.05c-8.34-8.18-15.32-14.34-14-27,.94-9.18,4.63-18.17,8.39-26.47,4.33-9.57,9-20.19,16.16-28,4.4-4.82,19.8-16.23,23.59-4.57a.78.78,0,0,0,1.13.46C312.44,367.65,308.45,359.56,300.23,357.86Z" transform="translate(-23.59 -7.19)"/><path class="cls-4" d="M214.3,503.56c-16.35-13-30.21,13.18-23.84,27.11.17.39.72.16.75-.2.42-7.07,1.82-16,6.74-21.41,8.57-9.5,17.53,1.57,20.11,10.36,3.6,12.24,1.9,28.45-1.3,40.73a1.25,1.25,0,0,0,2.07,1.2C231.86,548.41,228.56,514.9,214.3,503.56Z" transform="translate(-23.59 -7.19)"/><path class="cls-4" d="M562.1,290.44c-3.15-12.93-18-36.49-33-23.28-.37.32-.05.89.38.91,19.85,1.17,27.67,24.75,24.07,41.37-3,13.87-13.08,23.34-17.3,36.19-.42,1.27,1,2.84,2.3,2.31C557.19,340.44,566.53,308.67,562.1,290.44Z" transform="translate(-23.59 -7.19)"/><path class="cls-4" d="M581.46,232.94a5.72,5.72,0,0,0-3.83-4.21,7.63,7.63,0,0,0-6.5-1.13,6.36,6.36,0,0,0-5.6,5.22c-.06.28-.07.56-.14.84a22.48,22.48,0,0,0-2.9,7.4,8,8,0,0,0,2.88,8c3.08,3.28,9.38,3.74,11.88-.49a6.45,6.45,0,0,0,2-2A18.5,18.5,0,0,0,581.46,232.94Z" transform="translate(-23.59 -7.19)"/><path class="cls-4" d="M599.49,224.89c-7.07,0-7.08,11,0,11S606.57,224.89,599.49,224.89Z" transform="translate(-23.59 -7.19)"/><path class="cls-4" d="M246.61,384.29c-1.85-4.62-6.21-6.67-10.84-4.41-.39.19-.73.47-1.11.68l-.33,0c-6.35,1.13-11.5,5.76-14.13,11.54C218,397,216.47,404.64,219,409.93c.4,4,4.06,5.95,7.74,5.71a14.2,14.2,0,0,0,4.09.55C244.26,416,250.87,395,246.61,384.29Z" transform="translate(-23.59 -7.19)"/><path class="cls-4" d="M229.39,366.31c-9,0-9,13.94,0,13.94S238.37,366.31,229.39,366.31Z" transform="translate(-23.59 -7.19)"/><path class="cls-4" d="M551.71,392.12c-7.5-7.15-16.33-6.1-24.81-1-8.29,1.77-16.72,8.39-22,13.28-8.81,8.09-15.12,19.09-14.68,31.34.34,9.45,5.75,17.36,15.94,16.43,9.72-.89,14-8.83,18.36-16.46C541.84,446.23,568.67,408.31,551.71,392.12Z" transform="translate(-23.59 -7.19)"/><path class="cls-4" d="M523.38,447.35a9.84,9.84,0,0,0-4.87,3.21,7.53,7.53,0,0,0-3.43,6.85c.22,3.61,3.86,6.95,7.42,5.94a7.07,7.07,0,0,0,6-4.61c.3-.33.65-.62.93-.95C533.16,453.34,529.82,445.34,523.38,447.35Z" transform="translate(-23.59 -7.19)"/><path class="cls-4" d="M402.81,354.65a16.47,16.47,0,0,0-1.68-4.6,7.3,7.3,0,0,0-9.82-2.57c-7.56,4.12-11.53,13.14-10.57,21.58a5.65,5.65,0,0,0-.38,1.62,8.84,8.84,0,0,0,4.46,7.41c8,4.63,16.32-3.2,18.62-10.52A18.7,18.7,0,0,0,402.81,354.65Z" transform="translate(-23.59 -7.19)"/><path class="cls-4" d="M361.47,362.22c.12.44.24.88.37,1.33,1.66,6.07,10.65,6.08,12.32,0l.36-1.33C377.5,351.33,358.48,351.26,361.47,362.22Z" transform="translate(-23.59 -7.19)"/><path class="cls-4" d="M327.22,514.48a6.14,6.14,0,0,0,.51-.51,6,6,0,0,0,0-9.87,4.91,4.91,0,0,0-.51-.51c2.47.94-2-1.15-2.48-1.28a7.31,7.31,0,0,0-3-.08l-.2,0c-.2,0-.41,0-.61.08a7.06,7.06,0,0,0,0,13.4c.2,0,.41,0,.61.08l.2,0a7.32,7.32,0,0,0,3-.08C325.68,515.5,329.57,513.6,327.22,514.48Z" transform="translate(-23.59 -7.19)"/><path class="cls-4" d="M343.7,497.69c-7.24,0-7.25,11.25,0,11.25S351,497.69,343.7,497.69Z" transform="translate(-23.59 -7.19)"/><path class="cls-4" d="M349.51,523.78c0-.11,0-.2,0-.31-.37-4.29-3.1-7-7.39-7.39-7.31-.72-17.3,1.31-17.31,10.57a11.23,11.23,0,0,0,.51,2.68,11.35,11.35,0,0,0,7.33,11,5.19,5.19,0,0,0,3.18.26c7.14,2.63,14.74-1,15.28-9.37A14,14,0,0,0,349.51,523.78Z" transform="translate(-23.59 -7.19)"/><path class="cls-4" d="M405.19,256.56c-3.52-1-6-.52-8.19.86a8.87,8.87,0,0,0-2.92.3c-4.18,1.27-6.27,5.43-5.87,9.6.37,3.68,2.94,7.19,7.05,7.05,2.93-.11,6,0,8.66-1.48,2.45-1.34,4-3.63,5.53-5.86C412.13,263.16,409.32,257.75,405.19,256.56Z" transform="translate(-23.59 -7.19)"/><path class="cls-4" d="M428,223.88c-8.36,0-8.37,13,0,13S436.39,223.88,428,223.88Z" transform="translate(-23.59 -7.19)"/><path class="cls-4" d="M449.93,437.35c-.68-5.82-3.1-11.43-8.62-14.12a13.78,13.78,0,0,0-12.74.4,3.43,3.43,0,0,0-1.62.08c-6.72,2.17-9.94,9.66-12.39,15.73-2.91,7.22-4.94,15.34-2.75,23,3.88,13.62,17.82,19.25,28.36,8.51C448.22,462.78,451.22,448.47,449.93,437.35Z" transform="translate(-23.59 -7.19)"/><path class="cls-4" d="M435.53,402.27c-3.89-1.64-7.95-3-12-.78a11,11,0,0,0-3.89,3.73c-5.56.79-6.94,7.76-3.68,11.86,7.05,8.87,17.62,3.1,22.15-4.85C439.9,409.14,439.2,403.82,435.53,402.27Z" transform="translate(-23.59 -7.19)"/><path class="cls-11" d="M504,544c-17.31-1.88-35.16,8.31-46,21.22-5.05,6-6.36,14.42-11,20.09-10.12,12.37-15.4-3.74-25.6-7.62-14.57-5.55-35.68,6.7-49,16-11.36-36.5-62.4-15-75,13.48-.25.58.17,1.35.87,1.14,22.56-6.91,54-46.26,66.9-5.79,1.11,3.49,6.46,4.74,8.31,1.08,8.29-16.38,31-26.27,48.25-20.51,8.51,2.85,14,9.89,22.14,13.36,1.39.6,3.33-.06,3.24-1.86-.78-17.2,24.19-34.44,38.37-38.72,8.16-2.47,16.87-3,24.79.43,7.06,3.07,11.46,9.46,18.28,13a2,2,0,0,0,3-1.74C531,553.63,516.89,545.44,504,544Z" transform="translate(-23.59 -7.19)"/><path class="cls-11" d="M731.35,334.27C727,322.81,718,313.08,705,313.18c-14.63.11-25.56,12.36-32.7,23.73-6.42,10.23-11.89,22.48-13.85,34.41-2.12,12.83,1,25.67-1.32,38.27C638.83,395,613.44,406,611.35,431.87a1,1,0,0,0,1.87.51c9.52-17.93,26.29-31.9,43-10.68,2.82,3.57,7.46.14,7.89-3.27,2-15.27-1.2-30.42,1.45-45.6,2.82-16.23,13.77-46.11,32.82-50.56s26.84,17.47,26.18,32.51c-.7,15.88-9.86,29.81-11.2,45.65-.44,5.25,8.34,6.51,9.28,1.26C726.74,378.7,740.33,358,731.35,334.27Z" transform="translate(-23.59 -7.19)"/><path class="cls-11" d="M664.79,508c-14.3-11.16-32.61-30.88-52-31.65-21.12-.85-36.13,18.48-44.07,35.74-14,30.51-11.95,64.79-18.72,97a177.77,177.77,0,0,1-12.91,39c-6.58,14-13.38,19.35-28.3,22.56a2.76,2.76,0,0,0-1.22,4.59c31.05,29.62,53.45-62.42,55.57-77.06,4.72-32.62,3-75.1,28.36-100.2,29.42-29.13,44.76,19.78,72.72,12.34A1.42,1.42,0,0,0,664.79,508Z" transform="translate(-23.59 -7.19)"/><path class="cls-11" d="M421.59,662.5c-18.52,4.73-34.18,17.75-38,36.22-14.61-3.33-33.67-1.55-39.76,13.81-5.78,14.55,1.52,33.84,18.48,34.13a1.86,1.86,0,0,0,.93-3.44c-4.5-2.94-8.94-9.74-10.16-15-3-12.88,5.46-19.22,18-20.69,5.6-.66,10.66.49,16.24-.84a3.75,3.75,0,0,0,2.55-4.49c-2.42-13.93,16.65-25.61,27.56-29.44,14.87-5.22,25.93-3.66,30.91,12.35a1.15,1.15,0,0,0,2.2,0C457.75,666.22,436.75,658.63,421.59,662.5Z" transform="translate(-23.59 -7.19)"/><path class="cls-11" d="M723.65,584c-4.32-16.46-22.74-21-37.77-17.68-20,4.46-32.84,22.76-39.08,41.2-5.17,15.3-6.54,35.5,9.22,45,12.28,7.45,34.15,2.52,41.57-10.07a1.08,1.08,0,0,0-1.47-1.47c-7.83,4.78-14.06,8.55-24,7.43-9.31-1-16.87-7.2-19.09-16.31-3.47-14.24,6.34-34.24,15.67-44.4,12.12-13.19,32.14-17.41,45.21-3.74.75.79,4.68,7.58,7.24,5.27l1.46-1.32A4.08,4.08,0,0,0,723.65,584Z" transform="translate(-23.59 -7.19)"/><path class="cls-11" d="M722,405.41c-19,12.34-12.78,34.61-.16,48.78-40.63,14.86-17.91,123,28.75,81.61,1.19-1.07-.12-2.7-1.44-2.47-23.76,4.23-36.48-3.05-39.67-27.93-2.06-16.13,1.79-43.79,22.8-43.25,5.11.13,6.17-6.44,2.45-9a34.28,34.28,0,0,1-12.23-12.9Q710.93,417,739.71,412.51c7.08,2.63,15,18.37,17.69,25.27a.74.74,0,0,0,1.44-.2C760.74,418.83,742.55,392.07,722,405.41Z" transform="translate(-23.59 -7.19)"/><path class="cls-11" d="M608.59,623.59c-26-8.81-44.3,23.59-40.57,46.16-8.24,2.65-11.16,12.59-10.07,21.48-25.71,7.19-67.92,39.22-37,64.19,13.82,11.13,34.75,9.06,50.25,3,10.8-4.25,31-15.49,27.56-29.89a2.27,2.27,0,0,0-3.75-1c-7.63,6.56-11.37,14.51-21,19.54-10.64,5.56-26.93,9.69-38.84,5.66-19.43-6.58-18.63-25.74-4.44-37.92C541,706,552.07,703,564.43,698.94c3-1,3.92-3.91,2.7-6.63q2.46-7.53,4.91-15c3,.57,6.17-1.89,5.15-5.15-5.49-17.65,8.64-54.21,33.3-41.46,25.27,13.06,4.42,46.81-5.89,60.94-.45.62.4,1.23,1,1C630.64,680.52,641.28,634.68,608.59,623.59Z" transform="translate(-23.59 -7.19)"/><path class="cls-11" d="M650.44,549.64c-3.93-8.82-10.83-10.33-18.21-8.66,3.33-12.14,1.53-28.08-14.73-22.58-15.06,5.09-29.58,33.6-11.56,43.26a1.39,1.39,0,0,0,1.88-1.88c-5.29-9.61-1.45-23.44,6.56-30.34,13.55-11.68,13.13,7.21,8.14,15.84-2.18,3.78,2.7,7.13,5.8,4.48,19.14-16.33,20.33,21.9,10.22,32.13A39.9,39.9,0,0,1,618,592.62c-11.57,1.81-13.7-5.29-17.39-14.28-1-2.39-4.28-2.67-5.17,0-4,12,5.27,22.38,17.43,21.82s25.62-8.08,33.07-17.66C652.83,573.69,655.05,560,650.44,549.64Z" transform="translate(-23.59 -7.19)"/><path class="cls-11" d="M375.74,625.07a17.16,17.16,0,0,0-5.8-2.81,7.52,7.52,0,0,0-3.56-.94,18.51,18.51,0,0,0-9.72,2.71,30.68,30.68,0,0,0-14.74,17.33c-1.28,4.14,1.53,8.5,5.52,9.7a17.62,17.62,0,0,0,3.05.49c6.43,1.74,12.55.14,17.69-3.48a33.79,33.79,0,0,0,8.14-6.38,7.54,7.54,0,0,0,2.15-5.73,1,1,0,0,0,.08-.14C380.61,631.69,379.34,627.76,375.74,625.07Z" transform="translate(-23.59 -7.19)"/><path class="cls-11" d="M342.27,617.61c-9.22,0-9.23,14.34,0,14.34S351.51,617.61,342.27,617.61Z" transform="translate(-23.59 -7.19)"/><path class="cls-11" d="M689,454.61c4.56-8.86,6.14-21.54-5.47-25.22-6.25-2-11.7,1.47-16.08,6.17-11.52,8.37-18.94,22.65-20.69,36.45-.41,3.25,2.09,5.88,4.78,7.3,2.26,3.26,6.27,4.9,10.48,2.47,1.05-.6,2.11-1.28,3.19-2a24.68,24.68,0,0,0,2.35-1,6.41,6.41,0,0,0,3.42-1.22,27.57,27.57,0,0,0,4.79-4.58,40.41,40.41,0,0,0,5.49-6.7A28.9,28.9,0,0,0,689,454.61Z" transform="translate(-23.59 -7.19)"/><path class="cls-11" d="M648.52,430.26c-5.67,3.31-7.82,10-3.35,15.27,1.8,2.13,5.58,2.44,7.87,1a9.21,9.21,0,0,0,2.7-2.46c.49-.48,1.19-1.19,1.39-1.45.57-.74,1-1.52,1.46-2.31C662.59,434,654.73,426.63,648.52,430.26Z" transform="translate(-23.59 -7.19)"/><path class="cls-11" d="M290.49,640.26a16.72,16.72,0,0,0-8.35-7.71,29.84,29.84,0,0,0-7.41-6c-4.72-2.59-9.94-.15-11.65,4.74a19.53,19.53,0,0,0,1,14.44c-1.27,10,5.14,19.93,14.41,24.36,4.91,2.35,9.56.28,11.51-4.68,0-.09,0-.19.07-.28a10.06,10.06,0,0,0,4.15-5.64C295.9,653.42,293.38,645.64,290.49,640.26Z" transform="translate(-23.59 -7.19)"/><path class="cls-11" d="M254.19,630.93c-2.59-1.89-7.25-1.26-8.28,2.5a12.81,12.81,0,0,0-.38,6.06c1,6.21,10,6.41,12.73,1.67C260.55,637.24,258.12,632.18,254.19,630.93Z" transform="translate(-23.59 -7.19)"/><path class="cls-11" d="M292.1,576.59c-3.33-9.67-11.59-16.07-19.22-14.13-1.53-9.56-9.44-18.33-19.23-19.43-15.2-1.71-21.91,12.94-21.12,26a1.15,1.15,0,0,0,2.24.3c3.5-8.44,9.35-22.8,21.45-15.47,6.52,4,6.2,12.09,7.57,18.76.88,4.31,6.94,3.71,8.14,0,2-6.21,7.66,1.37,8.93,3.53a15.92,15.92,0,0,1,1.29,13.9c-2.74,7.83-9.47,9-14.91,14-1.8,1.65-.7,4.37,1.35,5.09C285.58,615.17,296.69,589.94,292.1,576.59Z" transform="translate(-23.59 -7.19)"/><path class="cls-11" d="M579.48,459c-22-19.55-41.8,10.36-48.51,31.14-10.61-5-27.73.47-37.48,4.52-20.86,8.65-30.63,32.26-23.28,53.53a2.2,2.2,0,0,0,4.2,0c5.1-14.48,1.67-29.07,14.69-40.42,6.58-5.74,34.85-19.87,39.76-6.39,1.54,4.23,9,5.47,9.87,0,2.07-12.53,6.65-27.25,18.24-34,8.89-5.2,21.49-5.48,18.94,8.07-1.45,7.66-10.14,12.22-16.52,14.71-.24.1-.37.48-.08.62C576.62,498.63,593.63,471.6,579.48,459Z" transform="translate(-23.59 -7.19)"/><path class="cls-11" d="M460.31,696.18a1.71,1.71,0,0,0-1.72,0c-3.51,2.59-2.44,6.15-3.1,10.08a14.77,14.77,0,0,1-7.32,10.91c-4.4,2.53-9.35,3.1-14.33,3.11-2.1,0-10.51.3-11.09-2.74-.1-.53-.92-.39-.92.12,0,5.6,1.71,7.73,7.59,9.27a32.11,32.11,0,0,0,19.87-1.72,21.63,21.63,0,0,0,12.41-12.13C463.53,708.45,465.78,699,460.31,696.18Z" transform="translate(-23.59 -7.19)"/><path class="cls-11" d="M487.76,594.24c-10.11,1.79-21.16,7.82-24.28,18.23-1.57,5.26,2.67,9.53,7.6,10l1,.08c.37.45.69.93,1.11,1.35,8.79,8.62,20.78,2.4,26.87-6.73,3.47-2.92,6.19-6.49,7.06-10.21C509.92,594.94,496.21,592.74,487.76,594.24Z" transform="translate(-23.59 -7.19)"/><path class="cls-11" d="M466.53,628.58l-1.11-.55c-4.1-2-9.27.41-9.27,5.32s5.17,7.36,9.27,5.33l1.11-.55C470.13,636.34,470.13,630.37,466.53,628.58Z" transform="translate(-23.59 -7.19)"/><path class="cls-11" d="M337.91,772.21c-10.4-2.54-17.42-9.66-23.92-17.7-5.49-6.77-13.2-15.53-15.46-24.14-.18-.67-1-.44-1.12.16-2,16,8.84,31.87,21.13,41.29,6,4.6,14.77,9.08,22.58,8,8.1-1.15,13.81-14.2,19.41-3.35.2.38.78.11.68-.29C357.57,761.91,348.33,774.76,337.91,772.21Z" transform="translate(-23.59 -7.19)"/><path class="cls-11" d="M470.06,774.93a23.26,23.26,0,0,0-2.88,6.91c-3.14,10.34.68,9.62-11.25,15.75-13.39,6.89-9.5,3.65-17.44-7.43-1.76-2.45-2.86-4.61-5-6.81a1.8,1.8,0,0,0-2.53,0C416.71,800,410,786.06,395,782c-5.74-1.57-9.57-.84-12.89,4.19-.12.18.17.34.29.17,6.3-8.56,25.22,11.74,32.8,12.59,4.4.49,8.2-.23,11.79-3,7.19-5.52,4.85-8.61,11.72.16,5.83,7.43,11.14,15.95,22.11,9.88,9.23-5.11,13.8-20,14.07-29.73C475,773.57,471.39,772.82,470.06,774.93Z" transform="translate(-23.59 -7.19)"/><path class="cls-11" d="M717.26,687.66c-.56-4.41-6.37-4.45-6.9,0-2,16.4,2.23,20.53-22.14,32.64-1.76.87-4.21.16-6,1.2-4.68,2.77-8,4.54-11.25,9.21-5.41,7.89-6.15,18.15-11.4,26.11-10.85,16.47-25.54,8.77-40.5,12.41-4.63,1.13-7.73,4.55-11.58,7.35-9.89,7.19-11.11,8-28,5-2.77-.49-4.73-2.77-7.71-2.73-5.85.09-9.31,1.23-14.63,3.76-1.83.87-2.37,3.55-4,4.42-8.85,4.69-15.55,1.07-23.27-2.84a.78.78,0,0,0-1.13.87c2.17,8.83,7.24,16.56,17.36,17,7.91.32,8.27-3.8,13.89-7.14,14.48-8.58,26.47,3.32,40.18-3,12.07-5.54,14.24-16.33,28.68-16.86,11.49-.41,19.79,1.86,29.29-6.91,8.9-8.21,10.08-20.58,15.87-30.53,7.79-13.36,24.8-8.52,35.09-19.25C717,710.15,718.62,698.38,717.26,687.66Z" transform="translate(-23.59 -7.19)"/><path class="cls-11" d="M779.15,596.49a1.09,1.09,0,0,0-1.58-1.22c-5.41,3.46-9.88,6.88-16.14,9-1.85.62-3.47,2.71-2.71,4.76,3.93,10.59,5.18,42.14-12,40.71-.71-.06-1,.86-.55,1.32,8.67,9.45,17.33,1.47,20.47-8.37,3.08-9.63,4.13-22.65.75-32.79C772.9,607,777.67,602.84,779.15,596.49Z" transform="translate(-23.59 -7.19)"/><path class="cls-11" d="M782.51,495a3.09,3.09,0,0,0-4.59,2.63c-.36,4.51.23,5.27,2.56,8.81,6.28,9.52,13.83,12.05,14.53,25.7a107.22,107.22,0,0,1-11.82,53.72.74.74,0,0,0,1.27.74C802.34,562.22,815.12,513.51,782.51,495Z" transform="translate(-23.59 -7.19)"/><path class="cls-11" d="M744.14,116.5a1.75,1.75,0,0,0-3.5,0c-.17,1.59-.15,3.2-.23,4.8-2.68,1-5.88,13.61-7.53,16.77-6.44,12.33-16.47,24.18-28.28,31.78-9.18,5.91-19.49,9.9-28.66,15.89-10.79,7-30.3,23.86-13.41,35.38,2.25,1.54,4.42-1.37,3.43-3.44-10.2-21.31,29.3-32.67,42.62-41C728.6,164.12,746.92,141.11,744.14,116.5Z" transform="translate(-23.59 -7.19)"/><path class="cls-11" d="M735.07,157.4a240.18,240.18,0,0,0-13.32,30.79c-4.94,13.54-13.21,24.38-19.25,37.14a1.53,1.53,0,0,0,2.07,2.07c22.52-12.72,24.61-47.8,30.87-69.84A.2.2,0,0,0,735.07,157.4Z" transform="translate(-23.59 -7.19)"/><path class="cls-11" d="M796.35,225c-15.36-2.72-34.23,4.68-47.57,11.68-10.83,5.67-29.41,17.64-26.61,32.16.59,3.07,4.67,3,6.16.81,8.49-12.46,15.68-20.1,30-26.53,12.42-5.57,24.8-7.82,38-10.24C800.24,232.18,800.26,225.71,796.35,225Z" transform="translate(-23.59 -7.19)"/><path class="cls-11" d="M792.25,229.83c-12.28,5-21.32,14.15-28.17,25.28-6.32,10.28-15.27,25.78-14.66,38.15.06,1.21,1.72,2.19,2.63,1.09,7.22-8.76,9.67-21.42,15-31.42,6.52-12.17,14.77-23.69,25.72-32.15C793.25,230.44,792.77,229.62,792.25,229.83Z" transform="translate(-23.59 -7.19)"/><path class="cls-11" d="M413.93,168.73c-4.2-4.18-9.59-5.82-14.65-8.81a107.12,107.12,0,0,1-23.53-19.33c-14.09-15.07-25.46-33.2-27.31-54.1-.17-1.93-3.11-3.3-4.1-1.11-14.41,31.91,4.84,66.92,22.08,93.64a.17.17,0,0,0,.29-.17c-13.56-24.28-25.32-51.5-21.26-79.28,3.23,15.6,11.91,30.26,21.81,42.32,9.63,11.71,28.56,33.21,45.65,30.7C414.69,172.33,415.05,169.84,413.93,168.73Z" transform="translate(-23.59 -7.19)"/><path class="cls-11" d="M455.71,138.72a117.94,117.94,0,0,1-5-28.58,1.32,1.32,0,0,0-2.44-.66A113.32,113.32,0,0,0,435,140.17c-2.25,8.84-5.93,21-.92,29.41a1.29,1.29,0,0,0,2.33-.31c3.94-9.4,3.23-20.81,5.9-30.76,1.61-6,3.14-12,4.94-17.87-.24,15.65,4.49,34,17.51,41.87a.84.84,0,0,0,1.23-.94C463.25,153.61,458.29,146.81,455.71,138.72Z" transform="translate(-23.59 -7.19)"/><path class="cls-11" d="M560.59,111.69c-5.73,20.37-10.65,39.53-27,54.25-.18.16,0,.4.24.31,18.74-8.91,26.24-35.39,27.38-54.47C561.27,111.39,560.69,111.33,560.59,111.69Z" transform="translate(-23.59 -7.19)"/><path class="cls-11" d="M598.12,133.25a1.22,1.22,0,0,0-2.34,0c-2.55,14.86-13.08,29.49-23.62,41.16,1.7-21.41-1.53-43.32-11.17-62.68,0-.11-.19,0-.18.07,3.36,24.48,6.06,46.25,4.52,71.07-.16,2.49,3.38,4,5,2.08,9.81-11.2,22.15-23.44,26-38.29,4.22-16.46.44-3.16,1.37,4.28C599,161.12,599,172.43,602,182.28a1.83,1.83,0,0,0,3.49,0C609.49,166.07,600.63,149.1,598.12,133.25Z" transform="translate(-23.59 -7.19)"/><path class="cls-11" d="M327.06,208.08c-11.31-4.93-23.58-5.31-34.91-10.68C280,191.62,268.6,184,257.69,176.15c-1.46-1.05-3.85.73-3.16,2.44,7.26,18.09,22.08,34.47,35.33,48.48,1.09,1.15,2.9-.32,2.16-1.67-7.71-14-18.23-26.34-27.46-39.47,19.19,12.47,38.23,21.81,62,24C327.52,210,328,208.47,327.06,208.08Z" transform="translate(-23.59 -7.19)"/><path class="cls-11" d="M238,272.85c-9.78-.37-20.77,1.37-30.25,3.53-7.45,1.69-17,4.41-21.63,10.91a.51.51,0,0,0,.57.74c8.29-3.07,16.23-6.51,24.7-9.17,8.81-2.77,17.66-3.68,26.72-5.22C238.53,273.56,238.39,272.87,238,272.85Z" transform="translate(-23.59 -7.19)"/><path class="cls-11" d="M231.24,295.39c-7.35-3.84-16.77-4.14-24.69-6.52-.13,0-.17.15-.06.2,7.59,3,16.18,6.86,24.32,7.88C231.65,297.06,231.94,295.76,231.24,295.39Z" transform="translate(-23.59 -7.19)"/><path class="cls-11" d="M190.92,330c-17.66-4-31.64,10.77-41.86,23.08C134.44,370.68,121.81,391.62,99,399c-2.64,1-2.63,5.66.73,5.39.25,0,.47-.1.72-.12v0l.15-.05A35.08,35.08,0,0,0,113.73,400c14.64-3.61,29.5-4.07,44.74-6.2,2.44-.34,1.5-3.7-.53-3.94a108,108,0,0,0-32.68,1.5,108.25,108.25,0,0,0,12.66-15.2c15.16-21.52,26.82-37.53,53-45.32A.44.44,0,0,0,190.92,330Z" transform="translate(-23.59 -7.19)"/><path class="cls-11" d="M158.77,421.27c-20.68,16.24-37,43.69-67,35.13-2.78-.79-4.58,3.3-2,4.71,16.14,8.73,29.21,26.08,46.26,32.26a1.55,1.55,0,0,0,1.74-2.26c-7.36-10.93-21.79-20.63-34.66-28.26,23.57-1.11,41-24.46,56.79-40.39C160.74,421.67,159.6,420.63,158.77,421.27Z" transform="translate(-23.59 -7.19)"/><path class="cls-11" d="M120.31,530.54c11.33-2.49,26.8-8.6,35-17a.34.34,0,0,0-.24-.57c-10.38.41-19.41,6.38-29.7,8-13.24,2.07-25,1-37.39-4.68-4-1.85-9.9,2.29-6.77,6.76,15.9,22.74,42.34,49.59,69.3,58.38a1,1,0,0,0,1.14-1.47c-7.63-11.22-18.84-18.62-29.09-27.32a220.59,220.59,0,0,1-23-22.22A49,49,0,0,0,120.31,530.54Z" transform="translate(-23.59 -7.19)"/><path class="cls-11" d="M152.22,641c-24.43-1.71-50.7-3.63-71-18.44,24.48-2.22,54.32-7.64,70.31-25.58a1,1,0,0,0-1-1.74c-12.81,3.51-23.67,11.67-36.57,15.32-13.84,3.91-28.54,4.07-42.82,4.81-3.86.2-5.54,5.35-2,7.43,24.52,14.44,54.2,32.23,83.36,20.1A1,1,0,0,0,152.22,641Z" transform="translate(-23.59 -7.19)"/><path class="cls-11" d="M196,689.67c-8.62,3.75-15.5,10.72-24.81,12.86,8.89-13,22.1-22.87,26.53-38.83.41-1.48-1.51-2.07-2.33-1-10.15,13.48-20,26.63-28.65,41.12a1.49,1.49,0,0,0,1.28,2.22c10.67-.74,22.39-6.42,29.16-14.86A1,1,0,0,0,196,689.67Z" transform="translate(-23.59 -7.19)"/><path class="cls-11" d="M227.5,784.54c-7-22.4-12.78-44.15-9.39-67.87.23-1.64-2.2-3.14-3-1.26-7.35,17.17-7.14,34-2.75,52,4.84,19.94,10.82,42.61,20.3,60.86a1.18,1.18,0,0,0,2.14-.28C237.67,813.19,231.92,798.59,227.5,784.54Z" transform="translate(-23.59 -7.19)"/><path class="cls-11" d="M253.43,734.12a1.38,1.38,0,0,0-2.51,1.06c5.3,20.89.88,37.67-4.15,57.89a1.24,1.24,0,0,0,2.26,1C261.37,777.79,264.27,751.68,253.43,734.12Z" transform="translate(-23.59 -7.19)"/><path class="cls-11" d="M334.15,800c-6.23,8.74-4.44,20.52-8.55,30.13-5.39-14-12.91-26-21.76-38.21-.13-.17-.41,0-.29.17,8.2,13.45,15.43,27.84,20.09,42.92a1.86,1.86,0,0,0,3.35.43c7-10.08,9.32-22.73,9.28-34.87A1.15,1.15,0,0,0,334.15,800Z" transform="translate(-23.59 -7.19)"/><path class="cls-11" d="M387.9,854.76c-3.45-14.74-12.47-27.8-22.17-39.09a.85.85,0,0,0-1.4.82c4.22,13.14,13.41,24.17,17,37.47,4.21,15.63-2.2,28.54-3.95,43.76-.27,2.4,3.31,2.58,4,.54C386.29,884.16,391.41,869.76,387.9,854.76Z" transform="translate(-23.59 -7.19)"/><path class="cls-11" d="M408.58,852.56c-4.27,5-6.58,11.41-9.65,17.2-3.67,6.92-7.59,14.55-12.52,20.64-.19.24.11.55.33.34,10.37-9.85,21-22.45,23.86-37C410.81,852.66,409.43,851.57,408.58,852.56Z" transform="translate(-23.59 -7.19)"/><path class="cls-11" d="M500.24,876.07a.81.81,0,0,0-1.55,0c-2.8,11.8-4.46,24-7.65,35.76a62.87,62.87,0,0,0-4.26-23.73c-7.2-17.52-21.8-27.1-24.17-47.54a.3.3,0,0,0-.6,0c-.25,12.7,4.72,21,10.08,32.29,9.39,19.71,11.72,37.26,11.71,58.73,0,3.29,4.27,3.45,5.37.73C496.93,913.05,504.13,896.94,500.24,876.07Z" transform="translate(-23.59 -7.19)"/><path class="cls-11" d="M596.36,869.22c-13-7.78-8-26.55-8.39-38.67,0-1.23-1.9-1.95-2.5-.67-5.61,12-3.69,25.26,2.06,36.56a93.55,93.55,0,0,1-25.25-12.93c-10.06-7.39-15.75-18.69-25.33-26.15a.48.48,0,0,0-.8.33c.29,12.2,11.88,23,20.79,30,10.89,8.56,23.55,14.08,36.89,17.57A3.3,3.3,0,0,0,596.36,869.22Z" transform="translate(-23.59 -7.19)"/><path class="cls-11" d="M704.81,865.86c-16.79-23.58-12.72-52.9-11.29-79.6.15-2.77-3.44-3.22-4.8-1.31-7.61,10.74-5,28.83-3.27,40.92a119.29,119.29,0,0,0,7.72,28.49c-7.77-7-16-13.63-23.48-20.87-11.28-10.86-20.29-23.63-31.38-34.61a.34.34,0,0,0-.56.32c8.82,28.52,40.28,53.16,63.42,70.3C703.29,871.07,706.31,868,704.81,865.86Z" transform="translate(-23.59 -7.19)"/><path class="cls-11" d="M764.43,741.6a.71.71,0,0,0-1.31.36,111.39,111.39,0,0,1-3.88,42.58c-3.42-21.72-21-45.94-41.07-51.42a.27.27,0,0,0-.21.49c19.56,11.54,39.09,37.34,38.33,60.82-.06,2.06,2.79,2.23,3.43.46C765.66,778.37,772.68,758.52,764.43,741.6Z" transform="translate(-23.59 -7.19)"/><path class="cls-11" d="M807.7,697.07c-.48-1.09-2.21-.52-2.18.59.25,7.68,3.15,14.45,7.08,21,1.2,2,6.17,7.15,7.64,10.36-1.42-.93-2.85-1.86-4.24-2.82A105.82,105.82,0,0,1,777.1,679a.44.44,0,0,0-.84.23,75.18,75.18,0,0,0,16.79,33.14c7.21,8.36,18.6,20.16,30,21.9a1,1,0,0,0,1.14-1.48C818,721.15,813,709.07,807.7,697.07Z" transform="translate(-23.59 -7.19)"/><path class="cls-11" d="M825.94,641.94c-1.28-7.72-1-15.85-3.44-23.29a1.58,1.58,0,0,0-3,0c-3.34,11.05-.51,24.76,2.72,36.93-3.8-3.85-7.54-7.76-11.41-11.6-5.08-5.06-10.87-10-18.38-10a.82.82,0,0,0-.57,1.37c5.6,6.08,12.42,10.92,18,17.11,5.23,5.81,10.15,11.87,16.84,16A3.18,3.18,0,0,0,831.3,665,222,222,0,0,1,825.94,641.94Z" transform="translate(-23.59 -7.19)"/><path class="cls-11" d="M861.5,571.39c-8-14.47-18.47-32.29-31.16-43.13a1.11,1.11,0,0,0-1.74,1.34c12.7,28.75,37.8,52.58,44,84.31-14.67-13-35.43-25.56-54.56-21a.47.47,0,0,0,0,.9c22.06,6.8,39.49,13,56.5,29.69,2.15,2.11,5.14-.1,4.71-2.74C876.28,603.11,870.1,587,861.5,571.39Z" transform="translate(-23.59 -7.19)"/><path class="cls-11" d="M867.67,461.71c-9.66,1.73-19.08,3.91-28.88,4.91-7.13.74-14.34.35-20.94,3.37a.54.54,0,0,0,0,.92c12.1,5.35,31,1.79,44.73-2.67C857.65,474,850.5,478.43,844.3,482c-7.35,4.19-15.43,4.89-22.68,8.56a1.59,1.59,0,0,0,0,2.71c7.13,5.08,18.42-1.09,24.64-5.18,9.36-6.16,15.68-14.93,23.59-22.61C871.57,463.79,869.75,461.34,867.67,461.71Z" transform="translate(-23.59 -7.19)"/><path class="cls-11" d="M876,521.3c-5-2.87-12.22-8.09-18.18-6.38a1.32,1.32,0,0,0-.58,2.18c2.93,3,7.81,5.21,12.34,6.85-4.23,1.64-9.26.76-13.58-.52-4.82-1.44-10.21-2.58-14.75-4.8a.47.47,0,0,0-.47.81c6.38,4.52,11.12,8.93,19.18,10.24,6.7,1.09,11.49-.37,16.51-4.78A2.31,2.31,0,0,0,876,521.3Z" transform="translate(-23.59 -7.19)"/><path class="cls-11" d="M855.6,389.06c-15.87,7.4-36.8,5.46-47,22.26a1.08,1.08,0,0,0,1.46,1.47C823.45,406,837,399,851.35,394.36c-4.45,6.25-8,13.09-11.77,19.79-5.55,9.74-12,17.13-20.16,24.73-1.8,1.67.17,4,2.15,3.69,21.74-2.93,29.13-34.3,36.62-50.92A1.91,1.91,0,0,0,855.6,389.06Z" transform="translate(-23.59 -7.19)"/><path class="cls-11" d="M838.05,329c-6.15,3.66-11,8.74-16.95,12.74-6.69,4.52-14.05,7.1-21.67,9.65a.43.43,0,0,0,.12.85c7.64.45,14.35-1.9,20.8-5.95a81.76,81.76,0,0,0,8.66-6.49c1.7-1.43,3.69-4,5.64-5.89-4.62,4.76-7.29,15.21-10.2,20.4-4.71,8.41-12.45,16.24-14.5,25.79a1.08,1.08,0,0,0,1.79,1c6.33-6.3,11.12-15.44,15.26-23.33,4.66-8.87,6.18-19.91,11.74-28.11C839,329.31,838.47,328.79,838.05,329Z" transform="translate(-23.59 -7.19)"/><path class="cls-11" d="M799.57,304.05c-10.54,4.54-23.89,5.75-30.38,16.16a.4.4,0,0,0,.55.54c7.63-4.32,16.07-6.52,24.3-9.26a139.93,139.93,0,0,1-10.12,9.86c-4.08,3.85-9.39,8.53-10.44,14.29-.22,1.22.83,2.83,2.26,2.26,6-2.37,10.63-8.35,14.56-13.21,4.45-5.48,8.79-11.32,12.78-17.13C804.7,305.2,801.65,303.15,799.57,304.05Z" transform="translate(-23.59 -7.19)"/><ellipse class="cls-12" cx="465" cy="489.91" rx="322.9" ry="323.45"/></g></g></svg>