<svg width="2268" height="1440" viewBox="0 0 2268 1440" fill="none" xmlns="http://www.w3.org/2000/svg">
<path d="M1340.68 1234.88C1617.81 1121.6 1748.23 799.248 1631.99 514.885C1515.75 230.522 1196.87 91.8333 919.737 205.115C642.61 318.397 512.184 640.752 628.423 925.115C744.663 1209.48 1063.55 1348.17 1340.68 1234.88Z" fill="#31ADE0"/>
<path opacity="0.76" d="M835.191 1180.15C881.924 1211.67 932.768 1235.67 985.857 1251.52C1012.7 1249.92 1039.11 1246.89 1063.54 1242.62C1107.06 1235.01 1316.51 1172.21 1304.39 1113.97C1287.47 1120.47 1269.99 1125.6 1252.22 1129.26C1344.67 1058.69 1546.37 1014.77 1583.91 890.254C1569.47 895.759 1549.96 894.79 1535.52 898.76C1572.76 854.413 1626.25 815.052 1672.75 771.059C1674.61 745.874 1674.73 720.475 1673.17 695.03C1559.39 809.523 1425.68 913.928 1280.74 970.253C1323.43 922.008 1537.96 828.566 1506.68 740.912C1369.93 799.6 1264.84 933.254 1142.43 1016.8C1064.44 1070 984.156 1122.36 896.88 1159C875.876 1167.82 855.439 1174.72 835.191 1180.15Z" fill="#60BFEE"/>
<path opacity="0.76" d="M597.794 595.799C576.814 696.518 583.453 803.9 620.853 905.564C673.729 847.349 713.232 757.427 771.258 710.859C799.728 688.013 1036.39 556.508 1019.26 516.226C996.11 461.743 833.632 586.868 797.838 566.668C878.522 490.898 994.882 424.201 1098.15 388.667C1150.84 370.545 1210.24 354.503 1265.47 344.462C1307.27 336.878 1358.11 343.895 1395.99 321.001C1423.06 304.652 1438.7 288.562 1445.18 274.032C1413.64 250.665 1380.01 230.748 1344.84 214.753C1344.48 214.777 1344.13 214.801 1343.77 214.824C1216.57 226.637 1082.28 296.004 969.176 349.4C820.85 419.428 690.645 496.427 597.794 595.799Z" fill="#60BFEE"/>
<path opacity="0.76" d="M846.32 988.115C961.428 965.41 1097.47 895.642 1189.75 824.574C1245.53 781.621 1350.06 713.79 1364.23 641.989C1319.53 664.576 1212.69 764.917 1169.06 739.566C1207.64 679.059 1290.12 641.942 1348.97 603.313C1373.31 587.341 1491.25 542.31 1484.89 501.649C1475.11 439.015 1197.67 601.116 1174.25 614.086C1020.33 699.401 837.082 795.253 846.32 988.115Z" fill="#60BFEE"/>
<path opacity="0.76" d="M763.864 1041.6C780.851 1024.88 860.094 911.754 807.36 895.522C759.304 880.708 643.369 1058.69 736.221 1070.26L763.864 1041.6Z" fill="#60BFEE"/>
<path opacity="0.76" d="M1485.34 623.395C1526.64 620.206 1633.95 575.93 1636.53 524.235C1584.67 501.909 1503.91 565.818 1474.4 603.904L1485.34 623.395Z" fill="#60BFEE"/>
<path opacity="0.76" d="M800.271 579.048C841.995 583.23 877.718 557.855 913.394 539.947C924.451 534.394 1007.26 492.174 1009.65 520.006C1009.88 522.794 1014.18 524.33 1015.32 521.305C1026.9 490.568 980.942 502.286 967.451 506.681C909.26 525.582 860.566 563.1 800.129 576.166C798.759 576.473 798.83 578.906 800.271 579.048Z" fill="#60BFEE"/>
<path opacity="0.76" d="M771.139 450.167C729.249 481.944 682.398 510.39 647.1 549.941C646.581 550.508 647.455 551.311 647.998 550.768C686.722 511.855 738.464 484.023 782.739 451.797C828.007 418.862 875.803 389.707 925.702 364.521C1040.34 306.708 1159.39 268.22 1279.08 224.063C1282.74 222.716 1280.97 217.518 1277.26 218.227C1154.22 241.357 1031.93 300.494 920.788 356.772C868.172 383.422 818.202 414.467 771.139 450.167Z" fill="#60BFEE"/>
<path opacity="0.76" d="M746.05 928.175C735.347 941.831 724.408 956.314 716.115 971.718C704.775 992.793 707.799 1015.4 697.994 1036.55C697.829 1036.88 698.325 1037.28 698.561 1036.95C703.263 1030.45 705.46 1024.83 707.374 1016.96C713.068 993.502 718.951 976.75 733.126 956.81C750.657 932.12 774.26 891.389 809.51 900.745C813.527 901.808 814.614 895.736 810.81 894.46C782.6 885.033 762.116 907.714 746.05 928.175Z" fill="#60BFEE"/>
<path opacity="0.76" d="M942.903 765.649C875.875 823.722 849.106 899.279 848.539 988.988C848.539 989.39 849.153 989.437 849.224 989.059C856.667 944.713 861.463 898.972 881.096 858.169C901.084 816.611 933.523 786.605 969.104 759.01C1033.04 709.418 1101.79 665.591 1171.42 624.717C1190.96 613.235 1457.82 446.551 1483.43 494.135C1486.66 500.159 1496.68 495.552 1494.13 489.126C1469.23 426.705 1247.23 566.526 1217.49 583.277C1122.44 636.791 1025.81 693.825 942.903 765.649Z" fill="#60BFEE"/>
<path opacity="0.76" d="M1475.91 609.102C1476.32 609.362 1476.62 608.819 1476.46 608.488C1466.46 587.957 1580.67 535.979 1594.21 523.291C1597.66 520.054 1592.75 515.66 1589.23 517.337C1575.52 523.858 1455.45 595.234 1475.91 609.102Z" fill="#60BFEE"/>
<path opacity="0.76" d="M1170.83 741.314C1246.55 779.541 1306.58 669.442 1365.7 645.58C1370.02 643.831 1369.43 636.035 1364.11 636.72C1337.94 640.098 1319.67 661.504 1301.5 679.2C1268.07 711.757 1221.25 749.016 1172.03 737.746C1170 737.273 1168.89 740.345 1170.83 741.314Z" fill="#60BFEE"/>
<path opacity="0.76" d="M1344.98 843.83C1290.97 887.94 1243.46 938.099 1187.2 979.918C1135.81 1018.12 1083.93 1054.39 1029.8 1088.53C982.88 1118.11 933.005 1167.91 876.184 1173.58C875.475 1173.65 875.262 1174.88 876.089 1174.95C915.309 1178.85 947.464 1155.32 978.675 1134.65C1035.85 1096.8 1094.94 1062.52 1150.7 1022.45C1206.1 982.635 1259.76 943.226 1309.23 896.044C1369.43 838.656 1438.4 795.042 1507.83 750.081C1515.65 745.025 1507.69 732.455 1499.87 737.559C1447.68 771.557 1393.34 804.35 1344.98 843.83Z" fill="#60BFEE"/>
<path opacity="0.76" d="M1658.88 691.439C1607.06 754.144 1555.68 811.367 1489.33 858.997C1427.5 903.391 1360.05 931.507 1293.21 966.403C1292.76 966.639 1293.02 967.442 1293.52 967.371C1445.22 945.682 1576.85 814.391 1669.65 701.315C1675.51 694.156 1664.78 684.257 1658.88 691.439Z" fill="#60BFEE"/>
<path opacity="0.76" d="M1252.48 1134.67C1259.71 1139.44 1269.87 1133.61 1276.51 1130.11C1281.23 1127.6 1307.08 1111.18 1306.94 1120.92C1306.94 1121.37 1307.55 1121.58 1307.84 1121.25C1310.15 1118.41 1311.05 1118.08 1311.43 1114.47C1311.59 1112.89 1310.65 1111.66 1309.04 1111.59C1299.03 1111.09 1289.91 1115.01 1281.19 1119.55C1275.94 1122.29 1270.74 1125.41 1265.1 1127.25C1260.56 1128.74 1256.4 1128.38 1252.24 1130.58C1250.54 1131.48 1251.16 1133.79 1252.48 1134.67Z" fill="#60BFEE"/>
<path opacity="0.76" d="M1540.65 900.509C1539.82 901.88 1540.91 903.675 1542.3 904.006C1548.26 905.471 1554.66 899.848 1559.65 897.32C1564.7 894.768 1574.27 890.988 1579.87 894.414C1580.2 894.627 1580.53 894.107 1580.25 893.847C1577.63 891.555 1577.13 889.618 1573.44 888.436C1569.66 887.208 1565.84 887.893 1562.13 888.933C1555.68 890.799 1544.29 894.508 1540.65 900.509Z" fill="#60BFEE"/>
<path opacity="0.76" d="M1508.07 888.482C1469.53 916.007 1424.46 931.671 1393.55 969.19C1390.81 972.521 1392.44 977.601 1396.65 978.688C1409.78 982.114 1418.76 980.531 1431.64 976.443C1439.74 973.868 1447.35 968.009 1455.52 965.882C1461.36 960.779 1467.76 959.669 1474.71 962.551C1486.76 962.267 1486.57 965.906 1474.09 973.443C1460.3 1000.26 1407.54 1015.99 1382.05 1024.48C1354.24 1033.74 1325.6 1040.09 1297.37 1047.89C1176.35 1081.23 1083.36 1172.38 962.206 1207.56C961.355 1207.79 961.781 1209.07 962.631 1208.88C1083.67 1182.51 1175.1 1095.09 1292.45 1061.64C1337.68 1048.74 1384.98 1040.59 1427.48 1019.68C1451.11 1008.06 1495.81 984.712 1500.7 954.636C1501.12 952.037 1499.99 949.131 1497.53 947.926C1481.73 940.13 1466.37 948.304 1451.6 954.518C1443.83 958.18 1435.98 961.748 1428.12 965.197C1407.52 969.686 1405.39 966.898 1421.79 956.833C1432.98 941.311 1458.12 931.671 1474.07 922.362C1542.47 882.387 1589.44 822.636 1646.94 768.768C1650.16 765.744 1645.39 760.073 1641.84 762.672C1592.27 799.08 1558.01 852.807 1508.07 888.482Z" fill="#60BFEE"/>
<path opacity="0.76" d="M1370.92 859.305C1370.04 861.856 1371.39 865.282 1374.56 865.022C1401.49 862.896 1418.6 840.711 1434.05 820.156C1436.93 816.305 1431.33 811.107 1428.4 814.982C1419.73 826.511 1407.26 845.483 1393.81 851.508C1360.24 866.511 1401.54 828.543 1407.56 823.133C1419 812.808 1474.05 768.934 1478.42 789.678C1486.88 829.961 1382.45 879.671 1355.42 894.579C1328.25 909.558 1169.08 987.879 1206.79 1014.44C1224.13 1026.65 1273.98 1002.39 1291.3 995.983C1299.05 993.124 1358.28 969.616 1357.4 981.713C1356.22 998.251 1306.39 1002.29 1291.46 1006.17C1230.93 1021.92 1175.22 1055.92 1121.78 1087.49C1056.55 1126.02 993.794 1188.3 915.497 1195.25C915.284 1195.27 915.284 1195.58 915.52 1195.6C975.011 1197.56 1020.73 1160 1068.78 1130.16C1134.89 1089.09 1208.72 1042.2 1283.48 1019.85C1293.02 1016.99 1418.48 987.714 1362.51 965.481C1337.37 955.511 1293.23 984.501 1270.15 992.297C1239.67 1002.6 1187.48 1017.93 1241.52 974.625C1266.37 954.708 1297.98 939.138 1325.58 923.19C1377.7 893.114 1494.03 851.083 1489.33 773.706C1489.12 770.139 1485.79 767.965 1482.53 768.792C1440.66 779.282 1385.76 816.281 1370.92 859.305Z" fill="#60BFEE"/>
<path opacity="0.76" d="M1000.13 1226.06C999.04 1225.96 998.969 1227.71 999.985 1227.95C1043.15 1237.7 1085.11 1223.72 1127.12 1214.86C1159.84 1207.96 1231.85 1196.03 1248.2 1158.41C1266.7 1115.86 1186.68 1132.47 1168.11 1138.66C1152.68 1143.81 1064.84 1172.85 1093.52 1202.12C1117.95 1227.05 1195.02 1180.86 1209.01 1159.41C1210.61 1156.95 1208.37 1154.18 1206.17 1153.4C1185.64 1146.15 1166.83 1156.52 1150.56 1168.83C1147.25 1171.34 1150.51 1176.61 1154.12 1174.43C1169.55 1165.08 1209.36 1156.17 1176.78 1175.31C1164.07 1182.77 1140.3 1198.18 1124.54 1196.95C1110.98 1195.89 1096.17 1195.93 1111.41 1173.98C1114.76 1169.14 1124.5 1166.21 1129.84 1163.52C1144.39 1156.19 1160.46 1149.6 1176.14 1145.02C1188.85 1141.31 1212.17 1132.8 1224.91 1138.95C1267.74 1159.62 1177.51 1194.66 1155.99 1200.4C1107.79 1213.25 1050.26 1230.19 1000.13 1226.06Z" fill="#60BFEE"/>
<path opacity="0.76" d="M1140.8 394.526C1138.74 397.172 1139.69 401.708 1143.35 402.37C1175.81 408.371 1135.34 423.184 1124.9 427.673C1106.42 435.635 1082.77 436.084 1063.26 441.967C1030.94 451.725 1001.71 464.719 974.092 484.329C972.225 485.652 971.705 488.677 973.666 490.307C1000.27 512.327 1041.97 484.211 1066.87 500.82C1125.37 539.828 893.29 682.483 867.017 701.597C820.237 735.619 627.517 856.68 669.997 941.901C670.139 942.161 670.564 941.972 670.446 941.688C637.747 858.334 821.655 742.991 870.679 707.362C935.841 660.015 1049.22 612.313 1083.13 531.913C1095.39 502.805 1080.39 494.347 1051.99 492.646C1038.85 491.866 1025.03 494.867 1011.99 493.024C966.13 486.55 1016.5 467.673 1040.84 459.073C1086.43 442.96 1137.16 442.369 1177.99 415.01C1180.8 413.12 1180.8 409.387 1178.55 407C1184.15 412.931 1159.63 385.878 1157.41 392.706C1159.72 376.759 1209.2 372.151 1217.18 371.23C1247.19 367.828 1277.15 370.072 1307.25 371.325C1359.86 373.498 1419.64 371.136 1436.18 311.928C1437.64 306.73 1429.73 305.076 1428.14 310.085C1392.18 423.846 1205.23 312.259 1140.8 394.526Z" fill="#60BFEE"/>
<path opacity="0.76" d="M978.557 229.709C965.492 254.588 981.392 270.11 950.796 293.453C931.635 308.054 900.259 308.905 877.649 314.622C837.035 324.876 798.052 335.39 774.969 372.531C773.504 374.87 775.134 377.705 777.095 379.028C799.398 394.007 818.985 377.799 840.957 370.404C873.727 359.347 847.643 372.861 831.294 380.422C814.354 388.242 796.823 394.763 779.623 402.016C748.72 415.058 676.73 437.456 684.905 483.314C685.496 486.575 688.024 488.985 691.426 488.016C709.831 482.818 710.752 481.755 694.356 492.387C683.677 499.31 671.745 503.988 660.452 509.729C642.779 518.707 627.635 526.716 615.916 543.113C613.057 547.106 618.184 551.996 621.681 548.405C652.466 516.817 698.561 510.579 727.716 476.935C731 473.132 727.149 467.225 722.4 468.572C674.321 482.322 713.966 446.174 732.512 435.211C753.303 422.902 776.646 414.373 798.902 405.182C824.466 394.621 856.338 385.478 876.208 365.041C878.901 362.277 877.058 357.244 873.42 356.465C862.032 354.008 853.952 355.307 843.036 358.662C839.799 359.654 815.181 373.334 812.44 371.964C817.921 361.166 823.403 350.369 828.861 339.572C836.515 336.548 844.312 333.901 852.227 331.61C886.556 320.694 940.424 320.789 966.319 292.296C975.155 282.561 975.675 272.378 980.518 261.014C992.449 232.993 966.224 249.933 1016.83 225.976C1049.81 210.383 1048.09 209.343 1076.18 217.164C1129.41 232.001 1156.32 222.125 1207.17 201.051C1207.57 200.885 1207.38 200.271 1206.95 200.389C1172.53 209.296 1140.52 226.024 1103.78 218.345C1081.69 213.738 1061.15 201.665 1038.24 201.051C1015.32 200.413 989.898 208.138 978.557 229.709Z" fill="#60BFEE"/>
<path opacity="0.76" d="M1543.04 441.378C1565.29 488.748 1530.77 515.068 1496.11 542.262C1474.71 559.06 1447.73 570.377 1427.29 587.719C1401.92 609.29 1421.24 635.492 1409.33 666.938C1384.27 733.187 1320.45 751.757 1276.53 797.096C1262.14 811.933 1264.6 814.367 1264.36 831.401C1265.61 832.701 1267.03 833.622 1268.64 834.189C1279.79 838.182 1280.07 849.972 1269.54 869.534C1263.11 883.804 1233.81 899.681 1219.59 907.667C1177.35 931.341 1134.49 933.113 1088.42 943.39C1031.95 955.983 1001.19 1000.14 960.811 1038.18C943.257 1054.74 817.919 1160.94 802.586 1088.88C802.562 1088.79 802.397 1088.81 802.42 1088.9C810.642 1160.99 929.459 1072.27 949.943 1054.58C989.423 1020.48 1021.74 970.679 1072.8 953.549C1111.26 940.649 1152.68 943.745 1190.96 928.765C1220.8 917.094 1287.33 887.065 1287.78 845.483C1287.94 829.417 1274.73 834.473 1275.18 819.021C1276.01 791.591 1319.93 776.99 1340.16 760.924C1378.34 730.611 1420.79 680.618 1429.84 630.317C1430.55 626.419 1424.95 622.615 1425.19 619.78C1427.88 588.995 1435.32 591.877 1456.21 578.836C1483.38 561.848 1509.41 542.357 1532.8 520.266C1543.93 509.752 1572.76 486.528 1572.05 467.556C1571.2 444.733 1512.77 423.398 1556.17 394.338C1559.74 391.951 1556.2 386.423 1552.51 388.596C1523.92 405.56 1531.2 416.168 1543.04 441.378Z" fill="#60BFEE"/>
<path opacity="0.76" d="M1452.9 688.558C1434.4 702.568 1421.43 724.186 1403.24 739.118C1387.78 751.805 1370.07 761.043 1354.28 773.163C1345.49 779.921 1328.08 790.411 1326.64 802.531C1324.37 821.597 1333.94 823.629 1349.63 820.156C1369.05 815.856 1396.76 785.969 1411.34 774.179C1444.54 747.411 1475.16 717.665 1515.15 701.174C1516.45 700.631 1515.86 698.67 1514.47 699C1462.44 711.286 1422.63 750.884 1381.64 783.323C1369.85 792.655 1332.24 821.172 1351.8 785.638C1361.28 768.438 1392.91 756.838 1407.7 744.434C1438.51 718.563 1458.26 686.644 1499.49 674.901C1523.28 668.121 1546.88 668.192 1569.9 658.41C1597.78 646.55 1628.21 627.294 1631.87 594.359C1631.89 594.147 1631.59 594.052 1631.54 594.288C1614.83 677.051 1503.72 650.07 1452.9 688.558Z" fill="#60BFEE"/>
<path opacity="0.76" d="M1317.62 398.614C1292.97 397.834 1273.53 397.031 1260.91 420.468C1259.09 423.87 1262.05 427.249 1265.38 427.485C1279.88 428.501 1294.11 426.257 1308.52 425.123C1313.29 424.745 1333.92 420.752 1336.94 423.469C1330.47 435.896 1324.02 448.324 1317.54 460.775C1313.1 461.035 1308.64 461.271 1304.2 461.531C1275.56 468.713 1239.2 455.412 1209.05 460.042C1128.37 472.446 1209.48 506.822 1184.15 551.051C1172.93 570.637 1134.04 586.939 1114.66 597.264C1084.52 613.306 1052.98 626.325 1021.96 640.477C978.412 660.346 939.31 685.981 903.422 717.9C857.941 758.349 818.012 805.176 776.784 849.995C768.373 859.139 736.998 903.674 725.728 902.446C720.294 894.483 714.86 886.521 709.426 878.536C715.191 873.432 720.932 868.353 726.697 863.25C737.612 854.886 749.685 848.223 762.136 842.506C762.42 842.364 762.278 841.868 761.971 842.009C732.839 853.917 690.761 875.559 692.249 913.007C692.297 914.117 693.218 914.755 694.21 914.849C743.4 919.055 787.865 848.483 816.831 817.863C853.759 778.833 889.766 738.313 931.915 704.906C973.19 672.183 1019.12 651.794 1066.61 630.128C1102.66 613.684 1197.31 581.434 1207.68 533.544C1212.05 513.391 1201.11 518.943 1195.99 503.893C1179.38 455.388 1236.25 466.989 1263.2 468.453C1286.52 469.729 1366.17 480.763 1368.51 436.794C1369.95 409.86 1338.41 413.853 1319.72 414.68C1307.48 415.223 1292.74 420.019 1280.64 418.106C1247.89 412.931 1314.4 409.317 1323.88 408.82C1355.02 407.19 1379.3 409.151 1408.91 397.102C1433.22 387.202 1485.88 357.197 1476.48 321.308C1475.75 318.521 1472.89 317.623 1470.45 318.048C1461.74 319.584 1464.81 319.206 1455.45 327.239C1451.34 330.783 1455.66 338.201 1460.22 334.752C1463.2 332.507 1454.32 354.929 1453.23 356.63C1442.01 374.35 1410.49 386.73 1390.93 393.085C1366.24 401.071 1342.99 399.417 1317.62 398.614Z" fill="#60BFEE"/>
<path opacity="0.76" d="M1181.39 670.151C1129.17 700.582 1071.53 717.593 1021.46 752.111C1018.44 754.19 1018.84 760.144 1023.05 760.687C1038.02 762.625 1052.06 758.75 1066.73 756.529C1094.02 752.371 1118.33 759.601 1094.94 792.063C1084.07 807.16 1057.59 812.571 1040.67 818.123C1011.61 827.644 940.448 837.804 931.328 876.716C925.988 899.54 942.101 900.012 961.546 899.138C1022.38 896.444 1065.53 852.169 1113.53 820.887C1113.82 820.698 1113.53 820.273 1113.25 820.439C1080.72 840.237 1051.23 868.046 1015.32 881.536C1002.09 886.498 974.139 897.342 961.262 893.208C897.329 872.653 1037.41 829.984 1056.33 823.226C1076.89 815.902 1157.81 769.854 1112.33 744.291C1098.72 736.636 1042.56 759.175 1036.96 751.78C1038.28 753.529 1175.98 685.343 1195.35 673.412C1247.78 641.115 1288.11 592.917 1341.32 561.612C1358.59 551.453 1376.4 539.994 1394.83 532.126C1419.9 521.423 1434.85 525.7 1409.52 549.326C1397.31 560.714 1371.04 565.109 1355.4 569.22C1350.41 570.519 1352.96 577.772 1357.81 576.874C1393.51 570.283 1427.69 558.824 1445.04 524.66C1446.29 522.203 1445.27 518.565 1442.65 517.383C1399.08 497.844 1328.16 554.571 1296.97 578.576C1257.87 608.676 1224.2 645.202 1181.39 670.151Z" fill="#60BFEE"/>
<path opacity="0.76" d="M714.58 549.775C716.045 560.124 731.662 559.675 734.497 567.519C743.049 591.169 659.814 634.712 646.04 650.943C644.882 652.29 644.717 654.983 646.371 656.165C683.677 682.579 724.267 666.796 761.218 648.132C789.168 634.027 816.244 617.819 843.438 602.367C853.621 596.579 935.061 540.348 938.156 577.324C939.668 595.421 803.249 665.615 786.806 676.271C754.012 697.534 718.951 718.396 693.718 749.205C667.752 780.912 652.797 821.242 631.25 856.02C630.588 857.083 632.313 858.312 633.069 857.296C657.428 824.55 671.84 784.479 698.325 753.434C732.583 713.246 781.23 689.076 824.348 660.228C858.063 637.689 925.09 615.291 945.126 578.977C954.08 562.722 951.198 554.879 933.62 552.54C920.153 550.744 902.267 563.077 890.549 568.794C856.054 585.616 823.143 606.148 789.593 624.789C764.927 638.492 730.409 664.387 700.546 662.213C680.133 660.724 670.28 645.013 683.039 628.262C687.386 622.568 699.837 618.859 705.838 615.126C716.895 608.227 736.174 600.217 742.104 587.105C753.421 562.108 719.919 558.328 731.733 535.93C738.277 523.503 774.567 510.154 786.853 502.664C807.053 490.355 826.994 477.668 847.076 465.169C889.462 438.802 933.076 415.53 976.454 390.959C1060.19 343.517 1135.27 300.824 1228.93 274.906C1266.59 264.487 1299.4 259.171 1338.24 268.173C1379.66 277.789 1343.3 301.77 1320.74 305.408C1301.81 308.479 1277.64 301.273 1258.06 299.147C1185.17 291.185 1116.46 321.71 1057.16 361.308C1054.33 363.198 1057.14 367.592 1060.07 365.868C1134.49 322.017 1201.59 301.557 1287.71 311.267C1309.4 313.724 1362.08 324.64 1376.52 299.194C1411.16 238.215 1245.32 259.927 1225.9 265.385C1071.03 308.976 935.604 400.858 800.013 485.677C784.726 495.246 710.681 522.345 714.58 549.775Z" fill="#60BFEE"/>
<path opacity="0.76" d="M720.748 1006.09C720.252 1008.22 722.024 1009.97 724.009 1010.02C753.069 1010.99 783.027 953.762 786.642 929.215C786.949 927.088 785.083 925.056 782.933 925.765C780.098 926.663 777.735 927.632 775.538 928.671C783.5 919.74 796.235 907.715 802.755 920.756C808.237 931.672 794.793 951.683 789.714 960.496C783.264 971.647 742.177 1039.46 723.631 1029.96C722.875 1029.58 722.52 1030.9 723.276 1031C747.21 1033.97 770.458 997.825 782.224 981.641C792.431 967.607 820.546 933.869 806.465 914.259C783.287 881.985 724.977 987.619 720.748 1006.09ZM779.672 934.247C780.074 937.129 775.396 945.021 773.837 948.234C769.419 957.354 764.055 966.095 758.22 974.317C753.92 980.366 749.336 986.367 744.115 991.612C740.358 995.392 736.271 999.361 731.428 1001.68C726.962 1003.8 728.592 1006.05 727.954 1003.9C726.088 997.684 740.878 977.436 743.69 972.758C749.738 962.622 756.212 952.676 763.394 943.32C764.032 943.39 764.67 943.272 765.26 942.729C770.34 938.783 775.443 934.814 780.523 930.868C780.263 931.979 779.956 933.113 779.672 934.247Z" fill="#60BFEE"/>
<path opacity="0.76" d="M1658.74 795.986C1640.31 820.108 1614.34 835.418 1595.42 859.116C1593.48 861.525 1594.57 865.211 1597.66 865.991C1607.33 868.448 1612.71 864.053 1621.17 865.589C1634.54 868.023 1629.04 846.286 1631.99 872.252C1633.79 888.011 1622.04 900.485 1613.28 912.109C1595.63 935.5 1573.02 954.802 1557.62 979.941C1556.2 982.232 1557.64 985.446 1559.81 986.651C1581.27 998.558 1495.17 1054.2 1485.11 1059.63C1439.18 1084.39 1386.82 1090.58 1342.95 1120.02C1340.51 1121.65 1340.75 1124.56 1342.47 1126.61C1354.19 1140.48 1357.29 1133.58 1370.07 1139.63C1396.03 1151.92 1393.79 1154.23 1367.23 1174.53C1350.44 1187.38 1331.2 1196.85 1312.54 1206.56C1292.39 1217.05 1272.49 1228.21 1252.2 1238.41C1238.61 1245.24 1224.84 1252.07 1210.24 1256.46C1201.97 1259.42 1193.42 1261.35 1184.6 1262.35C1173.9 1233.47 1185.38 1223.53 1219.07 1232.55C1220.68 1232.74 1221.27 1230.36 1219.59 1230C1192.92 1224.45 1167.36 1234.09 1149.45 1254.27C1148.64 1255.16 1148.6 1256.98 1149.66 1257.76C1180.26 1280.11 1220.66 1260.46 1250.14 1246.4C1306.37 1219.61 1370.99 1193.48 1409.08 1142.11C1410.64 1140.01 1410.14 1137.43 1407.92 1136.02C1394.48 1127.49 1362.08 1137.03 1362.39 1117.47C1362.56 1107.12 1469.21 1079.1 1482.58 1072.41C1508.28 1059.54 1558.25 1034.82 1570.61 1006.78C1573.87 999.362 1572.69 993.242 1574.7 986.863C1575.38 984.713 1569.33 981.831 1569.55 980.72C1571.74 969.994 1585.52 958.984 1592.25 951.093C1614.72 924.75 1654.01 889.995 1644.18 850.303C1643.4 847.161 1639.95 846.664 1637.59 847.822C1632.3 852.642 1626.42 853.918 1619.92 851.673C1601.39 851.106 1607.75 843.333 1638.98 828.378C1652.66 815.123 1652.59 816.116 1663.56 800.428C1665.97 797.096 1661.33 792.607 1658.74 795.986Z" fill="#60BFEE"/>
<path opacity="0.76" d="M1275.25 1113.57C1275.18 1113.55 1275.14 1113.48 1275.04 1113.45C1271.52 1112.32 1269.91 1111.73 1275.25 1113.57Z" fill="#60BFEE"/>
<path opacity="0.76" d="M1275.04 1113.45C1279.91 1115.01 1288.44 1117.63 1287.33 1116.31C1299.07 1111.75 1299.99 1115.39 1290.16 1127.2C1288.11 1136.04 1283.19 1142.44 1275.45 1146.46C1249.43 1173.16 1208.25 1187.57 1175.18 1201.25C1116.39 1225.56 1058.37 1245.55 993.914 1246.99C993.134 1247.01 993.063 1248.19 993.819 1248.36C1036.32 1258.45 1080.88 1245.76 1121.24 1233.14C1171.42 1217.43 1223.7 1199.69 1267.6 1170.09C1280.67 1161.27 1329.9 1132.83 1319.44 1107.88C1311.45 1088.83 1291.56 1101.9 1276.18 1101.69C1269.07 1101.62 1269.3 1111.23 1275.04 1113.45Z" fill="#60BFEE"/>
<path opacity="0.76" d="M1565.46 878.866C1563.38 882.056 1565.41 887.514 1568.77 888.978C1624.69 913.432 1480.47 1008.17 1458.43 1018.71C1413.85 1040.02 1365.2 1053.51 1327.73 1087.06C1327.21 1087.53 1327.97 1088.29 1328.51 1087.98C1411.44 1042.74 1542.14 1019.09 1592.75 927.725C1602.74 909.699 1600.83 902.871 1596.79 885.741C1594.54 876.22 1588.45 888.884 1589.39 874.519C1590.03 864.808 1605.67 853.303 1611.46 847.845C1628 832.228 1646.47 818.997 1663.25 803.711C1668.23 799.151 1661.07 791.449 1655.71 794.709C1621.62 815.382 1587.41 845.057 1565.46 878.866Z" fill="#60BFEE"/>
<path opacity="0.76" d="M1502.57 740.463C1567.7 803.38 1328.35 937.153 1286.83 966.497C1285.68 967.323 1286.81 969.119 1288.06 968.41C1351.19 932.475 1414.98 896.444 1469.82 847.987C1489.88 830.267 1514.73 808.365 1523.05 781.408C1526.1 771.532 1518.7 733.304 1518.32 733.635C1522.72 729.761 1516.46 723.381 1511.9 725.957C1509.02 727.587 1506.13 729.193 1503.27 730.8C1499.75 732.761 1499.87 737.864 1502.57 740.463Z" fill="#60BFEE"/>
<path opacity="0.76" d="M1361.02 646.194C1362.13 694.581 1321.05 727.823 1289.34 757.191C1247.92 795.537 1203.29 829.062 1154.98 857.934C1058.86 915.369 954.742 941.949 853.314 985.587C852.913 985.752 852.936 986.508 853.48 986.438C975.368 972.545 1103.61 910.361 1204.24 842.151C1261.86 803.097 1378.84 728.627 1373.66 645.769C1373.14 637.453 1360.83 637.902 1361.02 646.194Z" fill="#60BFEE"/>
<path opacity="0.76" d="M1009.06 505.57C1039.51 543.797 830.252 652.715 816.737 660.653C770.241 687.941 736.408 722.412 705.103 766.712C675.405 808.743 657.189 862.847 619.009 897.224C618.111 898.027 619.387 899.35 620.332 898.807C639.634 888.009 650.644 873.125 662.41 854.389C684.713 818.902 706.497 783.888 733.218 751.473C790.465 682.082 870.487 658.385 940.445 606.785C958.826 593.247 1060.35 521.281 1017.04 496.544C1011.89 493.615 1005.06 500.537 1009.06 505.57Z" fill="#60BFEE"/>
<path opacity="0.76" d="M798.689 564.967C798.358 565.487 799.138 565.936 799.54 565.558C894.943 474.148 1005.87 425.359 1129.86 386.069C1195.92 365.136 1260.61 356.11 1328.96 346.471C1372.86 340.281 1406.57 322.419 1438.3 291.752C1444.63 285.633 1434.38 276.371 1428.05 282.373C1371.42 335.744 1307.2 330.358 1235.68 343.943C1170.43 356.323 1107.58 378.437 1045.02 400.126C953.347 431.88 853.597 480.669 798.689 564.967Z" fill="#60BFEE"/>
<path opacity="0.76" d="M1054.96 1012.1C1022.62 1015.38 1003.69 1024.45 984.224 1051.39C967 1075.2 955.423 1101.21 932.269 1119.95C894.042 1150.88 846.151 1159.19 800.742 1136.61C800.552 1136.51 800.387 1136.79 800.6 1136.91C844.616 1163.47 896.783 1155.96 936.286 1124.44C952.045 1111.87 962.464 1095.47 973.426 1078.86C995.257 1045.74 1012.74 1023.27 1055.32 1019.04C1068.64 1017.72 1082.08 1018.29 1095.24 1015.24C1143.49 1004.01 1143.11 958.44 1184.55 945.469C1238.49 928.576 1278.82 915.156 1307.43 859.941C1308.59 857.721 1305.35 856.209 1304.08 858.17C1281.06 893.231 1251.63 924.016 1209.78 935.002C1194.88 938.924 1172.93 934.837 1159.41 943.933C1151.95 948.966 1153.03 954.801 1149.04 958.274C1146.87 964.157 1144.72 970.017 1142.54 975.9C1130.45 994.494 1114.43 1005.03 1094.49 1007.51C1081.04 1011.15 1068.69 1010.7 1054.96 1012.1Z" fill="#60BFEE"/>
<path opacity="0.76" d="M1430.31 398.355C1443 418.508 1425 440.504 1410.28 449.128C1400.71 454.727 1389.46 460.114 1378.88 463.422C1361.49 468.856 1341.69 467.155 1324.78 474.125C1304.06 482.677 1311.9 483.977 1306.28 496.877C1293.59 526.032 1303.06 524.047 1277.55 535.459C1267.29 540.042 1256.47 543.373 1246.05 547.579C1231.43 553.462 1218.43 560.195 1204.42 567.59C1149.42 596.533 1095.81 618.411 1046.03 656.473C981.532 705.757 881.805 759.625 852.319 841.491C835.663 887.727 850.642 942.162 829.237 986.816C814.328 1017.96 777.235 1036.12 772.911 1072.41C772.675 1074.33 773.927 1076.05 775.912 1076.05C792.805 1075.93 801.334 1072.27 814.683 1062.21C815.651 1061.5 814.683 1059.96 813.643 1060.58C788.694 1056.44 783.472 1048.88 798.002 1037.9C800.885 1034.8 803.767 1031.71 806.626 1028.61C814.754 1019.59 824.039 1011.13 830.512 1000.66C841.569 982.776 845.657 961.394 848.114 940.579C852.485 903.604 848.894 865.92 865.668 831.662C883.27 795.774 915.213 769.052 945.809 745.331C1008.32 696.803 1070.39 642.958 1142.05 608.96C1170.42 595.493 1198.26 580.419 1226.61 567.118C1249.81 556.25 1277.83 551.123 1299.28 536.805C1311.8 528.442 1313.01 523.291 1320.43 513.179C1323.95 508.359 1318.3 505.784 1320.07 502.193C1325.6 490.994 1343.65 483.41 1360.66 478.401C1386.44 470.817 1430.31 462.335 1443.88 434.503C1448.44 425.147 1444.49 416.76 1447.23 408.869C1450.16 400.458 1441.04 404.71 1446.57 397.386C1450.25 392.519 1471.49 392.496 1477.73 390.889C1499.56 385.337 1527.39 379.218 1521.37 351.173C1520.21 345.81 1511.09 347.275 1512.04 352.732C1516.88 381.06 1449.38 384.793 1433.03 390.511C1429.91 391.645 1428.45 395.402 1430.31 398.355Z" fill="#60BFEE"/>
<path opacity="0.47" d="M857.66 235.333C597.558 383.801 508.675 721.114 659.151 988.777C665.483 1000.07 672.288 1010.91 679.257 1021.59C695.867 1031.92 713.752 1040.59 733.149 1046.9C868.126 1090.8 1030.23 1059.54 1137.87 970.632C1240.19 886.097 1316.84 725.981 1330.68 592.729C1340.94 494.018 1325.15 383.706 1276.27 295.32C1242.49 234.223 1197.52 192.806 1146.09 166.391C1048.3 161.619 948.55 183.473 857.66 235.333Z" fill="#60BFEE"/>
<path opacity="0.42" d="M1601.08 451.182C1539.82 342.194 1448.29 261.581 1343.77 214.304C1344.55 215.557 1345.45 216.809 1346.2 218.061C1464.62 413.474 1462.94 677.617 1318.63 853.066C1250.82 935.499 1157.69 1011.03 1064.36 1060.86C969.151 1111.7 863.446 1130.6 760.199 1119.69C930.711 1283.87 1190.77 1325.55 1402.58 1204.65C1662.68 1056.16 1751.56 718.845 1601.08 451.182Z" fill="#1A7AA0"/>
<path opacity="0.42" d="M1601.09 451.182C1580.11 413.853 1555.46 379.973 1528.06 349.495C1529.54 358.402 1531.32 366.813 1532.66 373.192C1571.1 556.981 1575.52 733.659 1469.86 890.774C1439.58 935.806 1415.93 983.319 1377.37 1022.16C1338.08 1061.73 1291.44 1093.49 1243.48 1121.2C1201.19 1145.63 1155.61 1161.7 1110.04 1178.73C1031.71 1207.98 972.247 1218.83 902.266 1218.85C943.872 1239.12 987.675 1254.01 1032.64 1263.2C1086.08 1261.54 1138.77 1253.2 1182.38 1243.49C1234.12 1231.96 1278.8 1208.69 1320.19 1176.61C1376.07 1133.3 1435.68 1091.95 1482.48 1037.87C1517.87 996.974 1554.97 956.101 1585.66 911.424C1634.89 839.789 1648.91 771.768 1653.42 684.044C1655.1 651.581 1656.39 619.426 1656.02 587.554C1643.94 540.986 1625.8 495.127 1601.09 451.182Z" fill="#1A7AA0"/>
<path d="M1561.06 389.826C1573.09 405.963 1584.36 422.903 1594.83 440.646C1786.18 386.022 1916.36 369.105 1930.63 404.049C1955.51 464.934 1619 660.088 1179.03 839.908C739.056 1019.73 362.168 1116.15 337.29 1055.24C323.02 1020.32 427.779 941.17 602.637 846.145C597.723 826.252 594.014 806.216 591.297 786.158C218.875 967.702 -23.7207 1129.83 1.84301 1192.34C37.2116 1278.88 572.75 1141.85 1198 886.31C1823.25 630.767 2301.44 353.465 2266.07 266.922C2240.53 204.43 1953.92 258.605 1561.06 389.826Z" fill="#6CD4F4"/>
<path opacity="0.47" d="M877.222 310.04C818.204 289.083 734.873 395.331 712.358 437.433C655.016 544.65 633.942 691.322 716.35 797.333C754.554 846.476 823.118 846.382 877.978 832.584C962.371 811.391 1035.94 761.067 1079.72 686.219C1125.79 607.448 1151.48 528.111 1129.67 435.165C1119.89 393.441 1106.28 353.607 1067.93 330.713C1021.48 302.999 952.567 298.841 877.222 310.04Z" fill="#60BFEE"/>
<path opacity="0.47" d="M765.898 455.175C731.072 490.449 697.57 600.76 777.451 603.194C880.415 606.336 853.764 418.389 765.898 455.175Z" fill="#60BFEE"/>
<path opacity="0.51" d="M1578.9 415.224C1583.84 422.666 1588.61 430.25 1593.24 437.976C1872.32 343.754 2066.19 300.045 2080.39 334.8C2102.18 388.101 1693.28 605.628 1167.09 820.699C640.888 1035.75 196.665 1166.9 174.882 1113.59C160.564 1078.53 332.635 972.38 601.857 842.624C599.754 833.859 597.793 825.093 596.116 816.304C292.612 964.654 97.6708 1091.27 116.548 1137.43C144.167 1205.01 619.246 1074.8 1177.65 846.57C1736.06 618.339 2166.35 378.556 2138.73 310.961C2119.99 265.149 1895.54 310.275 1578.9 415.224Z" fill="#B3EDFF"/>
<path opacity="0.62" d="M1602.67 454.113C1610.53 468.312 1617.74 482.677 1624.26 497.231C1652.64 494.16 1670.03 496.357 1673.43 504.721C1687.65 539.499 1457.36 666.514 1159.08 788.426C860.8 910.338 607.478 980.957 593.255 946.179C589.9 938.004 600.248 924.655 621.701 907.503C616.007 892.216 611.116 876.788 606.816 861.289C449.111 944.903 354.723 1011.91 365.851 1039.12C386.052 1088.55 746.046 988.163 1169.9 814.935C1593.78 641.706 1921.01 461.201 1900.81 411.775C1889.68 384.486 1774.69 402.962 1602.67 454.113Z" fill="#7DE0FF"/>
</svg>
