<svg width="270" height="53" viewBox="0 0 270 53" fill="none" xmlns="http://www.w3.org/2000/svg">
<g filter="url(#filter0_d)">
<path d="M3 17C3 8.16344 10.1634 1 19 1H243C251.837 1 259 8.16344 259 17V24C259 32.8366 251.837 40 243 40H19C10.1634 40 3 32.8366 3 24V17Z" fill="#00A3FF" fill-opacity="0.7"/>
</g>
<path d="M61.5261 19.851C63.4831 19.851 63.9771 20.402 63.9771 21.751V22.207C63.9771 23.613 63.9961 24.411 64.2241 25H67.5491C67.3781 24.373 67.3781 23.347 67.3781 22.416V21.751C67.3781 19.357 65.9531 18.825 65.4021 18.597C66.7321 18.179 67.7391 17.172 67.7391 15.443C67.7391 13.144 65.9721 11.624 62.8751 11.624H55.5981V25H58.8091V19.851H61.5261ZM58.8091 14.056H62.1721C63.7111 14.056 64.4141 14.645 64.4141 15.709C64.4141 16.83 63.7301 17.4 62.1531 17.4H58.8091V14.056ZM80.1521 20.839C80.1711 20.535 80.1711 20.345 80.1711 20.098C80.1711 17.552 78.6321 14.911 74.8131 14.911C71.2221 14.911 69.3601 17.343 69.3601 20.098C69.3601 22.606 70.8041 25.266 74.8321 25.266C77.9861 25.266 79.4491 23.746 80.0571 21.998H76.9411C76.5801 22.606 76.0291 22.967 74.8701 22.967C73.3881 22.967 72.5331 22.036 72.4571 20.839H80.1521ZM72.4951 18.939C72.5711 17.97 73.1791 17.096 74.7941 17.096C76.5611 17.096 76.9601 18.198 77.0171 18.939H72.4951ZM92.8873 18.065C92.8873 17.115 92.8873 16.146 92.9063 15.177H89.8853C89.8663 15.424 89.8473 15.937 89.8283 16.279C89.5813 15.728 88.8593 14.911 86.8073 14.911C83.9953 14.911 81.8103 17.172 81.8103 20.212C81.8103 22.891 83.7103 25.114 86.5603 25.114C88.4603 25.114 89.2583 24.525 89.8283 23.727V24.145C89.8283 25.817 89.3723 27.109 87.3583 27.109C85.7813 27.109 85.2493 26.539 85.0213 25.912H81.8863C82.0573 26.995 82.8173 29.408 87.1873 29.408C91.3483 29.408 92.8873 27.432 92.8873 23.898V18.065ZM84.9833 20.098C84.9833 18.54 85.8763 17.324 87.5103 17.324C89.0683 17.324 89.8853 18.407 89.8853 20.003C89.8853 21.808 88.9923 22.739 87.4153 22.739C85.8193 22.739 84.9833 21.523 84.9833 20.098ZM95.5917 25H98.6887V15.177H95.5917V25ZM98.6887 13.334V10.845H95.5917V13.334H98.6887ZM100.565 21.979C100.869 24.126 102.978 25.266 105.657 25.266C109.248 25.266 110.597 23.784 110.597 21.998C110.597 20.63 110.084 19.3 106.094 18.692C104.27 18.426 103.947 18.179 103.947 17.761C103.947 17.419 104.156 16.963 105.334 16.963C106.721 16.963 107.063 17.495 107.215 17.951H110.255C110.122 16.545 108.906 14.911 105.448 14.911C102.028 14.911 100.907 16.583 100.907 18.084C100.907 19.281 101.42 20.649 105.163 21.181C107.139 21.447 107.557 21.713 107.557 22.264C107.557 22.739 107.196 23.138 105.866 23.138C104.536 23.138 103.89 22.682 103.643 21.979H100.565ZM111.432 17.438H113.199V22.112C113.199 24.031 113.902 25.076 116.315 25.076C117.037 25.076 117.74 25.019 118.272 24.867V22.739C118.006 22.796 117.702 22.796 117.436 22.796C116.486 22.796 116.315 22.416 116.315 21.58V17.438H118.595V15.177H116.315V12.289H113.199V15.177H111.432V17.438ZM130.51 20.839C130.529 20.535 130.529 20.345 130.529 20.098C130.529 17.552 128.99 14.911 125.171 14.911C121.58 14.911 119.718 17.343 119.718 20.098C119.718 22.606 121.162 25.266 125.19 25.266C128.344 25.266 129.807 23.746 130.415 21.998H127.299C126.938 22.606 126.387 22.967 125.228 22.967C123.746 22.967 122.891 22.036 122.815 20.839H130.51ZM122.853 18.939C122.929 17.97 123.537 17.096 125.152 17.096C126.919 17.096 127.318 18.198 127.375 18.939H122.853ZM132.516 25H135.613V21.409C135.613 18.616 137.171 17.723 139.394 17.761V14.93C137.361 14.892 136.164 15.861 135.613 17.153C135.613 16.621 135.575 15.538 135.518 15.177H132.497C132.516 16.07 132.516 16.963 132.516 17.856V25ZM146.85 25H150.099V19.243H156.255V25H159.504V11.624H156.255V16.64H150.099V11.624H146.85V25ZM172.629 20.839C172.648 20.535 172.648 20.345 172.648 20.098C172.648 17.552 171.109 14.911 167.29 14.911C163.699 14.911 161.837 17.343 161.837 20.098C161.837 22.606 163.281 25.266 167.309 25.266C170.463 25.266 171.926 23.746 172.534 21.998H169.418C169.057 22.606 168.506 22.967 167.347 22.967C165.865 22.967 165.01 22.036 164.934 20.839H172.629ZM164.972 18.939C165.048 17.97 165.656 17.096 167.271 17.096C169.038 17.096 169.437 18.198 169.494 18.939H164.972ZM174.635 25H177.732V21.409C177.732 18.616 179.29 17.723 181.513 17.761V14.93C179.48 14.892 178.283 15.861 177.732 17.153C177.732 16.621 177.694 15.538 177.637 15.177H174.616C174.635 16.07 174.635 16.963 174.635 17.856V25ZM193.429 20.839C193.448 20.535 193.448 20.345 193.448 20.098C193.448 17.552 191.909 14.911 188.09 14.911C184.499 14.911 182.637 17.343 182.637 20.098C182.637 22.606 184.081 25.266 188.109 25.266C191.263 25.266 192.726 23.746 193.334 21.998H190.218C189.857 22.606 189.306 22.967 188.147 22.967C186.665 22.967 185.81 22.036 185.734 20.839H193.429ZM185.772 18.939C185.848 17.97 186.456 17.096 188.071 17.096C189.838 17.096 190.237 18.198 190.294 18.939H185.772ZM199.367 20.06L199.69 13.866V11.624H196.346V13.828L196.65 20.06H199.367ZM199.519 25V21.637H196.498V25H199.519ZM206.4 20.06L206.723 13.866V11.624H203.379V13.828L203.683 20.06H206.4ZM206.552 25V21.637H203.531V25H206.552Z" fill="white"/>
<defs>
<filter id="filter0_d" x="0" y="0" width="270" height="53" filterUnits="userSpaceOnUse" color-interpolation-filters="sRGB">
<feFlood flood-opacity="0" result="BackgroundImageFix"/>
<feColorMatrix in="SourceAlpha" type="matrix" values="0 0 0 0 0 0 0 0 0 0 0 0 0 0 0 0 0 0 127 0"/>
<feOffset dx="4" dy="6"/>
<feGaussianBlur stdDeviation="3.5"/>
<feColorMatrix type="matrix" values="0 0 0 0 0.134019 0 0 0 0 0.00256944 0 0 0 0 0.308333 0 0 0 1 0"/>
<feBlend mode="normal" in2="BackgroundImageFix" result="effect1_dropShadow"/>
<feBlend mode="normal" in="SourceGraphic" in2="effect1_dropShadow" result="shape"/>
</filter>
</defs>
</svg>
