<svg width="1762" height="563" viewBox="0 0 1762 563" fill="none" xmlns="http://www.w3.org/2000/svg">
<path fill-rule="evenodd" clip-rule="evenodd" d="M0 504.252C0 536.696 26.2979 563 58.7333 563H1703.27C1735.7 563 1762 536.696 1762 504.252V58.7478C1762 26.3043 1735.7 0 1703.27 0H58.7333C26.2979 0 0 26.3043 0 58.7478V504.252Z" fill="#CC0000"/>
<path d="M281.02 374.204C281.646 363.864 282.273 348.512 282.273 335.039V151.765H309.52V247.01H310.146C319.857 230.091 337.399 219.125 361.827 219.125C399.416 219.125 426.037 250.452 425.724 296.51C425.724 350.71 391.58 377.656 357.755 377.656C335.828 377.656 318.291 369.196 307.014 349.143H306.074L304.821 374.209H281.02V374.204ZM309.52 313.425C309.52 316.871 310.146 320.318 310.773 323.451C316.098 342.563 332.073 355.723 352.116 355.723C380.935 355.723 398.163 332.224 398.163 297.45C398.163 267.058 382.501 241.052 353.061 241.052C334.266 241.052 316.724 253.898 311.086 274.891C310.46 278.024 309.52 281.784 309.52 286.17V313.425Z" fill="white"/>
<path d="M551.526 374.204L549.333 355.092H548.393C539.936 366.998 523.647 377.651 502.033 377.651C471.34 377.651 455.678 356.032 455.678 334.099C455.678 297.445 488.255 277.393 546.827 277.706V274.573C546.827 262.04 543.382 239.486 512.375 239.486C498.279 239.486 483.557 243.872 472.911 250.765L466.646 232.598C479.176 224.451 497.339 219.125 516.447 219.125C562.808 219.125 574.079 250.765 574.079 281.158V337.864C574.079 351.023 574.706 363.865 576.585 374.204H551.526ZM547.454 296.819C517.382 296.192 483.244 301.519 483.244 330.966C483.244 348.825 495.147 357.28 509.243 357.28C528.977 357.28 541.502 344.747 545.887 331.906C546.827 329.086 547.454 325.953 547.454 323.133V296.819Z" fill="white"/>
<path d="M623.136 151.765H650.697V374.209H623.136V151.765Z" fill="white"/>
<path d="M696.338 346.005C704.482 351.332 718.886 356.972 732.669 356.972C752.717 356.972 762.114 346.945 762.114 334.412C762.114 321.253 754.283 314.047 733.922 306.527C706.675 296.819 693.832 281.779 693.832 263.607C693.832 239.168 713.566 219.12 746.144 219.12C761.493 219.12 774.957 223.506 783.415 228.52L776.523 248.572C770.572 244.812 759.608 239.799 745.517 239.799C729.228 239.799 720.144 249.199 720.144 260.478C720.144 273.011 729.223 278.651 748.958 286.171C775.27 296.197 788.735 309.357 788.735 331.916C788.735 358.543 768.061 377.342 732.043 377.342C715.441 377.342 700.097 373.269 689.441 367.008L696.338 346.005Z" fill="white"/>
<path d="M916.01 374.204L913.818 355.092H912.878C904.42 366.998 888.132 377.651 866.523 377.651C835.829 377.651 820.167 356.032 820.167 334.099C820.167 297.445 852.745 277.393 911.316 277.706V274.573C911.316 262.04 907.871 239.486 876.86 239.486C862.769 239.486 848.046 243.872 837.396 250.765L831.131 232.598C843.661 224.451 861.829 219.125 880.932 219.125C927.292 219.125 938.564 250.765 938.564 281.158V337.864C938.564 351.023 939.19 363.865 941.07 374.204H916.01ZM911.938 296.819C881.867 296.192 847.728 301.519 847.728 330.966C847.728 348.825 859.631 357.28 873.727 357.28C893.457 357.28 905.991 344.747 910.372 331.906C911.312 329.086 911.938 325.953 911.938 323.133V296.819Z" fill="white"/>
<path d="M987.405 263.612C987.405 247.945 987.092 235.099 986.152 222.571H1010.27L1011.52 247.01H1012.46C1020.92 232.598 1035.01 219.125 1060.07 219.125C1080.75 219.125 1096.41 231.658 1102.99 249.517H1103.61C1108.31 241.057 1114.26 234.478 1120.53 229.778C1129.61 222.885 1139.63 219.125 1154.04 219.125C1174.09 219.125 1203.85 232.284 1203.85 284.917V374.209H1176.91V288.359C1176.91 259.22 1166.26 241.679 1144.02 241.679C1128.36 241.679 1116.14 253.272 1111.44 266.745C1110.19 270.505 1109.25 275.518 1109.25 280.526V374.204H1082.32V283.346C1082.32 259.22 1071.67 241.679 1050.68 241.679C1033.45 241.679 1020.93 255.46 1016.54 269.246C1014.98 273.32 1014.34 278.019 1014.34 282.719V374.204H987.41V263.612H987.405Z" fill="white"/>
<path d="M1283.86 179.959C1284.17 189.359 1277.28 196.879 1266.32 196.879C1256.61 196.879 1249.71 189.359 1249.71 179.959C1249.71 170.246 1256.92 162.727 1266.94 162.727C1277.28 162.727 1283.86 170.246 1283.86 179.959ZM1253.16 374.204V222.566H1280.72V374.204H1253.16Z" fill="white"/>
<path d="M1435.42 350.705H1434.8C1426.65 365.745 1409.74 377.651 1385.31 377.651C1349.92 377.651 1321.1 346.95 1321.1 300.892C1321.1 244.186 1357.74 219.12 1389.7 219.12C1413.19 219.12 1428.85 230.713 1436.37 245.434H1436.99L1437.93 222.566H1463.93C1463.3 235.413 1462.99 248.572 1462.99 264.233V436.232H1435.43V350.705H1435.42ZM1435.42 283.973C1435.42 280.213 1435.11 275.826 1434.17 272.38C1430.1 255.46 1415.38 241.048 1394.71 241.048C1366.21 241.048 1348.97 265.173 1348.97 299.32C1348.97 329.399 1363.38 355.718 1393.76 355.718C1411.62 355.718 1426.97 344.752 1433.23 325.639C1434.48 321.88 1435.42 316.553 1435.42 312.48V283.973H1435.42Z" fill="white"/>
<path d="M1543.99 241.522C1543.99 254.682 1533.3 265.242 1519.74 265.242C1506.17 265.242 1495.35 254.687 1495.35 241.522C1495.35 228.5 1506.17 217.95 1519.74 217.95C1533.31 217.95 1543.99 228.5 1543.99 241.522ZM1502.61 241.659C1502.61 251.529 1509.87 259.342 1519.74 259.342C1529.61 259.342 1536.87 251.524 1536.87 241.517C1536.87 231.785 1529.61 223.834 1519.6 223.834C1509.87 223.839 1502.61 231.79 1502.61 241.659ZM1516.72 252.763H1510.01V230.967C1511.52 230.693 1515.08 230.282 1519.6 230.282C1524.54 230.282 1526.73 230.967 1528.37 231.927C1529.74 232.886 1530.7 234.531 1530.7 236.725C1530.7 238.918 1528.65 240.837 1525.63 241.659V241.934C1528.1 242.756 1529.47 244.401 1530.16 247.554C1530.85 250.707 1531.26 251.94 1531.67 252.758H1524.13C1523.44 251.935 1523.03 250.016 1522.62 248.102C1522.21 245.909 1521.11 244.807 1518.92 244.807H1516.73V252.763H1516.72ZM1517 240.289H1518.92C1521.39 240.289 1523.03 239.334 1523.03 237.689C1523.03 235.907 1521.52 234.943 1519.2 234.943C1518.37 234.943 1517.55 235.08 1517 235.08V240.289H1517Z" fill="white"/>
</svg>
