<svg width="1582" height="1582" viewBox="0 0 1582 1582" fill="none" xmlns="http://www.w3.org/2000/svg">
<path d="M1052.03 537.88C1113.19 537.88 1162.77 493.613 1162.77 439.005C1162.77 384.398 1113.19 340.13 1052.03 340.13C990.87 340.13 941.29 384.398 941.29 439.005C941.29 493.613 990.87 537.88 1052.03 537.88Z" fill="white"/>
<path fill-rule="evenodd" clip-rule="evenodd" d="M1067.85 282.387C1079.72 287.133 1091.58 292.67 1102.65 298.207C1116.89 283.178 1136.67 274.477 1157.23 274.477C1168.31 291.879 1172.26 314.027 1167.52 334.593C1304.36 419.23 1407.98 552.118 1454.65 708.736H1404.03C1361.31 617.771 1268.76 553.7 1161.19 553.7C1013.27 553.7 893.039 673.141 893.039 820.267C893.039 847.161 896.994 873.264 904.113 897.785H814.73V815.521H787.836V897.785H707.154V815.521H601.16V897.785H520.478V815.521H493.584V897.785H412.902V815.521H359.905V897.785H142.38C142.38 529.97 442.169 231.763 812.357 231.763C878.01 231.763 941.29 241.255 1001.41 258.657C1010.11 246.001 1022.76 235.718 1037 229.39C1052.82 242.837 1064.69 261.03 1067.85 282.387ZM1050.45 501.494C1087.63 501.494 1117.68 471.436 1117.68 435.05C1117.68 398.664 1087.63 368.606 1050.45 368.606C1013.27 368.606 983.213 398.664 983.213 435.05C983.213 471.436 1013.27 501.494 1050.45 501.494ZM1074.97 482.51C1059.94 482.51 1048.08 470.645 1048.08 455.616C1048.08 440.587 1059.94 428.722 1074.97 428.722C1090 428.722 1101.86 440.587 1101.86 455.616C1101.07 470.645 1089.21 482.51 1074.97 482.51Z" fill="#FB5252"/>
<path fill-rule="evenodd" clip-rule="evenodd" d="M144.753 1218.14V959.484H233.345C247.583 959.484 260.239 961.066 271.313 963.439C282.387 965.812 291.879 970.558 299.789 976.095C307.699 981.632 313.236 988.751 317.191 998.243C321.146 1007.73 323.519 1017.23 323.519 1029.88C323.519 1041.75 320.355 1052.03 314.027 1061.52C307.699 1071.01 298.207 1078.13 286.342 1083.67C293.461 1086.04 300.58 1088.42 306.117 1092.37C311.654 1096.33 316.4 1101.07 319.564 1105.82C322.728 1110.56 325.892 1116.89 327.474 1123.22C329.056 1129.55 329.847 1135.88 329.847 1143C329.847 1155.65 327.474 1166.73 323.519 1175.43C319.564 1184.13 313.236 1192.83 306.117 1199.16C298.998 1205.48 288.715 1210.23 277.641 1213.39C266.567 1216.56 253.911 1218.14 239.673 1218.14H144.753V1218.14ZM189.84 1101.07V1181.75H239.673C246.792 1181.75 253.12 1180.96 259.448 1178.59C265.776 1176.22 269.731 1173.84 273.686 1170.68C277.641 1167.52 280.014 1162.77 282.387 1158.02C284.76 1153.28 285.551 1147.74 285.551 1142.2C285.551 1129.55 282.387 1119.27 275.268 1112.15C268.149 1105.03 257.866 1101.07 242.046 1101.07H189.84V1101.07ZM189.84 1068.64H234.136C248.374 1068.64 258.657 1065.48 266.567 1059.15C274.477 1052.82 278.432 1044.12 278.432 1032.26C278.432 1019.6 274.477 1010.11 267.358 1004.57C260.239 999.034 248.374 995.87 233.345 995.87H189.84V1068.64ZM563.983 959.484V1132.71C563.983 1147.74 561.61 1160.4 556.073 1171.47C550.536 1182.55 544.208 1192.04 535.507 1199.16C526.806 1206.28 516.523 1212.6 504.658 1215.77C492.793 1218.93 480.137 1221.3 466.69 1221.3C452.452 1221.3 439.796 1219.72 427.931 1215.77C416.066 1211.81 405.783 1206.28 397.082 1199.16C388.381 1192.04 382.053 1182.55 376.516 1171.47C370.979 1160.4 369.397 1147.74 369.397 1132.71V959.484H414.484V1132.71C414.484 1142.2 416.066 1150.11 418.439 1156.44C420.812 1162.77 423.976 1168.31 428.722 1173.05C433.468 1177.8 439.005 1180.96 445.333 1182.55C451.661 1184.13 458.78 1185.71 466.69 1185.71C474.6 1185.71 481.719 1184.92 488.047 1182.55C494.375 1180.17 499.912 1177.01 504.658 1173.05C509.404 1168.31 512.568 1162.77 514.941 1156.44C517.314 1150.11 518.896 1141.41 518.896 1132.71V959.484H563.983V959.484ZM809.984 1184.92C807.611 1188.08 803.656 1192.04 798.91 1196.78C794.164 1201.53 787.836 1205.48 779.926 1208.65C772.016 1211.81 763.315 1215.77 752.241 1218.14C741.167 1220.51 729.302 1222.1 714.273 1222.1C697.662 1222.1 683.424 1218.93 669.977 1213.39C656.53 1207.86 644.665 1199.95 635.173 1188.87C625.681 1177.8 617.771 1165.14 612.234 1150.11C606.697 1135.09 604.324 1116.89 604.324 1097.12V1079.72C604.324 1059.94 606.697 1042.54 611.443 1026.72C616.189 1010.9 623.308 998.243 632.8 987.169C642.292 976.095 653.366 968.185 666.022 962.648C678.678 957.111 693.707 953.947 711.109 953.947C726.929 953.947 740.376 956.32 752.241 960.275C764.106 964.23 773.598 969.767 782.299 977.677C791 985.587 796.537 993.497 801.283 1003.78C806.029 1014.06 809.193 1025.14 810.775 1037H766.479C765.688 1029.88 763.315 1024.35 760.942 1018.02C758.569 1011.69 755.405 1007.73 750.659 1002.99C745.913 998.243 741.167 995.87 734.839 993.497C728.511 991.124 720.601 990.333 711.9 990.333C701.617 990.333 692.125 991.915 684.215 995.87C676.305 999.825 669.977 1005.36 665.231 1013.27C660.485 1021.18 656.53 1029.88 653.366 1040.96C650.202 1052.03 649.411 1064.69 649.411 1078.13V1095.54C649.411 1109.77 650.993 1122.43 654.157 1133.5C657.321 1144.58 661.276 1153.28 667.604 1161.19C673.932 1169.1 680.26 1174.64 688.961 1178.59C697.662 1182.55 706.363 1184.13 716.646 1184.13C724.556 1184.13 730.884 1183.34 736.421 1182.55C741.958 1181.75 746.704 1180.17 750.659 1178.59C754.614 1177.01 757.778 1175.43 760.151 1173.84C762.524 1172.26 764.897 1169.89 766.479 1168.31V1117.68H711.9V1083.67H809.984V1184.92ZM994.287 1151.7C994.287 1146.16 993.496 1142.2 991.914 1137.46C990.332 1132.71 987.168 1129.55 983.213 1126.38C979.258 1123.22 973.721 1120.06 966.602 1116.89C959.483 1113.73 949.991 1110.56 938.917 1107.4C926.261 1103.45 915.187 1099.49 904.904 1094.74C894.621 1090 885.129 1084.46 878.01 1078.13C870.891 1071.81 864.563 1064.69 860.608 1056.78C856.653 1048.87 854.28 1039.37 854.28 1029.09C854.28 1018.81 856.653 1009.32 860.608 1000.62C864.563 991.915 871.682 984.005 879.592 977.677C887.502 971.349 896.994 966.603 908.859 962.648C920.724 958.693 932.589 957.111 946.036 957.111C960.274 957.111 973.721 959.484 985.586 963.439C997.451 967.394 1006.94 973.722 1014.85 980.841C1022.76 987.96 1029.09 996.661 1033.05 1006.15C1037 1015.64 1039.37 1025.93 1039.37 1037H994.287C994.287 1030.67 993.496 1025.14 991.123 1019.6C989.541 1014.06 986.377 1010.11 982.422 1006.15C978.467 1002.2 972.93 999.034 967.393 997.452C961.856 995.87 953.946 994.288 945.245 994.288C937.335 994.288 930.216 995.079 924.679 996.661C919.142 998.243 914.396 1000.62 910.441 1003.78C906.486 1006.94 904.113 1010.9 901.74 1014.85C900.158 1019.6 899.367 1024.35 899.367 1029.09C899.367 1038.58 904.113 1046.49 912.814 1052.82C921.515 1059.15 935.753 1065.48 953.946 1070.22C968.184 1074.18 980.84 1078.92 991.914 1084.46C1002.99 1090 1011.69 1095.54 1018.81 1101.86C1025.93 1108.19 1031.46 1116.1 1034.63 1124.01C1037.79 1131.92 1040.17 1141.41 1040.17 1151.7C1040.17 1162.77 1037.79 1172.26 1033.84 1180.96C1029.88 1189.66 1023.55 1196.78 1015.64 1203.11C1007.73 1209.44 998.242 1214.19 986.377 1217.35C974.512 1220.51 962.647 1222.1 948.409 1222.1C935.753 1222.1 923.888 1220.51 912.023 1217.35C900.158 1214.19 889.084 1208.65 879.592 1202.32C870.1 1195.99 862.19 1187.29 856.653 1177.01C851.116 1166.73 847.952 1154.86 847.952 1141.41H893.039C893.039 1149.32 894.621 1156.44 897.785 1162.77C900.949 1169.1 904.904 1173.05 909.65 1177.01C914.396 1180.96 920.724 1183.34 927.843 1184.92C934.962 1186.5 942.081 1187.29 949.991 1187.29C965.811 1187.29 977.676 1184.13 985.586 1177.8C993.496 1171.47 994.287 1161.98 994.287 1151.7ZM1230.01 1102.65H1124.01V1182.55H1248.2V1218.14H1078.92V959.484H1246.62V995.87H1124.01V1067.06H1230.01V1102.65V1102.65ZM1435.67 1102.65H1329.67V1182.55H1453.86V1218.14H1284.58V959.484H1452.28V995.87H1329.67V1067.06H1435.67V1102.65V1102.65Z" fill="white"/>
</svg>
