<svg width="535" height="90" viewBox="0 0 535 90" fill="none" xmlns="http://www.w3.org/2000/svg">
<path d="M81.1711 48.9433C81.1711 71.0979 63.2113 89.0577 41.0567 89.0577C18.9021 89.0577 0.942285 71.0979 0.942285 48.9433C0.942285 26.7887 18.9021 8.82888 41.0567 8.82888C63.2113 8.82888 81.1711 26.7887 81.1711 48.9433Z" fill="#272727" stroke="white" stroke-width="1.88457"/>
<path d="M41.0565 72.7664C54.2136 72.7664 64.8795 62.1004 64.8795 48.9433C64.8795 35.7862 54.2136 25.1202 41.0565 25.1202C27.8994 25.1202 17.2334 35.7862 17.2334 48.9433C17.2334 62.1004 27.8994 72.7664 41.0565 72.7664Z" fill="#141414"/>
<path d="M41.1412 13.1245C36.7093 13.1245 33.1157 29.199 33.1157 49.028C33.1157 68.8571 36.7093 84.9316 41.1412 84.9316C45.573 84.9316 49.1666 68.8571 49.1666 49.028C49.1666 29.199 45.573 13.1245 41.1412 13.1245ZM41.6953 82.9054C41.1885 83.5814 40.6817 83.0742 40.6817 83.0742C38.6406 80.7094 37.6201 76.316 37.6201 76.316C34.0502 64.827 34.8999 40.1591 34.8999 40.1591C36.5776 20.5754 39.6296 15.9492 40.6682 14.9221C40.7742 14.8173 40.9139 14.7532 41.0625 14.7412C41.2112 14.7292 41.3593 14.77 41.4808 14.8564C42.9877 15.9242 44.2516 20.3898 44.2516 20.3898C47.9838 34.2443 47.6459 47.2541 47.6459 47.2541C47.9838 58.5742 45.7756 71.246 45.7756 71.246C44.0759 80.8762 41.6953 82.9054 41.6953 82.9054Z" fill="white"/>
<path d="M72.2833 31.1605C70.0768 27.3149 54.3468 32.1977 37.1388 42.0651C19.9308 51.9325 7.79245 63.0497 9.99736 66.8936C12.2023 70.7375 27.9339 65.8563 45.1419 55.9889C62.3499 46.1215 74.4882 35.0044 72.2833 31.1605V31.1605ZM12.0331 66.3661C11.1883 66.2597 11.3792 65.5653 11.3792 65.5653C12.4154 62.6188 15.7131 59.5471 15.7131 59.5471C23.9057 50.7327 45.7269 39.1945 45.7269 39.1945C63.5468 30.9036 69.0819 31.2534 70.486 31.64C70.6302 31.6803 70.7554 31.7702 70.8396 31.8939C70.9237 32.0176 70.9614 32.1672 70.9459 32.316C70.777 34.1553 67.5244 37.4727 67.5244 37.4727C57.3712 47.6085 45.9177 53.7906 45.9177 53.7906C36.2668 59.7192 24.1764 64.107 24.1764 64.107C14.9767 67.4221 12.0334 66.3661 12.0334 66.3661H12.0331Z" fill="#11B402"/>
<path d="M72.2053 67.0217C74.429 63.1863 62.3212 52.0183 45.1736 42.0766C28.026 32.135 12.298 27.1918 10.0763 31.0337C7.85468 34.8756 19.9605 46.0371 37.1179 55.9788C54.2754 65.9204 69.9837 70.8639 72.2053 67.0217ZM11.5498 32.5157C11.2213 31.7369 11.9147 31.5494 11.9147 31.5494C14.9844 30.9696 19.2964 32.2907 19.2964 32.2907C31.0271 34.962 51.9447 48.0647 51.9447 48.0647C68.0497 59.3342 70.5197 64.2982 70.8899 65.7072C70.9275 65.8518 70.9129 66.0049 70.8486 66.1397C70.7843 66.2745 70.6744 66.3823 70.5384 66.4439C68.859 67.2129 64.3612 66.0672 64.3612 66.0672C50.4981 62.3501 39.4112 55.5396 39.4112 55.5396C29.4495 50.1668 19.5992 41.8996 19.5992 41.8996C12.1144 35.5976 11.5521 32.5242 11.5521 32.5242L11.5498 32.5157Z" fill="#EC9B21"/>
<path d="M41.0569 53.1672C43.3897 53.1672 45.2808 51.2761 45.2808 48.9433C45.2808 46.6105 43.3897 44.7194 41.0569 44.7194C38.7241 44.7194 36.833 46.6105 36.833 48.9433C36.833 51.2761 38.7241 53.1672 41.0569 53.1672Z" fill="#B7B9C8"/>
<path d="M58.3747 35.2576C59.7278 35.2576 60.8247 34.123 60.8247 32.7233C60.8247 31.3236 59.7278 30.1889 58.3747 30.1889C57.0217 30.1889 55.9248 31.3236 55.9248 32.7233C55.9248 34.123 57.0217 35.2576 58.3747 35.2576Z" fill="#B7B9C8"/>
<path d="M18.1628 43.8746C19.5159 43.8746 20.6128 42.7399 20.6128 41.3403C20.6128 39.9406 19.5159 38.8059 18.1628 38.8059C16.8098 38.8059 15.7129 39.9406 15.7129 41.3403C15.7129 42.7399 16.8098 43.8746 18.1628 43.8746Z" fill="#B7B9C8"/>
<path d="M36.0725 74.9627C37.4256 74.9627 38.5224 73.8281 38.5224 72.4284C38.5224 71.0287 37.4256 69.894 36.0725 69.894C34.7194 69.894 33.6226 71.0287 33.6226 72.4284C33.6226 73.8281 34.7194 74.9627 36.0725 74.9627Z" fill="#B7B9C8"/>
<path fill-rule="evenodd" clip-rule="evenodd" d="M131.419 60.6694L127.681 56.8837C126.261 58.2085 124.826 59.2578 123.374 60.0311C121.924 60.8035 120.188 61.1898 118.17 61.1898C116.592 61.1898 115.133 60.8826 113.792 60.2672C112.452 59.6518 111.292 58.8085 110.314 57.7352C109.336 56.6628 108.579 55.4091 108.042 53.9738C107.506 52.5386 107.239 51 107.239 49.3606C107.239 47.7199 107.506 46.1896 108.042 44.7698C108.579 43.3506 109.336 42.1127 110.314 41.0555C111.292 39.9989 112.452 39.1633 113.792 38.5478C115.133 37.933 116.592 37.6253 118.17 37.6253C120.062 37.6253 121.75 38.0039 123.233 38.7611C124.716 39.5176 126.12 40.5116 127.444 41.7418L131.183 37.4364C130.394 36.6792 129.558 35.9852 128.675 35.3538C127.792 34.7231 126.83 34.1785 125.788 33.7214C124.747 33.2637 123.603 32.9094 122.357 32.6572C121.111 32.4044 119.731 32.278 118.217 32.278C115.693 32.278 113.39 32.728 111.308 33.6269C109.226 34.5258 107.428 35.7561 105.913 37.3176C104.399 38.8792 103.224 40.7005 102.388 42.783C101.551 44.8649 101.134 47.0892 101.134 49.4551C101.134 51.8524 101.56 54.092 102.411 56.1744C103.263 58.2556 104.438 60.0617 105.937 61.592C107.435 63.1217 109.21 64.3283 111.26 65.2118C113.311 66.0952 115.551 66.5366 117.98 66.5366C119.526 66.5366 120.938 66.4024 122.215 66.1344C123.493 65.866 124.668 65.4724 125.741 64.952C126.814 64.4311 127.815 63.8156 128.746 63.1063C129.677 62.3964 130.568 61.5837 131.419 60.6694Z" fill="black"/>
<path fill-rule="evenodd" clip-rule="evenodd" d="M206.507 41.6571C206.507 40.5552 206.978 39.6189 207.92 38.8482C208.86 38.0762 210.179 37.6909 211.873 37.6909C213.379 37.6909 214.869 37.9826 216.344 38.5647C217.819 39.1469 219.309 39.989 220.814 41.0903L223.921 36.6998C222.227 35.3462 220.415 34.3156 218.485 33.608C216.555 32.8997 214.383 32.5456 211.967 32.5456C210.335 32.5456 208.829 32.7736 207.457 33.2303C206.076 33.6863 204.9 34.3392 203.919 35.1889C202.939 36.0392 202.17 37.0539 201.605 38.2342C201.048 39.4144 200.766 40.7285 200.766 42.1763C200.766 43.7183 201.009 45.0247 201.495 46.0948C201.982 47.1648 202.695 48.0776 203.621 48.833C204.546 49.5885 205.7 50.2178 207.064 50.7216C208.437 51.2255 209.998 51.6809 211.763 52.0903C213.301 52.468 214.547 52.83 215.512 53.1758C216.469 53.5224 217.223 53.8924 217.779 54.2852C218.328 54.6789 218.705 55.1115 218.909 55.5834C219.113 56.0562 219.214 56.5904 219.214 57.1885C219.214 58.4797 218.689 59.5027 217.638 60.2573C216.587 61.0135 215.167 61.3905 213.379 61.3905C211.308 61.3905 209.457 61.0205 207.826 60.281C206.194 59.5415 204.578 58.4797 202.977 57.0943L199.495 61.2491C201.472 63.0426 203.621 64.3728 205.943 65.2384C208.265 66.104 210.696 66.5366 213.237 66.5366C214.963 66.5366 216.548 66.3162 217.991 65.8759C219.427 65.4346 220.666 64.7893 221.686 63.9397C222.713 63.09 223.513 62.0516 224.094 60.8243C224.666 59.5969 224.957 58.1963 224.957 56.6223C224.957 55.2377 224.729 54.0337 224.274 53.0108C223.819 51.9878 223.144 51.0916 222.266 50.3197C221.387 49.549 220.274 48.8955 218.94 48.3604C217.607 47.826 216.069 47.3381 214.344 46.8973C212.767 46.5196 211.473 46.1572 210.445 45.8113C209.426 45.4655 208.625 45.0878 208.037 44.6782C207.457 44.2693 207.057 43.8285 206.837 43.3565C206.618 42.8839 206.507 42.3177 206.507 41.6571Z" fill="black"/>
<path fill-rule="evenodd" clip-rule="evenodd" d="M270.933 42.1248V65.7335H276.683V32.8132H270.508L260.468 48.3799L250.428 32.8132H244.253V65.7335H250.004V42.2187L260.326 57.6447H260.515L270.933 42.1248Z" fill="black"/>
<path fill-rule="evenodd" clip-rule="evenodd" d="M324.997 49.4551C324.997 51.0639 324.722 52.586 324.171 54.0217C323.62 55.4567 322.856 56.7025 321.88 57.7589C320.904 58.8154 319.731 59.6518 318.361 60.2672C316.991 60.8828 315.488 61.1898 313.851 61.1898C312.213 61.1898 310.701 60.8743 309.316 60.2437C307.931 59.6124 306.742 58.7606 305.75 57.6887C304.758 56.6157 303.987 55.3617 303.435 53.9264C302.885 52.4915 302.609 50.9689 302.609 49.3606C302.609 47.7512 302.885 46.2292 303.435 44.7941C303.987 43.3583 304.75 42.1127 305.726 41.0555C306.703 39.9989 307.876 39.1633 309.245 38.5478C310.615 37.933 312.119 37.6253 313.756 37.6253C315.393 37.6253 316.905 37.9407 318.29 38.5721C319.675 39.2028 320.864 40.0545 321.856 41.127C322.848 42.1989 323.62 43.4534 324.171 44.8885C324.722 46.3237 324.997 47.8463 324.997 49.4551ZM331.09 49.3606C331.09 47.0259 330.665 44.8177 329.815 42.7352C328.965 40.6539 327.784 38.8396 326.273 37.294C324.761 35.7477 322.951 34.5258 320.84 33.6269C318.731 32.728 316.401 32.278 313.851 32.278C311.3 32.278 308.97 32.7357 306.86 33.6505C304.75 34.5654 302.924 35.8033 301.381 37.3648C299.837 38.9264 298.642 40.7484 297.791 42.8303C296.941 44.9122 296.516 47.1204 296.516 49.4551C296.516 51.7893 296.941 53.9967 297.791 56.0793C298.642 58.1617 299.822 59.9754 301.334 61.5212C302.845 63.0666 304.656 64.2892 306.766 65.1881C308.875 66.087 311.205 66.5366 313.756 66.5366C316.306 66.5366 318.637 66.0787 320.746 65.1647C322.856 64.2498 324.682 63.0118 326.226 61.4496C327.769 59.8887 328.965 58.0666 329.815 55.9848C330.665 53.903 331.09 51.6948 331.09 49.3606Z" fill="black"/>
<path fill-rule="evenodd" clip-rule="evenodd" d="M355.255 41.6571C355.255 40.5552 355.726 39.6189 356.667 38.8482C357.609 38.0762 358.926 37.6909 360.621 37.6909C362.126 37.6909 363.617 37.9826 365.092 38.5647C366.566 39.1469 368.056 39.989 369.563 41.0903L372.669 36.6998C370.974 35.3462 369.163 34.3156 367.233 33.608C365.304 32.8997 363.131 32.5456 360.715 32.5456C359.083 32.5456 357.577 32.7736 356.205 33.2303C354.824 33.6863 353.648 34.3392 352.667 35.1889C351.687 36.0392 350.918 37.0539 350.353 38.2342C349.796 39.4144 349.514 40.7285 349.514 42.1763C349.514 43.7183 349.757 45.0247 350.244 46.0948C350.73 47.1648 351.443 48.0776 352.369 48.833C353.294 49.5885 354.448 50.2178 355.813 50.7216C357.185 51.2255 358.746 51.6809 360.511 52.0903C362.048 52.468 363.296 52.83 364.26 53.1758C365.217 53.5224 365.971 53.8924 366.527 54.2852C367.076 54.6789 367.452 55.1115 367.657 55.5834C367.862 56.0562 367.963 56.5904 367.963 57.1885C367.963 58.4797 367.436 59.5027 366.386 60.2573C365.335 61.0135 363.915 61.3905 362.126 61.3905C360.056 61.3905 358.204 61.0205 356.574 60.281C354.942 59.5415 353.326 58.4797 351.725 57.0943L348.243 61.2491C350.219 63.0426 352.369 64.3728 354.691 65.2384C357.012 66.104 359.444 66.5366 361.985 66.5366C363.711 66.5366 365.296 66.3162 366.739 65.8759C368.173 65.4346 369.414 64.7893 370.433 63.9397C371.461 63.09 372.262 62.0516 372.842 60.8243C373.414 59.5969 373.705 58.1963 373.705 56.6223C373.705 55.2377 373.476 54.0337 373.023 53.0108C372.568 51.9878 371.892 51.0916 371.013 50.3197C370.135 49.549 369.022 48.8955 367.689 48.3604C366.355 47.826 364.817 47.3381 363.092 46.8973C361.515 46.5196 360.221 46.1572 359.193 45.8113C358.174 45.4655 357.373 45.0878 356.785 44.6782C356.205 44.2693 355.805 43.8285 355.585 43.3565C355.366 42.8839 355.255 42.3177 355.255 41.6571Z" fill="black"/>
<path fill-rule="evenodd" clip-rule="evenodd" d="M170.866 39.4035L155.11 55.1389C154.907 54.7452 154.723 54.335 154.559 53.9094C154.009 52.4797 153.734 50.9628 153.734 49.3608C153.734 47.7574 154.009 46.2412 154.559 44.8114C155.11 43.3811 155.873 42.1403 156.848 41.087C157.824 40.0344 158.997 39.2019 160.365 38.5888C161.735 37.9763 163.237 37.6698 164.873 37.6698C166.51 37.6698 168.021 37.984 169.405 38.613C169.919 38.8464 170.406 39.1097 170.866 39.4035ZM169.476 60.2262C168.107 60.8392 166.604 61.1453 164.968 61.1453C163.331 61.1453 161.821 60.8309 160.436 60.2027C159.922 59.9685 159.435 59.7052 158.976 59.4108L174.731 43.6768C174.935 44.0698 175.118 44.4794 175.282 44.9055C175.833 46.3353 176.108 47.8521 176.108 49.4549C176.108 51.0575 175.833 52.5737 175.282 54.0041C174.731 55.4338 173.968 56.6748 172.993 57.7272C172.017 58.78 170.845 59.6131 169.476 60.2262ZM171.86 65.105C173.968 64.1936 175.794 62.9604 177.336 61.404C178.877 59.849 180.073 58.0339 180.922 55.9598C181.773 53.886 182.198 51.686 182.198 49.3608C182.198 47.0349 181.773 44.835 180.922 42.7603C180.419 41.5303 179.798 40.3944 179.062 39.352L189.31 29.1181L185.238 25.0515L174.959 35.3166C174.036 34.6882 173.034 34.1451 171.954 33.6865C169.845 32.791 167.517 32.3426 164.968 32.3426C162.419 32.3426 160.09 32.7986 157.982 33.71C155.873 34.6214 154.047 35.8546 152.506 37.4103C150.964 38.9659 149.768 40.7811 148.918 42.8551C148.068 44.9291 147.644 47.129 147.644 49.4549C147.644 51.7802 148.068 53.9794 148.918 56.054C149.422 57.2846 150.043 58.4206 150.779 59.4635L140.532 69.6964L144.604 73.7629L154.882 63.4983C155.805 64.1268 156.807 64.6701 157.887 65.1284C159.996 66.0239 162.324 66.4719 164.873 66.4719C167.423 66.4719 169.751 66.0156 171.86 65.105Z" fill="black"/>
<path d="M475.84 43.8967C475.84 40.0926 475.887 36.242 475.794 32.4379C475.794 32.1132 475.005 31.6029 474.495 31.5101C473.752 31.3245 472.964 31.4637 472.175 31.4637C447.588 31.4637 423 31.4637 398.412 31.5101C396.51 31.5101 395.675 31.1853 395.722 29.0049C395.768 26.7781 397.021 26.9637 398.412 26.9637C418.732 26.9637 439.098 26.9637 459.417 26.9637C464.196 26.9637 469.021 26.9173 473.799 27.0101C475.469 27.0565 475.84 26.4534 475.887 24.8761C476.026 16.8503 472.732 10.1699 468.232 3.8142C467.536 2.83998 467.118 1.72658 466.562 0.705957C467.722 0.52039 468.881 0.381215 470.041 0.149256C474.17 -0.732187 475.608 2.46884 477.093 5.06678C479.598 9.42761 481.407 14.0668 481.871 19.1699C482.103 21.675 482.567 24.1802 482.984 27.0101C483.773 27.0101 484.701 27.0101 485.582 27.0101C501.216 27.0101 516.804 27.0101 532.438 27.0101C534.062 27.0101 535.036 27.1956 534.99 29.2369C534.943 30.9534 534.433 31.5565 532.763 31.5565C526.964 31.5101 521.165 31.5101 515.366 31.5565C511.747 31.5565 511.747 31.5565 511.84 35.2678C511.84 35.7317 511.933 36.1493 512.026 36.8915C513.185 36.6596 514.206 36.3348 515.227 36.2884C518.521 36.1029 521.907 35.639 525.108 36.0565C529.283 36.6132 531.881 39.7214 532.067 44.3142C532.345 51.1802 532.16 58.0462 532.16 65.4688C530.026 64.4946 527.938 63.5204 525.433 62.3606C521.861 64.3554 517.454 65.7008 512.722 65.1441C509.335 64.773 506.319 63.5204 504 60.9224C501.495 58.0926 501.495 54.0565 504 51.2266C509.149 45.5668 515.412 43.4328 522.835 44.9637C523.995 45.1957 525.108 45.8451 526.222 46.2627C527.057 43.6183 525.387 41.3451 522.232 40.8812C517.5 40.2317 513.046 41.3915 508.732 43.2008C507.85 43.5719 506.876 43.8503 505.577 44.3142C505.67 43.108 505.484 42.1338 505.856 41.5771C507.804 38.7936 506.691 35.7317 506.83 32.8091C506.83 32.3915 505.763 31.4637 505.206 31.4637C498.247 31.3709 491.289 31.4173 484.33 31.3709C482.474 31.3709 482.706 32.5307 482.706 33.6905C482.706 43.34 482.706 53.0359 482.706 62.6853C482.706 63.4276 482.706 64.2163 482.706 65.3297C480.804 64.5874 479.227 63.9379 477.557 63.3812C475.237 62.5926 476.165 60.5049 475.701 58.6493C474.959 59.3451 474.356 59.809 473.799 60.3657C466.701 67.4173 462.155 65.7472 455.799 60.7833C452.412 58.1389 449.443 54.6596 449.165 49.8812C449.072 48.4895 449.026 46.9121 449.582 45.6596C451.948 40.3245 456.634 35.1286 463.361 35.5926C467.258 35.8709 469.995 38.1905 472.546 40.8348C473.521 41.8091 474.356 42.8761 475.283 43.9431C475.423 43.9895 475.655 43.9431 475.84 43.8967ZM454.129 51.8297C454.082 58.974 459.325 62.5926 464.474 59.6235C468.603 57.2111 471.804 53.8245 473.706 49.3709C474.495 47.4688 474.356 45.6596 472.871 44.0359C469.995 40.8812 466.144 39.9998 462.433 41.9946C458.118 44.3142 454.407 47.1905 454.129 51.8297ZM510.959 60.6441C516.386 60.9225 520.84 58.6029 525.015 55.541C527.149 53.9637 526.964 52.3864 524.783 51.3658C517.732 48.1183 509.474 49.9276 505.716 56.3297C504.51 58.4173 504.928 59.8091 507.294 60.273C508.5 60.5513 509.752 60.5049 510.959 60.6441Z" fill="black"/>
<path d="M418.454 66.1647C416.505 65.1441 414.928 64.4482 413.583 63.5204C413.072 63.1957 412.701 62.2678 412.701 61.572C412.655 53.9173 412.701 46.2627 412.655 38.608C412.655 37.1699 413.258 36.6596 414.603 36.7524C414.742 36.7524 414.928 36.7524 415.067 36.7524C418.825 36.706 418.825 36.706 419.335 40.1854C421.237 39.0256 422.954 37.6338 424.995 36.7524C433.531 33.1338 441.139 37.4946 443.784 45.4276C446.382 53.1287 443.737 59.8091 438.727 65.7008C438.449 66.0256 437.428 66.1647 437.01 65.9328C435.108 64.8658 433.253 63.6132 431.211 62.2678C432.789 60.4122 434.181 58.6957 435.665 57.1183C439.376 53.3142 439.748 48.675 439.144 43.8039C438.773 40.974 436.964 39.3039 434.227 38.7008C429.124 37.541 424.392 40.0926 421.469 45.5204C419.428 49.3709 418.361 53.4998 418.454 57.907C418.454 60.4585 418.454 63.1029 418.454 66.1647Z" fill="black"/>
<path d="M405.835 65.84C404.026 64.8657 402.449 64.0771 400.964 63.1492C400.454 62.8245 399.897 62.0822 399.897 61.5719C399.851 53.0358 399.851 44.4534 399.851 35.7317C401.985 35.7317 403.84 35.7317 405.789 35.7317C405.835 45.7523 405.835 55.6802 405.835 65.84Z" fill="black"/>
<path d="M496.67 65.84C494.768 64.8193 493.283 64.2162 491.985 63.242C491.335 62.7317 490.732 61.6647 490.686 60.8296C490.593 53.0358 490.639 45.242 490.593 37.4482C490.593 36.0565 491.057 35.5461 492.448 35.5461C497.783 35.5925 496.716 35.2678 496.763 39.6286C496.809 47.5152 496.763 55.4018 496.763 63.242C496.763 63.9843 496.716 64.7266 496.67 65.84Z" fill="black"/>
<path d="M486.603 8.3606C491.289 8.63895 495.139 11.608 496.392 15.5049C497.088 17.5926 497.923 19.6802 498.572 21.7678C498.711 22.2781 498.387 22.974 498.294 23.5307C497.691 23.3915 496.67 23.3915 496.531 23.0668C495.093 18.8451 492.031 16.4792 488.227 14.4379C486.881 13.6956 486.418 11.2369 485.722 9.474C485.675 9.19565 486.464 8.54616 486.603 8.3606Z" fill="black"/>
<path d="M394.794 8.63896C399.758 8.17504 404.258 11.1905 405.557 15.273C406.206 17.407 407.041 19.4482 407.644 21.5823C407.83 22.2317 407.366 23.0204 407.227 23.7163C406.577 23.2988 405.789 22.974 405.371 22.4173C404.211 20.7472 403.284 18.9379 402.077 17.3142C401.614 16.7111 400.686 16.34 399.943 16.108C396.325 14.9018 396.139 11.5616 394.794 8.63896Z" fill="black"/>
</svg>
