<svg width="2293" height="404" viewBox="0 0 2293 404" fill="none" xmlns="http://www.w3.org/2000/svg">
<g clip-path="url(#clip0)">
<path d="M97.2313 404.001V325.678C180.362 325.678 244.309 243.36 212.735 156.246C200.745 123.878 175.166 98.3036 142.793 86.3154C55.666 54.7467 -26.6653 118.683 -26.6653 201.801L-105 202.201C-105 69.9317 22.8933 -33.1663 161.578 9.99101C222.327 28.7724 270.287 77.1245 289.071 137.465C332.235 276.128 229.521 404.001 97.2313 404.001Z" fill="white"/>
<path fill-rule="evenodd" clip-rule="evenodd" d="M97.2314 326.078H19.2964V248.155H97.2314V326.078Z" fill="white"/>
<path fill-rule="evenodd" clip-rule="evenodd" d="M19.2962 386.018H-40.6538V326.078H19.2962V386.018Z" fill="white"/>
<path d="M614.4 116.685C591.219 100.701 562.443 92.3091 528.871 92.3091H455.732V324.479H528.871C562.443 324.479 591.219 316.088 614.4 298.905C627.189 290.113 637.181 277.326 643.975 261.741C650.77 246.157 654.367 227.775 654.367 206.996C654.367 186.616 650.77 168.234 643.975 152.649C637.181 137.464 627.189 125.476 614.4 116.685ZM498.497 131.87H521.677C547.256 131.87 568.438 137.065 584.425 146.655C602.01 157.445 611.203 177.824 611.203 206.996C611.203 237.365 602.01 258.544 584.425 270.133C569.238 280.123 548.055 285.318 522.077 285.318H498.497V131.87Z" fill="white"/>
<path d="M705.524 89.9116C698.33 89.9116 692.335 92.3092 687.539 97.1045C682.743 101.9 679.945 107.894 679.945 114.687C679.945 121.88 682.343 127.874 687.539 132.669C692.335 137.465 698.33 140.262 705.524 140.262C712.718 140.262 718.713 137.864 723.509 132.669C728.305 127.874 731.103 121.48 731.103 114.687C731.103 107.494 728.705 101.5 723.509 97.1045C718.713 92.3092 712.318 89.9116 705.524 89.9116Z" fill="white"/>
<path d="M725.507 161.441H684.342V325.279H725.507V161.441Z" fill="white"/>
<path d="M875.382 175.027C862.993 163.838 849.004 157.445 834.217 157.445C811.436 157.445 792.651 165.437 777.864 180.622C763.076 195.807 755.882 215.787 755.882 239.364C755.882 262.541 763.076 282.121 777.864 298.106C792.651 313.291 811.436 321.283 834.217 321.283C850.203 321.283 863.792 316.887 874.983 308.096V311.692C874.983 325.279 871.386 335.668 864.192 343.261C856.998 350.454 847.006 354.05 834.616 354.05C815.432 354.05 803.842 346.458 789.054 326.877L761.078 353.651L761.877 354.849C767.872 363.241 777.064 371.633 789.454 379.625C801.844 387.617 817.031 391.613 835.416 391.613C859.795 391.613 879.779 384.021 894.167 369.235C908.954 354.45 916.148 334.47 916.148 309.694V161.441H875.782V175.027H875.382ZM864.591 271.732C857.397 279.724 848.205 283.72 836.215 283.72C824.225 283.72 815.033 279.724 808.238 271.732C801.044 263.74 797.447 252.95 797.447 239.763C797.447 226.576 801.044 215.387 808.238 207.395C815.432 199.403 824.625 195.008 836.215 195.008C848.205 195.008 857.397 199.004 864.591 207.395C871.785 215.387 875.382 226.576 875.382 239.763C875.382 252.95 871.386 263.74 864.591 271.732Z" fill="white"/>
<path d="M992.085 161.441H950.919V325.279H992.085V161.441Z" fill="white"/>
<path d="M972.102 89.9116C964.908 89.9116 958.913 92.3092 954.117 97.1045C949.321 101.9 946.523 107.894 946.523 114.687C946.523 121.88 948.921 127.874 954.117 132.669C958.913 137.465 964.908 140.262 972.102 140.262C979.296 140.262 985.291 137.864 990.087 132.669C994.883 127.874 997.68 121.48 997.68 114.687C997.68 107.494 995.282 101.5 990.087 97.1045C985.291 92.3092 978.896 89.9116 972.102 89.9116Z" fill="white"/>
<path d="M1082.41 117.085H1042.04V161.441H1018.46V199.004H1042.04V266.937C1042.04 288.116 1046.44 303.301 1054.83 312.092C1063.23 320.883 1078.01 325.279 1099.2 325.279C1105.99 325.279 1112.78 324.879 1119.18 324.48H1121.18V286.917L1107.19 287.716C1097.2 287.716 1090.8 286.118 1087.61 282.521C1084.41 278.925 1082.81 271.732 1082.81 260.943V199.004H1121.18V161.441H1082.81V117.085H1082.41Z" fill="white"/>
<path d="M1354.98 92.709H1313.82V324.879H1354.98V92.709Z" fill="white"/>
<path d="M1771.04 266.537C1763.84 274.928 1756.25 282.121 1750.25 285.718C1744.66 289.314 1737.46 291.312 1729.07 291.312C1717.08 291.312 1707.09 286.917 1699.1 277.726C1691.1 268.535 1687.11 256.946 1687.11 242.96C1687.11 228.974 1691.1 217.385 1698.7 208.594C1706.69 199.403 1716.28 195.008 1728.27 195.008C1741.46 195.008 1755.45 203.399 1767.44 217.385L1794.62 191.411C1777.03 168.234 1754.25 157.445 1727.07 157.445C1704.29 157.445 1684.71 165.837 1668.72 181.821C1652.73 197.805 1644.74 218.584 1644.74 242.96C1644.74 267.336 1652.73 287.716 1668.72 304.1C1684.71 320.483 1704.29 328.475 1727.07 328.475C1757.05 328.475 1781.03 315.688 1797.01 292.111L1771.04 266.537Z" fill="white"/>
<path d="M1940.09 184.218C1934.1 176.226 1926.11 169.433 1916.51 164.638C1906.52 159.842 1895.33 157.445 1882.54 157.445C1859.36 157.445 1840.58 165.837 1826.59 182.62C1813 199.403 1805.81 219.783 1805.81 244.159C1805.81 268.934 1813.4 289.314 1828.59 305.298C1843.37 320.883 1863.76 328.875 1888.14 328.875C1915.71 328.875 1938.9 317.686 1955.68 295.308L1956.48 294.109L1929.7 268.135C1927.3 271.332 1923.71 274.529 1920.51 277.726C1916.51 281.722 1912.52 284.519 1908.52 286.517C1902.53 289.714 1895.33 290.913 1887.74 290.913C1876.15 290.913 1866.96 287.716 1859.76 280.923C1852.97 274.929 1848.97 266.537 1848.17 256.147H1957.28L1957.68 240.962C1957.68 230.173 1956.08 220.183 1953.28 210.592C1950.49 201.401 1946.09 192.21 1940.09 184.218ZM1850.17 222.58C1852.17 214.588 1855.76 208.195 1860.96 203C1866.56 197.405 1873.75 194.608 1882.54 194.608C1892.53 194.608 1900.13 197.405 1905.32 203C1910.12 208.195 1912.92 214.588 1913.72 222.181H1850.17V222.58Z" fill="white"/>
<path d="M2098.36 173.429C2085.97 162.64 2068.79 157.445 2047.21 157.445C2033.62 157.445 2020.83 160.642 2009.24 166.236C1998.45 171.831 1988.05 180.622 1981.26 192.61L1981.66 193.01L2008.04 218.185C2018.83 201.002 2030.82 195.008 2046.81 195.008C2055.6 195.008 2062.39 197.405 2067.99 201.801C2073.58 206.197 2075.98 212.191 2075.98 219.383V227.376C2065.59 224.179 2055.6 222.58 2045.61 222.58C2025.22 222.58 2008.44 227.376 1996.05 236.966C1983.66 246.557 1977.26 260.543 1977.26 277.726C1977.26 292.911 1982.46 305.698 1993.25 314.889C2004.04 323.68 2017.23 328.475 2032.82 328.475C2048.4 328.475 2063.19 322.082 2076.38 311.292V324.879H2116.75V219.783C2117.55 199.803 2111.15 184.218 2098.36 173.429ZM2025.22 262.541C2030.02 259.344 2036.41 257.746 2044.81 257.746C2054.8 257.746 2065.19 259.744 2075.98 263.74V279.724C2067.19 288.115 2055.2 292.111 2040.41 292.111C2033.22 292.111 2027.62 290.513 2024.02 287.316C2020.43 284.119 2018.43 280.523 2018.43 275.328C2018.43 269.734 2020.83 265.738 2025.22 262.541Z" fill="white"/>
<path d="M2275.81 176.626C2264.22 163.838 2248.24 157.445 2227.85 157.445C2211.47 157.445 2198.28 162.24 2188.29 171.431V161.441H2147.92V325.279H2189.09V234.568C2189.09 222.181 2191.88 212.191 2197.88 205.397C2203.87 198.204 2211.47 195.008 2222.26 195.008C2231.45 195.008 2238.65 198.204 2243.84 204.199C2249.04 210.592 2251.83 218.984 2251.83 229.773V324.479H2293V230.173C2293 207.395 2287.4 189.413 2275.81 176.626Z" fill="white"/>
<path d="M1262.26 173.429C1249.87 162.64 1232.68 157.445 1211.1 157.445C1197.51 157.445 1184.72 160.642 1173.13 166.236C1162.34 171.831 1151.95 180.622 1145.16 192.61L1145.56 193.01L1171.94 218.185C1182.73 201.002 1194.72 195.008 1210.7 195.008C1219.5 195.008 1226.29 197.405 1231.89 201.801C1237.48 206.197 1239.88 212.191 1239.88 219.383V227.376C1229.49 224.179 1219.5 222.58 1209.5 222.58C1189.12 222.58 1172.33 227.376 1159.95 236.966C1147.56 246.557 1141.16 260.543 1141.16 277.726C1141.16 292.911 1146.36 305.698 1157.15 314.889C1167.94 323.68 1181.13 328.475 1196.71 328.475C1212.3 328.475 1227.09 322.082 1240.28 311.292V324.879H1280.64V219.783C1281.04 199.803 1274.65 184.218 1262.26 173.429ZM1189.12 262.541C1193.92 259.344 1200.31 257.746 1208.7 257.746C1218.7 257.746 1229.09 259.744 1239.88 263.74V279.724C1231.09 288.115 1219.1 292.111 1204.31 292.111C1197.11 292.111 1191.52 290.513 1187.92 287.316C1184.32 284.119 1182.33 280.523 1182.33 275.328C1182.33 269.734 1184.32 265.738 1189.12 262.541Z" fill="white"/>
<path d="M1504.46 328.475C1438.51 328.475 1384.56 274.929 1384.56 208.594C1384.56 142.26 1438.11 88.7129 1504.46 88.7129C1570.8 88.7129 1624.36 142.26 1624.36 208.594C1624.36 274.929 1570.4 328.475 1504.46 328.475ZM1504.46 131.071C1461.69 131.071 1426.92 165.837 1426.92 208.594C1426.92 251.352 1461.69 286.117 1504.46 286.117C1547.22 286.117 1581.99 251.352 1581.99 208.594C1581.99 165.837 1547.22 131.071 1504.46 131.071Z" fill="white"/>
</g>
<defs>
<clipPath id="clip0">
<rect width="2398" height="404" fill="white" transform="translate(-105)"/>
</clipPath>
</defs>
</svg>
