<svg id="Layer_1" data-name="Layer 1" xmlns="http://www.w3.org/2000/svg" xmlns:xlink="http://www.w3.org/1999/xlink" viewBox="0 0 1426.4 1429.74"><defs><style>.cls-1,.cls-2{fill:#fff;}.cls-2{font-size:193.49px;font-family:Raleway-ExtraBold, Raleway;font-weight:800;}.cls-3{letter-spacing:-0.01em;}.cls-4{fill:url(#linear-gradient);}.cls-5{fill:url(#linear-gradient-2);}.cls-6{fill:url(#linear-gradient-3);}.cls-7{fill:url(#linear-gradient-4);}.cls-8{fill:#ff0;}</style><linearGradient id="linear-gradient" x1="451.22" y1="583.39" x2="1025.74" y2="583.39" gradientUnits="userSpaceOnUse"><stop offset="0" stop-color="#ff0"/><stop offset="1" stop-color="#f7931e"/></linearGradient><linearGradient id="linear-gradient-2" x1="451.22" y1="1182.16" x2="1025.74" y2="1182.16" xlink:href="#linear-gradient"/><linearGradient id="linear-gradient-3" x1="605.57" y1="882.77" x2="1030.57" y2="882.77" xlink:href="#linear-gradient"/><linearGradient id="linear-gradient-4" x1="1031.6" y1="882.77" x2="1456.6" y2="882.77" gradientUnits="userSpaceOnUse"><stop offset="0" stop-color="#2591b7"/><stop offset="0.17" stop-color="#2481ad"/><stop offset="0.51" stop-color="#205992"/><stop offset="0.98" stop-color="#1b1766"/><stop offset="1" stop-color="#1b1464"/></linearGradient></defs><polygon class="cls-1" points="0 1058.05 1 1058.63 0 1059.21 0 1058.05"/><path class="cls-1" d="M1134.53,959.08q-2.13,2.63-4.37,5.15" transform="translate(-150.96 -285.13)"/><path class="cls-1" d="M1194.5,837.58a10,10,0,0,1-5.08,8.67l-1.8.79L922.67,962.25c36.6,50.59,94.7,66.7,152,41.78,21.22-9.23,38.82-24,55.53-39.75l58.11,36.65c-22.33,28.54-53.28,52.29-92.2,69.21-111.87,48.65-217.87,6.33-265.33-102.83q-3.93-9-7-18-.64-1.86-1.26-3.72a10.39,10.39,0,0,1-.08-1.26,10,10,0,0,1,4.74-8.49l2.56-1.11,137-59.56-.07-.17,137.15-59.63c-28.24-57.49-82.54-76-141.89-50.25-18,7.82-32.75,18.48-44,31.33l-2.4,1-6.36,2.76-9.46,4.12-11.72,5.09-13.09,5.69-13.61,5.93-13.28,5.76-12.07,5.26-10,4.35c-2.35,1-4.71,2-7.07,3.07-.8.34-1.49.92-2.31,1.21-.58.2-1.24.28-1-.57.73-3.1,1.55-6.16,2.37-9.24q1.29-4.87,2.86-9.67a180.56,180.56,0,0,1,16.69-36.39,184.24,184.24,0,0,1,11.37-16.77,187.81,187.81,0,0,1,13.34-15.68,200.41,200.41,0,0,1,15.23-14.49,214,214,0,0,1,17.11-13.2q9.17-6.36,18.91-11.8c6.7-3.74,13.56-7.2,20.58-10.26,124.17-54,210.88,2.06,259.11,129.7.46,1.2.92,2.42,1.37,3.64A11.62,11.62,0,0,1,1194.5,837.58Z" transform="translate(-150.96 -285.13)"/><path class="cls-1" d="M806,891c49-13.5,89.29-69.19,111.87-94.54L815.43,840.39Z" transform="translate(-150.96 -285.13)"/><path class="cls-1" d="M1244.1,938.61c-43.47-9.33-85.44,6.41-113.93,25.68l58.07,36.71Z" transform="translate(-150.96 -285.13)"/><path class="cls-1" d="M922.39,962.25l10.09-4.42a.09.09,0,0,1,.09.16c-2.23,1.65-7.81,6.87-2.09,14.58Z" transform="translate(-150.96 -285.13)"/><path class="cls-1" d="M1094.3,819.65s8.67-3.8,4.81-13.26l5,9Z" transform="translate(-150.96 -285.13)"/><rect class="cls-1" x="1061.62" y="989.36" width="111.9" height="57.52" transform="matrix(0.62, 0.78, -0.78, 0.62, 1067.69, -775.42)"/><path class="cls-1" d="M1034,959l0,0a77.7,77.7,0,0,1,12.87-8.32,68.09,68.09,0,0,1,14.42-5.59c17.42-4.58,34-1.23,43.2,10.36.32.41.61.83.9,1.25l-45.07,35.66Z" transform="translate(-150.96 -285.13)"/><path class="cls-1" d="M1201.29,1077.17l0,0a78.33,78.33,0,0,1-12.85,8.37,68,68,0,0,1-14.41,5.63c-17.42,4.62-34.06,1.3-43.3-10.29-.33-.41-.61-.83-.91-1.25l44.94-35.82Z" transform="translate(-150.96 -285.13)"/><text class="cls-2" transform="translate(271.68 1385.04)">E Q U I N O<tspan class="cls-3" x="984.64" y="0" xml:space="preserve"> X</tspan></text><path class="cls-1" d="M627.13,886.69l-1.74,1c0-.67,0-1.34,0-2Z" transform="translate(-150.96 -285.13)"/><path class="cls-4" d="M1025.74,573.4v10h-.67a299.36,299.36,0,0,0-82.82,11.8C817.9,631.28,726.9,745.8,726.41,881.65L611,814.93l-2.61-1.51L451.22,722.64l181.57,3.13,2.72.05,132.69,2.27L702,613.23l-1-1.65L605.16,445.26,768.33,547l.92.58L877,614.85l-2-127.49v-.22l-3.21-202,94.76,177.44.63,1.17Z" transform="translate(-150.96 -285.13)"/><path class="cls-5" d="M1025.74,1182.1v10L967.19,1301.8l-.63,1.17L871.8,1480.42l3.21-202v-.22l2-127.5-107.81,67.25-.92.57L605.16,1320.27,701,1154l1-1.64,66.22-114.87-132.7,2.27-2.71,0-181.57,3.14,157.12-90.78,2.61-1.51,115.46-66.72c.43,117.29,68.33,218.69,166.91,267.39a295.75,295.75,0,0,0,49.3,19.12A299.21,299.21,0,0,0,1025.74,1182.1Z" transform="translate(-150.96 -285.13)"/><path class="cls-6" d="M729.86,881.64l.22.13,1.73,1-1.74,1-.21.12a302.13,302.13,0,0,0,5.56,56.74c.05.26.1.52.16.79,21.56,109.07,102.12,196.94,207,229a300.12,300.12,0,0,0,83.12,13c1.61,0,3.22,0,4.83,0v124.3a428.93,428.93,0,0,1-58.82-4c-1.73-.24-3.46-.49-5.19-.76a421.42,421.42,0,0,1-87.41-23l-4.14-1.6a424.86,424.86,0,0,1-103-58.35c-.91-.7-1.83-1.41-2.73-2.12a425.29,425.29,0,0,1-64.86-62.73c-.8-1-1.6-1.92-2.39-2.89a424.32,424.32,0,0,1-66.17-111.82l-.31-.78a422,422,0,0,1-24.26-87.27c-.1-.61-.2-1.22-.29-1.83a430.41,430.41,0,0,1,0-135.68c.09-.61.19-1.22.29-1.83a420.84,420.84,0,0,1,24.27-87.28l.3-.77A424.54,424.54,0,0,1,702,613.23c.79-1,1.59-1.93,2.39-2.89a425.38,425.38,0,0,1,64.88-62.73c.9-.72,1.81-1.42,2.72-2.12a424.28,424.28,0,0,1,103-58.35l4.14-1.6a421.42,421.42,0,0,1,87.41-23c1.73-.27,3.46-.52,5.19-.76a428.93,428.93,0,0,1,58.82-4V582.06c-1.61,0-3.22,0-4.83,0a300.09,300.09,0,0,0-83.49,13.14C819.61,632.86,730.36,746.79,729.86,881.64Z" transform="translate(-150.96 -285.13)"/><path class="cls-7" d="M1456.6,882.77c0,234.72-190.28,425-425,425v-126.5c164.86,0,298.5-133.64,298.5-298.5s-133.64-298.5-298.5-298.5V457.77C1266.32,457.77,1456.6,648.05,1456.6,882.77Z" transform="translate(-150.96 -285.13)"/><path class="cls-1" d="M1025.74,583.43h0Z" transform="translate(-150.96 -285.13)"/><path class="cls-1" d="M1331.07,883.89c0,166-134.54,300.5-300.5,300.5-1.61,0-3.23,0-4.83,0a298.92,298.92,0,0,1-132.42-33.07c-80.57-41.43-140-118.21-157.74-209.85,21.56,109.07,102.12,196.94,207,229a299.21,299.21,0,0,0,83.12,11.7v1.33c1.61,0,3.22,0,4.83,0v-2.2c164.86,0,298.5-133.64,298.5-298.5s-133.64-298.5-298.5-298.5v-.88C1196.53,583.39,1331.07,717.93,1331.07,883.89Z" transform="translate(-150.96 -285.13)"/><polygon class="cls-8" points="958.32 246.22 937.34 254.38 943.63 232.77 929.39 215.34 951.88 214.64 964.06 195.71 971.67 216.89 993.44 222.62 975.65 236.41 976.93 258.88 958.32 246.22"/><polygon class="cls-8" points="1114.81 336.17 1094.52 326.42 1114.6 316.25 1117.61 293.95 1133.48 309.91 1155.63 305.88 1145.36 325.9 1156.03 345.72 1133.81 342.14 1118.27 358.41 1114.81 336.17"/><polygon class="cls-8" points="1235.65 580.49 1214.81 588.99 1220.74 567.28 1206.21 550.09 1228.69 549.02 1240.55 529.89 1248.52 550.94 1270.37 556.31 1252.82 570.39 1254.46 592.84 1235.65 580.49"/><polygon class="cls-8" points="987.17 964.79 965.38 970.43 974.16 949.71 962.06 930.73 984.48 932.67 998.79 915.3 1003.87 937.23 1024.82 945.47 1005.53 957.08 1004.17 979.54 987.17 964.79"/><polygon class="cls-8" points="1148.19 834.08 1127.07 826.29 1146.1 814.27 1146.97 791.78 1164.29 806.15 1185.95 800.04 1177.63 820.95 1190.14 839.66 1167.68 838.21 1153.75 855.88 1148.19 834.08"/></svg>