<svg width="2052" height="667" viewBox="0 0 2052 667" fill="none" xmlns="http://www.w3.org/2000/svg">
<path d="M0 0H444.498V222.213H222.249L0 0ZM0 222.213H222.249L444.498 444.426H0V222.213ZM0 444.426H222.249V666.639L0 444.426Z" fill="white"/>
<path d="M695.298 183.305H874.973V240.391H763.304V319.722H874.973V375.547H763.304V477.122H695.298V183.305ZM911.914 274.805H976.147V317.2C979.503 302.631 986.366 291.448 996.718 283.62C1007.33 275.497 1019.12 271.45 1031.98 271.45C1038.7 271.45 1044.31 272.02 1048.77 273.128V332.735C1042.36 331.962 1035.92 331.545 1029.46 331.474C1011.83 331.474 998.548 337.198 989.58 348.676C980.642 359.87 976.147 376.655 976.147 399.052V477.122H911.944V274.805H911.914ZM1150.17 482.581C1130.58 482.581 1113.5 477.956 1098.95 468.724C1084.67 459.493 1073.33 446.388 1066.21 430.945C1058.65 414.729 1054.85 396.378 1054.85 375.964C1054.85 355.813 1058.8 337.615 1066.62 321.399C1073.97 305.732 1085.62 292.485 1100.21 283.203C1115.03 273.972 1131.97 269.346 1151.01 269.346C1165.28 269.346 1178.03 272.436 1189.21 278.587C1200.4 284.758 1208.8 293.156 1214.4 303.77V274.805H1278.21V477.122H1214.4V448.574C1208.8 458.649 1200.12 466.894 1188.37 473.34C1176.62 479.572 1163.48 482.744 1150.17 482.581ZM1168.64 429.267C1184.03 429.267 1195.93 424.235 1204.32 414.16C1212.72 404.085 1216.92 391.346 1216.92 375.964C1216.92 360.856 1212.72 348.259 1204.32 338.184C1195.93 328.109 1184.03 323.077 1168.64 323.077C1154.07 323.077 1142.34 327.967 1133.38 337.767C1124.71 347.568 1120.36 360.287 1120.36 375.964C1120.36 391.641 1124.71 404.501 1133.38 414.577C1142.34 424.377 1154.09 429.267 1168.64 429.267ZM1323.13 274.805H1387.36V304.187C1391.86 293.817 1399.12 285.419 1409.19 279.004C1419.56 272.589 1431.59 269.346 1445.29 269.346C1477.2 269.346 1498.34 281.79 1508.68 306.708C1514.38 295.413 1523.28 286.07 1534.3 279.848C1546.07 272.762 1559.6 269.132 1573.33 269.346C1621.19 269.346 1645.12 296.755 1645.12 351.614V477.122H1580.47V363.367C1580.47 349.672 1577.95 339.597 1572.92 333.152C1567.87 326.726 1560.32 323.493 1550.24 323.493C1539.33 323.493 1530.93 327.275 1525.05 334.829C1519.18 342.109 1516.24 354.827 1516.24 373.025V477.122H1451.59V362.95C1451.59 349.245 1449.08 339.303 1444.03 333.152C1439.29 326.726 1431.86 323.493 1421.8 323.493C1410.6 323.493 1402.06 327.275 1396.18 334.829C1390.3 342.109 1387.36 354.827 1387.36 373.025V477.122H1323.15V274.805H1323.13ZM1886.41 365.472C1886.41 374.134 1885.85 383.517 1884.71 393.592H1735.28C1735.85 406.748 1740.32 416.803 1748.72 423.818C1757.11 430.803 1768.47 434.31 1782.72 434.31C1802.6 434.31 1815.2 428.281 1820.5 416.254H1883.48C1880.39 436.13 1869.47 452.203 1850.72 464.525C1832.26 476.553 1809.58 482.581 1782.72 482.581C1748.02 482.581 1720.73 473.197 1700.85 454.45C1681.27 435.693 1671.47 409.544 1671.47 375.964C1671.47 354.136 1675.94 335.246 1684.9 319.295C1693.55 303.363 1706.89 290.472 1723.1 282.359C1739.63 273.697 1758.79 269.346 1780.64 269.346C1801.34 269.346 1819.66 273.402 1835.61 281.525C1851.84 289.649 1864.31 300.974 1872.97 315.523C1881.94 330.092 1886.41 346.734 1886.41 365.472ZM1823 353.719C1822.72 340.289 1818.95 330.061 1811.66 323.077C1804.4 316.092 1793.88 312.585 1780.18 312.585C1766.47 312.585 1755.56 316.356 1747.43 323.92C1739.6 331.2 1735.55 341.122 1735.25 353.719H1823ZM1914.73 274.805H1978.97V317.2C1982.32 302.631 1989.19 291.448 1999.54 283.62C2009.58 275.71 2022.01 271.42 2034.8 271.45C2041.51 271.45 2047.13 272.02 2051.59 273.128V332.735C2045.18 331.962 2038.74 331.545 2032.28 331.474C2014.65 331.474 2001.37 337.198 1992.4 348.676C1983.43 359.87 1978.97 376.655 1978.97 399.052V477.122H1914.73V274.805Z" fill="white"/>
</svg>
