<svg width="949" height="949" viewBox="0 0 949 949" fill="none" xmlns="http://www.w3.org/2000/svg">
<g clip-path="url(#clip0)">
<path d="M809.728 809.724C994.961 624.49 994.961 324.167 809.728 138.934C624.494 -46.2997 324.171 -46.2998 138.938 138.934C-46.2956 324.167 -46.2957 624.49 138.938 809.723C324.171 994.957 624.494 994.957 809.728 809.724Z" fill="#20C988"/>
<g style="mix-blend-mode:multiply">
<path d="M722.188 363.83C709.328 416.03 691.738 467.26 685.298 520.83C678.788 575.1 689.198 622.47 703.158 674.56C710.088 700.43 716.598 726.99 715.888 753.97C715.028 786.34 700.168 812.61 684.728 840.06C671.488 863.62 663.488 886.14 661.828 910.09C663.098 909.54 664.338 908.93 665.608 908.37C666.287 896.994 668.577 885.772 672.408 875.04C685.958 838.4 713.678 809.04 719.078 769.22C724.908 726.22 709.818 683.75 699.028 642.84C684.958 589.53 684.668 537.98 695.678 484.01C705.038 438.12 721.628 393.82 730.238 347.81C741.818 285.87 719.028 220.3 705.308 160.55C697.308 125.7 689.688 88.0299 689.698 51.7499C687.848 50.7999 686.008 49.8399 684.148 48.9199C681.798 150.02 745.138 270.62 722.188 363.83Z" fill="#1E4C28"/>
</g>
<g style="mix-blend-mode:multiply">
<path d="M184.998 98.6199C181.998 139.62 183.188 180.99 185.998 221.77C187.888 249.41 192.528 277.4 192.708 305.08C192.988 346.63 174.018 381.69 155.928 417.76C116.928 495.52 117.288 575.12 126.758 659.97C132.538 711.73 137.758 763.84 145.058 815.58C146.985 817.447 148.928 819.297 150.888 821.13C145.448 784.39 140.958 747.46 136.958 710.32C127.248 620.32 111.498 527.22 149.658 441.44C163.578 410.16 182.718 380.86 191.658 347.52C198.958 320.24 196.658 293.52 194.048 265.82C188.718 209.21 185.188 152 189.388 95.1799C187.878 96.2799 186.488 97.4699 184.998 98.6199Z" fill="#1E4C28"/>
</g>
<g style="mix-blend-mode:screen" opacity="0.47">
<path d="M284.639 679.4C283.879 670.93 271.279 673.08 270.449 680.65C265.549 724.76 267.379 769.49 256.709 812.59C243.389 789.08 249.019 754.46 243.619 728.68C234.979 687.45 216.619 653.05 227.299 610.01C233.589 584.58 239.579 563.65 237.299 537.16C233.499 493.21 228.449 470.25 251.719 431.73C282.069 381.51 276.149 323.25 276.519 266.81C276.579 257.3 286.859 160.81 273.139 161.12L269.789 161.19C266.169 161.27 262.119 162.66 260.259 166.08C232.569 217.08 239.429 279.22 234.649 335.27C229.909 390.62 192.419 441.62 200.569 496.62C202.899 512.36 208.829 527.4 210.719 543.22C213.779 568.89 205.009 589.58 200.399 613.93C195.309 640.81 199.479 664.46 207.499 690.59C218.569 726.62 223.489 756.96 228.739 793.76C231.829 815.21 239.229 828.55 255.689 842.16C260.919 846.48 269.109 842.43 270.999 836.75C287.559 786.8 289.269 731.41 284.639 679.4Z" fill="#1E4C28"/>
</g>
<g style="mix-blend-mode:screen" opacity="0.47">
<path d="M642.021 671.46C634.141 621.63 650.16 575.01 647.55 525.46C645.26 482.06 604.771 446.32 613.261 402.93C619.611 370.45 633.101 339.12 639.131 305.93C645.681 269.93 649.97 232.13 647.69 195.6C644.78 148.84 631.851 53.2801 574.141 41.7101C566.731 40.2201 557.82 45.6101 560.28 54.3401C567.16 78.7701 581.49 99.9201 588.37 124.62C596.87 155.12 598.15 186.73 601.37 218.03C604.64 250.27 607.68 282.32 607.96 314.79C608.26 348.58 591.59 379.1 592.65 412.28C593.53 439.9 608.44 455.56 620.86 478.72C644.93 523.55 630.28 569.72 626.86 617.13C620.97 698.13 674.261 781.07 611.271 851.07C606.681 856.17 613.07 863.51 618.53 859.07C676.54 811.44 651.991 734.51 642.021 671.46Z" fill="#1E4C28"/>
</g>
<g style="mix-blend-mode:screen" opacity="0.47">
<path d="M468.271 709.62C464.491 674.22 443.491 647.7 443.641 610.09C443.831 572.96 453.831 535.85 457.061 498.92C463.711 423.01 450.811 350.36 440.751 275.44C429.551 191.91 429.431 110.05 428.561 26.13C428.391 10.24 404.181 3.86004 399.661 20.84C378.361 100.84 388.191 186.41 405.771 266.21C425.771 356.75 445.471 438.38 435.231 532.31C431.291 568.52 422.891 605.85 431.181 642.15C440.741 684.01 462.021 713.63 449.911 759.42C435.251 814.85 409.181 867.59 450.121 917.96C453.601 922.25 461.271 917.07 458.121 912.34C409.961 839.2 476.131 783.44 468.271 709.62Z" fill="#1E4C28"/>
</g>
<g style="mix-blend-mode:screen" opacity="0.47">
<path d="M818.031 547.08C816.371 519.68 796.871 503.52 784.421 480.64C752.651 422.21 786.161 368.51 796.761 310.15C804.641 266.72 801.381 224.51 790.581 182.01C790.543 181.907 790.469 181.822 790.373 181.77C790.277 181.718 790.165 181.703 790.058 181.727C789.952 181.752 789.858 181.814 789.794 181.903C789.73 181.992 789.701 182.101 789.711 182.21C805.371 248.14 796.021 304.56 778.121 368.81C768.461 403.47 761.041 437.39 777.251 471.34C784.891 487.34 798.051 499.58 806.311 515.08C821.021 542.68 816.381 570.15 804.651 597.91C789.171 634.58 776.201 660.35 799.311 695.99C799.344 696.049 799.389 696.1 799.443 696.141C799.497 696.181 799.558 696.21 799.624 696.225C799.69 696.24 799.758 696.241 799.824 696.228C799.89 696.215 799.953 696.188 800.008 696.15C800.063 696.111 800.109 696.061 800.144 696.003C800.178 695.945 800.2 695.88 800.208 695.813C800.216 695.747 800.209 695.679 800.189 695.614C800.169 695.55 800.136 695.491 800.091 695.44C761.311 642.01 821.281 600.48 818.031 547.08Z" fill="#1E4C28"/>
</g>
<g style="mix-blend-mode:screen" opacity="0.47">
<path d="M100.118 686.7C56.288 661.09 74.428 624.62 72.208 585.23C70.208 550.46 43.768 525.23 37.738 491.64C28.628 440.9 62.278 403.33 74.328 356.27C83.168 321.71 87.048 285.6 87.158 250.01C87.158 249.43 86.258 249.39 86.258 250.01C85.738 309.7 72.068 361.81 48.318 416.13C35.408 445.62 26.928 473.96 38.018 505.43C45.278 526.05 59.858 542.85 66.078 563.96C73.018 587.52 67.448 607.69 66.888 631.43C66.248 658.74 75.398 674.03 99.628 687.43C100.128 687.73 100.618 686.99 100.118 686.7Z" fill="#1E4C28"/>
</g>
<g style="mix-blend-mode:screen" opacity="0.3">
<path d="M556.939 135.97C552.939 121.72 539.709 114.02 526.149 117.15C517.149 116.65 507.419 121.02 501.419 128.15C488.389 143.69 478.989 165.31 477.489 186.62C470.009 209.36 472.049 234.62 491.079 251.56C501.589 260.92 514.869 262.41 526.249 253.2C559.789 226.07 568.099 175.96 556.939 135.97Z" fill="#1E4C28"/>
</g>
<g style="mix-blend-mode:screen" opacity="0.3">
<path d="M510.291 320.62C495.471 319.93 494.371 342.96 509.211 343.62C524.051 344.28 525.131 321.27 510.291 320.62Z" fill="#1E4C28"/>
</g>
<g style="mix-blend-mode:screen" opacity="0.3">
<path d="M585.489 712.83C603.139 678.95 604.059 622.78 557.289 626.73C512.999 630.46 509.199 687.28 516.579 727.09C477.289 767.68 476.019 853.77 547.999 847.68C615.539 841.97 631.179 749.21 585.489 712.83Z" fill="#1E4C28"/>
</g>
<g style="mix-blend-mode:screen" opacity="0.3">
<path d="M627.68 709.69C625.68 704.69 620.03 703.55 615.34 704.92C609.5 706.63 608.34 715.36 614.76 717.33C614.86 717.33 614.82 717.33 614.88 717.33L615.23 717.68C615.5 718.14 615.8 718.6 615.95 718.81C616.586 719.655 617.352 720.395 618.22 721C619.065 721.556 620.043 721.875 621.053 721.922C622.063 721.97 623.067 721.744 623.96 721.27C628.1 719.09 629.33 713.93 627.68 709.69Z" fill="#1E4C28"/>
</g>
<g style="mix-blend-mode:screen" opacity="0.3">
<path d="M373.208 523.15C371.685 520.157 369.655 517.451 367.208 515.15C363.793 504.576 358.218 494.827 350.838 486.52C348.432 483.853 345.426 481.796 342.068 480.52C341.369 478.639 340.495 476.828 339.458 475.11C339.053 474.35 338.457 473.707 337.73 473.244C337.003 472.782 336.169 472.515 335.308 472.47C307.218 473.76 282.308 505.92 275.848 532.61C268.728 562.02 288.958 598.34 319.538 604.61C345.538 609.98 363.848 587.88 369.298 564.83C369.878 562.38 370.238 559.9 370.618 557.42C376.488 546.86 379.198 535.12 373.208 523.15Z" fill="#1E4C28"/>
</g>
<g style="mix-blend-mode:screen" opacity="0.3">
<path d="M376.78 804.06C370.183 803.76 363.6 804.904 357.49 807.41C355.84 808.06 354.25 808.79 352.66 809.55C351.71 810 350.77 810.48 349.8 810.91C348.83 811.34 345.04 812.77 348.8 811.44C340.21 814.44 331.32 823.23 334.86 833.53C338.02 842.68 342.86 850.8 350.96 856.45C356.7 860.45 364.91 859.86 370.44 855.99C372.267 854.718 373.814 853.087 374.987 851.195C376.16 849.303 376.934 847.192 377.26 844.99C385.26 842.15 389.95 834.07 391.78 825.75C394.01 815.45 388.38 804.55 376.78 804.06Z" fill="#1E4C28"/>
</g>
<g style="mix-blend-mode:screen" opacity="0.3">
<path d="M286.75 68.81C279.607 68.7875 272.491 69.6678 265.57 71.43C244.57 72.29 226.57 86.56 218.63 106.94C218.483 107.423 218.362 107.914 218.27 108.41C214.64 116.67 213.59 125.72 217.07 134.82C221.19 145.56 235.07 144.82 242.52 139.31C245.91 136.81 248.31 133.46 250.52 129.92C271.46 128.15 289.98 117.15 301.38 97.28C307.96 85.78 301.49 68.83 286.75 68.81Z" fill="#1E4C28"/>
</g>
<g style="mix-blend-mode:screen" opacity="0.3">
<path d="M888.728 415.62C886.798 407.42 881.728 400.79 877.638 393.62C872.508 384.46 858.798 380.69 850.798 388.88C844.798 395.01 839.538 401.98 839.198 410.93C838.938 417.93 841.528 423.57 844.508 429.65C846.484 433.467 849.893 436.344 853.988 437.65C853.738 443.79 856.658 449.73 862.548 452.42C868.858 455.31 878.798 454.02 882.218 446.98C886.978 437.21 891.338 426.78 888.728 415.62Z" fill="#1E4C28"/>
</g>
<g style="mix-blend-mode:screen" opacity="0.3">
<path d="M558.951 511.11C545.671 510.49 544.681 531.11 557.951 531.75C571.221 532.39 572.251 511.73 558.951 511.11Z" fill="#1E4C28"/>
</g>
<g style="mix-blend-mode:screen" opacity="0.3">
<path d="M823.171 725.72L820.221 726.62C807.011 730.62 806.221 747.83 818.981 753.1L821.841 754.27C830.841 758 840.841 749.94 841.251 740.87C841.661 731.8 832.491 722.86 823.171 725.72Z" fill="#1E4C28"/>
</g>
<g style="mix-blend-mode:screen" opacity="0.3">
<path d="M873.31 588.09C870.66 583.82 866.89 580.36 861.4 581.55C856.17 582.69 853.33 587.67 853.71 592.77C854.24 599.99 861.33 603.17 866.34 600.14C867.887 600.141 869.396 599.662 870.66 598.77C873.82 596.48 875.55 591.69 873.31 588.09Z" fill="#1E4C28"/>
</g>
<g style="mix-blend-mode:screen" opacity="0.3">
<path d="M142.33 344.35C110.03 393.35 73.5401 475.63 88.5401 535.49C90.7801 544.43 102.95 544.69 106.14 536.31C117.45 506.55 115.71 472.45 124.38 441.42C132.98 410.6 145.94 381.32 157.07 351.42C160.37 342.53 147.4 336.62 142.33 344.35Z" fill="#1E4C28"/>
</g>
<g style="mix-blend-mode:screen" opacity="0.26">
<path d="M855.949 756.03C911.803 680.593 943.9 590.218 948.139 496.45C960.359 234.78 758.129 12.7399 496.489 0.519874C450.98 -1.60731 405.402 2.8316 361.159 13.6999C296.789 111.49 280.969 243.09 303.319 360.09C358.049 646.54 630.839 823.62 855.949 756.03Z" fill="#1E4C28"/>
</g>
<g style="mix-blend-mode:multiply" opacity="0.47">
<path d="M741.371 866.33C739.491 865.15 737.621 863.96 735.561 862.83C683.561 834.4 607.941 831.7 550.711 801.03C443.711 743.69 352.501 666.23 304.711 551.81C226.711 364.81 226.821 196.07 285.641 39.0999C124.971 108.9 9.25141 265.37 0.491409 452.21C-11.6886 713.89 190.491 935.92 452.211 948.14C554.936 953.089 656.467 924.364 741.371 866.33V866.33Z" fill="#1E4C28"/>
</g>
<g style="mix-blend-mode:multiply" opacity="0.47">
<path d="M452.208 948.14C507.66 950.808 563.149 943.7 616.138 927.14C557.048 902.34 492.368 890.14 434.978 860.71C350.108 817.19 286.038 754.42 235.358 673.71C177.178 580.98 148.988 456.51 133.098 349.12C121.098 267.93 126.098 201.12 141.098 136.86C127.1 150.7 113.975 165.395 101.798 180.86C62.9377 312.04 61.7777 453.79 103.088 583.62C146.218 719.11 206.808 830.41 334.488 903.51C349.648 912.19 382.248 928.83 421.558 945.61C431.708 946.74 441.888 947.62 452.208 948.14Z" fill="#1E4C28"/>
</g>
<g style="mix-blend-mode:screen" opacity="0.26">
<path d="M874.279 502.95C928.439 443.95 872.979 314.3 840.589 256.09C789.029 163.46 656.909 51.0899 540.589 99.9899C437.489 143.35 428.949 274.67 461.089 364.05C492.699 451.96 536.949 525.76 619.649 574.94C708.229 627.62 843.059 631.62 874.279 502.95Z" fill="#1E4C28"/>
</g>
<g style="mix-blend-mode:screen" opacity="0.26">
<path d="M849.828 288.84C829.958 185.62 607.488 62.8299 605.488 239.16C603.388 417.26 895.878 424.04 849.828 288.84Z" fill="#1E4C28"/>
</g>
</g>
<defs>
<clipPath id="clip0">
<rect width="948.67" height="948.67" fill="white"/>
</clipPath>
</defs>
</svg>
