<?xml version="1.0" encoding="utf-8"?>
<!-- Generator: Adobe Illustrator 25.1.0, SVG Export Plug-In . SVG Version: 6.00 Build 0)  -->
<svg version="1.1" id="Layer_1" xmlns="http://www.w3.org/2000/svg" xmlns:xlink="http://www.w3.org/1999/xlink" x="0px" y="0px"
	 viewBox="0 0 1000 1000" style="enable-background:new 0 0 1000 1000;" xml:space="preserve">
<style type="text/css">
	.st0{fill:#B4C4BD;}
	.st1{opacity:0.53;fill:#87ACC8;}
	.st2{opacity:0.47;fill:#E8CADD;}
	.st3{opacity:0.37;fill:#678B82;}
	.st4{opacity:0.54;fill:#678B82;}
	.st5{opacity:0.54;fill:#8CB0AC;}
	.st6{opacity:0.74;fill:#E8CADD;}
	.st7{opacity:0.74;fill:#678B82;}
	.st8{fill:#E8CADD;}
	.st9{opacity:0.39;fill:#E8CADD;}
	.st10{opacity:0.39;fill:#678B82;}
	.st11{opacity:0.64;fill:#E8CADD;}
</style>
<g>
	<path class="st0" d="M78.34,620.06c0,0-74.91,46.99-68.27-93.29c6.18-130.52,43.65-98.22,43.65-98.22s2.38-72.71,14.35-130.58
		c18.55-89.7,135.25-170.47,205.12-216.23C353.97,28.85,445.15,1.75,541.36,4.02c77.92,1.84,108.79,44.25,171.32,71.03
		c31.59,13.53,64.9-6.99,97.14,5.35c28.57,10.93,33.38,35.27,48.84,58.2c29.74,44.15,106.55,88.12,51.96,142.62
		c44.22,43.62,81.89,147.65,81.89,236.86c0,57.23-40.5,119.85-42.32,159.28c-4.19,91.15-43.64,106.89-94.77,159.91
		c-9.25,9.6,65.03,46.79,0.03,90.96c-20.16,13.7-137.18,47.58-161.11,53.36c-43.88,10.6-22.67-45.75-60.87-23.67
		c-67.7,39.13-258.91,9.86-313.33-19.27C94.54,817.85,78.34,620.06,78.34,620.06z"/>
	<path class="st1" d="M21.28,477.64c-1.96-18,3.45-50.04,22.86-31.79c12.99,12.22,14.26,41.38,15.06,58.5
		c0.88,19.01,5.57,137.12-32.9,95.89C5.42,577.87,14.58,520.63,21.28,477.64z"/>
	<path class="st1" d="M690.38,952.7c-9.85,3.1-15.49,12.12-15.27,21.91c13.93,5.77,39.76-9.46,54.92-13.48
		c17.97-4.76,37.29-11.7,55.41-19.31c22.19-9.31,86.69-18.01,83.03-51.24C818.62,882.56,751.24,925.78,690.38,952.7z"/>
	<path class="st1" d="M799.66,91.79c-18.67,34.09,53.8,122.81,83.13,142.18c33.51,22.13,36.81-6.14,22.24-31.15
		c-13.86-23.79-36.36-35.71-51.85-56.58c-13.33-17.96-22.06-62.19-53.19-58.62C799.43,90.46,799.43,93.3,799.66,91.79z"/>
	<path class="st1" d="M213.09,341.59c-113.85-6.02-48.33-202.56,47.58-178.5c23.14,5.81,43.28,38.31,33.08,61.98
		c31.1-13.38,16.1,21.97,18.94,34.74c5.61,25.25,24.68,33.52,12.65,64.02c-9.56,24.24-31.11,42.39-55.74,48.15
		C251.78,376.14,213.34,374.32,213.09,341.59z"/>
	<path class="st1" d="M352.85,124.5c-43.54,17.02-29.55,114.85,26.02,73.6c14.44-10.72,28.87-38.83,27.57-55.68
		c-1.96-25.28-29.44-41.57-47.64-17.92H352.85z"/>
	<path class="st1" d="M872.93,537.86c35-79.93,4.59-184.33-81.35-173.13C682.11,379,685.13,586.61,782.66,624.17
		c20.24,7.8,39.71,1.69,55.7-14.2C856.8,591.63,852.24,567.71,872.93,537.86z"/>
	<path class="st1" d="M469.79,807.41c55.74-6.27,7.11-57.1-16.1-72.76c-41.66-28.12-87.68-28.91-136.52-22.41
		c-18.22,2.42-85.18,36.73-84.65,50.55c1.5,38.72,40.84,64.19,96.39,70.62c21.2,2.45,16.63-1.17,35.02,7.76
		c14.36,6.97,22.41,17.41,40.33,22.72C455.85,879.17,470.9,852.25,469.79,807.41z"/>
	<path class="st1" d="M522.36,409.99c-73.23,43.19-137.94-41.73-89.29-110.11c46.61-65.52,147.31-42.46,156.2,35.76
		C593.5,372.87,564.4,410.49,522.36,409.99z"/>
	<path class="st1" d="M352.85,525.97c39.55-40.2-64.7-80.18-99.88-56.61c-52.21,34.98-53.48,109.32,13.64,122.18
		C299.28,597.8,330.83,584.34,352.85,525.97z"/>
	<path class="st1" d="M596.7,169.11c-26.75-32.14-47.62-95.11,17.84-97.98c60.84-2.67,64.53,89.05,0,95.01L596.7,169.11z"/>
	<path class="st1" d="M778.1,677.63c-68.96-22.7-265,127.26-197,185.02c12.45,10.58,39.53,18.71,55.75,13.99
		c18.36-5.34,20.54-23.42,34.94-31.74c27.96-16.16,69.8,11.22,105.08-2.57C828.6,822.1,904.99,717.33,778.1,677.63z"/>
	<path class="st1" d="M507.49,603.28c-26.19,0.01-73.17,0.42-71.36-38.66c1.19-25.72,47.93-44.24,50.55-10.12
		c19.15-18.22,69.82-4.23,84.14,16.01c25.18,35.57-31.91,87.29-60.36,56.56L507.49,603.28z"/>
	<path class="st1" d="M745.39,258.32c18.62-30.19-42.78-35.98-47.61,4.43c-4.28,35.75,46.11,53.3,50.58,13.41L745.39,258.32z"/>
	<path class="st1" d="M153.61,641.94c10.4-46.8-54.51-20.92-36.42,26.83c4.18,11.02,16.62,28.98,30.47,26.67
		c20.35-3.39,10.45-27.44,5.95-41.61V641.94z"/>
	<path class="st1" d="M908.95,588.41c-3.64-32.21,30.53-74.05,30.54-23.8c0,14.17-6.95,22.25-3.03,37.92
		c3.55,14.2,11.88,17.19,10.49,35.77c-1.31,17.39-15.48,53.26-38.65,53.52c-38.86,0.44-28.78-54.53-17.19-76.65L908.95,588.41z"/>
	<path class="st1" d="M120.9,457.57c8.33-17.59,24.82-64.94,2.23-79.55c-29.51-19.08-35.06,30.36-32.12,49.96
		c2.48,16.51,6.79,23.59,5.37,40.82c-0.66,7.98-11.98,30.82-8.49,39.32c21.34,51.99,32.96-32.59,33.01-47.58V457.57z"/>
	<path class="st1" d="M522.36,933.37c2.1-13.59-4.79-25.61-17.69-29.89c-18.81-6.25-22.73,10.13-33.61,14.28
		c-18.19,6.94-9.67,6.19-31.31-0.08c-10.12-2.93-25.83-13.58-37.86-8.13c-32.33,14.63,9.55,36.91,28.28,41.58
		C458.51,958.19,502.78,965.68,522.36,933.37z"/>
	<path class="st1" d="M944.64,389.17c-1.32-16.58-7.41-50.12-23.06-60.21c-34.42-22.2-11.01,12.62-6.8,25.73
		c5.59,17.38,5.69,39.52,14.62,60.01c15.32,35.15,26.85,37.54,27.13-4.72L944.64,389.17z"/>
	<path class="st1" d="M501.54,151.27c41.9-25.55-0.5-72.79-36.91-44.6c-35.59,27.55-4.31,102.34,30.96,62.44L501.54,151.27z"/>
	<path class="st1" d="M453.96,897.69c-0.35-15.27-26.26-22.87-26.98-7.43c-0.71,15.19,20.81,15.2,29.95,10.4L453.96,897.69z"/>
	<path class="st1" d="M665.1,368.35c11.89-9.66,15.59-24.29,8.4-38.14c-20.77-5.48-39.49,11.44-46.32,29.89
		c-11.62,31.38,14.55,43.1,31.97,17.17L665.1,368.35z"/>
	<path class="st1" d="M730.52,142.35c18.18-17.11-14.12-39.86-29.73-11.89c-11.42,20.47,11.8,57.68,26.75,29.74L730.52,142.35z"/>
	<path class="st1" d="M242.82,665.73c7.2-8.33,27.22-25.07,23.96-37.25c-4.61-17.18-34.49-15.17-47.08-9.59
		c-29.78,13.21-44.9,77.51,2.31,58.73L242.82,665.73z"/>
	<path class="st1" d="M376.64,522.99c-15.19,3.25-29.46,31.58-11.96,38.73c20.29,8.29,31.76-18.41,23.86-32.78L376.64,522.99z"/>
	<path class="st1" d="M659.15,647.89c33.29-34.99,7.66-78.18-38.59-63.32c-43.75,14.05-86.82,106.81-11.96,96.03L659.15,647.89z"/>
	<path class="st1" d="M849.48,305.9c3.21-30.46-25.25-47.3-29.73-11.89c-3.43,27.1,33.24,43.1,35.67,8.92L849.48,305.9z"/>
	<path class="st1" d="M813.34,602.54c42.25-15.94,57.74-95.4,54.15-140.02c-2.58-32.17-18.41-49.5-44.75-60.16
		c-36.9-14.93-61.02,10.8-71.08,52.91c-5.98,25.02-10.86,55.53-7.95,80.91C747.67,570.53,763.09,581.08,813.34,602.54z"/>
	<path class="st1" d="M444.89,790.17c7.53-19.23,5.03-44.85-28.6-57.3c-30.44-11.27-71.2-5.86-78.72,16.52
		c-12.31-27.11-115.81,11.52-53,48.87c25.47,15.15,49.93,12.41,78.32,20.35c23.76,6.65,21.09,25.26,43.62,33.92
		C451.1,869.65,443.3,818.74,444.89,790.17z"/>
	<path class="st1" d="M766.21,765.35c23.37-15.96,13.86-50.6-12.27-58.07c-29.94-8.55-67.03,10.58-70.58,42.23
		c-39.46-19.53-110.18,53.14-91.23,94c19.78,42.66,92.74-19.93,107.78-40.02c12.56,17.84,42.88,32.11,65.38,31
		C814.04,832.08,816.77,755.1,766.21,765.35z"/>
	<path class="st1" d="M543.17,339.36c14.17-18.68-9.49-49.02-27.88-55.75c-25.75-9.42-42.41,13.65-59.02,30.27
		c-19.26,19.28-41.47,50.3-10.73,73.99c15.57,12,60.64,21.6,79.79,18.45C555.95,401.29,578.01,360.12,543.17,339.36z"/>
	<path class="st1" d="M268.84,245.69c12.34-32.99-22.33-61.35-51.36-45.78c-27.22,14.6-44.77,57.44-35.96,85.49
		c-20.39,7.88-14.91,32.74,3.69,38.16c19.82,5.78,39.91-9.64,56.53-15.08c-7.83,25.62-1.95,48.28,31.56,42.04
		C319.26,341.95,320.97,289.69,268.84,245.69z"/>
	<path class="st1" d="M16.82,542.32c0,17.91-2.86,36.91,9.42,50.75c15.25,17.2,22.57,7.12,28.31-11.91
		c2.86-9.47,8.07-46.71-0.2-54.45c-18.51-17.33-12.79,32.68-37.53,17.84V542.32z"/>
	<path class="st1" d="M828.66,158.7c3.62,25.17,34.66,58.4,56.2,70.82c45.06,26,12.56-38.17-5.39-52.36
		C862.81,164.02,839.95,167.8,828.66,158.7z"/>
	<path class="st1" d="M835.35,901.41c-24.19,13.89-50.87,25.27-77.14,33.26c-24.52,7.46-57.24,5.36-74.74,29.19
		c15.85,16.11,55.69-6.22,73.57-11.15C794.21,942.44,833.84,932.54,835.35,901.41z"/>
	<path class="st2" d="M698.18,208.76c-8.96-18.29-28.88-18.28-29.32-41.14c-0.24-12.34,18.89-27.16,22.61-39.05
		c8.6-27.5,5.47-49.29-5.24-66.55c-46.48-25.66-78.73-56.44-144.86-58c-96.22-2.27-187.4,24.83-268.18,77.72
		C203.32,127.49,86.62,208.27,68.07,297.97c-6.18,29.89-9.8,63.73-11.86,89.47c6.29,10.41,13.67,18.39,22.38,21.84
		c-4.39,9.72-0.61,24-3.13,34.25c43.75,6.71-11.72,108.87,56.66,99.47c6.07,35.95-15.53,58.05,14.07,85.17
		c25.62,23.48,76.76,22.17,109.64,21.21c41.16-1.21,80.44-9.67,114.24-35.23c43.29-32.73,37.27-70.66,57.02-112.08
		c26.1-54.73,107.69-35.16,159.71-57.77C658.94,412.96,736.31,286.6,698.18,208.76z"/>
	<path class="st2" d="M503.03,132.82c17.88-99.1-101.73-77.78-149.59-40.27c-37.49,29.38-40.9,12.92-89.06,20.15
		c-40.13,6.02-74.69,30.82-74.27,72.97c-101.52,2.65-133.75,244.23,4.69,238c-21.05,38.76,29.1,65.97,62.89,61.76
		c47.32-5.9,84.81-55.75,102.6-93.9c19.08-40.92,28.49-75.39,73.43-93.83c38.25-15.69,81.07-8.92,115.97-42.55
		C585.67,220.49,572.96,143.96,503.03,132.82z"/>
	<path class="st1" d="M950.19,677.37c1.81-39.43,42.32-102.06,42.32-159.28c0-89.21-37.68-193.24-81.89-236.86
		c54.59-54.51-22.21-98.48-51.96-142.62c-15.45-22.93-20.26-47.27-48.84-58.2c-32.24-12.34-65.56,8.18-97.14-5.35
		c-11.88-5.09-22.61-10.74-32.74-16.57c-9.16,18.5-15.38,41.01-20.78,66.77c-8.43,40.13-10.01,75.3,7.81,114.84
		c14.47,32.11,42.95,49.49,23.47,85.9c-17.54,32.77-64,42.88-84.31,76.33c-25.3,41.67-16.82,87.36-10.09,130.41
		c-50.89-9.5-101.31-63.05-151.09-13.68c-48.16,47.75-26.44,87.41-9.83,136.04c7.83,22.92,11.9,67.72-25.76,75.89
		c-31.06,6.74-35.71-31.24-60.13-41.64c-38.35-16.33-95.53,4.85-120.56,35.68c-15.87,19.54-23.31,37.88-24.37,62.76
		c-0.4,9.5,7.25,38.14,6.93,40.01c-1.62,9.65-4.73,18.13-8.43,26.01c30.9,30.01,69.37,59.19,117.35,84.88
		c54.42,29.14,245.62,58.4,313.33,19.27c38.2-22.08,16.99,34.27,60.87,23.67c23.93-5.78,140.95-39.66,161.11-53.36
		c65-44.17-9.28-81.37-0.03-90.96C906.56,784.26,946,768.52,950.19,677.37z"/>
	<path class="st3" d="M919.53,290.96c-30.96,20.15-106.32,22.44-113.83,54.43c-70.75,14.81-126.53,11.4-154.69,97.7
		c-9.64,29.55-5.19,72.91,3.7,102.6c8.16,27.25,41.09,58.46,34.78,85.95c-8.51,37.1-57.65,36.29-81.63,51.15
		c-27.8,17.23-30.75,56.69-60.22,68.19c-48.85,19.06-51.39-48.7-75.85-76.14c-46.69-52.4-80.35-17.75-129.34,2.4
		c-40,16.45-89.2-13.61-126.21,17.75c-22.61,19.16-18.86,52.89-47.44,66.22c-11.54,5.38-24.5,5.83-37.56,2.93
		c35.07,58.03,93.1,123.21,188.91,174.51c54.42,29.14,245.62,58.4,313.33,19.27c38.2-22.08,16.99,34.27,60.87,23.67
		c23.93-5.78,140.95-39.66,161.11-53.36c65-44.17-9.28-81.37-0.03-90.96c51.13-53.02,90.58-68.76,94.77-159.91
		c1.81-39.43,42.32-102.06,42.32-159.28C992.51,434.94,959.78,338.94,919.53,290.96z"/>
	<path class="st3" d="M950.19,677.37c1.81-39.43,42.32-102.06,42.32-159.28c0-78.18-28.93-167.72-65.84-218.03
		c-44.97,3.92-60.46,55.2-53.4,99.52c8.42,52.89,34,84.9,10.16,142.97c-16.54,40.28-43.7,78.35-58.12,116.85
		c-14.89,39.77,4.44,15.44,18.07,51.33c7.48,19.71-4.18,52.97-13.6,72.47c-10.71,22.16-29.01,44.07-50.07,57.76
		c-35.52,23.1-34.71,4.08-71.37,4.59c-77.77,1.08-65.76,103.25-154,40.07c-34.2-24.48-37.37-32.69-77.85-22.36
		c-23.03,5.88-38.1,18.25-63.9,19.17c-30.51,1.09-48.07-15.23-75.2-23.61c-44.78-13.84-93.91-16.03-132.38-2.9
		c30.51,29.26,68.3,57.66,115.13,82.73c54.42,29.14,245.62,58.4,313.33,19.27c38.2-22.08,16.99,34.27,60.87,23.67
		c23.93-5.78,140.95-39.66,161.11-53.36c65-44.17-9.28-81.37-0.03-90.96C906.56,784.26,946,768.52,950.19,677.37z"/>
	<path class="st4" d="M103.06,545.3c-9.32-20.55-19.28-27.49-19.36-52.08c-0.04-10.84,5.22-21.43,1.19-32.35
		c-3.43-9.28-13.18-15.42-14.79-25.35c-19.9-11.39-17.1,14.33-14.24,23.38c6.29,19.96,9.56,39.9,11.65,60.54
		c3.12,30.85-0.89,68.14-19.13,93.1c-5.2,7.11-11.66,8.46-18.59,6.37c20.27,18.89,48.56,1.15,48.56,1.15s0.13,1.51,0.49,4.28
		c7.24-9.02,14.33-19.78,18.6-25.43C109.67,582.69,110.83,562.42,103.06,545.3z"/>
	<path class="st4" d="M916.54,206.44c6.27,14.27,8.41,28.3-3.5,39.61c-19.69,18.71-66.15-29.71-79.55-44.53
		c-7.46-8.24-14.6-25.24-25.68-29.44c-15.96-6.06-18.84,12.46-13.35,25.27c12.89,32.49,50.03,63.54,79.96,79.14
		c11.94,6.22,24.68,7.22,36.49,4.42C937.69,253.95,932.35,229.56,916.54,206.44z"/>
	<path class="st4" d="M855.15,837.71c-8.48,1.43-15.15,6.81-25,9.13c-24.89,5.86-52.44,3.31-73.47,21.11
		c-12.17,10.3-9.96,17.94,0.32,28.22c6.92,6.92,0.51,6.89,12.99,4.68c6.06-1.07,13.76-4.73,20.01-6.46
		c20.4-5.64,67.95-24.27,84.38-2.28c0.44,0.59,0.76,1.19,1.1,1.78c-1.28,11.18-4.75,18.67-18.2,26.47
		c-26.46,15.33-59.25,24.64-88.09,36.51c-11.64,4.79-64.29,14.64-80.92,25.79c1.89-0.21,3.88-0.53,6.08-1.06
		c23.93-5.78,140.95-39.66,161.11-53.36C919.56,884.67,848.24,847.92,855.15,837.71z"/>
	<path class="st5" d="M523.1,281.37c-5.62-24.8-57.35-1.1-68.59,9.36c-21.25,19.78-33.31,49.77-25.58,78.11
		c7.62,27.92,30.44,46.42,60.71,42c13.67-1.99,30.51-8.33,28.99-24.64c-1.35-14.5-17.43-15.19-25.39-24.73
		C466.16,328.99,531.67,318.7,523.1,281.37z"/>
	<path class="st5" d="M226.47,540.09c-2.5-34.03,18.23-99.39,66.97-67.47c23.71,15.53-3.37,28.71-9.53,47.34
		c-7.52,22.75,23.22,35.27,1.72,50.29C267.81,582.71,230.97,569.89,226.47,540.09z"/>
	<path class="st5" d="M224.24,178.78c-34.45,8.97-50.81,52.51-57.93,82.52c-3.99,16.85-7.76,34.39,2.73,49
		c11.54,16.07,25.19,11.03,39.46,20.26c20.06,12.97,34.05,58.65,73.28,30.54c10.03-7.19,23.18-26.91,20.62-39.59
		c-3.95-19.58-29.97-20.73-44.22-29.55c-20.45-12.66-32.93-32.96-31.71-57.55C227.61,211.46,238.31,196.83,224.24,178.78z"/>
	<path class="st5" d="M598.93,865.72c-34.12-21.78-31.52-45.59-7.24-78c22.48-30.02,60.96-59.11,93.73-76.45
		c37.01-19.58,64.25-31.36,105.21-14.99c56.5,22.58,17.79,51.71-24.99,61.77C709.13,771.35,599.64,793,598.93,865.72z"/>
	<path class="st5" d="M824.2,604.77c-20.73,36.26-81.24-18.8-91.47-41.07c-15.02-32.72-22.95-100.42-7.87-135.12
		c7.8-17.95,69.45-93.4,92.19-53.08c7.7,13.65-16.82,54.29-21.91,67.66c-8.73,22.93-13.28,42.24,11.21,50.1
		c27.91,8.96,47.78,1.35,41.83,40.15C844.97,554.38,844.83,596.12,824.2,604.77z"/>
	<path class="st5" d="M235.39,758.66c-8.96,24.22,34.89,56.86,55.64,60.33c32.8,5.49,47.8-39.8,74.34-32.01
		c11.74,3.45,23.34,17.34,37.24,20.8c13.06,3.25,33.98,4.9,46.83-0.12c35.63-13.93,12.51-60.1-10.6-76.32
		c-18.89-13.25-46.3-17.62-69.09-19.64C319.64,707.28,281.09,717.03,235.39,758.66z"/>
	<path class="st5" d="M806.36,109.64c3.9,31.41,52.13,132.39,95.57,124.56c2.98-17.38-40.14-53.58-50.9-69.91
		c-11.83-17.97-25.93-70.21-46.56-74.43C803.91,92.08,804.58,94.08,806.36,109.64z"/>
	<path class="st5" d="M36.89,450.88c-12.03,20-8.09,56.65-6.7,79.18c1.32,21.31-4.26,60.56,13.39,74.98
		c21.57-22.46,27.03-142.69-3.96-158.4C38.82,449.63,37.72,452.38,36.89,450.88z"/>
	<path class="st5" d="M771.86,918.06c-30.11,17.12-83.18,32.54-88.39,45.79c-9.2,23.42,85.3-24.02,97.8-29.49
		c19.75-8.64,83.49-33.41,71.57-39.08C840.93,889.61,805.19,906.25,771.86,918.06z"/>
	<path class="st5" d="M630.16,105.17C643.05,80.53,610,68.66,592.8,81.2c-20.23,14.75-11.31,36.51-5.27,54.35
		c6.61,19.52,6.19,38.41,33.7,23.14c26.31-14.6,12.15-26.78,8.93-49.06V105.17z"/>
	<path class="st4" d="M815.28,676.14c44.46-5.4,55.72,55.54,44.61,85.68c-8.96,24.3-36.56,84.9-69.47,81.59
		c17.16-14.68,48.85-50.98,53.9-78.05c3.58-19.18,2.02-38.13-8.54-53.64C827.89,700.11,813.78,693.56,815.28,676.14z"/>
	<g>
		<path class="st1" d="M361.44,108.36l-0.03,0.01c0,0-0.01,0.02-0.02,0.03c0.01-0.01,0.03-0.02,0.04-0.02
			C361.43,108.38,361.43,108.37,361.44,108.36z"/>
		<path class="st1" d="M364.19,92.81c-2.21,0.05-4.39,0.3-6.45,0.83c-1.18-0.01-2.43,0.26-3.69,0.95c-4.6,2.5-8.28,6.21-12.37,9.41
			c-5.01,3.93-0.89,13.29,5.29,12.77c0.29-0.02,0.56-0.07,0.84-0.1c2.1,1.36,5,1.49,7.32,0.31c1.35-0.69,2.35-1.71,3.21-2.87
			c4.24-1.76,8.05-4.4,11.25-8.26C373.57,101.05,371.3,92.64,364.19,92.81z"/>
	</g>
	<path class="st1" d="M447.27,95.49c-9.6,0-9.61,14.92,0,14.92C456.87,110.4,456.88,95.49,447.27,95.49z"/>
	<path class="st1" d="M192.53,357.71c-0.72-1.62-1.66-2.93-2.77-4.32c-0.35-0.44-0.71-0.87-1.06-1.31c0.91,1.14-0.21-0.37-0.45-0.74
		c-1.4-2.17-3.81-3.88-6.51-3.73c-4.33,0.23-8.05,2.34-9.35,6.72c-0.5,1.68-0.37,3.57,0.11,5.23c0.32,1.11,1.96,4.64,0.62,1.45
		c0.69,1.65,1.64,2.97,2.94,3.88c0.79,0.75,1.69,1.39,2.85,1.66c0.76,0.18,1.49,0.41,2.23,0.63c0.11,0.04,0.17,0.06,0.25,0.09
		c0.35,0.17,0.7,0.35,1.03,0.55c2.75,1.56,6.73,1.27,8.96-1.16C193.78,364.05,193.92,360.86,192.53,357.71z"/>
	<path class="st1" d="M310.39,383.01c-6.89,0.88-12.36,3.91-16.09,9.9c-3.6,5.76-5.38,13.97-0.55,18.83
		c1.82,1.83,4.95,2.29,7.17,0.92c0.68-0.41,1.22-0.87,1.72-1.37c4.67-1.54,9.32-3.52,12.13-7.77c2.09-3.16,2.58-6.83,3.28-10.46
		C318.89,388.62,315.93,382.31,310.39,383.01z"/>
	<path class="st1" d="M398.2,231.85c-9.19,0-9.21,14.29,0,14.29C407.4,246.14,407.41,231.85,398.2,231.85z"/>
	<path class="st1" d="M645.93,211.33c-2.4-6.81-11.36-6.74-13.79,0c-0.62,1.71-1.04,3.61-1.28,5.56
		c-1.28,6.22-0.24,11.81,3.85,16.99c3.18,4.02,10.94,1.84,11.79-3.11C647.67,224,648.25,217.94,645.93,211.33z"/>
	<path class="st6" d="M161.4,452.07c-2.78-4.5-8.44-4.92-12.27-1.58c-4.19,3.66-7.31,8.63-8.45,14.11c-0.78,3.77-1.24,8.9,0.3,12.9
		c0.14,4.83,4.99,8.86,9.82,7.35c0.39-0.12,0.74-0.29,1.11-0.42c1.87-0.33,3.61-1.26,4.85-2.57
		C165.87,475.27,167.64,462.16,161.4,452.07z"/>
	<path class="st6" d="M155.1,515.45c-1.74,0-3.57,0.76-4.8,1.99c-1.89,1.89-2.09,4.12-1.75,6.61c0.31,2.28,1.72,3.66,3.48,4.94
		c1.59,1.15,4.56,1.15,6.15,0c1.77-1.29,3.17-2.69,3.48-4.94C162.23,519.77,159.91,515.45,155.1,515.45z"/>
	<path class="st6" d="M527.38,191.51c-14.27,1.91-28.77,8.34-33.85,22.84c-0.58,1.66-0.4,3.35,0.25,4.86
		c-0.06,0.63-0.11,1.26-0.13,1.89c-0.21,5.78,6.44,9.09,11.2,6.43c11.96-6.7,25.16-12.38,29.89-26.36
		C536.18,196.91,532.22,190.86,527.38,191.51z"/>
	<path class="st6" d="M534.25,67.05c-3.4,0.15-7.32,3.06-6.9,6.9c0.05,0.5,0.11,0.99,0.16,1.49c0.39,3.49,2.82,6.91,6.74,6.74
		c3.98-0.18,6.32-2.97,6.74-6.74c0.05-0.5,0.11-0.99,0.16-1.49C541.55,70.35,537.7,66.89,534.25,67.05z"/>
	<path class="st6" d="M615.47,266.16c-0.38-3.92-1.48-8.47-3.99-11.61c-1.42-1.78-3.33-2.77-5.41-3.25
		c-3.41-3.19-9.05-2.71-12.14,1.62c-2.7,3.79-4.37,8.05-5.03,12.39c-1.58,2.75-2.51,5.93-2.63,8.8c-0.42,10,7.03,15.97,16.31,16.95
		c3.22,0.34,6.76-2.64,7.47-5.69c0.16-0.69,0.27-1.39,0.4-2.08C614.09,278.39,616.08,272.45,615.47,266.16z"/>
	<g>
		<path class="st6" d="M395.75,421.01c-2.75-1.16-5.35-0.53-7.41,1.15c-2.83,1.07-5.25,3.34-5.81,6.4c-0.42,2.3-0.1,4.49,1.29,6.32
			c1.6,3.27,5.77,4.48,9.34,2.84c0.23-0.11,1.3-0.87,1.66-1.12c0.5-0.38,0.92-0.76,1.28-1.13c1.24-1.03,2.22-2.34,3-3.81
			c0.05-0.08,0.12-0.15,0.17-0.23c-0.01-0.01-0.03-0.01-0.04-0.02c0.29-0.57,0.55-1.14,0.78-1.74
			C401.31,426.26,398.83,422.31,395.75,421.01z"/>
		<path class="st6" d="M394.81,436.6c-0.15,0.11-0.23,0.19-0.41,0.32C394.99,436.48,395.02,436.45,394.81,436.6z"/>
	</g>
	<path class="st6" d="M570.36,424.79c-11.31-18.26-37.77-10.27-43.73,8.37c-0.63,1.98-0.34,3.82,0.49,5.38
		c-0.12,3.53,1.48,6.93,5.32,7.94c14.17,3.7,26.07-3.73,36.71-12.31C571.72,432.09,572.02,427.47,570.36,424.79z"/>
	<path class="st6" d="M330.77,593.61c-1.79-0.51-3.76-0.38-5.6,0.75c-9.02,5.53-15.65,14.14-16.59,24.88
		c-0.29,3.31,2.56,6.28,5.62,7.02c2.19,1.35,5.1,1.46,7.68,0.24c9.46-4.47,17.36-13.56,19.2-24.01
		C342.05,596.95,336.42,590.49,330.77,593.61z"/>
	<path class="st6" d="M172.14,699.63c-3.15-1.66-8.12-1.06-9.79,2.57c-1.71,3.73-3.54,9.14-3,13.28c0.39,3,1.9,6.04,5.16,6.78
		c2.92,0.66,6.5-0.39,7.94-3.23c1.67-3.3,2.35-7.41,2.93-11.07C176.34,704.93,174.92,701.1,172.14,699.63z"/>
	<path class="st7" d="M102.61,544.84c-4.34-10.68-11.5-20.41-14.54-31.56c-2.74-10.09-1.24-20.57-1.31-30.86
		c-0.12-18.96-13.91-30.37-20.11-47.36c-0.25-0.68-1.36-0.83-1.55,0c-3.02,13.9,10.88,23.45,14.58,35.69
		c4.96,16.43-1.5,33.77,5.01,50.42c7.76,19.86,20.62,36.68,16.47,59.33c-2.4,13.12-10.53,35.47-25.67,37.74
		c-3.52,0.53-2.36,5.66,0.8,5.89c13.51,0.95,22.2-16.7,26.43-26.93C109.87,579.88,109.67,562.23,102.61,544.84z"/>
	<path class="st7" d="M60.15,466.43c-0.05-0.26-0.43-0.18-0.44,0.06c-1.22,19.59,3.85,37.53,5.92,56.84
		c1.42,13.22,0.58,26.01-1.64,39.06c-1.95,11.45-4.42,23.11-8.74,33.93c-2.15,5.4-4.79,11.27-8.64,15.73
		c-3.49,4.05-7.34,4.62-11.61,7.13c-1.33,0.78-1.59,3.17,0,3.88c20.14,8.98,30.67-40.57,32.85-51.33c2.57-12.7,4.56-25.76,4-38.74
		C70.9,510.35,64.04,488.6,60.15,466.43z"/>
	<path class="st7" d="M55.98,475.51c-2.36-9.78-5.82-23.62-13.42-30.85c-12.02-11.43-21.42,5.7-23.32,16.43
		c-2.29,12.9-2.29,26.54-3.67,39.6c-1.38,12.98-2.93,26.01-3.82,39.03c-1.36,20.07-0.45,45.74,13.81,61.52
		c1.01,1.11,2.79-0.32,2.05-1.58c-10.19-17.56-12.75-33.12-11.56-53.13c1.03-17.39,3.43-34.76,5.56-52.03
		c1.3-10.55,1.15-21.5,2.91-31.94c1.46-8.67,8.53-22.76,16.63-9.06c10.38,17.55,8.69,37.6,13.68,56.51c0.37,1.42,2.37,1.32,2.79,0
		C61.13,498.97,58.64,486.52,55.98,475.51z"/>
	<path class="st7" d="M34.76,583.86c-3.01-8.68-3.13-16.64-1.18-25.59c2.5-11.48,2.54-21.61,0.94-33.34
		c-2.9-21.3-9.17-46.92,1.16-67.2c0.19-0.36-0.31-0.65-0.54-0.32c-10.05,14.4-6.55,39.73-4.49,56.03
		c1.17,9.26,3.07,18.74,2.65,28.13c-0.38,8.52-3.77,16.43-4.49,24.87c-0.94,10.95,3.11,22.14,9.31,31.05
		c0.16,0.22,0.63,0.18,0.58-0.16C38.08,592.53,36.33,588.4,34.76,583.86z"/>
	<path class="st7" d="M338.64,290.24c-2.48-6.33-5.62-12.37-8.34-18.59c-4.37-9.98-5.35-19.82-4.76-30.6
		c0.4-7.44,3.59-22.18-5.23-26.84c-2.5-1.32-4.89-0.01-7.43-0.74c-6.92-1.98-4.01-9.65-4.26-15.21
		c-0.52-11.82-5.41-20.12-13.55-28.43c-6.37-6.51-15.84-15.4-25.71-13.3c-2.25,0.48-2.06,3.78,0,4.37
		c11.98,3.39,23.72,12.8,29.79,23.8c3.54,6.42,3.68,13.84,3.34,21.01c-0.13,2.69-0.98,5.55,0.4,8.08
		c5.67,10.38,16.85-0.26,17.61,15.22c0.72,14.71-2.7,27.46,2.94,41.81c5.94,15.1,16.53,29.7,12.98,46.79
		c-3.05,14.65-13.79,28.57-24.22,38.85c-10.46,10.3-23.31,18.81-37.64,22.54c-16.31,4.25-28.98-1.11-44.6-4.48
		c-0.56-0.12-0.91,0.51-0.54,0.93c15.01,17.18,43.81,12.63,61.96,3.59c20.99-10.45,40.28-30.6,48.61-52.68
		C344.59,314.19,343.31,302.15,338.64,290.24z"/>
	<path class="st7" d="M290.34,226.24c-11.09-4.77-6.67-20.32-8.95-29.78c-1.4-5.8-4.46-11-8.67-15.22
		c-19.26-19.32-52.06-9.07-71.26,4.74c-25.57,18.39-37.39,52.06-41.61,82.08c-1.95,13.85-3.01,28.25,5.42,40.21
		c8.38,11.89,19.59,14.45,33.32,15.93c1.58,0.17,2.08-2.21,0.79-2.92c-4.4-2.41-8.83-3.14-13.55-4.68
		c-7.69-2.51-13.78-7.94-17.44-15.17c-6.61-13.08-2.72-31.27,0.37-44.81c5.89-25.76,16.94-52.59,40.02-67.36
		c18.4-11.78,58.57-21.35,65.65,9.12c2.34,10.06-0.9,21.88,6.75,30.31c6.06,6.68,16.32,2.68,19.73,12.11
		c1.01,2.8,4.83,2.26,5.1-0.69C307.13,227.87,298.48,229.74,290.34,226.24z"/>
	<path class="st7" d="M376.81,118.13c-7.17,0.54-9.95,4.68-13.98,9.78c-2.3,2.9-2.11,5.99-7.78,5.7c-0.53-0.03-1.01-1.18-1.54-1.2
		c-1.81-0.05-2.8-0.94-4.82-0.56c-11.89,2.26-16.24,21.54-16.97,31.06c-0.83,10.79,0.39,30.68,11.58,36.41
		c0.47,0.24,1.01-0.25,0.74-0.74c-5.7-10.08-8.98-18.31-8.15-30.23c0.51-7.27,4.1-31.05,15.08-30.67c1.23,0.04,3.2,2.5,4.96,2.72
		c2.21,0.28,4.47-0.82,6.2-2.04c5.25-3.72,5.88-11.69,12.77-13.87c11.12-3.52,16.4,8.5,18.51,16.77c0.3,1.17,2.23,1.59,2.77,0.36
		C401.36,129.81,388.81,117.23,376.81,118.13z"/>
	<path class="st7" d="M408.3,121.11c-4.61-10.59-17.57-19.42-29.43-15.06c-1.17,0.43-1.5,2.46,0,2.72
		c12.46,2.18,21.75,3.01,26.5,16.74c4.25,12.29,2.08,25.68-1.14,37.91c-3.55,13.46-10.16,25.76-20.65,35.11
		c-5.04,4.49-10.99,8.24-17.54,10.06c-7.13,1.98-13.35-0.59-20.25,0.21c-0.89,0.1-1.77,1.33-0.85,2.05
		c10.36,8.16,29.09,0.22,37.81-6.95c12.1-9.95,20.42-25.75,25.27-40.42C412.31,150.52,413.88,133.92,408.3,121.11z"/>
	<path class="st7" d="M906.84,276.33c-15.22,9.84-32.13-1.75-46.17-9.23c-18.01-9.6-28.27-24.29-41.5-39.19
		c-7.17-8.08-14.68-15.94-20.6-25.02c-6.26-9.61-10.06-20.5-15.73-30.46c-6.26-11.01-13.18-21.66-18.11-33.36
		c-5.11-12.12-7.7-25.13-12.63-37.33c-0.19-0.47-0.88-0.3-0.77,0.21c2.74,13.14,4.64,26.4,9.83,38.89
		c5.65,13.62,14.08,25.96,20.6,39.17c5.65,11.44,10.01,22.71,17.82,32.97c7.77,10.21,16.84,19.34,24.83,29.37
		c6.25,7.85,12.26,15.86,20.33,21.97c7.57,5.73,16.69,10.08,25.23,14.23c10.43,5.07,31.72,14.29,39.58,0.49
		C910.48,277.37,908.54,275.23,906.84,276.33z"/>
	<path class="st7" d="M909.91,231.03c-7.8,6.97-13.95,5.08-22.5-0.04c-4.9-2.93-9.4-6.49-13.75-10.19
		c-13.85-11.77-26.05-25.42-35.95-40.67c-10.55-16.27-18.29-34.07-25.48-52.02c-3.03-7.55-5.9-15.26-7.78-23.2
		c-2.01-8.44-4.76-14.73,9.06-9.96c3.1,1.07,1.59,2.37,4.92,3.1c0.48,0.11,0.87-0.21,0.9-0.69c0.47-6.13-7.89-12.04-13.79-11.2
		c-7.31,1.04-8.11,8.44-7.33,14.39c1.65,12.6,6.94,24.97,11.76,36.6c5.45,13.18,10.92,26.32,18.16,38.64
		c12.25,20.85,28.65,39.61,47.92,54.26c7.83,5.95,32.98,21.26,36.85,2.71C913.28,231.01,911.27,229.82,909.91,231.03z"/>
	<path class="st7" d="M915.82,204.32c-0.11-0.23-0.41-0.05-0.38,0.16c1.8,12.31,6.95,23.96,0.59,36.03
		c-8.39,15.91-22.67,11.52-34.87,3.6c-16.56-10.74-30.4-24.14-45.38-36.78c-0.53-0.45-1.26,0.1-0.96,0.74
		c5.74,11.97,19.62,20.89,29.7,28.96c9.18,7.34,21.01,16.73,33.27,17.78c9.85,0.84,17.06-6.33,21.13-14.51
		C925.14,227.84,921.33,216.27,915.82,204.32z"/>
	<path class="st7" d="M866.37,892.09c-2.89-5.42-11.72-5.02-16.81-4.69c-28.47,1.86-56.84,16.16-82.05,28.49
		c-24.9,12.18-49.22,24.7-74.76,35.4c-7.32,3.07-27.07,14.18-13.12,22.69c1.26,0.77,2.49-0.72,1.91-1.91
		c-6.22-12.71,16.35-17.63,25.08-20.96c16.96-6.47,32.76-15.96,48.99-24.02c20.01-9.95,40.09-20.05,61.35-27.1
		c9.67-3.21,19.84-6.19,30.05-6.99c2.72-0.21,8.39-1.02,10.83,0.42c5.65,3.34-0.77,8.15-3.97,12c-1.48,1.78,0.43,4.92,2.66,3.45
		C861.38,905.68,870.07,899.04,866.37,892.09z"/>
	<path class="st7" d="M865.62,854.29c-11.68-22.53-34.9-6.69-53.25-4.82c-14.93,1.53-29.72,3.04-43.71,8.91
		c-11.4,4.79-20.93,12.31-29.99,20.59c-5.64,5.16-11.02,11-17.53,15.05c-6.98,4.34-14.91,6.75-22.43,9.94
		c-8.66,3.66-16.26,8.45-23.3,14.64c-7.5,6.61-29.96,26.04-18.3,37.26c0.87,0.84,2.69,0.01,2.18-1.27
		c-5.76-14.61,16.46-30.21,26.67-37.38c8.9-6.25,19.35-9.22,29.22-13.51c9.59-4.17,16.45-10.03,24.06-17.02
		c19.87-18.24,40.05-27.59,67.09-30.22c9.5-0.92,17.83-1.79,26.91-4.84c4.1-1.38,8.69-3.42,13.1-3.41
		c6.85,0.01,10.59,4.83,14.92,9.44C863.49,860.01,867.03,857,865.62,854.29z"/>
	<path class="st7" d="M823.39,717.25c-13.96-23.23-46.08-37.24-72.57-33.6c-31.19,4.29-63.62,23.26-88.99,41
		c-26.82,18.76-52.87,41.04-72.93,67.06c-11.22,14.55-30.66,47.87-8.59,61.95c1.26,0.81,2.96-0.82,2.1-2.1
		c-18.38-27.16,9.38-57.07,27.59-76.37c24.24-25.69,51.57-48.58,82.9-65.13c33.28-17.57,70.64-32.37,105.19-9.57
		c13.21,8.72,24.01,21.3,25.67,37.55c1.66,16.17-5.72,31.07-12.57,45.19c-1.23,2.54,2.05,4.32,3.7,2.16
		C829.54,766.29,836.47,739.02,823.39,717.25z"/>
	<path class="st7" d="M825.93,690.7c-1.4-0.59-2.64,1.31-1.23,2.11c26.61,15.1,28.66,53.33,19.36,78.9
		c-10.08,27.7-30.27,56.66-55.75,72.07c-14.5,8.77-30.03,11.85-46.63,8.23c-18.8-4.1-35.25-6.05-54.71-4.45
		c-10.65,0.88-18.34,6.26-25.99,13.4c-10.3,9.6-18.66,17.75-33.22,19.78c-0.65,0.09-0.54,1.05,0,1.21
		c20.48,6.29,32.54-21,48.88-27.46c16.13-6.38,39.99-2.48,56.09,1.7c12.74,3.31,24.71,5.17,37.67,1.96
		c22.91-5.67,41.25-22.81,54.92-41.32c13.31-18.02,25.36-41.35,28.42-63.84C857.08,728.44,850.1,700.94,825.93,690.7z"/>
	<path class="st7" d="M831.49,591.99c-43.78,49.39-89.81-23.76-100.41-63.03c-6.39-23.68-7.38-49.03-2.45-73.08
		c4.85-23.67,16.33-43.69,28.91-63.96c0.19-0.31-0.22-0.56-0.47-0.36c-42.74,34.47-44.71,105.73-27.72,153.49
		c8.3,23.34,23.31,50.84,45.68,63.44c20.61,11.61,48.37,8.56,60.07-13.71C836.27,592.57,833.3,589.95,831.49,591.99z"/>
	<path class="st7" d="M898.09,424.71c-4.31-24.33-20.75-52.93-45.75-60.64c-0.9-0.28-1.7,0.99-0.95,1.63
		c20.48,17.56,37.22,35.58,40.81,63.61c3.68,28.7,2.5,59.45-4.99,87.43c-3.86,14.43-10.32,27.27-16.58,40.71
		c-4.99,10.72-7.72,22.3-12.52,33.09c-10.61,23.84-35.76,45.62-62.9,43.41c-0.91-0.07-1.27,1.32-0.47,1.72
		c20.79,10.39,47.43-12.6,59.45-27.71c9.07-11.39,13.06-25.54,18.25-38.89c6.2-15.94,15.01-30.34,19.91-46.87
		C901.42,491.68,903.64,456.1,898.09,424.71z"/>
	<path class="st7" d="M282.61,467.32c-18.26-1.77-37.17,3.85-49.3,18.14c-11.22,13.22-15.2,30.99-13.11,47.96
		c1.48,12,9.13,37.64,25.22,36.23c0.4-0.04,0.72-0.45,0.48-0.84c-3.18-5.23-8.37-8.6-11.66-13.85c-4.21-6.73-6.52-14.58-7.41-22.43
		c-1.69-14.88,1.5-30.56,11.25-42.28c9.83-11.82,25.01-17.06,40.1-16.52c7.8,0.28,15.74,1.99,23.06,4.69
		c9.92,3.66,15.81,10.23,23.52,16.9c1.08,0.93,2.43,0.01,2.24-1.31C324.45,475.62,297.89,468.8,282.61,467.32z"/>
	<path class="st7" d="M369.95,506.36c-2.75-17.64-16.34-31.51-33.81-35.69c-1.31-0.31-2.58,1.43-1.41,2.42
		c13.18,11.09,27,15.72,30.16,34.67c1.23,7.36,2.02,13.56-2.8,19.97c-1.89,2.51-4.52,4.4-6.39,6.96c-4.09,5.59-5.59,12.44-7.83,18.9
		c-12.52,36.05-47.8,48.87-83.49,45.6c-1.11-0.1-1.56,1.63-0.57,2.11c15.17,7.36,35.28,2.17,49.96-4.15
		c18.21-7.83,30.81-20.6,37.71-39.23c2.16-5.84,3.5-12.92,6.74-18.26c2.55-4.2,6.9-6.98,9.57-11.06
		C372.18,521.9,371.12,513.86,369.95,506.36z"/>
	<path class="st7" d="M473.14,277.24c-17.06,6.56-30.61,20.02-38.84,36.19c-14.63,28.76-14,78.89,22.88,91.08
		c0.45,0.15,0.84-0.5,0.47-0.82c-12.2-10.57-22.14-20.88-25.79-37.22c-3.49-15.64-1.01-32.49,5.56-46.99
		c6.28-13.86,16.64-26.25,30.14-33.52c11.2-6.04,36.11-15.01,47.17-5.13c0.56,0.5,1.61,0.03,1.34-0.78
		C510.67,263.96,484.5,272.87,473.14,277.24z"/>
	<path class="st7" d="M591.24,303.2c-4.45-8.61-8.46-18.68-14.83-26.07c-6.65-7.72-16.81-11.49-26.31-14.46
		c-0.86-0.27-1.48,0.87-0.87,1.48c6.61,6.62,16.42,8.05,22.95,14.91c6.67,7.01,10.84,17.76,15.43,26.26
		c10.26,19,13.2,41.18,6.26,61.84c-7.14,21.26-25.64,38.29-47.19,44.47c-13.69,3.93-28.95,0.67-39.23,12.44
		c-0.06,0.07,0.03,0.16,0.1,0.1c9.08-8.63,23.01-6.8,34.51-8.55c8.64-1.31,17.33-4.65,24.93-8.96
		c17.81-10.09,30.28-27.91,33.76-48.08C603.94,339.95,599.84,319.84,591.24,303.2z"/>
	<path class="st7" d="M623.76,77.91c-14.27-6.74-35.26-2.18-43.57,11.75c-5.27,8.84-5.08,19.8-2.1,29.36
		c1.91,6.13,5.13,11.72,7.55,17.63c3.33,8.15,4.16,16.52,6.55,24.9c0.74,2.62,4.54,2.02,4.65-0.63c0.39-8.95-1.93-18.02-5.43-26.23
		c-4.63-10.88-11.22-20.68-9.34-33.1c3.24-21.45,24.61-21.37,41.39-22.62C623.98,78.95,624.32,78.18,623.76,77.91z"/>
	<path class="st7" d="M650.5,72.98c-1.06-0.43-1.51,1.01-0.98,1.69c7.07,9.08,14.57,15.65,17.82,27.27
		c3.14,11.24,2.35,24.07-3.27,34.4c-4.84,8.9-11.85,16.58-19.47,23.16c-8.9,7.69-17.92,11.23-28.11,16.57
		c-0.42,0.22-0.33,0.91,0.13,1.02c21.93,5.24,45.7-27.64,52.43-44.79C676.31,113.8,671.22,81.35,650.5,72.98z"/>
	<path class="st7" d="M808.59,360.01c-15.07-1.67-33.06-2.05-47.58,3.09c-13.43,4.76-25.35,14.46-35.13,24.65
		c-22.36,23.33-35.72,56.98-41.44,88.38c-6.86,37.7,6.44,70.5,21.58,104.32c5.61,12.52,12.51,23.7,23.95,31.69
		c13.51,9.43,29.24,8.48,43.94,14.78c2.37,1.02,5.04-1.7,2.94-3.8c-8.51-8.5-22.04-6.69-32.66-10.66
		c-14.04-5.24-23.99-16.87-30.26-30.12c-15.68-33.1-30.09-67.22-23.29-104.51c5.35-29.32,17.32-60.86,37.56-83.21
		c10.13-11.18,23.04-22.06,37.65-26.57c14.15-4.36,28.93-1.82,43.18-4.81C810.99,362.85,810.3,360.2,808.59,360.01z"/>
	<path class="st7" d="M475.26,748.87c-6.29-9.38-13.76-18.2-22-25.92c-18.78-17.6-44.29-21.63-68.74-26.34
		c-28.16-5.43-62.02-5.99-89.48,3.69c-12.9,4.54-20.12,12.34-28.45,22.77c-10.96,13.73-24.73,24.18-36.57,36.92
		c-0.99,1.07,0.25,2.67,1.54,2c11.78-6.11,21.98-16.45,30.91-26.09c9.31-10.06,16.16-22.13,29.02-28.11
		c12.17-5.65,26.26-6.84,39.46-7.87c16.01-1.26,32.13-1.01,47.97,1.8c23.09,4.11,49.98,7.79,67.77,24.34
		c13.93,12.96,27.8,29.02,32.29,47.89c0.83,3.48,5.48,2.33,5.82-0.79C485.72,764.56,479.82,755.68,475.26,748.87z"/>
	<path class="st7" d="M494.63,774.62c-1.5-0.41-3.27,1.45-2.2,2.87c5.72,7.62,6.76,33.24-7.07,34.07c-1.2,0.07-2.72,0.88-2.92,2.23
		c-3.12,20.64-4.77,41.73-23.17,54.99c-20.11,14.5-44.94,7.5-66.04-0.83c-19.57-7.73-37.43-16.06-58.23-20.17
		c-23.76-4.69-45.61-16.01-69.44-20.19c-0.22-0.04-0.39,0.27-0.16,0.38c16.94,8.1,35.7,14.92,53.53,20.82
		c18.41,6.09,36.66,9.16,54.57,17.1c25.22,11.19,56.24,25.92,83.26,11.68c12.51-6.6,21.55-17.96,25.88-31.34
		c2.23-6.87,3.22-14.06,4.25-21.18c0.32-2.19,0.46-7.13,0.86-7.64c0.29-0.38,3.28-1.2,3.68-1.43
		C502.12,809.98,510.16,778.87,494.63,774.62z"/>
	<path class="st7" d="M501.28,596.33c-8.99-3.65-21.39-0.61-31.07-2.32c-11.44-2.03-25.53-8.11-28.19-20.84
		c-2.02-9.62,3.58-20.9,10.18-27.59c3.33-3.38,8.15-7.04,13.2-6.88c3.73,0.11,6.07,3.24,9.76,2.98c0.28-0.02,0.44-0.2,0.47-0.47
		c1.22-9.88-15.23-8.28-20.44-5.4c-10.66,5.89-18.33,18.81-19.42,30.79c-1.26,13.79,8.47,24.64,20.6,29.87
		c11.52,4.96,33.69,8.97,45.35,3.18C503.26,598.87,502.58,596.86,501.28,596.33z"/>
	<path class="st7" d="M928.35,546.28c-11.34-2.63-18.19,15.26-20.65,23.46c-2.26,7.53-2.01,15.35-3.97,22.87
		c-2.49,9.58-11.2,16.88-15.73,25.63c-9.42,18.22-22.04,62.36,9.42,68.17c1.27,0.24,2.45-1.31,1.36-2.33
		c-4.8-4.47-10.36-7.91-13.3-14.01c-3.2-6.61-3.28-14.41-2.2-21.53c1.8-11.87,6.79-24.08,13.34-34.11
		c3.8-5.82,8.93-10.54,11.47-17.12c2.06-5.35,1.94-11.02,2.83-16.62c1.03-6.47,2.9-13.08,5.84-18.94
		c2.97-5.92,7.42-8.68,12.33-12.68C930.07,548.29,929.5,546.55,928.35,546.28z"/>
	<path class="st7" d="M949.32,435.6c-1.78-3-4.58-4.66-6.9-7.25c-3.46-3.86-6.02-8.56-8.17-13.25c-4.19-9.17-6.77-19.11-8.93-28.92
		c-2.19-9.98-2.66-20.44-5.63-30.22c-3.57-11.75-10.95-21.25-12.69-33.71c-0.2-1.41-2.53-1.35-2.79,0
		c-2.34,12.43,6.44,22.03,10.04,33.31c3.8,11.88,3.95,25,6.82,37.19c2.86,12.13,10.53,44.46,26.91,45.18
		C949.17,437.98,949.9,436.58,949.32,435.6z"/>
	<path class="st7" d="M734.06,236.34c0.61-0.21,0.68-0.95,0.17-1.31c-10.59-7.42-24.67,2.53-31.33,11.08
		c-6.87,8.82-10.87,20.33-7.21,31.21c3.33,9.9,26.98,41.31,35.62,19.07c0.62-1.6-1.52-3.12-2.89-2.22
		c-6.95,4.54-11.41,3.55-17.25-2.48c-4.62-4.77-8.68-11.39-10.41-17.85c-2.42-9.07,2.29-19.2,8.3-25.91
		C716.35,239.79,724.57,239.59,734.06,236.34z"/>
	<path class="st7" d="M730.28,118.8c-7.18-6.87-19.63-1.52-25.68,4.5c-7.01,6.97-11.26,18.2-8.36,27.91
		c2.14,7.16,7.44,16.67,14.86,19.49c5.89,2.23,12.18-2.49,10.35-8.91c-0.16-0.56-0.95-1.02-1.48-0.6c-4.5,3.47-5.81,6.05-10.82,0.89
		c-3.64-3.74-7.01-9.43-7.85-14.65c-1.13-7.08,2.36-15.11,7.32-20.1c6.6-6.63,13.04-4.54,21.11-6.46
		C730.64,120.65,730.94,119.43,730.28,118.8z"/>
	<path class="st7" d="M484.73,95.85c-10.8,0.69-19.78,8.38-26.17,16.56c-14.36,18.38-17.08,53.36,9.8,62.26
		c0.35,0.12,0.62-0.37,0.36-0.61c-9.22-8.66-17.35-15.79-18.21-29.32c-0.65-10.23,2.75-19.49,8.64-27.66
		c5.45-7.57,12.93-14.32,22.34-16.3c11.96-2.52,17.54,5.68,25.46,12.74c0.59,0.52,1.43,0.01,1.28-0.75
		C506.11,102.12,495.21,95.18,484.73,95.85z"/>
	<path class="st7" d="M139.12,618.23c-7.53,0.87-13.63,9.07-17.34,14.91c-10.94,17.21-7.44,46.89,12.97,55.75
		c0.46,0.2,1.11-0.25,0.76-0.76c-8.99-13.45-19.98-27.39-14.05-44.78c1.76-5.15,5.25-10.26,8.99-14.11
		c6.76-6.95,11.41-7.01,18.91-0.89c0.15,0.12,0.39,0.05,0.39-0.16C149.77,622.26,145.24,617.52,139.12,618.23z"/>
	<path class="st7" d="M488.01,907.43c-8.95,3.6-16.93,9.03-26.65,10.53c-10.91,1.68-21.51-0.78-31.83-4.26
		c-9.63-3.25-28.66-10.84-35.5,1.64c-4.66,8.49,3.2,17.15,10.79,19.79c0.26,0.09,0.49-0.29,0.27-0.47
		c-4.52-3.7-10.25-8.97-8.54-15.4c2.67-10.05,16.51-7.25,23.71-5.11c11.31,3.36,20,9.3,32.13,9.79c19.9,0.8,41.48-25.95,59.68-8.16
		c0.92,0.9,2.87,0,2.33-1.36C510.01,903.34,497.72,903.52,488.01,907.43z"/>
	<path class="st7" d="M663.22,590.97c-16.26-21.24-55.81,3.4-69.93,16.47c-12.06,11.17-21.47,26.32-23.41,42.87
		c-0.88,7.52-0.32,24.65,11.43,22.13c0.65-0.14,0.77-1.13,0.19-1.43c-10.63-5.61-8.91-18.25-6.06-28.29
		c4-14.11,13.28-26.75,24.45-36.11c14.01-11.74,45.13-28.82,62.03-14.63C662.57,592.54,663.84,591.78,663.22,590.97z"/>
	<path class="st8" d="M324.16,313.7c-8.42,11.4-12.72,25.04-22.06,36.06c-10.64,12.55-24.78,21.19-41.45,22.35
		c-16.18,1.12-37.56-4.63-45.28-19.82c-5.21-10.25-13.44-12.72-24.13-15.4c-32.39-8.11-44.94-37.45-42.48-68.48
		c2.31-29.07,14.57-53.55,33.29-75.31c0.2-0.23-0.05-0.61-0.34-0.44c-18.15,10.56-29.57,35.02-34.79,54.53
		c-5.65,21.12-6.91,45.43,3.3,65.41c5.71,11.18,15.59,21.98,27.23,27.1c5.24,2.31,10.91,3.26,16.39,4.82
		c8.93,2.54,12.46,5.78,16.69,13.72c5.8,10.9,17.93,15.27,29.26,18.53c12.92,3.72,27.15,3.06,39.68-1.82
		c22.47-8.75,44.98-35.41,48.77-59.53C328.64,312.89,325.7,311.62,324.16,313.7z"/>
	<path class="st8" d="M320.03,276.14c-5.58-8.16-9.89-14.71-10.67-24.95c-0.5-6.49,0.11-13.11-4.09-18.56
		c-4.21-5.45-12.01-6.55-15.94-12.19c-4.92-7.04-2.51-16.72-4.25-24.65c-1.6-7.32-5.69-12.81-11.39-17.55
		c-8.64-7.17-25.74-17.21-37.05-11.05c-0.31,0.17-0.32,0.68,0,0.84c6.82,3.52,14.83,3.96,21.87,7.42
		c9.15,4.49,18.5,11.46,20.75,21.93c2.27,10.55-0.61,22.28,8.66,30.19c5.88,5.02,12.64,5.74,14.8,14.59
		c1.48,6.04,0.17,12.45,1.8,18.53c3.06,11.4,12.33,22.77,18.44,32.78c1.04,1.7,3.43,0.88,3.57-0.97
		C327.02,286.17,323.51,281.23,320.03,276.14z"/>
	<path class="st8" d="M59.73,492.34c-1.47-15.49-3.14-32.08-9.33-46.52c-3.05-7.1-10.83-18.23-19.4-11.24
		c-0.69,0.56-0.09,1.65,0.69,1.67c12.9,0.24,15.86,16.75,17.99,26.85c3.99,18.95,4.81,38.59,5.32,57.89
		c0.44,16.72,0.37,33.51-0.7,50.21c-0.32,5.07-0.85,9.99-1.79,14.98c-2.66,14.13-5.96,26.22-21.51,29.49
		c-3.09,0.65-1.96,4.74,0.68,5.07c31.83,3.96,29.89-52.31,30.1-72.64C61.98,529.49,61.49,510.86,59.73,492.34z"/>
	<path class="st8" d="M29.49,607.89c-8.71-4.51-11.27-9.77-13.37-19.71c-2.95-13.98-3.11-28.58-2.97-42.81
		c0.23-22.37,5.39-46.56,0.83-68.52c-0.03-0.15-0.27-0.15-0.3,0c-5.98,26.59-6.35,55.09-5.6,82.38c0.36,13.25,0.68,27.88,5.79,40.33
		c2.14,5.21,8.61,15.16,15.62,11C30.45,610,30.55,608.44,29.49,607.89z"/>
	<path class="st8" d="M155.58,635.23c-0.6-10.66-0.97-17.64-11.29-23.4c-2.49-1.39-4.36,2.11-2.18,3.73
		c8.97,6.67,7.63,12.36,8.56,22.21c0.77,8.11,4.41,14.89,7.5,22.29c4.26,10.19,4.3,19.26-1.88,28.63
		c-8.03,12.19-18.37,11.5-28.84,3.2c-0.77-0.61-1.75,0.13-1.34,1.03c10.45,23.51,37.37,1.71,40.12-15.49
		C168.65,662.18,156.42,650.07,155.58,635.23z"/>
	<path class="st8" d="M364.64,504.58c-1.9-18.6-25.18-36.62-43.01-38.05c-1.22-0.1-1.95,1.67-1.02,2.47
		c13.02,11.2,41.19,18.39,37.85,40.77c-1.3,8.71-11.23,13.05-14.98,20.81c-4.31,8.93-3.16,19.14-8.04,27.97
		c-10.22,18.47-34.72,30.8-55.31,31.74c-21.92,1-40.81-8.09-56.49-22.83c-0.16-0.15-0.4,0.04-0.3,0.23
		c10.42,19.61,35.73,27.91,56.79,27.41c22.06-0.51,46.23-12.49,58.6-31.07c7.48-11.24,4.9-26.5,13.92-36.54
		C359.31,520.07,365.78,515.7,364.64,504.58z"/>
	<path class="st8" d="M578.62,300.04c-8.51-14.11-29.54-47.91-50.49-35.32c-0.31,0.18-0.16,0.63,0.18,0.65
		c13.13,0.65,21.84,5.66,30.54,15.45c7.03,7.92,13,17.3,17.73,26.78c10.71,21.48,13.43,49.13,0.18,70.24
		c-6.63,10.56-16.8,19.95-27.87,25.64c-7.8,4.01-16.92,6.36-25.66,6.77c-4.46,0.21-8.79-0.28-13.01,1.48
		c-4.76,1.99-7.99,6.43-12.59,8.65c-5.29,2.55-11.47,2.77-17.23,2.52c-9.95-0.42-21.77-2.71-30.1-8.53
		c-0.07-0.05-0.17,0.05-0.12,0.12c11.12,16.58,40.66,17.23,55.67,6.55c8.66-6.16,17.46-4.49,27.26-6.35
		c8.84-1.68,17.2-5.01,24.7-9.98c11.32-7.51,19.88-17.43,26.04-29.51C596.38,350.58,592.56,323.14,578.62,300.04z"/>
	<path class="st8" d="M492.62,267.52c-35.46,1.2-61.34,30.74-70.04,63.11c-8.71,32.4,3.76,71.88,39.82,78.87
		c1.89,0.37,3.36-2.35,1.4-3.31c-12.95-6.39-23.89-11.28-31.52-24.32c-9.82-16.78-8.92-35.23-3.22-53.23
		c4.81-15.17,12.73-29.62,24.81-40.19c11.46-10.03,25.04-14.42,38.88-20.02C493.2,268.26,493.2,267.5,492.62,267.52z"/>
	<path class="st8" d="M401.41,123.45c-4.48-8.44-18.15-17.35-27.41-11.55c-0.53,0.33-0.52,1.08,0,1.41
		c9.08,5.84,18.56,3.63,23.73,15.67c5.34,12.42,2.32,27.94-2.59,39.99c-7.36,18.05-27.24,40.92-49.42,34.02
		c-1.03-0.32-1.88,1.1-1.07,1.83c7.72,7.04,20.77,3.19,28.89-1.42c13.09-7.44,21.71-20.7,26.99-34.46
		C405.75,155.33,408.6,137,401.41,123.45z"/>
	<path class="st8" d="M358.64,120.94c-16.7,2.28-31.2,14.84-36.81,30.61c-5.71,16.09-4.13,42.56,12.67,51.88
		c0.62,0.34,1.59-0.08,1.52-0.87c-0.51-5.55-3.91-8.64-6.63-13.3c-5.42-9.29-5.52-24.21-2.57-34.33
		c5.16-17.7,17.97-23.92,32.29-32.87C359.73,121.67,359.29,120.85,358.64,120.94z"/>
	<path class="st8" d="M508.9,101.06c-1.02-0.78-2.12,0.5-1.94,1.5c1.94,10.87,11.73,15.35,8.31,28.38
		c-2.62,10-10.73,14.11-15.73,21.98c-1.14,1.8-1.21,3.91-1.79,5.9c-2.15,7.35-5.32,12.85-12.16,16.6
		c-10.9,5.97-25.66,4.14-31.46-7.88c-0.07-0.15-0.31-0.1-0.35,0.05c-2.47,9.19,9.11,14.54,16.76,15.35
		c11.25,1.2,24.68-5.55,29.63-15.77c1.49-3.08,1.36-6.77,2.78-9.75c1.56-3.29,4.22-4.99,6.68-7.68c4.19-4.58,7.84-9.94,9.84-15.85
		C523.5,121.94,518.94,108.67,508.9,101.06z"/>
	<path class="st8" d="M663.57,96.12c-3.18-10.41-11.39-25.95-24.55-22.37c-0.21,0.06-0.18,0.33,0,0.4
		c21.16,8.4,27.48,42.85,16.83,61.32c-8.41,14.58-21.84,26.31-38.63,29.01c-11.08,1.78-22.92,5.06-30.67-5.24
		c-4.76-6.33-7.69-13.88-13.13-19.65c-1.19-1.27-3.53,0.04-2.97,1.73c3.09,9.33,9.95,22.21,18.22,28.04
		c7.24,5.11,15.85,2.22,23.98,1.2c21.55-2.7,37.39-12.9,48.44-32.03C668.54,125.66,667.81,110.02,663.57,96.12z"/>
	<path class="st8" d="M626.68,68.92c-5.01-6.81-17.08-4.4-24.33-2.94c-9.97,2.02-21.43,6.37-28.84,13.63
		c-11.16,10.93-18.07,36.74-1.09,45.74c0.89,0.47,1.77-0.46,1.34-1.34c-7.75-15.59-8.68-33.69,7.87-44.57
		c6.52-4.28,14.76-6.2,22.34-7.59c7.05-1.29,15.49,0.94,22.03-1.27C626.62,70.37,627.14,69.54,626.68,68.92z"/>
	<path class="st8" d="M736.57,133.79c-2.79,6.5-7.35,12.9-7.15,20.17c0.19,6.69,0.32,11.21-5.97,15.51
		c-3.15,2.15-6.77,2.33-10.09,3.99c-0.09,0.05-0.07,0.16,0,0.21c6.91,4.78,13.36-2.1,15.98-8.1c2.11-4.82,1.55-9.51,2.66-14.47
		c1.38-6.16,6.59-10.41,5.96-16.93C737.9,133.52,736.89,133.03,736.57,133.79z"/>
	<path class="st8" d="M869.94,225.96c-5.65-6.26-13.67-10.29-20.49-15.23c-8.87-6.42-15.27-14.58-21.76-23.3
		c-11.23-15.07-19.44-32.11-25.92-49.7c-3.49-9.47-6.44-19.29-7.88-29.29c-0.78-5.43-1.63-11.74,0.1-17.07
		c1.74-5.38,5.68-6.49,9.56-9.82c0.12-0.1,0.07-0.28-0.05-0.36c-8.47-5.73-14.72,6.22-15.76,12.98
		c-1.99,12.97,2.26,27.17,6.29,39.38c5.86,17.76,13.7,35.44,24.18,50.96c5.83,8.64,12.76,15.84,21.09,22.13
		c9.32,7.03,19.54,15.01,29.97,20.2C869.83,227.12,870.38,226.44,869.94,225.96z"/>
	<path class="st8" d="M803.68,193.04c-21.03-32.64-42.08-67.98-47.72-107.23c-0.02-0.15-0.27-0.15-0.3,0
		c-3.89,20.32,7.28,44.25,15.22,62.67c4.5,10.43,10.12,20.1,16.04,29.78c4.03,6.58,7.86,13.73,15.4,16.55
		C803.3,195.17,804.22,193.88,803.68,193.04z"/>
	<path class="st8" d="M817.79,236.48c-17.84-21.26-33.13-43.56-45.08-68.74c-6.49-13.68-13.18-27.54-18.45-41.74
		c-5.07-13.68-7.72-27.72-11.05-41.87c-0.18-0.75-1.44-0.81-1.58,0c-4.89,28.7,14.87,61.12,26.56,86.25
		c6.98,14.99,15,28.84,24.41,42.41c6.29,9.08,12.74,22.2,23.78,26.1C817.86,239.43,818.63,237.49,817.79,236.48z"/>
	<path class="st8" d="M895.54,182.11c-8.2-7.82-17.82-14.03-26.41-21.41c-9.83-8.44-15.46-17.58-20.58-29.3
		c-4.83-11.07-9.46-22.33-18.19-30.91c-0.26-0.25-0.66,0.07-0.49,0.38c10.73,20.07,14.46,42.34,31.11,58.82
		c16.85,16.68,36.69,28.76,48.81,49.94c0.41,0.72,1.66,0.24,1.37-0.58C907.41,198.65,903.75,189.94,895.54,182.11z"/>
	<path class="st8" d="M891.85,195.16c-4.75,0-4.76,7.39,0,7.39C896.61,202.54,896.61,195.16,891.85,195.16z"/>
	<path class="st8" d="M902.71,210.88c-2.08-1.54-5.69,0.51-5.39,3.1c0.02,0.21,0.05,0.4,0.08,0.6c-0.16,0.22-0.29,0.46-0.33,0.76
		c-0.31,2.17,0.63,4.1,1.02,6.23c0.43,2.38,0.57,4.78,1.24,7.11c0.74,2.59,3.75,3.12,5.66,1.5
		C911.31,224.79,908.64,215.27,902.71,210.88z"/>
	<path class="st8" d="M954.31,392.03c-6.9-9.17-2.66-19.93-5.26-30.45c-1.79-7.27-5.01-14.3-9.1-20.54
		c-7.6-11.6-18.57-22.59-33.23-22.55c-0.91,0-1.08,1.32-0.21,1.58c24.24,7.19,39.37,33.57,37.74,57.84
		c-0.77,11.5,6.02,16.68,11.19,26.19c3.82,7.01,6.51,16.23,4.6,24.18c-1.04,4.33-4.24,10.25-9.07,11.41
		c-3.06,0.73-8.63-1.77-11.73-2.72c-2.2-0.67-3.21,1.99-2.03,3.5c7.79,10.02,21.48,5.77,26.3-4.84
		C970.51,420.22,963.66,404.45,954.31,392.03z"/>
	<path class="st8" d="M780.34,362.99c-20.72-0.19-40.05,23.34-50.1,39.39c-16.1,25.7-22.47,55.6-23.86,85.61
		c-1.45,31.57,3.65,64.2,17.13,92.95c7.92,16.9,27.33,45.79,49.39,42.95c1.68-0.22,3.12-2.88,1.02-3.77
		c-10.11-4.28-18.77-7.72-26.66-15.86c-8.19-8.46-14.55-18.58-19.26-29.33c-11.65-26.59-16.2-56.01-15.14-84.92
		c0.98-26.9,6.12-54.28,19.15-78.08c10.51-19.19,27.69-38.99,48.57-47.17C781.48,364.41,781.42,363,780.34,362.99z"/>
	<path class="st8" d="M891.74,447.04c-3.59-21.73-7.02-55.4-30.2-65.59c-0.35-0.16-0.64,0.22-0.4,0.52
		c15.32,19.64,20.4,40.44,24.51,64.58c5.06,29.71,1.94,57.71-10.73,85.21c-4.56,9.89-11.35,18.56-15.59,28.56
		c-3.94,9.29-5.5,19.3-8.62,28.85c-4.27,13.06-12.2,24.82-23.93,32.29c-11.29,7.18-22.52,7.3-35.28,8.66
		c-1.22,0.13-2.13,1.98-0.71,2.63c20.73,9.54,46.31-9.42,57.94-25.68c6.79-9.48,8.86-21.43,11.76-32.47
		c4.06-15.44,13.73-27.25,20.13-41.66C892.94,505.22,896.68,476.92,891.74,447.04z"/>
	<path class="st8" d="M672.77,595.61c-0.29-0.29-0.66,0.08-0.52,0.4c5.6,13.2,0.84,29.65-6.64,41.41
		c-3.69,5.79-8.57,11.81-14.53,15.44c-5.53,3.36-12.06,3.5-17.46,7.06c-10.38,6.85-15.7,16.85-29,19.66
		c-5.81,1.23-28.22,1.36-31.51-6.22c-0.51-1.17-2.22-0.3-1.97,0.83c1.7,7.82,15.33,10.42,21.88,11.22
		c7.52,0.92,14.98-0.86,21.71-4.25c8.28-4.17,12.98-11.15,20.34-16.32c7.07-4.97,15.87-5.01,22.84-10.63
		c6.43-5.19,11.85-12.18,15.51-19.58C679.28,622.77,683.13,606.02,672.77,595.61z"/>
	<path class="st8" d="M567.15,557.52c-20.05-19.12-55.37-26.32-79.85-11.47c-1.34,0.82-0.91,3.36,0.86,3.18
		c15.1-1.55,28.5-6.95,43.96-3.33c11.87,2.78,24.2,9.31,32.51,18.34c20.93,22.75,6.31,56.12-19.96,66.47
		c-8.37,3.3-19.95,6.45-28.36,1.64c-9.46-5.41-7.37-16.09-12.65-23.99c-2.8-4.2-6.81-5.08-11.64-5.29
		c-13.73-0.59-27.32-2.24-41.03-2.62c-1.61-0.04-1.69,2.12-0.36,2.64c7.98,3.08,15.41,5.2,23.95,5.97
		c5.33,0.48,17.67-2.23,22.46,1.21c3.82,2.75,4.08,10.88,5.75,15.04c1.8,4.45,4.47,8.45,8.4,11.28
		c17.22,12.41,45.22-0.91,57.18-14.78C585,602.57,586.11,575.6,567.15,557.52z"/>
	<path class="st8" d="M471.33,736.84c-1.4-1.12-3.34,0.67-2.02,2.02c8.73,8.96,18.51,24.02,21.36,36.22
		c2.38,10.18-1.95,31.96-16.36,29.33c-2.31-0.42-4.4,0.97-4.5,3.43c-0.99,26.71-7.24,55.38-39.4,58.28
		c-30.48,2.75-49.87-23.69-77.94-27.9c-21.2-3.18-41.57-3.08-62.25-9.98c-22.45-7.49-40.86-19.54-54.86-38.76
		c-0.51-0.7-1.87-0.32-1.53,0.64c7.61,21.71,30.03,34.97,50.49,42.64c11.89,4.46,24.34,7.37,36.89,9.27
		c15.04,2.27,30.8,0.95,44.68,7.99c25.6,12.97,51.39,32.19,81.3,19.14c23.85-10.4,28.4-34.23,29.55-57.6
		c12.9-0.39,20.09-13.74,21.51-26.19C500.57,765.19,485.81,748.42,471.33,736.84z"/>
	<path class="st8" d="M461.38,737.24c-4.97-17.26-30.13-22.47-45.24-24.81c-27.54-4.28-55.68-7.11-83.38-10.29
		c-11.8-1.36-24.57-1.81-35.76,2.88c-11.03,4.63-18.77,14.36-28.26,21.28c-16.65,12.14-36.19,18.52-37.96,42.03
		c-0.01,0.16,0.24,0.19,0.27,0.04c5.34-21.51,27.38-28.12,42.89-40.13c8.28-6.41,15.91-13.81,25.85-17.63
		c13.18-5.07,28.3-2.91,41.89-0.86c22.28,3.37,44.65,5.24,67,8.05c8.49,1.07,17.01,2.53,25.14,5.27
		c10.2,3.45,16.25,9.03,23.71,16.41C459.15,741.07,462.03,739.46,461.38,737.24z"/>
	<path class="st8" d="M513.64,907.01c-0.33-0.17-0.79,0.19-0.55,0.55c6.11,8.91,11.38,16.78,6.27,27.82
		c-2.97,6.42-7.07,11.28-13.21,14.96c-11.46,6.85-25.63,7.18-38.66,7.43c-14.55,0.29-28.19-1.71-42.01-6.46
		c-11.9-4.1-33.27-11.63-36.81-25.61c-0.3-1.17-1.9-0.64-1.75,0.48c2.09,15.19,19.17,22.73,31.95,27.73
		c19.11,7.48,39.44,10.74,59.92,8.41c13.61-1.55,32.15-5.85,40.75-17.66C527.25,934.07,526.32,913.36,513.64,907.01z"/>
	<path class="st8" d="M794.31,864.44c-16.8,2.8-33.18,9-47.4,18.32c-15.41,10.09-29.84,20.9-46.31,29.33
		c-13.26,6.78-27.38,11.58-36.63,24c-7.06,9.48-7.4,22.28,0.09,31.8c0.82,1.03,2.55,0.15,2.53-1.05
		c-0.18-8.78-3.99-15.85,0.16-24.66c3.17-6.74,9.58-11.63,15.82-15.34c12.08-7.2,25.13-12,37.03-19.71
		c11.2-7.26,22.09-15.05,32.9-22.86c13.2-9.54,28.52-11.01,42.25-18.79C795.32,865.13,794.9,864.34,794.31,864.44z"/>
	<path class="st8" d="M844.65,917.89c-18.29,8.38-34.77,20.02-53.3,28.04c-13.34,5.77-26.58,11.65-40.39,16.24
		c-15.09,5-30.01,9.62-45.55,13.03c-9.65,2.12-20.76,4.93-29.15-1.48c-0.74-0.57-2.03,0.02-2.2,0.9c-4.11,21.49,63.4-3.93,68.97-6
		c34.88-12.98,73.07-26.51,102.48-49.6C846.2,918.47,845.33,917.58,844.65,917.89z"/>
	<path class="st8" d="M942.49,578.71c1.1-13.63,4.29-28.02-5.99-38.65c-0.04-0.05-0.1,0.01-0.08,0.06
		c5.65,13.18,2.45,26.93,1.49,40.52c-1.01,14.35,2.3,27.09,3.98,41.19c1.88,15.81,1.38,29.69-6.25,44.05
		c-2.68,5.04-5.9,10.49-9.38,15.02c-6.72,8.74-14.68,9.48-24.37,12.45c-1.3,0.4-1.42,2.42,0,2.76c12.37,2.89,23.82-9.53,31.28-18
		c9.93-11.26,14.3-28.89,15.09-43.57C949.29,615.56,940.95,597.72,942.49,578.71z"/>
	<path class="st8" d="M859.39,300.78c-1.46-2.23-4.33-2.35-5.11-3.38c-2.43-3.23-1.85-9.89-3.59-14.44
		c-2.6-6.77-9.11-15.14-17.13-12.35c-1.09,0.38-1.05,1.79,0,2.18c12.05,4.53,11.65,14.23,13.99,24.73c0.79,3.54,1.29,3.32,3.44,5.43
		c1.01,0.99,2.74-0.32,3.69,0.57c3.87,3.6-1.15,11.33-3.84,13.4c-4.21,3.25-11.39,5.24-16.48,6.67c-0.85,0.24-0.91,1.57,0,1.78
		C846.3,328.12,868.61,314.9,859.39,300.78z"/>
	<path class="st8" d="M755.54,239.67c-3.76-5.94-11.54-11.8-18.66-8.68c-0.45,0.2-0.41,0.93,0,1.14
		c10.39,5.36,17.72,10.2,12.29,23.43c-1.46,3.57-2.53,5.03-2.53,8.96c-0.01,8.96,3.96,17.84-0.97,26.37
		c-4.03,6.96-11.4,9.56-18.56,11.9c-1.48,0.48-1.56,2.23-0.4,3.09c6.88,5.15,15.59-2.73,20.1-7.78c7.81-8.75,6.86-18.66,5.21-29.5
		C750.31,257.34,762.71,251.01,755.54,239.67z"/>
	<path class="st8" d="M818.39,689.13c-26.53-16.66-55.09-20.72-85.19-13.58c-26.93,6.39-53.1,17.01-76.88,31.17
		c-23.83,14.19-45.8,32.54-63.11,54.27c-14.91,18.71-30.71,44.36-31.69,69.04c-0.03,0.75,1,0.79,1.23,0.17
		c4.6-12.23,7.61-24.6,13.52-36.43c5.83-11.66,13.13-22.57,21.46-32.58c17.01-20.45,38.18-36.84,61.07-50.23
		c22.3-13.04,46.31-23.08,71.37-29.43c14.78-3.75,29.94-6.79,45.16-3.96c14.75,2.74,27.42,10.87,41.73,14.75
		C818.98,692.84,820.05,690.18,818.39,689.13z"/>
	<path class="st8" d="M842.71,742.56c-0.49-2.2-3.4-1.42-3.63,0.49c-3.25,27.32-14.41,49.03-33.85,68.52
		c-16.51,16.55-37.58,30.04-61.59,30.79c-20.88,0.65-41.1-13.08-61.87-8.17c-22.54,5.33-34.45,28.45-52.74,40.42
		c-0.05,0.03-0.02,0.12,0.04,0.1c24.64-9.41,38.82-40.63,68.32-35.72c11.75,1.96,22.7,7.03,34.56,8.54
		c11.58,1.48,23.37,0.26,34.43-3.47c21.3-7.19,39.01-22.62,53.19-39.66C832.69,788.58,847.5,764,842.71,742.56z"/>
	<path class="st8" d="M707.49,928.5c-5.57-2.95-12.66-1.98-18.38,0.09c-4.52,1.64-13.03,5.75-11.67,11.76
		c-0.06,0.09-0.13,0.17-0.18,0.26c-1.35,2.06,0.07,4.6,2.16,5.31c10.51,3.57,21.29-5.28,28.83-11.54
		C710.07,932.87,709.48,929.56,707.49,928.5z"/>
	<path class="st8" d="M738.33,905.81c-4.37,0-4.38,6.8,0,6.8C742.7,912.61,742.71,905.81,738.33,905.81z"/>
	<path class="st8" d="M59.14,436.78c-4.37-6.19-12.67-12.58-20.67-10.59c-1.97,0.49-2.52,3.58-0.59,4.52
		c4.6,2.25,9.09,2.85,12.79,6.78c3.35,3.55,5.49,8.11,6.77,12.78c0.82,3.02,0.46,9.51,3.17,11.6c1.82,1.4,3.73,0.6,4.8-1.26
		C68.9,454.51,62.66,441.77,59.14,436.78z"/>
	<path class="st8" d="M108.38,542.42c-3.43-8.91-10.06-15.89-14.34-24.31c-6.29-12.36-3.91-24.38-2.51-37.47
		c1.66-15.5-5.59-25.97-12.3-39.28c-2.75-5.45-11.2-22.23-19.54-14.52c-0.53,0.49-0.18,1.22,0.38,1.46
		c10.53,4.3,13.43,16.32,18.36,25.56c3.95,7.39,7.23,13.38,7.37,21.96c0.13,7.65-1.4,15.22-1.43,22.86
		c-0.06,14.49,6.65,24.04,14.26,35.79c5.3,8.17,8.48,16.67,8.46,26.52c-0.02,10.26-4.32,18.21-6.91,27.79
		c-0.35,1.27,1.47,2.57,2.39,1.39C112.12,577.86,113.89,556.75,108.38,542.42z"/>
	<path class="st8" d="M103.99,258.04c-0.07-1.51-0.22-3.01-0.54-4.46c-0.32-1.48-1.55-2.43-2.94-2.81c-1.85-1.5-4.85-1.33-5.78,1.41
		c-1.79,1.09-3.35,2.6-4.66,4.4c-6.06,7.47-9.16,19.43-2.73,26.2c0.16,0.17,0.32,0.33,0.5,0.48c0.26,0.24,0.47,0.5,0.75,0.73
		c0.59,0.47,1.3,0.78,2.04,0.97c1.87,2.06,6.3,1.49,7.43-1.68C100.62,276.11,105.49,266.28,103.99,258.04z"/>
	<path class="st8" d="M108.82,233.07c-0.19-0.02-0.37-0.03-0.56-0.05c-4.82-0.41-4.83,7.91,0,7.49c0.19-0.02,0.37-0.03,0.56-0.05
		C113.57,240.06,113.58,233.48,108.82,233.07z"/>
	<g>
		<path class="st8" d="M307.52,99.47c-5.99-4.92-12.18-7.56-20.15-6.49c-5.31,0.71-10.85,3.04-15.31,6.02
			c-11.3,7.54-19.14,23.04-10.89,35.87c14.99,23.33,52.58,4.05,50.87-20.67c-0.01-0.13-0.03-0.25-0.05-0.38
			C312.85,108.68,311.2,102.5,307.52,99.47z"/>
		<path class="st8" d="M276.76,107.4c-0.01,0-0.03,0.01-0.04,0.01c-0.01,0.02-0.03,0.05-0.05,0.07l0,0
			C276.71,107.45,276.73,107.43,276.76,107.4z"/>
	</g>
	<path class="st8" d="M312.34,78.38c-7.22,0-7.23,11.22,0,11.22C319.56,89.6,319.57,78.38,312.34,78.38z"/>
	<path class="st8" d="M427.71,459.95c-0.57-4.75-4.25-8.4-9.34-7.11c-5.97,1.51-11.04,5.62-13.9,11.08
		c-2.32,4.42-4.28,11.63-0.98,15.88c-0.05,1.49-0.02,2.99,0.11,4.46c0.44,4.8,5.82,9.43,10.58,6.07
		C423.63,483.65,429.09,471.48,427.71,459.95z"/>
	<path class="st8" d="M389.28,481.37c-8.12,0-8.13,12.62,0,12.62C397.4,493.99,397.41,481.37,389.28,481.37z"/>
	<path class="st8" d="M382.07,278.56c-6.06,5.08-11.59,12.91-15.25,20.9c-2.81,4.15-5.07,8.81-4.39,13.63
		c2.2,15.47,21.2,5.97,27.59-0.25c6.63-6.46,14.78-17.53,14.94-27.16C405.17,272.14,390.13,271.8,382.07,278.56z"/>
	<path class="st8" d="M373.42,284.48c0.06-0.13,0.15-0.25,0.19-0.39c0.96-1.97,0.36-4.56-2.27-5.3c-0.17-0.05-0.33-0.09-0.5-0.14
		c0.07,0.04,0.14,0.08,0.21,0.12c-1.22-0.52-2.55-0.61-3.84,0.15c-1.89,1.11-2.63,3.47-1.79,5.47c1.48,3.52,6.38,3.19,7.89,0.3
		C373.35,284.62,373.38,284.55,373.42,284.48z"/>
	<path class="st8" d="M246.44,439.45c-2.24-4.45-7.05-7.7-12.17-6.37c-5.89,1.53-8.33,7.79-9.32,13.19c-0.48,2.6,0.2,4.88,1.54,6.54
		c0.4,2.65,2.07,4.99,4.95,5.73c5.66,1.46,12.2,0,15.25-5.38C249.09,448.94,248.56,443.66,246.44,439.45z"/>
	<path class="st8" d="M200.95,504.75c-0.03-0.18-0.06-0.35-0.1-0.53c-1.22-6.65-12.23-6.66-13.45,0c-0.03,0.18-0.06,0.35-0.1,0.53
		c-0.82,4.46,1.96,8.96,6.82,8.96C198.95,513.71,201.77,509.22,200.95,504.75z"/>
	<path class="st8" d="M212.55,593.77c-5.81-5.39-13.86-6.48-19.87-0.68c-1.16,1.12-2.24,2.44-3.17,3.86
		c-1.19,0.79-2.23,1.8-2.94,3.01c-2.52,4.3-1.79,9.86,1.55,13.52c3.13,3.44,8.18,4.6,12.57,3.14c6.23-2.07,10.4-7.89,13.06-13.6
		C215.15,600.02,215.18,596.21,212.55,593.77z"/>
	<path class="st8" d="M185.7,583.22c-0.15-0.07-0.29-0.13-0.44-0.2c-3.03-1.4-6.82,0.23-6.82,3.91c0,3.68,3.79,5.31,6.82,3.91
		l0.44-0.2C188.51,589.33,188.51,584.52,185.7,583.22z"/>
	<path class="st8" d="M670.51,270c-3.33-9.11-13.46-11.78-20.22-4.35c-6.03,6.63-8.1,19.99-1.01,26.63c2.51,2.35,5.5,2.43,7.85,1.2
		c0.32,0.13,0.62,0.31,0.96,0.41C671.44,297.84,673.58,278.4,670.51,270z"/>
	<path class="st8" d="M468.46,227.77c-7.26,0-7.28,11.29,0,11.29C475.72,239.06,475.74,227.77,468.46,227.77z"/>
	<path class="st8" d="M659.13,301.64c-1.13-3.27-5.52-3.27-6.65,0c-0.2,0.44-0.31,0.91-0.33,1.4c-0.84,6.12,8.17,6.16,7.32,0
		C659.45,302.55,659.34,302.09,659.13,301.64z"/>
	<path class="st8" d="M521.61,19.79c0.19-1.58-0.43-3.24-1.97-4.09C506,8.14,488.31,28.1,489.45,41.43c0.32,3.73,2.94,7.04,7,6.99
		c12.94-0.15,26.84-12.03,25.97-25.6C522.35,21.78,522.06,20.75,521.61,19.79z"/>
	<path class="st8" d="M491.43,17.52c-2.17-2.17-5.85-2.18-8.03,0c-2.44,2.44-2.19,7.3,1.15,8.92c2.2,1.07,4.34,1.08,6.31-0.44
		C493.52,23.94,493.84,19.93,491.43,17.52z"/>
	<path class="st8" d="M782.17,80.35c-2.45-2.53-7.14-2.68-9.57,0c-2.01,2.22-3.54,4.62-4.61,7.12c-0.61,0.75-1.14,1.58-1.6,2.47
		c-2.02,3.99-2.9,9.98,0.92,13.18c0.21,0.18,0.46,0.26,0.68,0.41c0.09,0.21,0.13,0.41,0.23,0.62c1.99,4.39,7.95,4.1,11.01,1.42
		c3.35-2.93,4.85-6.84,5.19-10.96C786.38,89.86,786.35,84.66,782.17,80.35z"/>
	<path class="st8" d="M781.79,117.47l-0.51-0.6c-4.67-5.43-13.27,3.17-7.84,7.84c0.2,0.17,0.4,0.34,0.6,0.51
		C779.41,129.83,786.41,122.84,781.79,117.47z"/>
	<path class="st8" d="M709.34,672.41c-39.06,1.34-76.05,26.1-104.68,50.79c-22.92,19.77-59.33,56.46-50.1,90.16
		c0.97,3.53,6.23,4.44,8.03,1.05c7.8-14.77,11.28-30.76,20.97-44.78c10.46-15.11,24.11-28.11,38.3-39.69
		c15.89-12.98,33.49-25.05,52.63-32.67c13.39-5.33,26.77-7.66,38.29-16.59C716.14,678.06,713.24,672.28,709.34,672.41z"/>
	<path class="st8" d="M932.4,421.21c-9.01-16.42-15.55-29.18-17.87-48.07c-2.25-18.23-11.48-33.7-12.31-52.37
		c-0.03-0.62-1.01-1.03-1.3-0.35c-8.07,18.73,9.11,42.89,12.26,61.69c2.31,13.82,2.42,34.39,17.41,40.91
		C931.75,423.53,933.08,422.46,932.4,421.21z"/>
	<path class="st8" d="M305.79,460.09c-25.75-12.07-61.7-12.13-80.49,12c-8.23,10.57-35.75,60.88-15.93,70.01
		c0.67,0.31,1.64,0.25,2-0.53c3.27-7,0.94-16.34,2.63-24.15c2.57-11.91,7.74-24.18,14.22-34.5c17.59-28.03,47.07-22.63,74.51-15.58
		C306.93,468.42,310,462.06,305.79,460.09z"/>
	<path class="st8" d="M483.16,531.97c-5.05-8.7-19.57-9.86-28.57-8.74c-9.1,1.13-17.62,5.8-22.8,13.47
		c-6.97,10.32-14.62,39.35,2.24,44.98c1.77,0.59,3.08-1.21,2.79-2.79c-2.21-12.14-4.19-24.02,2.56-35.39
		c4.34-7.32,12.21-10.74,20.55-10.74c7.17,0,13.79,4.39,20.79,3.46C482.77,535.95,484.35,534.01,483.16,531.97z"/>
	<path class="st8" d="M488.7,86.79c-14.56-11.51-30.86,12.89-36.62,24.1c-0.19,0.37,0.22,0.89,0.62,0.62
		c10.98-7.44,20.49-23.92,35.46-23.41C488.78,88.12,489.23,87.21,488.7,86.79z"/>
	<path class="st8" d="M690.5,262.07c1.43-14.17,10.74-24.37,22.22-31.94c0.06-0.04,0.02-0.16-0.05-0.13
		c-27.21,10.87-36.31,51.92-8.03,68.03c1.21,0.69,2.43-0.91,1.48-1.92C696.68,286.14,689.02,276.77,690.5,262.07z"/>
	<path class="st8" d="M505.63,902.98c-8.68-12.56-21.74-6.96-33.88-2.2c-15.33,6.02-25.49,7.25-41.72,1.96
		c-8.87-2.89-16.36-4.84-25.28-1.11c-0.5,0.21-0.5,1.04,0.14,1.03c16.22-0.34,29.22,12.82,45.81,11.57
		c20.38-1.54,31.3-17.01,53.47-9.36C505.2,905.24,506.26,903.9,505.63,902.98z"/>
	<path class="st8" d="M632.49,580.61c-13.48-3.39-40.3,1.69-43.59,18.11c-0.06,0.32,0.26,0.6,0.56,0.43
		c7.3-4.08,12.29-10.57,20.5-13.52c7.19-2.59,15.03-3.13,22.53-4.29C632.87,581.29,632.84,580.7,632.49,580.61z"/>
	<path class="st8" d="M925.16,535.84c-11.08,1.54-18.69,9.86-23.04,20.01c-3.38,7.87-2.71,15.83-4.84,23.95
		c-2.21,8.44-6.92,14.49-11.87,21.52c-16.09,22.86-26.08,59.04-4.05,81.62c0.86,0.88,2.22-0.04,1.98-1.15
		c-3.68-16.79-7.29-32.69-2.97-49.87c3.74-14.85,12.66-24.78,20.54-37.25c4.06-6.42,4.97-11.48,6.36-18.89
		c1.7-9.1,2.21-17.57,7.79-25.53c3.43-4.9,7.56-8.49,10.75-13.58C926.07,536.2,925.6,535.77,925.16,535.84z"/>
	<path class="st8" d="M123.14,621.57c0.4-0.59-0.28-1.57-0.98-1.28c-9.72,4.04-12.63,11.63-13.88,22.21
		c-1.06,8.94-0.54,22.76,6.19,29.68c0.5,0.52,1.31-0.02,1.17-0.68c-2.19-9.71-2.58-18.14-0.4-28.06
		C116.68,636.79,119.32,627.28,123.14,621.57z"/>
	<path class="st1" d="M78.31,566.63c-9.89-0.25-12.16,10.58-10.22,19.24c-0.72,4.53,0.87,9.68,4.96,12.89
		c3.97,3.12,8.45,2.64,11.47-1.48C90.79,588.73,93.98,567.02,78.31,566.63z"/>
	<path class="st1" d="M70.62,610.35c-0.39-3.14-2.41-5.86-5.85-5.86c-3.49,0-5.46,2.7-5.85,5.86c-0.07,0.37-0.09,0.74-0.07,1.11
		c0,7.62,11.85,7.64,11.85,0C70.72,611.09,70.69,610.71,70.62,610.35z"/>
	<path class="st1" d="M848.38,227.08c-2.63-2.07-5.58-2.2-7.98-1.2c-1.4-1.13-3.81-0.95-4.33,1.25c-0.04,0.19-0.07,0.3-0.08,0.41
		c-0.05,0.06-0.12,0.15-0.21,0.29c-0.47,0.71-1.11,1.19-1.53,1.99c-0.85,1.64-1.02,3.64-1,5.47c0.06,4.77,2.04,9.21,4.13,13.4
		c3.15,6.31,8.37,14.96,15.98,16.33c3.54,0.64,8.51-0.93,9.11-5.17C864.17,247.86,857.85,234.56,848.38,227.08z"/>
	<path class="st1" d="M876.61,252.45c-3.58,0-6.62,3.04-6.62,6.62c0,3.59,3.03,6.62,6.62,6.62c3.58,0,6.62-3.04,6.62-6.62
		C883.23,255.48,880.2,252.45,876.61,252.45z"/>
	<path class="st1" d="M920.82,259.24c-0.33-4.18-3.18-7.36-7.53-7.53c-5.75-0.22-11.73,2.58-15.42,7.09
		c-2.52,1.53-4.85,3.36-7.01,5.34c-3.12,2.87-2.7,9.34,1.44,11.2C904.21,280.69,922.04,274.55,920.82,259.24z"/>
	<path class="st1" d="M836.2,863.89c-1.62-2.76-5.77-4.44-8.81-2.93c-3.28-1.07-7.27-0.84-10.4-0.02
		c-6.1,1.6-11.95,5.42-13.88,11.69c-1.42,4.62,2.38,8.45,6.7,8.8c8.25,0.67,17.33-3.14,23.87-7.95
		C836.73,871.24,838.25,867.4,836.2,863.89z"/>
	<path class="st1" d="M874.83,889.8c-10.79-20.1-34.64-13.95-52.67-8.18c-21.06,6.73-61.71,8.43-73.49,29.35
		c-0.43,0.76,0.27,1.53,1.06,1.38c10.46-1.9,19.7-7.3,29.96-10.2c10.58-3,21.4-4.97,31.93-8.17c18.36-5.58,42.99-18.26,58.33-0.42
		C872.33,896.32,876.44,892.8,874.83,889.8z"/>
	<path class="st1" d="M599.48,491.59c-0.52-12.44-1.87-27.33-9.8-37.53c-7.79-10.02-20.01-8.38-31.44-6.94
		c-12.07,1.53-27.96,3.24-37.68,11.25c-0.33,0.27,0.02,0.87,0.42,0.73c16.45-5.87,51.48-19.09,63.73-0.91
		c7,10.39,7.79,25.08,7.95,37.2c0.07,5.01,0.02,10.12-0.53,15.1c-0.91,8.31-3.41,12.02-12.09,11.06
		c-15.44-1.7-32.16-6.19-45.9-13.43c-9.29-4.89-32.41-17-18.06-28.37c9.44-7.49,24.97-9.08,36.59-9.64
		c11.04-0.53,20.74,2.77,21.84,15.48c0.53,6.14-0.65,12.34-1.82,18.38c-8.96-1.14-18.14-2.32-26.69-5.17
		c-5.56-1.85-14.63-7.33-4.57-11.75c6.09-2.67,14.49,0.23,17.84,5.62c2.23,3.59,7.88,0.33,5.69-3.32
		c-6.64-11.08-35.13-15.7-35.14,2.49c-0.01,17.31,33.1,17.22,44.63,18.93c1.66,0.25,3.66-0.39,4.04-2.3
		c2.46-12.08,6.34-27.75-2.75-38.12c-9.26-10.58-26.1-7.16-38.24-5.33c-10.86,1.65-25.41,4.83-31.42,15.27
		c-5.85,10.15,1.81,18.4,9.62,24.39c12.87,9.88,27.87,15.87,43.53,19.73c8.79,2.16,26.61,8.76,34.68,0.99
		C601.57,518.08,599.88,501.08,599.48,491.59z"/>
	<path class="st1" d="M201.37,415.66c-9.63-12.04-14.15-26.29-28.34-34.13c-7.91-4.37-21.69-10.14-29.69-3.03
		c-6.98,6.2-4.19,18.55,1,24.9c8.66,10.59,25.04,10.32,37.43,10.25c1.45-0.01,2.67-1.76,1.76-3.06
		c-6.04-8.65-14.46-16.46-24.37-20.31c-2.84-1.1-4.82,3.6-2.08,4.94c7.85,3.82,13.64,9.2,19.85,14.81
		c-13.36,1.01-29.94,0-34.29-14.77c-6.15-20.91,20.86-13.86,30-8.15c9.48,5.92,16.02,16.74,21,26.57c2.55,5.03,1.15,6.82-5.02,8.24
		c-4.55,1.05-9.68,0.67-14.3,0.15c-17.34-1.96-46.87-14.6-44.38-36.21c1.85-16.1,19.4-22.02,32.98-18.13
		c9.71,2.78,17.9,8.91,27.56,11.74c1.02,0.3,1.96-1.13,1.09-1.86c-11.58-9.74-30.73-20.78-46.43-16.25
		c-14.83,4.27-23.38,22.75-17.11,36.73c6.2,13.83,22.07,23.19,36.21,26.83c11.48,2.95,30.34,5.87,37.53-6.24
		C202.38,417.64,202.07,416.53,201.37,415.66z"/>
	<path class="st1" d="M974.32,495c-2.11-13.91-19.47-38.33-34.6-22.12c-6.63,7.1-4.45,19.38,0.21,26.95
		c5.71,9.26,14.46,10.04,23.44,4.96c0.7-0.39,1.23-1.45,0.91-2.25c-3.02-7.64-6.24-15.14-9.92-22.49c-0.43-0.86-1.49-1.14-2.36-0.96
		c-4.04,0.84-5.67,2.01-8,5.34c-1.31,1.87,1.67,4.18,3.18,2.45c4.78-5.49,9.89,6.2,10.39,9.79c1.32,9.38-5.72,8.58-10.91,5.22
		c-2.53-1.64-3.94-4.58-5.12-7.22c-2.46-5.53-3.42-12.13-0.16-17.43c5.53-8.97,16.07-6.43,22.49,0.43
		c8.43,9.01,11.79,26.39,2.41,35.58c-4.75,4.65-9.71,4.89-15.99,4.59c-3.69-0.18-9.2,0.71-12.61-0.08
		c-11.57-2.68-11.87-26.27-9.6-35.6c1.74-7.16,5.58-14.21,11.72-18.52c6.38-4.48,13.47-3.76,20.64-5.42
		c0.56-0.13,0.67-0.97,0.16-1.24c-14.66-7.79-30.71,6.92-35.49,19.89c-3.05,8.27-3.48,17.53-1.45,26.1
		c1.27,5.36,4.92,16.39,10.98,18.34c1.89,0.61,5.25-0.82,7.31-0.9c3.25-0.13,6.47,0.36,9.71,0.49c4.16,0.17,8.29,0.18,12.13-1.59
		C973.23,514.96,975.76,504.49,974.32,495z"/>
	<path class="st1" d="M362.3,916.51c-2.53-6.25-8.08-9.71-13.46-13.28c-8.43-5.6-26.67-20.86-37.23-12.12
		c-8.6,7.11-3.03,21.73,4.03,27.7c8.15,6.9,26.14,16.77,37.22,13.49c0.9-0.27,1.73-1.38,1.34-2.35
		c-4.55-11.18-15.93-18.44-26.25-23.73c-2.48-1.27-4.65,2.36-2.2,3.76c6.18,3.55,12.51,7.09,17.97,11.74
		c1.23,1.04,7.35,5.23,5.65,7.01c-0.96,1.01-8.97-2.2-10.21-2.65c-10.32-3.8-26.55-10.61-26.66-23.74
		c-0.16-19.36,28.3,0.17,35.43,4.64c8.08,5.06,12.39,9.61,12.81,19.23c0.09,2.09,0.87,7.76-0.13,9.52
		c-2.38,4.22-8.24,2.21-13.14,1.2c-14.02-2.91-28.9-9.47-38.81-20.07c-7.89-8.44-18.34-24.12-10.57-35.67
		c14.92-22.17,53.36,8.86,65.19,21.71c0.4,0.43,1.14-0.13,0.82-0.63c-8.75-13.86-22.18-24.49-37.3-30.97
		c-12.13-5.2-28.84-4.89-34.62,9.61c-5.36,13.43,4.8,29.43,13.57,38.87c13.41,14.45,37.05,24.06,56.62,22.28
		c0.9-0.08,1.85-0.75,1.77-1.77C363.53,932.51,365.3,923.9,362.3,916.51z"/>
	<path class="st1" d="M607.38,41.72c-1.98-9.9-12-19.23-20.69-23.42c-8.55-4.12-20.6-2.63-26.82,5.03
		c-6.67,8.23-4.67,20.65-4.28,30.38c0.05,1.23,0.96,2.12,2.19,2.19c10.14,0.55,28.06,3.27,33.93-7.66c0.46-0.86,0.31-1.81-0.33-2.52
		c-4.37-4.9-7-10.85-10.51-16.33c-0.5-0.78-1.62-1.42-2.58-1.05c-4.24,1.64-7.44,3.33-10.92,6.25c-1.8,1.51,0.51,4.36,2.47,3.2
		c3.41-2.01,6.88-4.09,9.78-1.91c1.54,1.16,3.44,5.25,4.26,7.19c1.09,2.6,4.07,3.01,1.43,6.29c-0.9,1.12-4.09,1.6-5.5,1.92
		c-4.9,1.11-10.23,0.84-15.21,0.63c-5.33-0.23-4.25,0.64-4.86-4.32c-1.17-9.55,0.14-21.38,10.11-25.24
		c12.04-4.67,25.1,4.51,31.39,14.52c12.17,19.34-26.3,28.06-39.81,27.77c-7.4-0.16-9.03-4.38-11.4-10.65
		c-2.19-5.8-4.88-12.98-4.13-19.22c1.68-14.02,17.16-20.62,29.6-20.42c0.65,0.01,0.82-0.84,0.32-1.17
		c-9.28-6.17-21.88,1.4-28.21,8.69c-8.74,10.07-5.83,21.65-1.48,33.19c3.33,8.83,5.47,13.63,15.3,13.17
		c10.98-0.52,22.73-3.4,32.64-8.07C601.63,56.62,609.23,50.98,607.38,41.72z"/>
	<path class="st6" d="M189.12,388.55c-5.85-5.72-18.58-17.23-27.75-13.91c-1.41,0.51-1.57,2.58,0,3.02
		c15.5,4.39,37.95,18.02,39.28,36.52c1.2,16.66-22.07,16.22-33.02,13.17c-11.67-3.25-21.98-12.43-33.7-14.48
		c-0.07-0.01-0.11,0.06-0.07,0.12c8.67,11.07,30.13,18.8,43.73,20.12c10.62,1.03,25.73-2.23,26.94-15
		C205.59,406.98,196.54,395.8,189.12,388.55z"/>
	<path class="st6" d="M162.93,407.83c-0.97-1.97-3.14-2.2-5-3.13c-2.77-1.38-5.27-3.38-7.26-5.74c-4.68-5.54-5.4-11.68-1.37-17.82
		c0.6-0.92-0.55-1.83-1.41-1.41c-17.88,8.82,7.33,36.92,14.84,29.7C163.17,409.01,163.19,408.36,162.93,407.83z"/>
	<path class="st6" d="M183.81,404.67c-4.29-7.05-12.08-11.79-19.68-14.39c-0.43-0.15-0.71,0.52-0.31,0.73
		c5.15,2.72,10.51,7.08,14.43,11.37c1.69,1.85,4.18,4.78,3.8,7.51c-0.5,3.64-5.26,3.67-7.52,5.78c-0.51,0.48-0.24,1.33,0.4,1.51
		C182.49,419.38,187.48,410.7,183.81,404.67z"/>
	<path class="st9" d="M183.11,380.4c-0.24-0.16-0.46,0.14-0.36,0.36c3.64,7.8,10.16,13.76,14.18,21.38
		c2.44,4.61,4.66,9.95,3.48,15.28c-1.16,5.21-5.81,8.42-8.71,12.63c-0.75,1.1,0.5,2.6,1.71,2.23
		C220.77,423.82,196.7,389.34,183.11,380.4z"/>
	<path class="st9" d="M157.12,406.47c-1.75-1.83-4.39-2.6-6.32-4.28c-2.34-2.03-4.19-4.78-5.25-7.68c-0.85-2.32-1.44-5.25-0.5-7.63
		c1.19-3.02,4.41-3.28,6.37-5.48c0.46-0.52,0.44-1.39-0.23-1.75c-8.37-4.53-12.24,8.48-10.8,14.26c1.42,5.69,9,18.17,16.46,14.58
		C157.63,408.13,157.66,407.03,157.12,406.47z"/>
	<path class="st9" d="M154.96,368.9c-4.65-6.67-15.28-0.28-19.17,4.11c-5.76,6.51-5.54,14.19-1.31,21.32
		c0.41,0.7,1.46,0.08,1.08-0.63c-3.2-5.95-2.02-14.24,2.56-19.15c2.38-2.55,5.08-3.49,8.47-3.78c2.55-0.21,5.28,0.67,7.69-0.2
		C154.91,370.33,155.41,369.54,154.96,368.9z"/>
	<path class="st9" d="M602.97,27.54c-0.73-0.69-1.84,0-1.63,0.95c1.69,7.77,7.56,14.97,3.03,22.93c-3.06,5.38-9.5,8.66-15.02,10.86
		c-13,5.18-26.74,2.66-39.8,6.02c-1.17,0.3-1.19,2.09,0,2.39c7.72,1.92,17.38,0.16,25.16-0.91c7.98-1.1,16.71-2.65,23.82-6.66
		C610.94,56.1,613.64,37.63,602.97,27.54z"/>
	<path class="st9" d="M559.74,19.03c-6.62,2.86-11.91,7.9-12.94,15.25c-0.96,6.83,0.68,17.72,4.71,23.28
		c0.3,0.42,1.13,0.47,1.24-0.16c1.06-6.03-1.99-12.06-2.36-18.1c-0.54-8.83,3.17-14.33,9.73-19.77
		C560.42,19.28,560.04,18.91,559.74,19.03z"/>
	<path class="st9" d="M569.23,23.32c-7.61,5.6-7.97,14.18-7.15,22.75c0.01,0.07,0.11,0.07,0.11,0c-0.46-6.38,2.3-15.76,7.93-19.5
		c2.79-1.85,6.07-2.15,9.27-1.31c2.95,0.78,5.28,2.8,8.4,2.68c0.53-0.02,0.96-0.52,0.81-1.06
		C586.42,19.41,574.48,19.45,569.23,23.32z"/>
	<path class="st9" d="M593.76,50.97c-1.5-4.03-3.46-7.88-5.44-11.69c-1.83-3.51-3.34-7.53-6.55-9.97c-0.99-0.75-2.23,0.49-1.97,1.51
		c0.88,3.46,3.56,6.22,5.36,9.27c1.97,3.33,3.53,6.81,4.77,10.45c-7.54,3.57-15.56,3.01-23.41,5.3c-0.27,0.08-0.25,0.45,0,0.54
		c8.02,2.8,19.3,0.97,26.45-3.46C593.57,52.54,594.03,51.68,593.76,50.97z"/>
	<path class="st9" d="M573.35,34.03c-1.76-0.51-3.77,1.56-5.03,2.61c-0.71,0.6,0.3,1.56,1.01,1.01c0.97-0.75,2.42-1.49,3.53-0.82
		c0.46,0.28,0.61,0.73,1.16,0.97c0.43,0.19,0.99,0.06,1.13-0.46C575.48,35.97,574.78,34.45,573.35,34.03z"/>
	<path class="st9" d="M672.71,325.8c-0.19-0.17-0.45,0-0.41,0.24c1.87,11.42,6.33,20.94,1.06,32.45
		c-3.26,7.11-8.62,13.16-14.26,18.49c-7.79,7.36-24.93,22.94-32.64,8.76c-0.44-0.82-1.6-0.39-1.66,0.45
		c-1.45,22.55,25.44,4.45,32.5-2.3C671.51,370.32,693.17,343.88,672.71,325.8z"/>
	<path class="st9" d="M959.7,468.87c-1.08-0.52-2.33,0.83-1.35,1.75c7.07,6.67,13.49,13.71,15.61,23.6
		c2.41,11.25-1.85,24.82-14.76,26.46c-7.67,0.97-23.14-4.42-26.17,5.9c-0.12,0.41,0.34,0.72,0.69,0.53
		c9.83-5.16,17.43-1.92,27.68-3.57c6.65-1.07,11.86-5.09,14.37-11.44C980.44,500.31,971.24,474.39,959.7,468.87z"/>
	<path class="st9" d="M953.56,459.22c-11.25,0.02-19.52,9.38-22.82,19.5c-2.66,8.15-5.19,27.78,2.06,34.18
		c0.55,0.48,1.42,0.31,1.63-0.43c0.88-3.07-0.17-5.71-0.65-8.83c-0.88-5.72-1.02-11.62-0.28-17.36c1.72-13.4,6.87-21.87,20.21-25.93
		C954.32,460.17,954.22,459.22,953.56,459.22z"/>
	<path class="st1" d="M577.79,709.72c-9.63,14.64-13.79,31.94-31.68,38.89c-8.17,3.17-19.11,5.87-27.49,2
		c-7.45-3.43-11.48-11.04-15.05-18.03c-13.82-27.01-24.09-62.27-53.71-76.41c-35.09-16.75-73.86,7.14-107.08,17.35
		c-20.72,6.37-40.65,5.49-61.99,4.37c-17.98-0.95-36.93-1.27-53.52,6.8c-19.51,9.5-27.47,26.88-35.38,45.89
		c-4.87,11.71-11.09,23.63-22.67,29.93c-10.59,5.76-23.31,5-34.95,6.14c-2.17,0.21-2.17,3.16,0,3.38
		c16.68,1.65,34.1,0.88,46.93-11.24c14.69-13.86,16.93-34.96,28.02-51.07c28.09-40.79,84.93-15.93,125.16-25.37
		c38.51-9.03,88.47-44.76,124.89-12.24c13.1,11.7,21.02,28.28,28.29,43.95c6.04,13.02,11.06,30.13,22.78,39.35
		c12.9,10.15,33.31,5.47,46.18-2.49c14.29-8.85,19.07-25.01,23.53-40.24C580.46,709.28,578.54,708.57,577.79,709.72z"/>
	<path class="st1" d="M718.63,365c-15.01-1.34-31.45,13.1-41.22,23.14c-11.82,12.14-20.63,26.85-27.1,42.45
		c-8.08,19.48-12.64,39.9-11.56,61.06c1.08,21.37,5.5,46.11,15.78,65.03c0.86,1.58,3.81,0.97,3.57-0.97
		c-2.41-19.71-10.47-38.21-12.31-58.19c-1.93-20.99,1.6-41.21,9.18-60.79c6.06-15.64,14.4-30.69,25.88-43.02
		c5.7-6.13,12.1-11.56,19.18-16.04c6.28-3.98,13.63-6.65,18.87-12.01C719.15,365.4,718.95,365.03,718.63,365z"/>
	<path class="st1" d="M838.72,626.49c-8.11,3.62-14.03,17.93-17.24,25.67c-2.75,6.65-6.86,18.39-0.21,23.94
		c1.1,0.92,3.05,0.72,3.41-0.9c0.82-3.75-0.09-7.45,0.38-11.28c0.69-5.57,2.9-10.79,5.32-15.81c2.97-6.14,9.95-13.93,9.37-21.03
		C839.7,626.53,839.21,626.27,838.72,626.49z"/>
	<path class="st1" d="M644.43,882.02c-7.92,4.4-13.82,11.61-21.73,16.11c-11.52,6.57-23.56,5.69-35.38,0.33
		c-14.78-6.7-26.88-18.16-40.89-26.23c-16.92-9.75-55.11-27.58-68.98-4.46c-0.15,0.24,0.1,0.62,0.39,0.51
		c32.49-12.48,61.21,6.97,87.15,25.19c13.17,9.25,28.68,18.73,45.51,16.67c14.42-1.76,29.3-12.91,37.56-24.51
		C649.67,883.38,646.6,880.82,644.43,882.02z"/>
	<path class="st1" d="M527.73,448.03c-12.31,5.13-23.27,9.46-36.55,11.9c-12.83,2.35-26.12,4.33-37.43,11.29
		c-24.63,15.16-30.6,43.57-39.28,69.01c-11.22,32.89-28.46,60.25-57.83,79.4c-13.63,8.88-28.48,16.1-43.98,21.07
		c-13.25,4.25-26.73,5.33-40.27,8.06c-0.67,0.14-0.55,1.05,0,1.24c24.74,8.56,58.01-7.55,79.1-19.58
		c26.98-15.37,46.65-36.14,59.86-64.37c13.58-29.04,16.17-70.68,45.82-88.97c12.49-7.71,27.76-8.83,41.86-11.52
		c10.35-1.97,25.29-4.33,31.15-14.33C531.06,449.75,529.56,447.27,527.73,448.03z"/>
	<path class="st1" d="M705.48,291.79c-8.51,12.16-11.91,28.31-17.02,42.11c-5.96,16.1-12.55,32.27-22.41,46.44
		c-9.58,13.76-22.45,24.69-36.06,34.29c-12.29,8.68-24.43,17.25-36.53,26.13c-0.53,0.39-0.07,1.24,0.53,0.9
		c26.77-15.14,54.91-29.03,73.89-54.41c9.72-13,16.34-28.15,22.14-43.22c6.26-16.27,14.7-34.04,18.1-51.12
		C708.45,291.28,706.43,290.43,705.48,291.79z"/>
	<path class="st8" d="M180.37,183.39c-16.12-1.39-32.78,11.34-43.5,22.22c-13.44,13.63-23.06,31.03-29.66,48.87
		c-6.75,18.22-10.63,37.7-11.11,57.14c-0.23,9.36,0.36,18.78,2.26,27.95c2.69,12.95,7.01,29.42,15.16,40.03
		c0.92,1.19,3.13,0.97,3.08-0.84c-0.29-11.33-6.91-22.21-10.02-33.02c-2.84-9.9-4.05-19.99-4.07-30.26
		c-0.03-18.31,3.26-36.64,9.05-53.99c5.9-17.68,14.49-34.73,26.8-48.83c5.79-6.63,12.3-12.58,19.79-17.23
		c7.17-4.46,15.2-6.84,22.52-10.94C181.22,184.18,180.93,183.43,180.37,183.39z"/>
	<path class="st8" d="M218.49,478.26c-8.99-5.04-17.03-7.13-22.63-16.73c-5.02-8.61-4.74-18.21-5.97-27.75
		c-0.07-0.5-0.83-0.9-1.1-0.3c-8.19,18.04,6.84,49.42,28.76,48.26C219.32,481.64,220.17,479.21,218.49,478.26z"/>
	<path class="st8" d="M426.28,61.3c-16.52,1.78-31.98,5.58-46.81,13.29c-10.21,5.31-19.88,11.54-29.51,17.81
		c-8.51,5.54-18.08,10.21-25.84,16.76c-0.56,0.47,0.05,1.27,0.66,1.14c16.19-3.55,30.95-16.66,45.03-24.95
		c15.65-9.22,31.78-15.22,49.8-17.49c13.08-1.65,26.79-2.52,39.84-0.2c14.94,2.65,21.79,9.21,28.39,22.23c1.01,2,3.74,0.85,3.9-1.06
		C494.21,58.45,444.93,59.29,426.28,61.3z"/>
	<path class="st8" d="M242.82,117.84c-16.39,1.41-33.36,6.67-43.8,20.44c-4.64,6.12-4.64,12.39-5.62,19.66
		c-0.91,6.7-3.67,11.89-8.72,16.35c-3.53,3.11-6.62,4.58-8.89,8.75c-0.77,1.41,0.5,3.19,2.11,2.74
		c12.05-3.37,20.56-15.44,21.91-27.48c0.81-7.23,0.28-11.82,5.48-18.17c3.23-3.94,7.61-6.95,11.97-9.48
		c7.79-4.51,17.26-8.34,25.76-11.41C243.72,118.99,243.68,117.77,242.82,117.84z"/>
	<path class="st8" d="M693.43,195.77c-5.94-4.32-13.4-7.06-18.71-12.2c-10.52-10.18-6.73-25.65-0.59-36.99
		c7.81-14.41,24.73-23.62,27.29-40.86c2.17-14.63-6.39-31.17-16.75-40.93c-0.27-0.25-0.72,0.07-0.52,0.4
		c9.8,16.41,18.63,36.28,6.11,53.43c-9.19,12.59-21.36,21.52-26.21,36.97c-4.01,12.79-1.78,26.13,9.03,34.78
		c4.36,3.49,9.48,5.94,14.1,9.05c8.8,5.91,10.74,10.09,9.89,20.24c-0.16,1.94,2.54,2.92,3.81,1.58
		C709.28,212.3,701.41,201.57,693.43,195.77z"/>
	<path class="st8" d="M140.67,609.1c-5.12-2-8.94-2.44-10.7-8.5c-1.23-4.21-0.72-9-0.29-13.3c0.79-8.04,3.06-15.79,5.35-23.5
		c1.61-5.41,3.64-13.23-1.7-17.47c-1.72-1.37-5.4-1.57-7.41-2.67c-6.53-3.58-13.76-7.62-19.85-11.81c-0.07-0.05-0.14,0.05-0.08,0.11
		c5.6,6.04,11.43,12.02,18.59,16.34c4.51,2.73,7.67,1.53,7.21,8.88c-0.51,8.04-5.03,17.15-6.6,25.22
		c-1.86,9.59-2.26,37.1,15.49,29.93C142.24,611.7,142.27,609.73,140.67,609.1z"/>
	<path class="st8" d="M429.67,622.57c-1.45-6.97-5.31-13.12-7.29-19.92c-2.75-9.44-2.46-19.49-4-29.13c-0.02-0.1-0.19-0.1-0.2,0
		c-2.66,16.17-0.54,28.98,4.49,44.22c3.09,9.35,4.1,23.68-8.38,25.2c-5.72,0.7-11.7-1.31-17.52-0.75
		c-14.31,1.39-24.56,11.84-36.53,18.61c-9.61,5.44-18.42,8.02-29.47,5.44c-5.58-1.3-10.9-3.56-16.7-3.71
		c-6.93-0.18-13.34,2.49-19.9,4.35c-8.43,2.39-17.01,4.18-25.65,5.65c-15.87,2.7-32.43,3.38-47.9,8.02
		c-20.6,6.18-39.63,22.82-38.15,46.14c0.16,2.57,3.96,3.34,4.65,0.63c3.78-14.68,7.43-26.69,21.32-34.85
		c13.12-7.71,28.59-9,43.33-11.1c17.66-2.51,34.46-6.38,51.68-10.83c15.15-3.92,27.93,5.37,42.98,2.44
		c15.37-2.99,25.85-14.87,39.3-21.64c7.96-4,15.69-3.47,24.28-2.97c3.78,0.22,7.74,0.48,11.27-1.21
		C429.89,643.04,431.39,630.82,429.67,622.57z"/>
	<path class="st8" d="M535.39,417.63c-11.45,1.87-15.46,8.69-20.67,18.09c-8.85,15.95-19.66,14.52-35.29,16.86
		c-25.64,3.83-40.62,22.99-54.51,43.19c-0.62,0.9,0.71,1.8,1.45,1.12c8.63-7.93,14.86-17.98,23.41-25.99
		c11.57-10.84,25.02-13.77,40.4-15.08c8.32-0.71,15.75-1.94,21.58-8.46c3.42-3.82,5.31-8.58,7.64-13.06
		c3.99-7.68,8.49-10.82,16.7-14.11C537.68,419.55,537.09,417.35,535.39,417.63z"/>
	<path class="st10" d="M582.6,938.07c-4.35-0.59-11.34,0.38-12.52,5.63c-1.38,6.13,7.05,9.6,11.76,9.04
		c1.53-0.18,2.06-1.93,0.77-2.86c-1.28-0.92-7.58-2.94-7.55-4.73c0.03-1.83,4.33-2.11,5.46-2.13c7.56-0.13,14.36,6.47,17.2,13.02
		c4.98,11.51-19.05,3.52-24.15,1.83c-12.23-4.03-28.5-22.87-11.67-32.65c11.56-6.71,26,2.57,37.78,3.98
		c0.23,0.03,0.36-0.27,0.26-0.45c-7.38-12.27-33-16.21-43.93-7.26c-14.43,11.81-5.45,30.86,8.08,38.98
		c6.05,3.63,13.91,5.6,20.87,6.46c4.84,0.6,12.5,1.77,16.6-1.78C611.99,956.15,591.04,939.22,582.6,938.07z"/>
	<path class="st10" d="M891.24,732.82c-17.16,4.5-15.51,32.62,4.68,27.87c1.29-0.3,1.24-2.22,0-2.55
		c-4.12-1.11-9.09-0.69-10.81-5.58c-0.97-2.77-0.12-5.84,1.22-8.31c3.14-5.81,9.45-8.3,13.41-1.52c4.95,8.47,3.68,23.26,1.92,33.11
		c-7.18,0.97-16.28,2.52-22.47-0.92c-7.25-4.03-7.74-14.63-7.08-21.95c1.13-12.52,8.47-38.93,26.19-32.87
		c0.94,0.32,1.46-1.06,0.66-1.56c-19.98-12.48-30.39,15.71-32.61,31.72c-1.24,8.98-0.81,20.83,6.3,27.47
		c8.15,7.62,21.69,4.99,31.61,3.88c1.27-0.14,2.67-0.84,2.94-2.24C909.33,768.51,912.47,727.24,891.24,732.82z"/>
	<path class="st10" d="M653.83,606.21c-11.76-7.6-29.13,1.22-39.48,7.39c-8.49,5.06-24.6,14.76-24.17,26.55
		c0.42,11.23,15.28,11.86,23.4,10.77c12.84-1.71,27.43-7.6,32.32-20.5c0.29-0.76-0.2-1.67-0.84-2.07
		c-8.46-5.18-16.88-7.28-24.12,0.64c-1.09,1.19,0.32,3.28,1.79,2.33c5.7-3.69,24.29-4.1,15.43,4.94c-3.81,3.89-9.29,6.51-14.45,8.02
		c-6.17,1.8-20.07,4.17-25.54-0.91c-7.57-7.04,9.68-19.24,14.55-22.6c9.31-6.41,22.71-14.21,34.48-12.02
		c19.97,3.71,7.91,26.89-1.39,34.79c-9.49,8.07-21.87,14.15-34.23,15.97c-8.13,1.2-20.91,1.87-24.63-7.48
		c-2.7-6.8,0.66-15.36,3.78-21.39c10.49-20.26,29.77-32.71,52.06-35.26c1.12-0.13,1.44-1.64,0.27-2.02
		c-24.5-7.94-50.88,18.08-59.52,38.56c-3.45,8.19-5.69,18.99,0.31,26.61c7.28,9.25,21.56,7.95,31.71,5.59
		c14.92-3.47,31.24-12.25,40.51-24.68C662.95,630.26,664.95,613.4,653.83,606.21z"/>
	<path class="st10" d="M492.62,106.92c-17.73,0.03-38.26,25.25-30.11,42.35c0.33,0.69,1.34,1.31,2.12,1.21
		c13.57-1.68,27.9-11.82,35.56-23.04c0.48-0.71,0.35-2.02-0.33-2.58c-7.14-5.84-15.41-6.47-21.19,1.41
		c-1.38,1.89,1.38,4.66,3.27,3.27c1.75-1.29,12.2-7.17,13.87-2.92c0.23,0.6-2.97,3.69-3.53,4.27c-3.85,4.04-8.53,7.45-13.32,10.3
		c-3.86,2.29-10.39,6.93-12.63,2.09c-2.25-4.87,3.09-13.51,5.79-17.28c6.59-9.2,22.91-21.04,31.89-7.75
		c3.24,4.79,3.36,12.12,0.67,17.14c-3,5.58-7.61,6.86-12.72,9.51c-5.19,2.7-8.42,6.99-10.22,12.64c-1.9,5.97-2.27,12.77-10.91,12.18
		c-6.44-0.44-9.9-5-11.63-10.7c-7.13-23.56,7.72-43.94,26.23-56.43c0.33-0.23,0.26-0.89-0.23-0.84
		c-20.36,2.12-31.31,25.08-32.18,43.44c-0.67,14.09,4.65,32.55,22.45,28.99c8.73-1.74,8.51-7,10.67-14.3
		c3.46-11.7,15.32-10.84,21.6-19.97C516.38,127.3,509.23,106.89,492.62,106.92z"/>
	<path class="st10" d="M340.32,505.79c-14.9-13.46-32.86-31.03-52.93-35.89c-18.57-4.5-34.2,7.33-41.34,23.93
		c-12.91,30.02-1.35,82.5,38.73,81.66c34.1-0.71,69.77-36.22,38.11-65.7c-11.26-10.49-40.9-27.3-56.08-15.74
		c-11.28,8.59-7.13,33.92-4.78,45.57c4.24,21.03,20.62,29.3,39.03,16.44c22.26-15.56,1.93-35.89-15.09-44.6
		c-1.48-0.76-3.51-0.44-4.35,1.14c-5.16,9.66-8.37,20.21-7.3,31.23c0.33,3.39,5.21,3.51,5.37,0c0.42-9.23,2.37-17.15,6.18-25.28
		c6.22,3.29,12.5,7.35,16.43,13.17c7.66,11.34-3.99,22.16-15.26,24.38c-18.01,3.55-19.98-19.75-20.24-32.36
		c-0.12-5.95-0.77-12.78,0.72-18.61c2.54-9.93,13.3-8.14,21.25-6.27c15.6,3.67,36.95,14.86,40.58,32.14
		c5.81,27.65-39.3,45.75-60.03,35.09c-24.92-12.82-28.16-53.87-14.48-75.51c24.62-38.95,58.51,7.81,84.29,17.23
		C340.28,508.21,341.19,506.57,340.32,505.79z"/>
	<path class="st10" d="M924.68,569.58c0.95-6.16,1.65-11.86-1.91-17.11c-0.2-0.29-0.7-0.36-0.87,0c-2.4,4.96-2.12,10.04-3.22,15.45
		c-1.11,5.49-2.9,10.84-3.71,16.39c-1.82,12.52,5.18,23.78,3.66,36.32c-1.81,14.98-13.06,51.57-34.06,43.32
		c-4.05-1.59-5.81,4.94-1.8,6.52c22.16,8.7,35.22-20.24,39.94-36.97c3.47-12.29,2.88-22.03-0.04-34.41
		C920.16,588.42,923.07,580.03,924.68,569.58z"/>
	<path class="st10" d="M782.57,363.29c-2.16,0.18-3.06,3.75-0.56,4.11c23.83,3.43,40.75,15.52,51.93,36.93
		c10.81,20.7,15.18,44.88,15.35,68.07c0.12,16.66-2.62,32.54-8.96,47.94c-4.4,10.71-6.62,19.26-6.15,30.98
		c0.61,15.52-4.02,26.07-14.91,37.22c-10.85,11.11-24.29,18.71-39.65,12.14c-3.5-1.5-6.35,2.99-3.04,5.21
		c22.32,14.96,49.51-9.96,60.19-28.44c8.15-14.09,1.73-28.83,6.03-43.65c2.51-8.68,7.07-16.6,9.47-25.37
		c2.34-8.51,3.54-17.34,4.04-26.14C858.75,438.58,840.99,358.35,782.57,363.29z"/>
	<path class="st10" d="M881.43,463.94c-0.81-26.81-6.88-52.8-23.35-74.59c-14.52-19.21-38.01-33.63-62.83-27.98
		c-2.88,0.66-2.24,5.18,0.7,5.13c26.46-0.45,46.38,10.54,60.61,33.05c13.94,22.05,16.99,45.29,18,70.74
		c0.72,18.35,2.12,37.75-5.51,54.99c-6.44,14.55-15.04,26.22-19.15,41.88c-3.53,13.44-7.47,26.92-16.66,37.71
		c-8.43,9.89-19.95,14.14-30.67,20.81c-1.29,0.8-0.86,3.13,0.82,3.02c27.77-1.86,44.5-27.86,51.4-52.14
		c3.15-11.07,5.64-21.44,11.43-31.57c3.83-6.7,8.05-13.16,10.8-20.42C884.34,505.26,882.04,484.09,881.43,463.94z"/>
	<path class="st10" d="M480.83,751.87c-1.32-1.15-4.03-0.51-3.84,1.59c1.25,13.88,17.59,33.7,0.03,44.86
		c-8.2,5.21-17.81-1.35-23.07,8.93c-2.17,4.25-2.25,9.25-3.98,13.65c-3.54,9.07-11.67,12.44-20.68,14.43
		c-16.5,3.66-32.42,2.33-48.22-3.51c-14.22-5.26-27.83-11.79-42.23-16.66c-14.08-4.76-28.47-9.17-41.03-17.36
		c-17.87-11.64-39.7-34.76-34.79-57.48c0.17-0.78-0.62-1.41-1.33-1.02c-16.05,8.57,2.23,34.58,9.03,43.11
		c16.99,21.28,39.13,31.02,64.39,39.59c28.31,9.6,54.24,25.97,85.14,22.47c11.19-1.27,24.91-3.39,32.49-12.66
		c2.7-3.3,4.22-7.3,5.41-11.35c2.07-7.06,1.84-11.44,10.11-12.3c11.98-1.24,19.49-5.45,22.96-17.97
		C494.63,777.91,490.68,760.44,480.83,751.87z"/>
	<path class="st10" d="M791.24,693.35c-2.15-0.98-4.65,1.08-3.36,3.36c3.92,6.96,10.77,11.65,15.39,18.18
		c5.75,8.13,8.2,17.42,8.04,27.32c-0.31,18.49-7.52,37.06-17.46,52.45c-10.84,16.79-26.62,30.14-46.54,34.45
		c-24.59,5.32-39.31-10.4-59.19-20.81c-1.92-1.01-3.95-0.38-5.17,1.36c-7.1,10.13-18.08,16.38-26.89,24.82
		c-8.95,8.58-16.29,18.31-29.04,21.32c-10.98,2.59-22.96-0.73-31.94-7.29c-10.22-7.46-13.51-17.62-18.35-28.63
		c-0.35-0.79-1.58-0.52-1.78,0.23c-6.59,24.69,25,44.59,46.07,43.83c13.8-0.5,24.25-7.73,33.6-17.27
		c10.29-10.51,23.36-18.77,32.57-30.26c19.44,10.83,34.15,24.76,58.52,20.84c22.35-3.59,40.49-17.7,53.05-36
		c11.88-17.31,20.4-39.22,20.21-60.45C818.81,722.78,808.35,701.18,791.24,693.35z"/>
	<path class="st10" d="M568.94,309.05c-6.95-16.49-33.18-49.95-53.97-32.84c-1.5,1.23-0.13,3.35,1.44,3.48
		c5.98,0.51,11.47-0.82,17.39,1.1c5.79,1.88,10.93,6.01,15.09,10.3c7.63,7.88,13.09,17.93,16.13,28.43
		c3.58,12.33,3.88,27.13-5.18,37.35c-7.05,7.95-18.41,6.36-26.89,12.02c-7.71,5.15-12.76,13.31-20.26,18.73
		c-9.03,6.53-20.23,9.37-31.31,8.48c-21.42-1.74-39.22-16.61-50.54-34.09c-0.47-0.73-1.67-0.28-1.43,0.6
		c6.07,22.95,28.55,38.56,51.97,40.58c12.48,1.08,25.18-2.11,35.42-9.43c5.14-3.67,9.15-8.46,13.54-12.94
		c6.67-6.8,13-8.37,21.68-10.82C578.23,362.61,577.49,329.32,568.94,309.05z"/>
	<path class="st10" d="M292.86,242.48c-0.96-1-2.67,0.03-2.3,1.34c4.02,14.36,9.8,27.52,10.33,42.7
		c0.56,16.02-3.23,32.91-13.74,45.43c-22.83,27.17-58.84,9.65-82.67-5.77c-0.51-0.33-1.22,0.34-0.86,0.86
		c17.76,25.71,63.04,35.61,86.07,11.67C311.69,315.85,315.57,266.3,292.86,242.48z"/>
	<path class="st10" d="M866.26,183.82c-13.83-9.97-22.18-20.84-30.59-35.74c-5.4-9.57-10.39-19.36-15.67-29
		c-4.01-7.32-7.78-15.72-14.59-20.76c-0.79-0.59-1.71,0.38-1.54,1.18c1.87,8.63,7.79,16.53,11.89,24.29
		c4.22,8.01,8.25,16.13,12.56,24.1c6.49,12.01,13.1,24.32,23.65,33.25c18.48,15.64,46.76,26.92,42.11,55.53
		c-0.64,3.96,4.5,5.37,5.98,1.65C909.88,213.59,883.14,195.99,866.26,183.82z"/>
	<path class="st10" d="M856.57,893.99c-0.38-1.89-3.32-2.8-4.57-1.21c-3.83,4.88-5.35,10.66-10,15.23
		c-5.76,5.67-12.86,10.04-19.97,13.79c-14.45,7.61-30.05,12.85-45.67,17.5c-15.14,4.51-29.54,10.7-44.37,16.11
		c-8.5,3.1-17.2,5.99-26.14,7.5c-4.51,0.76-9.18,1.28-13.75,0.89c-3.47-0.3-6.16-1.45-9.55-0.61c-0.84,0.21-1.45,1.39-0.88,2.15
		c8.5,11.2,35.73,1.39,46.03-2.06c17.92-5.99,35.18-13.42,53.31-18.83c16.81-5.03,33.73-10.85,49.1-19.43
		C839.72,919.66,859.25,907.39,856.57,893.99z"/>
	<path class="st10" d="M560.16,561.02c-0.39-0.37-1.14-0.35-1.4,0.18c-2.55,5.25-0.56,10.68-0.32,16.3c0.39,9-1.89,16.81-8.11,23.52
		c-5.54,5.98-13.28,11.05-21.69,11.12c-9.6,0.09-13.83-6.83-18.98-13.73c-0.49-0.66-1.4-0.41-1.49,0.4
		c-2.5,21.61,25.29,22.85,38.39,14.11c8.76-5.84,15.82-14.58,17.79-25.07C565.82,580.13,566.25,566.82,560.16,561.02z"/>
	<path class="st10" d="M490.93,579.35c-9.09-1.65-17.98-0.68-26.96-3.54c-12.33-3.93-19.78-11.04-19.84-24.56
		c0-0.53-0.83-0.83-1.07-0.29c-7.59,16.73,5.35,26.86,20.48,31.58c9.27,2.89,22.22,0.39,30.29,5c8.58,4.91,10.01,17.57,18.5,22.11
		c1.31,0.7,3.51-0.14,3.3-1.9C514.35,596.94,501.95,581.34,490.93,579.35z"/>
	<path class="st10" d="M939.57,387.39c-6.07-11.74-9.78-47.6-27.64-47.78c-0.31,0-0.56,0.32-0.47,0.62
		c2.2,7.45,9.31,12.33,12.21,19.95c2.81,7.4,3.99,15.33,6.9,22.69c4.01,10.16,21.02,31.87,8.02,40.74
		c-3.33,2.28-0.18,7.74,3.18,5.45C956.88,418.73,945.99,399.82,939.57,387.39z"/>
	<path class="st10" d="M736.31,265.02c-0.97-7.83-0.45-16.47-4.77-23.45c-3.31-5.35-10.28-9.74-16.07-5.86
		c-0.24,0.16-0.23,0.47,0,0.63c3.04,2.17,7.08,2.15,9.81,4.85c2.3,2.28,2.99,5.52,3.62,8.54c1.19,5.66,1.06,11.56,1.79,17.28
		c0.65,5.14,1.95,10.29,1.81,15.5c-0.24,8.65-5.65,9.59-10.43,14.94c-0.73,0.82-0.43,2.08,0.64,2.42
		c6.55,2.05,12.28-3.38,14.51-9.32C740.27,282.41,737.33,273.25,736.31,265.02z"/>
	<path class="st10" d="M845.22,306.73c-2.63-2.99-5.53-5.08-6.64-9.1c-0.87-3.16-0.47-6.47-1.01-9.67
		c-0.85-5.04-3.57-8.97-8.92-9.22c-0.36-0.02-0.51,0.44-0.28,0.68c4.44,4.74,5.35,8.03,5.83,14.25c0.25,3.24,0.64,6.47,2.36,9.3
		c1.63,2.69,7,5.74,7.38,8.66c0.75,5.78-9,7.3-12.48,4.73c-10.53-7.78-3.11-25.63-2.76-35.74c0.04-1.17-1.33-1.9-2.31-1.32
		c-7.38,4.33-6.89,18.7-5.98,26.02c0.99,7.91,4.61,17.47,13.96,17.4C844.04,322.65,852.8,315.35,845.22,306.73z"/>
	<path class="st10" d="M853.85,305.25c-4.19-6.01-7.64-10.23-8.94-17.7c-1.26-7.22-2.93-12.12-9.27-16.22
		c-0.55-0.36-1.41-0.37-1.96,0c-3.07,2.05-5.43,3.98-5.57,7.81c-0.02,0.43,0.48,0.68,0.84,0.48c1.73-0.99,4.34-4.19,6.47-3.49
		c3.2,1.06,3.83,7.2,4.17,10c0.54,4.49,0.84,8.72,3.02,12.82c1.75,3.3,4.37,6.03,6.46,9.1c0.66,0.96,2.86,3.41,2.21,4.74
		c-0.35,0.71-5.83,1.94-6.9,2.42c-1.15,0.51-0.58,1.99,0.31,2.36C855.27,322,859.46,313.3,853.85,305.25z"/>
	<path class="st10" d="M146.45,630.51c0.48-0.26,0.25-1.01-0.27-1.01c-14.77,0-19.39,21.13-19.82,32.5
		c-0.36,9.57,2.63,37.09,16.85,36.85c1.32-0.02,2.52-1.64,1.64-2.86c-2.89-4.01-6.96-6.35-9.31-11.04
		c-3.19-6.36-4.47-13.62-4.64-20.69C130.55,650.58,133.72,637.48,146.45,630.51z"/>
	<path class="st10" d="M514.31,909.69c-1.74-2.42-5.82-1.06-5,2.11c2.76,10.63-1.67,15.83-11.49,20.26
		c-9.48,4.28-20.44,6.29-30.74,7.2c-25.36,2.24-52.79-5.8-69.09-25.75c-0.59-0.72-1.48,0.2-1.18,0.91
		c11.65,27.51,51.35,33.6,77.79,30.03C487.93,942.65,530.23,931.79,514.31,909.69z"/>
	<path class="st11" d="M858.34,523.61c-0.18,0.07-0.33,0.17-0.5,0.25c0.43-1.08,0.83-2.17,1.17-3.26c0.52-1.69-1.64-3.63-3.2-2.46
		c-8.37,6.29-12.81,19.08-10.08,29.21c0.71,2.63,4.44,3.87,6.36,1.68c5.09-5.82,6.99-13.07,10.59-19.76
		C864.13,526.56,861.66,522.34,858.34,523.61z"/>
	<path class="st11" d="M863.24,407.97c-1.33-3.19-14.97-30.25-22.47-19.53c-6.26,8.95,4.83,24.39,7.29,33.16
		c4.88,17.37,5.46,35.25,6.32,53.14c0.16,3.36,1.74,6.98,4.91,8.57c4.2,2.1,5.76,2.18,10.01,0c3.09-1.58,4.87-5.21,4.91-8.57
		C874.5,452.27,871.92,428.86,863.24,407.97z"/>
	<path class="st11" d="M841.66,554.59c-0.48-0.57-1.3-0.51-1.9-0.24c-3.53,1.57-4.08,5.05-4.53,8.58c-0.66,5.21-1.12,9.1-3.71,13.87
		c-2.15,3.95-4.11,8.06-7.29,11.3c-3.2,3.26-4.92,4.82-6.68,9.04c-0.16,0.39,0.18,0.77,0.51,0.9c9.69,3.9,18.19-6.32,20.76-14.98
		c1.58-5.31,1.28-10.74,2.97-16.15C843.09,562.73,844.75,558.24,841.66,554.59z"/>
	<path class="st11" d="M930.11,623.34c-1.57-12.56-2.8-27.81-0.67-40.11c1.78-10.33,5.36-18.3,2.32-28.49c-1-3.34-6.05-3.53-6.96,0
		c-3.99,15.49-5.67,29.86-2.58,45.5c1.38,7,6.23,20.54,4.16,27.74c-0.86,2.99-4.04,4.5-5.19,7.41c-4.16,10.49-1,23.98-9.62,33.13
		c-3.52,3.73-13.04,4.59-13.77,10.6c-0.05,0.44-0.11,0.88-0.16,1.31c-0.28,2.3,1.53,5.15,3.54,6.17
		c24.48,12.41,30.9-24.71,32.64-40.51C934.85,636.73,931.17,631.86,930.11,623.34z"/>
	<path class="st11" d="M574.98,352.92c-0.41-1.02-1.44-1.92-2.64-1.5c-11.53,4.05-11.93,22.31-22.2,25.4
		c-6.2,1.86-12.68-2.77-19.65-0.27c-20.4,7.33-29.64,33.8-54.23,31.43c-0.56-0.05-0.65,0.71-0.26,0.97
		c7.57,5.15,15.71,4.04,23.37-0.47c15.3-9.01,19.64-21.28,39.59-15.29c9.65,2.89,15.92,4.3,24.17-3.38
		C571.99,381.56,579.71,364.57,574.98,352.92z"/>
	<path class="st11" d="M310.17,266.81c-1.25-1.45-4.24-0.79-4.54,1.2c-1.25,8.35-0.02,16.04,0.48,24.43
		c0.77,12.99-1.58,23.26-7.62,34.88c-10.15,19.51-33.48,31.19-55.66,28.4c-0.67-0.09-0.91,0.83-0.52,1.25
		c7.86,8.27,15.7,10.75,26.68,6.08c13.58-5.78,17.95-17.07,27.64-26.97C313.53,318.8,328.67,288.32,310.17,266.81z"/>
	<path class="st11" d="M332.71,539.43c-11.83,8.2-18.76,20.86-31.67,28.14c-15.2,8.57-29.73,7.4-46.32,5.94
		c-1.38-0.12-1.9,1.7-1.07,2.59c22.48,24.13,82.45-3.22,81.5-35.27C335.11,539.69,333.76,538.7,332.71,539.43z"/>
	<path class="st11" d="M448.52,837.39c-6.06,2.54-9.98,7.22-16.55,9.25c-5.65,1.75-13.59,5.12-19.64,4.33
		c-0.64-0.08-0.83,0.89-0.32,1.17c7.75,4.24,13.76,8.32,23.28,6.58c7.28-1.33,18.86-6.15,20.06-14.49
		C455.87,840.64,452.93,835.54,448.52,837.39z"/>
	<path class="st11" d="M472.64,805c-1.23-1.34-2.6-1.9-4.25-2.55c-0.12-0.05-1.15-0.47-1.36-0.55c-1.49-0.69-2.97-1.57-4.33-2.47
		c-2.41-1.59-5.96-0.95-7.94,1.02c-1.89,1.89-2.74,5.64-1.02,7.93c3.3,4.41,10.06,9.78,16.02,7.53
		C474.4,814.17,476.16,808.83,472.64,805z"/>
	<path class="st11" d="M399.99,849.25c-11.49-15.54-35.04-22.05-53.32-25.81c-12.22-2.51-24.62-3.32-36.54-7.22
		c-13.6-4.44-25.64-13.5-37.17-21.81c-0.55-0.4-1.36,0.26-1.15,0.89c6.75,19.87,23.89,32.28,43.98,37.71
		c12.92,3.49,26.36,4.2,39.27,8c13.6,4,25.77,13.17,39.68,15.07C398.18,856.55,402.72,852.94,399.99,849.25z"/>
	<path class="st11" d="M690.65,821.67c-0.34-2.95-0.55-5.93-1.89-8.53c-0.01-0.07-0.01-0.13-0.02-0.2c-0.19-2.42-2.96-3.75-4.82-2
		c-0.67,0.64-2.65,2.06-3.45,3.69c-1.05,2.14-1.36,4.68-1.29,7.04c0.15,4.83,0.64,11.02,3.32,15.13c3.05,4.68,9.45,2.51,9.98-2.7
		C692.89,829.98,691.12,825.75,690.65,821.67z"/>
	<path class="st11" d="M641.88,851.24c-9.4,2.05-14.02,10.88-24.86,10.83c-9.05-0.04-21.68-5.07-27.42-12.3
		c-0.31-0.39-0.89,0.04-0.79,0.46c1.97,7.71,2.48,11.77,9.01,17.14c5.34,4.38,11.11,6.39,18.03,6.68
		c10.65,0.43,31.47-5.79,30.39-19.48C646.06,852.26,644.2,850.74,641.88,851.24z"/>
	<path class="st11" d="M821.77,715.1c-0.97-1.64-3.9-1.49-4.3,0.56c-1.99,10.21-0.76,20.28-1.71,30.58
		c-1.49,16.11-7.33,32.73-14.59,47.11c-7.29,14.45-15.21,29.74-30.25,36.82c-12.86,6.05-29.25,7.94-43.18,4.36
		c-0.79-0.2-1.31,0.93-0.56,1.34c29.53,16.23,54.69-0.5,74.03-25.46C817.38,789.55,836.64,740.16,821.77,715.1z"/>
	<path class="st11" d="M828.62,863.98c-36.41-22.29-78.1,33.74-108.05,46.33c-19.01,8-71.88,25.16-59.13,55.7
		c1.36,3.25,6.08,5.85,8.91,2.35c9.29-11.48,11.61-20.86,26.24-27.57c13.07-6,27.22-9.47,40.05-16
		c14.62-7.43,24.54-19.49,36.08-30.76c8.54-8.35,18.7-15.69,30.38-18.67c10.76-2.74,16.51-0.69,25.51-6.43
		C830.45,867.78,830.51,865.13,828.62,863.98z"/>
	<path class="st11" d="M848.41,904.06c-24.22,22.7-51.37,28.72-82.22,37c-25.74,6.91-45.37,20.41-72.84,20.3
		c-2.98-0.01-4.72,4.73-1.64,6.04c30.22,12.83,49.55-12.47,75.97-20.92c15.86-5.07,30.99-3.41,46.75-10.66
		c14.69-6.76,28.28-14.48,39.08-26.65C856.58,905.7,851.82,900.86,848.41,904.06z"/>
	<path class="st11" d="M929.72,643.75c-1.83-2.81-6.96-3.63-8.58,0c-1,2.26-2.07,4.07-2.43,6.56c-0.32,2.24-0.36,4.44-0.85,6.65
		c-0.75,3.37-2.37,6.47-2.31,9.88c-1.46,2.12,0.19,5.94,3.12,4.79c0.87-0.34,2.65,0.05,3.75-0.19c1.26-0.27,2.38-0.94,3.4-1.68
		c2.56-1.85,4.14-4.62,5.27-7.53C933.56,655.92,933.38,649.38,929.72,643.75z"/>
	<path class="st11" d="M931.5,571.62c-0.1-2.07-1.07-4.65-0.73-6.72c0.13-0.79-0.71-1.77-1.54-1.18c-2.04,1.46-4.23,2.01-6.11,3.81
		c-1.9,1.81-3.45,4.28-4.44,6.72c-2.17,5.31-3.04,12.14,1.14,16.58c2.17,2.3,5.84,2.04,8.05,0c3.65-3.37,3.56-8.68,3.68-13.34
		C931.6,575.55,931.59,573.56,931.5,571.62z"/>
	<path class="st11" d="M942.56,375.06c-7.67-13.5-3.19-36.84-22.29-41.21c-4.26-0.97-6.07,5.58-1.81,6.55
		c16.02,3.66,14.69,25.57,16.8,37.73c0.99,5.67,3.04,10.75,5.9,15.71c3.12,5.41,7.3,9.67,8.83,15.89c1.25,5.08,0.02,11.31,0.56,16.6
		c0.1,1,1.26,2.07,2.28,1.31C968.81,415.69,949.55,387.36,942.56,375.06z"/>
	<path class="st11" d="M946.45,378.94c-2.29-3.72-6.99-3.24-9.16-0.33c-0.69,0.45-1.34,1.03-1.76,1.44
		c-3.69,3.61-1.69,9.5,2.91,11.01c3.42,1.13,7.05-0.51,8.79-3.6c0.69-1.23,1.08-2.7,1.05-4.11
		C948.22,381.42,947.12,380.04,946.45,378.94z"/>
	<path class="st11" d="M846.73,149.55c-1.93,0.94-3.37,2.89-3.95,4.95c-0.6,2.16,0.05,3.73,0.57,5.49c1.44,4.86,8.65,4.28,9.32-0.54
		c0.5-0.86,0.94-1.35,1.5-2.46C856.68,152.01,851.66,147.14,846.73,149.55z"/>
	<path class="st11" d="M649.1,111.06c-3.39-8.88,3.03-17.07-1.05-25.93c-3.01-6.54-10.71-12.14-17.69-13.12
		c-3.13-0.44-5.41,2.24-4.01,5.22c4.18,8.91,10.38,6.78,9.76,20.26c-0.23,5.06-2.34,8.14-0.68,13.55c2.53,8.21,8.6,11.85,4.36,21.66
		c-2.62,6.07-5.96,6.62-4.48,13.45c0.35,1.59,2.32,2.71,3.86,2.19c6.83-2.3,11.82-9.88,14.31-16.49
		C656.81,123.03,652.11,118.93,649.1,111.06z"/>
	<path class="st11" d="M26.92,520.56c-2.25-3.07-6.06-3.07-8.3,0c-2.41,3.3-2.91,10.46,0.47,13.51c1.86,2.97,5.5,2.99,7.37,0
		C29.82,531.03,29.33,523.86,26.92,520.56z"/>
	<path class="st11" d="M469.39,770.02c-2.91-8.56-7.34-12.38-13.65-18.35c-0.33-0.31-0.94,0.1-0.66,0.51
		c3.62,5.22,7.16,13.19,9.12,19.27c2.05,6.35,1.17,13.3,3.61,19.46c0.31,0.79,1.43,1.09,1.91,0.25
		C473.36,784.83,471.63,776.61,469.39,770.02z"/>
	<path class="st11" d="M506,937.65c-12.02,0.2-22.89,6.46-34.69,8.78c-19.16,3.76-34.94,0.46-52.82-7.47
		c-0.39-0.17-0.91,0.33-0.51,0.66c23.38,18.55,65.53,20.24,89.21,0.89C508.33,939.56,507.37,937.62,506,937.65z"/>
</g>
</svg>
