<svg width="941" height="941" viewBox="0 0 941 941" fill="none" xmlns="http://www.w3.org/2000/svg">
<path d="M470.45 940.9C730.272 940.9 940.9 730.272 940.9 470.45C940.9 210.628 730.272 0 470.45 0C210.628 0 0 210.628 0 470.45C0 730.272 210.628 940.9 470.45 940.9Z" fill="#8E5AFF"/>
<path opacity="0.49" d="M37.4297 286.31C51.7097 286.93 68.4297 289.71 79.0097 281.54C62.8997 357.71 128.9 405.92 197.42 415.63C240.67 421.78 295.42 392.63 311.18 352.43C318.18 334.67 330.7 302.76 321.44 285.08C328.51 303.34 353.69 307 351.73 281.91C357.52 293.78 370.84 299.63 380.26 290.05C390.94 313.46 386.36 335.88 395.53 356.33C401.37 369.33 423.75 388.4 432.6 370.54C432.32 370.54 440.17 369.94 439.6 370.36C445.23 390.58 484.66 414.28 489 381.31C561.2 388.74 531.05 285.66 510.7 254.24C531.54 266.79 579.03 265.11 563.49 228.53C602.16 257.63 595.24 189.94 580.7 170.84C627.83 153.93 670.7 137.03 679.92 80.8399C681.633 70.3634 681.599 59.6754 679.82 49.2099C614.792 16.7859 543.112 -0.0617211 470.45 -7.55782e-05C275.98 -7.55782e-05 109.09 118.01 37.4297 286.31Z" fill="#F577FC"/>
<path opacity="0.49" d="M440.16 475.16C436.96 457.79 431.87 433.57 411.16 428.65C390.27 423.7 379.42 442.02 390.7 461.35C377.7 458.13 367.99 444.71 354.54 439.57C341.09 434.43 316.84 430.71 302.74 436.57C250.04 458.57 244.25 552.18 293.97 578.17C238.34 593.68 328.82 725.44 381.14 672.59C384.06 722.31 472.35 708.59 472.28 653.39C490.14 692.02 509.46 648.95 507.68 625.92C551.82 628.62 599.06 632.4 614.4 578.6C622.24 551.15 613.55 521.16 594.13 501.18C553.02 458.93 504.57 468.23 440.16 475.16Z" fill="#FF8DDC"/>
<path opacity="0.56" d="M189.799 308.25C212.999 245.06 118.369 206.97 131.499 278.25C99.4986 228.96 50.7986 305.44 89.9786 311.45C59.7486 346.69 19.6986 429.12 60.5886 472.18C112.399 526.68 146.589 420.65 157.289 389.43C167.109 401.76 181.369 402.93 184.829 386.67C208.829 392.22 244.279 400.07 240.719 359.25C237.359 320.63 197.329 323.56 189.799 308.25Z" fill="#462451"/>
<path opacity="0.56" d="M434.78 596.3C432.28 565 384.53 563.18 394.13 587.68C359.84 582.38 361.26 642.1 382.28 657.03C406.17 674.03 444.58 660.1 435.04 626.93C467.04 631.08 469.89 594.62 434.78 601.69V596.3Z" fill="#542B24"/>
<path opacity="0.56" d="M736.299 359.4C773.779 348.8 757.409 280.77 747.089 257.22C739.579 240.1 723.349 209.42 700.179 222.31C684.179 231.24 683.929 259.57 690.119 272.84C646.329 252.51 615.499 280.73 615.009 331.63C614.769 355.42 656.579 434.38 676.399 389.16C680.699 405.86 693.079 426.91 714.149 421.57C739.819 415.06 733.439 380.02 736.299 359.4Z" fill="#7B2D8E"/>
<path opacity="0.56" d="M472.469 144.03C469.809 98.8699 541.909 98.7899 516.559 153.78C543.409 135.87 550.269 184.01 545.199 200.69C537.259 226.82 503.809 244.06 477.849 243.76C449.659 243.43 424.849 226.2 413.169 201.67C403.299 180.9 406.719 135.56 434.959 167.29C428.089 138.12 445.209 115.71 461.699 154.79L472.469 144.03Z" fill="#8E42D1"/>
<g style="mix-blend-mode:screen" opacity="0.57">
<path d="M385.92 183.07C385.54 182.515 384.963 182.125 384.307 181.978C383.651 181.831 382.963 181.938 382.382 182.278C381.802 182.617 381.371 183.165 381.178 183.809C380.985 184.453 381.043 185.147 381.34 185.75C386.44 196.27 394.81 206.89 397.72 218.2C401.1 231.32 392.34 254.92 376.72 249.03C374.45 248.18 373.04 244.11 370.51 243.27C366.748 241.869 362.905 240.701 359 239.77C352.59 238.36 350.31 255.03 347.3 237.88C346.62 233.98 340.4 234.15 339.59 237.88C330.05 247.807 323.74 248.307 320.66 239.38C318.217 234.871 316.468 230.02 315.47 224.99C314.54 221.31 308.42 220.99 307.7 224.99C303.32 249.3 299.6 276.99 286.39 298.28C257.72 344.52 230.65 265.94 249.56 238.54C249.94 238 249.12 237.4 248.67 237.85C229.85 256.55 231.29 315.49 263.13 321.11C296.53 327 307.83 272.41 313.13 241.06C321.37 256.59 335.18 267.24 343.35 251.66C345.11 253.1 347.77 252.6 353 253.66C354.44 253.95 359.3 251.29 363 251.85C370.84 253.01 369.64 257.03 375.21 259C380.39 260.82 380.16 261.88 386.33 261.1C429.16 255.7 398.89 200 385.92 183.07Z" fill="#C6BDBA"/>
</g>
<g style="mix-blend-mode:screen" opacity="0.57">
<path d="M273.008 419.88C271.588 417.31 267.848 418.61 267.718 421.31C267.268 430.57 259.258 474.79 242.338 456.36C239.978 453.79 234.818 454.91 234.158 458.52C233.368 462.87 230.598 485.99 217.858 476.35C213.918 473.35 215.468 460.35 215.858 456.35C216.348 451.35 208.398 450.44 207.208 455.18C203.478 469.97 187.648 496.34 168.208 491.92C138.128 485.08 163.028 442.61 169.128 429.92C169.267 429.681 169.306 429.397 169.236 429.13C169.165 428.862 168.992 428.634 168.753 428.495C168.514 428.356 168.23 428.317 167.963 428.387C167.696 428.458 167.467 428.631 167.328 428.87C155.568 447.01 131.428 487.32 165.328 498.71C182.458 504.45 198.238 490.57 207.728 475.13C209.398 482.55 213.148 489.13 220.928 490.53C233.518 492.85 239.238 479.32 241.988 468.39C263.308 479.63 283.428 438.73 273.008 419.88Z" fill="#C6BDBA"/>
</g>
<g style="mix-blend-mode:screen" opacity="0.57">
<path d="M515.201 185.04C524.001 178.27 529.611 168.24 522.621 157.04C513.141 141.88 495.091 151.04 489.811 164.4C488.101 168.71 494.171 171.33 497.081 168.63C501.081 164.91 509.681 155.38 513.591 164.21C517.871 173.86 503.731 179.9 497.211 181.79C490.071 183.86 493.211 193.69 500.211 192.65C520.851 189.6 529.571 221.45 509.741 228.43C499.151 232.17 472.741 229.94 474.001 214.43C473.996 213.293 473.619 212.188 472.927 211.286C472.236 210.383 471.268 209.731 470.171 209.43C449.751 206.2 448.851 180.02 469.931 176.92C470.048 176.884 470.15 176.812 470.222 176.714C470.295 176.616 470.334 176.497 470.334 176.375C470.334 176.253 470.295 176.134 470.222 176.036C470.15 175.938 470.048 175.866 469.931 175.83C439.011 171.19 438.191 210.53 463.611 218.49C465.701 241.4 505.371 246.63 521.101 235.1C540.701 220.83 532.901 194.5 515.201 185.04Z" fill="#C6BDBA"/>
</g>
<g style="mix-blend-mode:screen" opacity="0.57">
<path d="M529.201 508.01C519.931 505.01 506.871 508.44 502.041 517.42C497.861 525.2 501.681 534.5 508.851 538.93C517.341 544.18 527.501 541.51 534.191 534.74C534.866 533.99 535.393 533.118 535.741 532.17C537.911 533.46 540.951 533.34 542.151 530.68C546.601 520.88 538.541 511.03 529.201 508.01Z" fill="#C6BDBA"/>
</g>
<g style="mix-blend-mode:screen" opacity="0.57">
<path d="M241.852 701.51C240.752 699.33 237.052 696.16 234.782 695.68C234.155 695.594 233.519 695.594 232.892 695.68C232.512 695.23 232.132 694.78 231.722 694.37C231.413 694.075 231.026 693.876 230.606 693.797C230.187 693.719 229.754 693.764 229.36 693.927C228.965 694.09 228.627 694.365 228.386 694.717C228.145 695.069 228.011 695.483 228.002 695.91C228.002 696.91 227.872 697.91 227.812 698.83C227.395 699.643 227.182 700.546 227.192 701.46C227.192 704.6 227.692 707.34 230.192 709.46C232.692 711.58 236.772 712.14 239.512 710.12C240.637 709.328 241.412 708.131 241.672 706.78C242.101 705.973 242.34 705.079 242.372 704.166C242.403 703.252 242.225 702.344 241.852 701.51Z" fill="#C6BDBA"/>
</g>
<g style="mix-blend-mode:screen" opacity="0.57">
<path d="M278.149 694.36C278.099 691.36 275.719 690.03 273.249 690.21C270.779 690.03 268.399 691.41 268.359 694.36C267.299 697.86 268.479 702.45 271.479 704.36C272.015 704.675 272.626 704.84 273.249 704.84C273.871 704.84 274.482 704.675 275.019 704.36C278.019 702.45 279.209 697.86 278.149 694.36Z" fill="#C6BDBA"/>
</g>
<g style="mix-blend-mode:screen" opacity="0.57">
<path d="M282.619 729.09C280.859 727.5 278.559 726.7 276.529 725.52C275.189 724.2 273.869 722.87 272.449 721.63C271.501 720.771 270.36 720.152 269.123 719.824C267.886 719.497 266.589 719.472 265.339 719.75C264.103 719.698 262.868 719.864 261.689 720.24C257.149 721.7 256.169 726.73 259.049 730.24C259.259 730.49 259.509 730.69 259.729 730.92C259.991 731.835 260.422 732.693 260.999 733.45C263.239 736.29 265.999 737.51 269.089 739.11C269.289 739.21 269.479 739.21 269.679 739.29C270.259 739.75 270.882 740.152 271.539 740.49C272.77 741.067 274.121 741.341 275.479 741.29C278.639 742.16 282.019 742.29 284.479 739.89C287.789 736.63 285.549 731.76 282.619 729.09Z" fill="#C6BDBA"/>
</g>
<g style="mix-blend-mode:screen" opacity="0.57">
<path d="M580.262 563.22C579.412 559.81 574.922 560.95 574.562 564C572.482 581.45 555.772 618 538.392 582.12C536.862 578.95 532.072 580 531.182 583.12C525.322 603.27 493.562 604.12 499.982 579.39C500.134 578.79 500.128 578.161 499.964 577.564C499.8 576.967 499.484 576.423 499.046 575.985C498.609 575.548 498.065 575.231 497.468 575.067C496.871 574.903 496.242 574.897 495.642 575.05C443.292 588.54 426.832 518.05 461.882 488.85C462.102 488.66 461.812 488.29 461.572 488.45C417.702 517.45 439.572 590.28 492.162 582.86C489.232 608.63 522.612 613.38 535.402 592.63C554.222 619.04 588.112 594.63 580.262 563.22Z" fill="#C6BDBA"/>
</g>
<g style="mix-blend-mode:screen" opacity="0.57">
<path d="M384.362 653.57C375.712 660.73 340.442 661.18 355.662 647.09C358.062 644.87 355.992 641.45 353.212 641.18C329.752 638.83 313.382 622.9 320.702 598.63C326.112 580.71 344.142 567.24 357.582 586.57C359.092 588.75 362.652 586.74 361.182 584.47C347.122 562.83 324.972 572.78 316.282 593.47C304.942 620.47 321.282 641.3 346.592 646.93C334.072 665.55 376.352 674.76 388.702 656.93C390.632 654.16 386.622 651.69 384.362 653.57Z" fill="#C6BDBA"/>
</g>
<g style="mix-blend-mode:screen" opacity="0.57">
<path d="M650.199 805.71C632.819 789.55 602.039 816.51 593.979 831.48C593.697 831.985 593.532 832.547 593.497 833.124C593.462 833.701 593.556 834.279 593.774 834.815C593.992 835.35 594.328 835.83 594.756 836.219C595.184 836.607 595.694 836.895 596.249 837.06C609.179 841.9 621.919 835.69 628.479 823.94C628.791 823.318 628.877 822.607 628.722 821.928C628.567 821.25 628.182 820.647 627.631 820.221C627.08 819.796 626.399 819.575 625.704 819.597C625.008 819.618 624.342 819.881 623.819 820.34C617.609 826.17 611.559 831.46 603.489 830.84C612.839 818.45 636.089 798.84 646.879 812.92C662.359 833.11 624.399 848.92 611.179 852.1C588.859 857.58 559.369 846.82 577.179 820.3C593.439 796.1 623.699 788.5 650.179 782.36C650.549 782.28 650.429 781.77 650.099 781.74C621.049 778.98 570.039 800.13 565.409 833.23C561.149 863.61 601.719 862.88 620.769 856.44C638.409 850.5 673.259 827.16 650.199 805.71Z" fill="#C6BDBA"/>
</g>
<g style="mix-blend-mode:screen" opacity="0.57">
<path d="M78.4396 610.83C76.2296 604.83 70.8496 601.51 64.9496 599.83C64.1202 599.615 63.2528 599.591 62.4128 599.76C61.5728 599.929 60.7821 600.286 60.1004 600.805C59.4186 601.324 58.8636 601.991 58.4772 602.756C58.0908 603.521 57.883 604.363 57.8696 605.22C57.7131 608.071 58.1035 610.926 59.0196 613.63C59.0098 613.793 59.0098 613.957 59.0196 614.12C60.2496 620.79 63.5296 624.51 67.6996 629.56C69.7996 632.1 74.6096 631.36 76.0296 628.49C78.6996 623.02 80.6396 616.76 78.4396 610.83Z" fill="#C6BDBA"/>
</g>
<g style="mix-blend-mode:overlay" opacity="0.57">
<g style="mix-blend-mode:overlay" opacity="0.57">
<path d="M32.4297 298.69C37.7297 340 58.4297 376.48 101.06 397.05C157.62 424.34 227.4 408.76 262.95 357.46C271.11 374.82 276.57 390.31 297.83 391.68C330.63 393.8 324.91 368.89 337.2 349.36C380.1 500.5 597.89 408.83 558.84 268.28C587.84 279.21 620.84 232.4 604.53 206.35C627.14 216.63 631.7 188.63 626.86 171.63C641.26 170.36 659.53 155.63 656.35 141.14C679.71 145.9 696.35 127.14 701.35 105.87C705.11 89.8699 699.96 71.9599 692.45 55.6599C624.174 19.0224 547.874 -0.10224 470.39 -8.11426e-05C271.2 -8.11426e-05 101.06 123.85 32.4297 298.69Z" fill="#C6BDBA"/>
</g>
</g>
<g style="mix-blend-mode:overlay" opacity="0.57">
<g style="mix-blend-mode:overlay" opacity="0.57">
<path d="M312.439 56.63C284.439 40.53 212.229 98.41 188.679 115.93C143.749 149.35 99.8687 207.6 91.9987 265.04C86.4387 305.6 119.689 345.54 163.859 344.87C215.699 344.04 279.959 266.33 280.699 218.35C301.759 236.57 333.989 261.48 347.869 218.27C410.589 268.35 475.319 122.7 439.099 114.99C473.099 131.99 516.599 73.88 508.879 42.88C491.699 -26.12 334.909 31.68 312.439 56.63Z" fill="#C6BDBA"/>
</g>
</g>
<g opacity="0.34">
<path opacity="0.34" d="M468.769 938.74C728.589 938.74 939.219 728.11 939.219 468.29C939.219 324.69 874.799 196.21 773.379 109.91C779.239 126.96 841.289 224.43 796.529 405.7C742.699 623.76 506.989 747.56 244.699 677.63C83.1192 634.53 15.0692 543.63 1.69922 523.75C29.1492 757.41 227.699 938.74 468.769 938.74Z" fill="#542B24"/>
</g>
<g opacity="0.34">
<path opacity="0.34" d="M911.179 323.02C901.939 342.49 896.839 367.59 891.519 384.47C879.049 424.05 864.979 462.75 851.989 502.13C823.179 589.43 762.429 680.13 677.619 719.74C630.619 741.74 587.239 775.9 537.489 791.25C494.799 804.42 449.129 808.23 405.699 818.63C341.329 833.97 296.849 855.78 229.599 843.41C198.322 837.645 168.042 827.389 139.699 812.96C163.804 836.157 190.306 856.726 218.759 874.32C232.529 879.32 246.269 883.9 259.819 887.87C332.999 909.3 403.819 910.48 478.309 891.78C585.949 864.78 717.009 802.86 797.399 724.69C858.699 665.11 899.149 597.09 926.369 516.34C929.129 508.16 932.529 495.78 935.829 481.02C935.829 478.61 936.009 476.23 936.009 473.81C936.023 422.528 927.635 371.59 911.179 323.02V323.02Z" fill="#542B24"/>
</g>
<g style="mix-blend-mode:screen" opacity="0.31">
<g style="mix-blend-mode:screen" opacity="0.31">
<path d="M337.862 173.63C370.022 178 411.862 139.28 375.442 117.05C338.782 94.68 293.782 127.74 273.442 155.16C233.442 130.16 183.792 169.76 181.742 214.81C180.662 238.57 193.742 255.81 217.982 259.51C255.982 265.24 282.432 226.81 310.982 208.63L337.862 173.63Z" fill="#C6BDBA"/>
</g>
</g>
<g style="mix-blend-mode:multiply" opacity="0.33">
<path d="M383.571 468.79C359.841 430.34 297.261 424.58 273.181 465.05C256.901 492.4 255.551 559.75 293.361 571.05C293.641 571.14 293.921 570.72 293.671 570.52C268.961 551.26 262.221 511.41 272.081 482.2C289.171 431.53 347.031 442.14 376.331 474.4C379.851 478.25 386.311 473.23 383.571 468.79Z" fill="#542B24"/>
</g>
<g style="mix-blend-mode:multiply" opacity="0.33">
<path d="M408.551 432.38C401.871 432.08 393.801 433.8 389.941 439.83C385.171 447.3 389.691 455.44 395.121 460.97C395.851 461.72 396.921 460.78 396.511 459.9C394.061 454.79 390.221 446.57 394.841 441.61C398.701 437.48 405.841 437.48 410.991 438.42C417.501 439.528 423.415 442.886 427.701 447.91C433.261 454.76 432.411 462.27 433.981 470.36C434.331 472.21 437.171 472.52 437.981 470.89C447.931 451.76 426.091 433.17 408.551 432.38Z" fill="#542B24"/>
</g>
<g style="mix-blend-mode:multiply" opacity="0.33">
<path d="M435.939 485.26C435.786 485.313 435.656 485.418 435.571 485.556C435.487 485.694 435.453 485.857 435.475 486.018C435.498 486.178 435.575 486.326 435.694 486.436C435.814 486.546 435.967 486.611 436.129 486.62C485.629 486.71 564.819 465.13 592.509 519.62C593.909 522.39 597.509 520.72 597.799 518.19C604.699 455.2 468.099 473.23 435.939 485.26Z" fill="#542B24"/>
</g>
<g style="mix-blend-mode:multiply" opacity="0.33">
<path d="M684.371 279.63C684.55 279.532 684.7 279.387 684.804 279.211C684.909 279.035 684.964 278.834 684.964 278.63C684.964 278.425 684.909 278.225 684.804 278.049C684.7 277.873 684.55 277.728 684.371 277.63C663.371 263.63 626.371 280.89 617.421 302.41C604.691 332.92 623.911 383.41 653.851 397.26C656.511 398.49 660.641 395.67 658.421 392.69C640.421 368.6 612.811 340.01 626.831 306.53C638.111 279.63 663.701 289.24 684.371 279.63Z" fill="#542B24"/>
</g>
<g style="mix-blend-mode:multiply" opacity="0.33">
<path d="M714.178 225.9C695.548 224.38 686.288 242.37 696.988 257.26C697.178 257.53 697.678 257.38 697.568 257.01C695.488 250.58 694.568 242.06 699.068 236.37C705.148 228.66 717.238 231.56 723.648 237.23C732.938 245.46 735.228 258.58 742.768 268.12C744.288 270.05 746.978 267.9 746.558 265.91C743.058 249.33 733.498 227.48 714.178 225.9Z" fill="#542B24"/>
</g>
<g style="mix-blend-mode:multiply" opacity="0.33">
<path d="M498.098 112.68C473.418 115.97 475.818 137.25 464.158 151.8C460.768 143.63 457.338 134.22 446.828 136.58C435.548 139.12 431.278 151.58 430.298 162.58C425.298 157.58 418.858 154.03 412.548 158.9C399.928 168.63 412.278 191.15 419.618 199.54C420.018 200 420.618 199.42 420.408 198.93C417.527 193.236 415.228 187.266 413.548 181.11C419.488 163.483 425.178 160.89 430.618 173.33C432.338 176.11 436.948 175.07 436.898 171.63C436.808 165.13 437.768 138.41 455.768 151.95C456.638 152.6 459.248 159.95 459.628 160.67C460.848 163.1 463.978 162.98 465.778 161.46C471.148 156.95 473.528 151.68 476.188 145.33C479.128 138.33 481.188 126.15 489.988 123.79L513.528 129.79C514.195 133.416 514.831 137.053 515.438 140.7C516.028 144.2 520.798 142.89 521.138 139.93C522.918 124.36 515.418 110.38 498.098 112.68Z" fill="#542B24"/>
</g>
<g style="mix-blend-mode:multiply" opacity="0.33">
<path d="M77.1598 342.15C77.4898 341.69 76.7398 341.15 76.3698 341.54C55.1098 366.54 20.7498 450.03 66.9498 468.36C68.3498 468.91 68.9498 467.04 68.2398 466.14C41.1398 431.14 52.8198 376.71 77.1598 342.15Z" fill="#542B24"/>
</g>
<g style="mix-blend-mode:multiply" opacity="0.33">
<path d="M315.011 54.9398C307.701 42.1698 298.301 40.6298 285.701 48.4898C276.201 54.3798 273.231 63.3698 266.701 71.4898C261.251 78.2998 258.771 77.9798 252.561 83.3198C240.901 93.3198 234.871 106.09 219.161 112.32C210.751 115.66 204.061 113.98 197.411 120.84C178.471 140.37 199.511 149.45 162.851 168.42C150.791 174.66 142.011 175.2 131.961 185.07C130.021 186.98 132.091 189.58 134.381 189.24L142.991 187.95C143.911 187.82 143.871 186.3 142.991 186.13C144.641 186.45 178.271 170.13 182.611 166.49C190.611 159.71 191.161 152.63 195.491 143.6C209.961 113.42 212.391 126.74 232.721 115.19C244.001 108.78 251.391 86.5098 266.371 88.1898C267.154 88.1917 267.916 87.9363 268.539 87.4629C269.162 86.9895 269.613 86.3244 269.821 85.5698C271.671 76.2998 292.521 33.7498 309.611 58.0498C311.871 61.3998 317.071 58.5198 315.011 54.9398Z" fill="#542B24"/>
</g>
<g style="mix-blend-mode:multiply" opacity="0.33">
<path d="M631.97 697.8C616.13 691.27 609.71 705.8 601.31 715.8C593.16 708.8 583.76 702.9 572.66 706.8C561.56 710.7 553.74 722.51 548.16 732.45C543.57 740.62 529.69 773.32 552.16 766.89C552.426 766.89 552.68 766.785 552.867 766.597C553.055 766.409 553.16 766.155 553.16 765.89C553.16 765.625 553.055 765.37 552.867 765.183C552.68 764.995 552.426 764.89 552.16 764.89C537.68 760.59 551.16 740.35 555.72 733.17C557.908 729.536 560.443 726.123 563.29 722.98C574.82 710.8 587.44 713.85 598.66 724.64C599.46 725.409 600.526 725.839 601.635 725.839C602.745 725.839 603.811 725.409 604.61 724.64C607.67 721.78 611.29 714.11 614.61 712.09L633.84 711.21C634.61 713.21 635.39 715.21 636.16 717.21C637.33 720.9 636.31 726.91 635.92 730.86C635.55 734.58 640.64 735.16 642.39 732.61C650.09 721.44 644.84 703.11 631.97 697.8Z" fill="#542B24"/>
</g>
<g style="mix-blend-mode:multiply" opacity="0.33">
<path d="M413.969 566.11C400.259 561.52 391.499 571.62 390.299 583.41C379.299 581.68 372.059 590.53 369.629 603.07C367.359 614.77 364.509 638.87 375.629 646.94C375.963 647.133 376.337 647.246 376.722 647.272C377.106 647.298 377.492 647.236 377.849 647.091C378.206 646.945 378.525 646.72 378.781 646.432C379.038 646.144 379.225 645.801 379.329 645.43C381.419 636.15 372.059 583.8 393.069 594.91C393.947 595.387 394.944 595.6 395.94 595.521C396.936 595.443 397.888 595.077 398.68 594.468C399.472 593.859 400.07 593.034 400.402 592.091C400.734 591.149 400.785 590.131 400.549 589.16C398.149 579.75 404.349 571.72 414.139 575.92C420.469 578.64 422.719 583.05 425.139 589.47C427.242 594.802 428.865 600.31 429.989 605.93C430.035 606.088 430.131 606.227 430.263 606.326C430.394 606.425 430.554 606.479 430.719 606.479C430.884 606.479 431.044 606.425 431.176 606.326C431.307 606.227 431.403 606.088 431.449 605.93C435.119 591.47 429.699 571.35 413.969 566.11Z" fill="#542B24"/>
</g>
<g style="mix-blend-mode:multiply" opacity="0.33">
<path d="M455.361 608.15C452.532 605.109 448.662 603.245 444.521 602.93C440.871 602.76 434.971 604.71 434.141 608.77C434.086 608.987 434.089 609.215 434.148 609.431C434.207 609.647 434.321 609.845 434.479 610.004C434.637 610.163 434.834 610.278 435.05 610.339C435.265 610.399 435.493 610.403 435.711 610.35C438.571 609.84 440.381 607.96 443.521 608.35C445.94 608.61 448.205 609.665 449.961 611.35C450.961 612.35 452.751 614.35 452.331 615.96C451.841 617.83 448.551 618.21 447.031 618.64C446.487 618.786 445.99 619.072 445.592 619.471C445.193 619.869 444.907 620.366 444.761 620.91C444.611 621.477 444.611 622.073 444.761 622.64C444.965 623.316 445.378 623.91 445.94 624.337C446.502 624.765 447.185 625.004 447.891 625.02C457.751 624.93 462.101 615.36 455.361 608.15Z" fill="#542B24"/>
</g>
<g style="mix-blend-mode:multiply" opacity="0.33">
<path d="M636.44 777.11C618.02 782.11 597.08 781.66 581.06 793.29C568.77 802.2 557.21 818.83 554.78 833.87C554.37 836.35 557.08 838.24 559.1 836.38C570.57 825.84 574.25 809.9 587.1 799.98C602.1 788.42 622.1 789.61 637.2 778.84C637.352 778.699 637.457 778.514 637.499 778.31C637.541 778.107 637.519 777.895 637.435 777.705C637.352 777.514 637.211 777.355 637.033 777.248C636.854 777.142 636.647 777.094 636.44 777.11Z" fill="#542B24"/>
</g>
<g style="mix-blend-mode:multiply" opacity="0.33">
<path d="M634.001 796.49C621.101 794.89 608.081 798.21 598.001 806.73C590.001 813.47 580.061 829.12 587.001 839.33C587.132 839.543 587.316 839.719 587.535 839.841C587.754 839.963 588 840.027 588.251 840.027C588.501 840.027 588.747 839.963 588.966 839.841C589.185 839.719 589.369 839.543 589.501 839.33C592.501 834.92 592.311 829.55 594.131 824.62C596.084 819.284 599.38 814.541 603.701 810.85C612.201 803.58 623.591 800.26 634.121 797.23C634.206 797.201 634.278 797.143 634.325 797.066C634.371 796.989 634.389 796.898 634.374 796.809C634.36 796.721 634.314 796.64 634.246 796.581C634.177 796.523 634.091 796.491 634.001 796.49V796.49Z" fill="#542B24"/>
</g>
<g style="mix-blend-mode:multiply" opacity="0.33">
<path d="M644.939 811.49C644.769 811.35 644.419 811.49 644.519 811.74C649.519 824.53 636.859 832.8 626.689 837.53C621.449 839.96 615.979 842.15 610.549 844.1C607.299 845.27 602.549 846.1 600.639 849.31C600.272 849.946 600.17 850.701 600.358 851.411C600.545 852.121 601.006 852.729 601.639 853.1C606.169 855.2 612.129 851.73 616.289 849.98C623.702 846.883 630.724 842.922 637.209 838.18C645.559 832.04 655.839 820.38 644.939 811.49Z" fill="#542B24"/>
</g>
<g style="mix-blend-mode:multiply" opacity="0.33">
<path d="M626.238 772.09C604.008 757.57 568.088 778.73 551.458 793.48C532.758 810.06 516.638 841.48 539.908 861.33C541.068 862.33 543.418 861.41 542.758 859.68C522.958 807.44 582.388 776.34 625.918 773.27C626.055 773.265 626.186 773.217 626.293 773.132C626.4 773.047 626.477 772.93 626.513 772.798C626.549 772.666 626.541 772.526 626.492 772.399C626.442 772.271 626.354 772.163 626.238 772.09V772.09Z" fill="#542B24"/>
</g>
<g style="mix-blend-mode:multiply" opacity="0.33">
<path d="M455.3 739.93C444.78 746.15 427.54 783.12 413.4 771.41C410.99 769.41 407.32 770.03 406.4 773.27C401.68 789.27 393.64 803.17 373.61 796.1C365.14 793.1 361.08 788.38 354.18 783.19C353.97 783.03 353.72 783.33 353.84 783.53C362.02 797.19 370.25 808.29 388.19 805.01C402.02 802.48 408.54 792.45 412.85 780.53C431.78 788.13 454.43 758.53 458.3 742.21C458.425 741.817 458.425 741.394 458.3 741.001C458.176 740.607 457.933 740.262 457.604 740.012C457.275 739.762 456.877 739.62 456.465 739.606C456.052 739.591 455.645 739.704 455.3 739.93Z" fill="#542B24"/>
</g>
<g style="mix-blend-mode:multiply" opacity="0.33">
<path d="M553.392 705.52C549.122 694.34 541.392 693.11 531.792 701.08C523.742 707.8 521.552 717.7 519.982 727.59C519.542 730.38 517.902 749.08 513.382 750.28C511.732 750.71 508.612 744.17 505.992 745.28C496.352 749.21 491.482 751.15 493.912 764.48C495.572 773.64 499.122 778.58 498.862 788.76C498.602 798.94 497.262 804.76 492.382 813.29C482.782 830.06 463.052 849.78 444.692 830.07C444.142 829.48 443.232 830.23 443.602 830.91C462.162 864.74 498.452 827.57 506.382 803.91C510.692 791.03 507.032 783.21 505.992 770.56C503.622 741.56 506.852 764.32 514.272 761.04C517.402 759.65 520.602 759.42 523.482 756.14C526.192 753.04 526.482 748.14 527.402 744.37C527.722 742.14 528.022 739.91 528.322 737.68C526.555 724 532.262 714.417 545.442 708.93C547.752 713.09 555.192 710.21 553.392 705.52Z" fill="#542B24"/>
</g>
<g style="mix-blend-mode:multiply" opacity="0.33">
<path d="M835.558 186.84C829.558 187.92 823.988 192.84 819.938 197.06C814.81 202.371 810.485 208.401 807.098 214.96C805.098 218.9 801.248 225.71 804.438 229.91C804.608 230.189 804.838 230.425 805.111 230.603C805.385 230.781 805.694 230.895 806.018 230.938C806.341 230.98 806.67 230.949 806.98 230.847C807.29 230.746 807.573 230.576 807.808 230.35C810.258 227.62 810.718 223.44 812.138 220.14C814.583 214.684 817.74 209.576 821.528 204.95C824.738 200.95 828.528 196.69 832.858 193.95C835.858 192.02 840.248 192.12 842.858 190.21C842.924 190.171 842.979 190.115 843.018 190.049C843.056 189.982 843.077 189.907 843.078 189.83C842.698 186.63 837.948 186.41 835.558 186.84Z" fill="#542B24"/>
</g>
<g style="mix-blend-mode:screen" opacity="0.57">
<path d="M549.93 164.63C547.42 150.77 538.93 140.35 524.72 147.99C522.06 149.43 523.16 154.13 526.31 153.87C560.43 151.09 533.2 218.36 523.31 229.02C506.25 247.32 482.9 245.22 460.94 238.94C437.64 232.27 427.07 220 415.17 200.2C414.74 199.49 413.77 200.11 414.08 200.84C427.08 230.79 444.25 243.01 477.17 248.94C501.17 253.25 520.87 246.94 535.04 226.47C546.64 209.73 553.7 185.17 549.93 164.63Z" fill="#C6BDBA"/>
</g>
<g style="mix-blend-mode:screen" opacity="0.57">
<path d="M217.408 321.9C214.668 320.76 212.928 325.21 215.408 326.63C265.628 355.44 233.678 434.98 184.188 392.46C183.837 392.129 183.417 391.881 182.958 391.733C182.499 391.584 182.013 391.54 181.534 391.602C181.056 391.664 180.598 391.831 180.192 392.092C179.786 392.353 179.443 392.701 179.188 393.11L159.118 397.11C157.798 394.94 154.058 395.16 153.458 397.85C148.588 419.85 141.138 441.95 127.948 460.42C91.6981 511.17 40.4981 475.41 33.6981 428.03C33.6981 427.96 33.5781 427.97 33.5781 428.03C34.8081 463.28 63.4281 507.3 103.888 490.43C124.168 481.98 137.218 459.72 145.888 440.86C148.948 434.24 152.668 410.98 157.548 407.68C157.238 407.89 167.208 411.05 165.938 411.68C171.738 408.76 180.428 402.85 186.218 402.68C201.918 402.2 212.568 413.12 230.788 405.68C276.598 387.06 251.768 336.31 217.408 321.9Z" fill="#C6BDBA"/>
</g>
<g style="mix-blend-mode:screen" opacity="0.57">
<path d="M512.972 626.86C512.877 626.545 512.683 626.269 512.419 626.073C512.155 625.877 511.835 625.771 511.507 625.771C511.178 625.771 510.858 625.877 510.594 626.073C510.33 626.269 510.136 626.545 510.042 626.86C507.042 638.01 508.762 650.46 502.992 660.86C496.292 672.96 483.522 671.01 475.612 661.78C475.532 661.703 475.435 661.648 475.328 661.62C475.221 661.592 475.109 661.592 475.002 661.621C474.896 661.649 474.798 661.704 474.719 661.781C474.64 661.858 474.582 661.954 474.552 662.06C472.432 676.44 492.882 677.72 501.502 671.92C514.022 663.53 515.812 640.22 512.972 626.86Z" fill="#C6BDBA"/>
</g>
<g style="mix-blend-mode:screen" opacity="0.57">
<path d="M486.439 693.48C472.679 668.9 447.879 683.2 445.019 705.57C429.629 704.48 402.019 713.82 414.369 732.38C414.396 732.43 414.439 732.469 414.491 732.492C414.544 732.514 414.602 732.518 414.656 732.503C414.711 732.488 414.759 732.454 414.792 732.408C414.825 732.362 414.842 732.307 414.839 732.25C415.059 714.4 431.049 707 447.149 712.51C447.642 712.641 448.159 712.658 448.659 712.559C449.16 712.46 449.631 712.248 450.037 711.939C450.443 711.631 450.773 711.233 451.002 710.778C451.232 710.322 451.354 709.82 451.359 709.31C451.449 701.41 453.269 692.48 460.919 688.5C469.829 683.87 476.919 689.7 483.069 696.08C484.779 697.85 487.619 695.63 486.439 693.48Z" fill="#C6BDBA"/>
</g>
<g style="mix-blend-mode:screen" opacity="0.57">
<path d="M620.28 543.5C620.08 542.12 618.2 542.67 618.05 543.81C615.19 565.73 614.65 587.09 599.93 605.12C586.84 621.12 559.88 633.12 538.58 629.41C537.87 629.28 537.58 630.31 538.28 630.5C589.52 643.88 626.89 589.27 620.28 543.5Z" fill="#C6BDBA"/>
</g>
<g style="mix-blend-mode:screen" opacity="0.57">
<path d="M332.549 69.63C325.779 100.26 288.549 137.98 254.369 118.39C254.086 118.233 253.772 118.141 253.45 118.121C253.127 118.102 252.804 118.155 252.504 118.277C252.205 118.399 251.937 118.586 251.719 118.826C251.502 119.065 251.341 119.35 251.249 119.66L210.339 142.63C209.845 142.511 209.324 142.584 208.882 142.834C208.44 143.085 208.11 143.495 207.959 143.98C201.709 161.66 167.039 222.1 134.959 196.24C134.875 196.158 134.763 196.112 134.645 196.113C134.528 196.114 134.416 196.161 134.334 196.245C134.252 196.329 134.206 196.441 134.207 196.559C134.208 196.676 134.255 196.788 134.339 196.87C146.909 211.68 169.599 200.02 182.459 190.37C195.809 180.37 200.549 160.13 213.279 152.83C221.419 148.16 229.629 151.32 238.349 146.1C247.299 140.75 248.979 129.29 259.349 126.19C269.879 123.04 280.059 129.44 293.059 123.86C314.449 114.67 333.689 93.75 335.219 70.02C335.271 69.6659 335.18 69.3058 334.966 69.0189C334.752 68.732 334.433 68.5417 334.079 68.49C333.725 68.4383 333.365 68.5293 333.078 68.7431C332.791 68.9569 332.601 69.2759 332.549 69.63V69.63Z" fill="#C6BDBA"/>
</g>
<g style="mix-blend-mode:screen" opacity="0.57">
<path d="M486.93 383.98C480.16 393.52 468.53 404.33 455.45 397.98C450.18 395.41 447.45 389.27 444.01 384.92C440.57 380.57 438.15 377.17 432.78 375.66C432.172 375.497 431.528 375.537 430.945 375.773C430.362 376.01 429.872 376.43 429.55 376.97C422.77 391.25 405.83 372.31 401.62 365.87C401.28 365.36 400.36 365.67 400.62 366.31C403.62 374.7 410.54 384.07 419.44 386.87C423.63 388.19 425.62 386.87 429.56 386.25C430.61 386.1 431.92 383.12 432.73 383.18C437.04 383.46 439.03 389.85 441 392.69C447.49 402.07 453.57 409.01 466 407.91C478.65 406.78 489.94 397.91 490.65 385C490.7 382.87 487.96 382.53 486.93 383.98Z" fill="#C6BDBA"/>
</g>
<g style="mix-blend-mode:screen" opacity="0.57">
<path d="M454.39 309.74C452.46 305.31 446.45 304.85 442.73 306.68C440.372 307.817 438.298 309.467 436.66 311.508C435.021 313.55 433.86 315.932 433.26 318.48C433.03 319.01 432.74 319.48 432.54 320.06C432.075 321.353 432.075 322.767 432.54 324.06C432.138 326.646 432.162 329.281 432.61 331.86C433.38 335.78 438.75 339.12 442.61 337.51C454.03 332.63 459.48 321.42 454.39 309.74Z" fill="#C6BDBA"/>
</g>
<g style="mix-blend-mode:screen" opacity="0.57">
<path d="M479.201 340.63C475.871 340.63 475.871 345.8 479.201 345.8C482.531 345.8 482.531 340.63 479.201 340.63Z" fill="#C6BDBA"/>
</g>
<g style="mix-blend-mode:screen" opacity="0.57">
<path d="M632.509 86.75C627.899 66.46 608.509 41.36 587.099 37.11C566.549 33.02 547.759 56.04 550.349 75.38C550.349 75.61 550.759 75.62 550.729 75.38C549.329 63.38 555.639 51.14 565.619 44.38C581.519 33.62 595.029 40.7 607.009 51.48C616.769 60.27 625.009 70.11 628.869 82.83C633.349 97.44 632.319 113.76 623.089 126.32C611.559 142 592.029 146.86 577.889 132.2C569.449 123.46 564.589 110.28 563.999 98.29C563.299 84.17 572.149 44.29 597.829 69.69C605.399 77.17 611.159 109.4 598.949 116.07C590.089 120.92 578.159 104.4 582.379 96.85C590.459 82.37 592.089 96.92 593.739 101.29C593.85 101.588 594.068 101.833 594.35 101.978C594.633 102.123 594.96 102.157 595.266 102.073C595.572 101.989 595.836 101.793 596.005 101.524C596.174 101.255 596.236 100.932 596.179 100.62C594.829 93.87 591.879 76.52 581.939 85.24C574.039 92.17 579.249 116.58 587.939 121.11C612.169 133.79 617.789 61.72 586.089 55.76C570.509 52.83 563.489 73.94 561.159 85.63C557.799 102.5 563.009 122.49 575.229 134.87C586.529 146.32 601.709 147.43 614.899 138.42C631.699 126.95 636.839 105.82 632.509 86.75Z" fill="#C6BDBA"/>
</g>
</svg>
